# 
# Wavefront OBJ file
# Converted by the DEEP Exploration Deep Exploration 5 5.0.2.1477 Release
# Right Hemisphere, LTD
# http://www.righthemisphere.com/
# 
mtllib jungle_tankbase_1.mtl
# object jungle_tankbase_1
g jungle_tankbase_1
v -5.00000 -0.00000 -5.00000
v -5.00000 11.00000 1.00000
v 1.00000 11.00000 -5.00000
v -5.00000 11.00000 -5.00000
v -5.00000 7.00000 -5.00000
v -5.00000 0.00000 1.00000
v -5.00000 7.00000 1.00000
v 1.00000 -0.00000 -5.00000
v 1.00000 7.00000 -5.00000
v -3.00000 0.00000 2.00000
v -3.00000 5.00000 2.00000
v -5.00000 0.00000 2.00000
v -5.00000 5.00000 2.00000
v -4.00000 6.00000 3.00000
v -4.00000 0.00000 3.00000
v -5.00000 0.00000 3.00000
v -5.00000 6.00000 3.00000
v -4.80000 2.00000 4.00000
v -4.80000 0.00000 4.00000
v -5.00000 0.00000 4.00000
v -5.00000 2.00000 4.00000
v 2.00000 -0.00000 -3.00000
v 2.00000 -0.00000 -5.00000
v 2.00000 5.00000 -3.00000
v 2.00000 5.00000 -5.00000
v 3.00000 -0.00000 -5.00000
v 3.00000 -0.00000 -4.00000
v 3.00000 6.00000 -4.00000
v 3.00000 6.00000 -5.00000
v 4.00000 -0.00000 -5.00000
v 4.00000 -0.00000 -4.82000
v 4.00000 2.00000 -4.82000
v 4.00000 2.00000 -5.00000
v 1.50000 9.00000 0.50000
v 1.50000 8.00000 0.50000
v 0.50000 8.00000 1.50000
v 0.50000 9.00000 1.50000
v -3.00000 11.00000 1.00000
v 1.00000 11.00000 -3.00000
v -3.00000 10.00000 1.00000
v 1.00000 10.00000 -3.00000
v -3.00000 0.00000 0.00000
v -3.00000 6.50000 -0.00000
v 0.00000 6.50000 -3.00000
v 0.00000 -0.00000 -3.00000
v -3.00000 0.00000 1.00000
v -3.00000 7.00000 1.00000
v 1.00000 -0.00000 -3.00000
v 1.00000 7.00000 -3.00000
v -5.00000 3.00000 5.00000
v -5.00000 0.00000 5.00000
v 5.00000 3.00000 -5.00000
v 5.00000 -0.00000 -5.00000
# 53 verticies
vt 0.45308 0.41570
vt 0.52486 0.41570
vt 0.66841 0.55925
vt 0.66841 0.63103
vt 0.45308 0.63103
vt 0.46638 0.26044
vt 0.24755 0.26044
vt 0.24755 0.40665
vt 0.46638 0.40665
vt 0.24755 0.00457
vt 0.46638 0.00457
vt 0.98610 0.26044
vt 0.76727 0.26044
vt 0.76727 0.40665
vt 0.98610 0.40665
vt 0.76727 0.00457
vt 0.98610 0.00457
vt 0.00450 0.40665
vt 0.00450 0.26044
vt 0.07650 0.26044
vt 0.07650 0.40665
vt 0.80252 0.63103
vt 0.80252 0.48748
vt 0.87403 0.48748
vt 0.87403 0.63103
vt 0.30322 0.59620
vt 0.30322 0.41573
vt 0.33645 0.41573
vt 0.33645 0.66839
vt 0.73080 0.00457
vt 0.73080 0.18733
vt 0.00450 0.18733
vt 0.07650 0.18733
vt 0.04050 0.14888
vt 0.04050 0.00457
vt 0.07650 0.00457
vt 0.69432 0.00457
vt 0.69432 0.22388
vt 0.88266 0.41495
vt 0.88266 0.44486
vt 0.91589 0.44486
vt 0.94912 0.41495
vt 0.44444 0.63103
vt 0.41121 0.48748
vt 0.41121 0.41570
vt 0.44444 0.41570
vt 0.37799 0.41570
vt 0.37799 0.52336
vt 0.65785 0.00457
vt 0.65785 0.07767
vt 0.62138 0.11423
vt 0.62138 0.00457
vt 0.00450 0.14888
vt 0.00450 0.00267
vt 0.01170 0.00267
vt 0.99299 0.03364
vt 0.99766 0.00374
vt 0.99299 0.00374
vt 0.14953 0.41573
vt 0.18578 0.41573
vt 0.18578 0.59620
vt 0.14953 0.66839
vt 0.80252 0.41570
vt 0.87403 0.41570
vt 0.50285 0.18733
vt 0.50285 0.00457
vt 0.22203 0.41573
vt 0.22203 0.63229
vt 0.91589 0.48598
vt 0.91589 0.51921
vt 0.88266 0.51921
vt 0.88266 0.45275
vt 0.53932 0.22388
vt 0.53932 0.00457
vt 0.25828 0.41573
vt 0.25828 0.48791
vt 0.29453 0.52401
vt 0.29453 0.41573
vt 0.94912 0.51323
vt 0.94912 0.51921
vt 0.98692 0.41822
vt 0.95701 0.41822
vt 0.95701 0.41355
vt 0.57579 0.07767
vt 0.57579 0.00457
vt 0.61226 0.00457
vt 0.61226 0.11423
vt 0.13749 0.33354
vt 0.13749 0.29699
vt 0.17349 0.29699
vt 0.17349 0.33354
vt 0.07650 0.37009
vt 0.22049 0.37009
vt 0.22049 0.40665
vt 0.67737 0.52336
vt 0.80252 0.59514
vt 0.67737 0.55925
vt 0.22049 0.26044
vt 0.36968 0.41573
vt 0.36968 0.65034
vt 0.07650 0.24216
vt 0.18449 0.24216
vt 0.11328 0.65034
vt 0.11328 0.41573
vt 0.11328 0.64891
vt 0.00453 0.65034
vt 0.00453 0.41573
# 107 texture verticies
vn 0.00000 1.00000 -0.00000
vn 0.00000 -0.00000 -1.00000
vn -1.00000 0.00000 0.00000
vn 0.00000 0.00000 1.00000
vn 0.00000 0.22975 0.97325
vn -0.04839 0.15304 0.98703
vn 1.00000 0.00000 0.00000
vn 0.97247 0.23018 -0.03639
vn 0.98827 0.15270 -0.00000
vn 0.00000 0.44721 0.89443
vn 0.70711 0.00000 0.70711
vn 0.75731 0.00000 0.65305
vn 0.73269 0.00000 0.68056
vn 0.00000 0.70711 -0.70711
vn 0.93760 0.00000 0.34772
vn 0.86931 0.00000 0.49427
vn 0.98058 0.00000 0.19612
vn 0.00000 0.24254 0.97014
vn 0.89443 0.44721 -0.00000
vn 0.67141 0.00000 0.74109
vn -0.70711 0.70711 -0.00000
vn 0.33914 0.00000 0.94073
vn 0.49593 0.00000 0.86836
vn 0.17715 0.00000 0.98418
vn 0.97014 0.24254 -0.00000
vn 0.23570 0.94281 0.23570
vn 0.98995 -0.00000 -0.14142
vn 0.23570 -0.94281 0.23570
vn 0.29571 -0.90836 0.29571
vn 0.35371 -0.86590 0.35371
vn -0.14142 0.00000 0.98995
vn 0.40825 -0.81650 0.40825
# 32 normals
usemtl jungle_tankbase_1
f  2/1/1 38/2/1 39/3/1 3/4/1 4/5/1
f  9/6/2 5/7/2 4/8/2 3/9/2
f  1/10/2 5/7/2 9/6/2 8/11/2
f  5/12/3 7/13/3 2/14/3 4/15/3
f  6/16/3 7/13/3 5/12/3 1/17/3
f  2/18/4 7/19/5 47/20/6 38/21/4
f  39/22/7 49/23/8 9/24/9 3/25/7
f  11/26/7 10/27/7 46/28/7 47/29/7
f  6/16/3 12/30/3 13/31/3 7/13/3
f  13/32/10 11/33/10 47/20/6 7/19/5
f  11/33/11 14/34/12 15/35/13 10/36/11
f  12/30/3 16/37/3 17/38/3 13/31/3
f  13/39/14 17/40/14 14/41/14 11/42/14
f  14/43/12 18/44/15 19/45/16 15/46/13
f  51/47/17 19/45/16 18/44/15 50/48/17
f  16/37/3 20/49/3 21/50/3 17/38/3
f  50/51/3 21/50/3 20/49/3 51/52/3
f  17/53/18 21/54/18 18/55/18 14/34/18
f  50/56/14 18/57/14 21/58/14
f  48/59/4 22/60/4 24/61/4 49/62/4
f  49/23/8 24/63/19 25/64/19 9/24/9
f  9/6/2 25/65/2 23/66/2 8/11/2
f  27/67/20 28/68/20 24/61/11 22/60/11
f  28/69/21 29/70/21 25/71/21 24/72/21
f  25/65/2 29/73/2 26/74/2 23/66/2
f  27/67/20 31/75/22 32/76/23 28/68/20
f  52/77/24 32/76/23 31/75/22 53/78/24
f  28/69/25 32/79/25 33/80/25 29/70/25
f  52/81/21 33/82/21 32/83/21
f  29/73/2 33/84/2 30/85/2 26/74/2
f  53/86/2 30/85/2 33/84/2 52/87/2
f  37/88/11 36/89/11 35/90/11 34/91/11
f  38/21/11 40/92/11 41/93/11 39/94/11
f  37/88/26 34/91/26 41/93/26 40/92/26
f  35/95/27 49/23/8 41/96/27 34/97/27
f  35/90/28 36/89/28 47/20/29 49/98/30
f  37/88/31 40/92/31 47/20/6 36/89/31
f  42/99/7 43/100/7 47/29/7 46/28/7
f  43/101/32 44/102/32 49/98/30 47/20/29
f  49/62/4 44/103/4 45/104/4 48/59/4
f  45/104/11 44/105/11 43/106/11 42/107/11
