# 
# Wavefront OBJ file
# Converted by the DEEP Exploration Deep Exploration 5 5.0.2.1477 Release
# Right Hemisphere, LTD
# http://www.righthemisphere.com/
# 
mtllib jungle_tree_2.mtl
# object jungle_tree_2
g jungle_tree_2
v -1.20000 0.00000 1.20000
v 1.20000 0.00000 1.20000
v 1.20000 0.00000 -1.20000
v -1.20000 0.00000 -1.20000
v -0.60000 9.60000 0.60000
v 0.60000 9.60000 0.60000
v 0.60000 9.60000 -0.60000
v -0.60000 9.60000 -0.60000
v 0.30000 0.00000 1.10000
v -0.30000 0.00000 1.10000
v 0.30000 0.60000 1.10000
v -0.30000 0.60000 1.10000
v -0.00000 0.00000 2.30000
v 0.30000 0.00000 -1.10000
v -0.30000 0.00000 -1.10000
v 0.30000 0.60000 -1.10000
v -0.30000 0.60000 -1.10000
v -0.00000 0.00000 -2.30000
v 1.10000 0.00000 -0.30000
v 1.10000 0.00000 0.30000
v 1.10000 0.60000 -0.30000
v 1.10000 0.60000 0.30000
v 2.30000 0.00000 0.00000
v -1.10000 0.00000 -0.30000
v -1.10000 0.00000 0.30000
v -1.10000 0.60000 -0.30000
v -1.10000 0.60000 0.30000
v -2.30000 0.00000 0.00000
v 1.45592 9.73462 -1.53567
v 4.90780 9.73462 -1.53567
v 4.90780 9.73462 -4.98754
v 1.45592 9.73462 -4.98754
v 1.45592 13.18649 -1.53567
v 4.90780 13.18649 -1.53567
v 4.90780 13.18649 -4.98754
v 1.45592 13.18649 -4.98754
v -3.00000 8.59998 3.00000
v 3.00000 8.59998 3.00000
v 3.00000 8.59998 -3.00000
v -3.00000 8.59998 -3.00000
v -3.00000 14.59998 3.00000
v 3.00000 14.59998 3.00000
v 3.00000 14.59998 -3.00000
v -3.00000 14.59998 -3.00000
v 1.67600 7.40217 6.24900
v 5.93600 7.40217 6.24900
v 5.93600 7.40217 1.98900
v 1.67600 7.40217 1.98900
v 1.67600 11.66217 6.24900
v 5.93600 11.66217 6.24900
v 5.93600 11.66217 1.98900
v 1.67600 11.66217 1.98900
v -5.45052 8.03106 1.56877
v -2.34072 8.03106 1.56877
v -2.34072 8.03106 -1.54103
v -5.45052 8.03106 -1.54103
v -5.45052 11.14086 1.56877
v -2.34072 11.14086 1.56877
v -2.34072 11.14086 -1.54103
v -5.45052 11.14086 -1.54103
# 60 verticies
vt 0.46036 0.00356
vt 0.43308 0.38775
vt 0.37852 0.38775
vt 0.35124 0.00356
vt 0.22847 0.00356
vt 0.20119 0.38775
vt 0.14663 0.38775
vt 0.11935 0.00356
vt 0.03069 0.38775
vt 0.08525 0.38775
vt 0.11253 0.00356
vt 0.00341 0.00356
vt 0.26257 0.38775
vt 0.31714 0.38775
vt 0.34442 0.00356
vt 0.23529 0.00356
vt 0.81481 0.11884
vt 0.81481 0.14203
vt 0.86634 0.11884
vt 0.87246 0.15652
vt 0.89565 0.15652
vt 0.89565 0.13333
vt 0.87246 0.13333
vt 0.80837 0.11884
vt 0.75684 0.14203
vt 0.75684 0.11884
vt 0.95330 0.11594
vt 0.90177 0.12754
vt 0.90177 0.10435
vt 0.29339 0.86603
vt 0.57618 0.86603
vt 0.57618 0.58324
vt 0.29339 0.58324
vt 0.28632 0.39484
vt 0.28632 0.67762
vt 0.00353 0.67762
vt 0.00353 0.39484
vt 0.86603 0.58324
vt 0.86603 0.86603
vt 0.58324 0.86603
vt 0.58324 0.58324
vt 0.00353 0.96748
vt 0.28632 0.96748
vt 0.28632 0.68469
vt 0.00353 0.68469
vt 0.46730 0.57618
vt 0.75009 0.57618
vt 0.75009 0.29339
vt 0.46730 0.29339
vt 0.75009 0.00353
vt 0.75009 0.28632
vt 0.46730 0.28632
vt 0.46730 0.00353
vt 0.46730 0.57422
# 54 texture verticies
vn 0.00000 0.06238 0.99805
vn 0.99805 0.06238 -0.00000
vn 0.00000 0.06238 -0.99805
vn -0.99805 0.06238 -0.00000
vn 0.97014 0.00000 0.24254
vn 0.00000 -0.00000 -1.00000
vn -0.97014 0.00000 0.24254
vn 0.00000 0.89443 0.44721
vn 0.97014 -0.00000 -0.24254
vn -0.97014 -0.00000 -0.24254
vn 0.00000 0.89443 -0.44721
vn 0.24254 -0.00000 -0.97014
vn 0.24254 0.00000 0.97014
vn 0.44721 0.89443 -0.00000
vn -0.24254 -0.00000 -0.97014
vn -0.24254 0.00000 0.97014
vn -0.44721 0.89443 -0.00000
vn 0.00000 -1.00000 0.00000
vn 0.00000 0.00000 1.00000
vn 1.00000 0.00000 0.00000
vn -1.00000 0.00000 0.00000
vn 0.00000 1.00000 -0.00000
# 22 normals
usemtl jungle_tree_1
f  2/1/1 6/2/1 5/3/1 1/4/1
f  3/5/2 7/6/2 6/7/2 2/8/2
f  8/9/3 7/10/3 3/11/3 4/12/3
f  5/13/4 8/14/4 4/15/4 1/16/4
f  9/17/5 11/18/5 13/19/5
f  12/20/6 11/21/6 9/22/6 10/23/6
f  13/24/7 12/25/7 10/26/7
f  13/27/8 11/28/8 12/29/8
f  16/18/9 14/17/9 18/19/9
f  17/25/10 18/24/10 15/26/10
f  16/28/11 18/27/11 17/29/11
f  19/17/12 21/18/12 23/19/12
f  23/24/13 22/25/13 20/26/13
f  23/27/14 21/28/14 22/29/14
f  26/18/15 24/17/15 28/19/15
f  27/25/16 28/24/16 25/26/16
f  26/28/17 28/27/17 27/29/17
f  32/30/18 31/31/18 30/32/18 29/33/18
f  30/34/19 34/35/19 33/36/19 29/37/19
f  31/38/20 35/39/20 34/40/20 30/41/20
f  36/42/6 35/43/6 31/44/6 32/45/6
f  33/46/21 36/47/21 32/48/21 29/49/21
f  34/50/22 35/51/22 36/52/22 33/53/22
f  40/30/18 39/31/18 38/32/18 37/33/18
f  38/34/19 42/35/19 41/36/19 37/37/19
f  39/38/20 43/39/20 42/40/20 38/41/20
f  44/42/6 43/43/6 39/44/6 40/45/6
f  41/46/21 44/47/21 40/48/21 37/49/21
f  42/50/22 43/51/22 44/52/22 41/53/22
f  48/30/18 47/31/18 46/32/18 45/33/18
f  46/34/19 50/35/19 49/36/19 45/37/19
f  47/38/20 51/39/20 50/40/20 46/41/20
f  52/42/6 51/43/6 47/44/6 48/45/6
f  49/46/21 52/47/21 48/48/21 45/49/21
f  50/50/22 51/51/22 52/52/22 49/53/22
f  56/30/18 55/31/18 54/32/18 53/33/18
f  54/34/19 58/35/19 57/36/19 53/37/19
f  55/38/20 59/39/20 58/40/20 54/41/20
f  60/42/6 59/43/6 55/44/6 56/45/6
f  57/54/21 60/47/21 56/48/21 53/49/21
f  58/50/22 59/51/22 60/52/22 57/53/22
