# 
# Wavefront OBJ file
# Converted by the DEEP Exploration Deep Exploration 5 5.0.2.1477 Release
# Right Hemisphere, LTD
# http://www.righthemisphere.com/
# 
mtllib jungle_rock_3.mtl
# object jungle_rock_3
g jungle_rock_3
v -1.40000 0.00000 1.85000
v 1.40000 0.00000 1.85000
v 1.40000 0.00000 -1.85000
v -1.40000 0.00000 -1.85000
v -1.00000 1.93333 1.45000
v 1.10000 1.93333 1.55000
v 1.00000 2.13333 -1.55000
v -1.00000 2.13333 -1.45000
v -1.40000 4.66667 1.85000
v 1.40000 4.66667 1.85000
v 1.40000 4.66667 -1.85000
v -1.40000 4.66667 -1.85000
v -1.10000 6.80000 1.15000
v 0.90000 7.20000 1.15000
v 0.90000 7.00000 -0.95000
v -1.10000 6.70000 -1.25000
# 16 verticies
vt 0.19898 0.01674
vt 0.17930 0.15160
vt 0.04155 0.15160
vt 0.01531 0.01674
vt 0.48413 0.01674
vt 0.46353 0.16555
vt 0.25075 0.15160
vt 0.23016 0.01674
vt 0.54155 0.16980
vt 0.67274 0.16980
vt 0.69898 0.01674
vt 0.51531 0.01674
vt 0.75761 0.15953
vt 0.95667 0.17430
vt 0.98413 0.01674
vt 0.73016 0.01674
vt 0.19898 0.34226
vt 0.01531 0.34226
vt 0.48413 0.34226
vt 0.23016 0.34226
vt 0.51531 0.35156
vt 0.69898 0.35156
vt 0.73016 0.36141
vt 0.98413 0.36141
vt 0.16618 0.51897
vt 0.03499 0.49107
vt 0.42235 0.50502
vt 0.27821 0.51897
vt 0.53499 0.49745
vt 0.66618 0.51897
vt 0.77821 0.51897
vt 0.94294 0.51159
vt 0.16369 0.54688
vt 0.16369 0.68080
vt 0.01488 0.69940
vt 0.01488 0.55060
# 36 texture verticies
vn -0.02354 0.17444 0.98439
vn -0.03164 -0.03849 0.99876
vn -0.03175 0.06658 0.99728
vn 0.00000 0.20261 0.97926
vn 0.98537 0.17016 -0.00981
vn 0.99950 -0.02491 -0.01971
vn 0.99667 0.07917 -0.01965
vn 0.98817 0.15334 -0.00000
vn -0.03333 0.05091 -0.99815
vn -0.03321 -0.05077 -0.99816
vn -0.02477 0.15724 -0.98725
vn 0.00000 0.18429 -0.98287
vn -0.99668 0.08144 0.00090
vn -0.99922 -0.03960 0.00090
vn -0.98131 0.19232 0.00628
vn -0.97926 0.20261 -0.00000
vn -0.01742 0.15589 0.98762
vn -0.01603 0.01749 0.99972
vn 0.99625 0.08619 -0.00700
vn 0.99966 -0.02265 -0.01310
vn -0.01677 0.00070 -0.99986
vn 0.02817 0.18427 -0.98247
vn -0.99854 -0.05386 -0.00333
vn -0.99902 0.04412 -0.00207
vn -0.05131 0.25656 0.96516
vn -0.02568 0.28438 0.95837
vn 0.97593 0.21710 -0.02068
vn 0.97862 0.20539 -0.01034
vn 0.04132 0.32917 -0.94337
vn 0.08247 0.37398 -0.92376
vn -0.98965 0.14350 -0.00308
vn -0.98901 0.14774 -0.00616
vn -0.16506 0.98398 -0.06745
vn -0.13389 0.98653 -0.09396
vn -0.19595 0.97976 -0.04082
# 35 normals
usemtl jungle_rock_3
f  2/1/1 6/2/2 5/3/3 1/4/4
f  3/5/5 7/6/6 6/7/7 2/8/8
f  8/9/9 7/10/10 3/11/11 4/12/12
f  5/13/13 8/14/14 4/15/15 1/16/16
f  6/2/2 10/17/17 9/18/18 5/3/3
f  7/6/6 11/19/19 10/20/20 6/7/7
f  12/21/21 11/22/22 7/10/10 8/9/9
f  9/23/23 12/24/24 8/14/14 5/13/13
f  10/17/17 14/25/25 13/26/26 9/18/18
f  11/19/19 15/27/27 14/28/28 10/20/20
f  16/29/29 15/30/30 11/22/22 12/21/21
f  13/31/31 16/32/32 12/24/24 9/23/23
f  14/33/33 15/34/34 16/35/33 13/36/35
