# 
# Wavefront OBJ file
# Converted by the DEEP Exploration Deep Exploration 5 5.0.2.1477 Release
# Right Hemisphere, LTD
# http://www.righthemisphere.com/
# 
mtllib jungle_piece_1.mtl
# object jungle_piece_1
g jungle_piece_1
v -1.20000 0.00000 1.20000
v 1.20000 0.00000 1.20000
v 1.20000 -0.00000 -1.20000
v -1.20000 -0.00000 -1.20000
v -1.20000 3.00000 1.20000
v 1.20000 3.00000 1.20000
v 1.20000 3.00000 -1.20000
v -1.20000 3.00000 -1.20000
v 0.30000 0.00000 1.15000
v -0.30000 0.00000 1.15000
v 0.30000 0.60000 1.15000
v -0.30000 0.60000 1.15000
v -0.00000 0.00000 2.35000
v 0.30000 0.00000 -1.15000
v -0.30000 0.00000 -1.15000
v 0.30000 0.60000 -1.15000
v -0.30000 0.60000 -1.15000
v -0.00000 0.00000 -2.35000
v 1.15000 0.00000 -0.30000
v 1.15000 0.00000 0.30000
v 1.15000 0.60000 -0.30000
v 1.15000 0.60000 0.30000
v 2.35000 0.00000 0.00000
v -1.15000 0.00000 -0.30000
v -1.15000 0.00000 0.30000
v -1.15000 0.60000 -0.30000
v -1.15000 0.60000 0.30000
v -2.35000 0.00000 0.00000
# 28 verticies
vt 0.31481 0.01894
vt 0.31481 0.39773
vt 0.01852 0.39773
vt 0.01852 0.01894
vt 0.64815 0.01894
vt 0.64815 0.39773
vt 0.35185 0.39773
vt 0.35185 0.01894
vt 0.68519 0.39773
vt 0.98148 0.39773
vt 0.98148 0.01894
vt 0.68519 0.01894
vt 0.01852 0.81439
vt 0.31481 0.81439
vt 0.31481 0.43561
vt 0.01852 0.43561
vt 0.64815 0.43519
vt 0.64815 0.73148
vt 0.35185 0.73148
vt 0.35185 0.43519
vt 0.68333 0.43056
vt 0.68333 0.48611
vt 0.81667 0.43056
vt 0.98333 0.43056
vt 0.85000 0.48611
vt 0.85000 0.43056
vt 0.81667 0.54167
vt 0.68333 0.56944
vt 0.68333 0.51389
vt 0.68333 0.56661
# 30 texture verticies
vn 0.00000 0.00000 1.00000
vn 1.00000 0.00000 0.00000
vn 0.00000 -0.00000 -1.00000
vn -1.00000 0.00000 0.00000
vn 0.00000 1.00000 -0.00000
vn 0.97014 0.00000 0.24254
vn -0.97014 0.00000 0.24254
vn 0.00000 0.89443 0.44721
vn 0.97014 -0.00000 -0.24254
vn -0.97014 -0.00000 -0.24254
vn 0.00000 0.89443 -0.44721
vn 0.24254 -0.00000 -0.97014
vn 0.24254 0.00000 0.97014
vn 0.44721 0.89443 -0.00000
vn -0.24254 -0.00000 -0.97014
vn -0.24254 0.00000 0.97014
vn -0.44721 0.89443 -0.00000
# 17 normals
usemtl jungle_piece_1
f  2/1/1 6/2/1 5/3/1 1/4/1
f  3/5/2 7/6/2 6/7/2 2/8/2
f  8/9/3 7/10/3 3/11/3 4/12/3
f  5/13/4 8/14/4 4/15/4 1/16/4
f  6/17/5 7/18/5 8/19/5 5/20/5
f  9/21/6 11/22/6 13/23/6
f  13/24/7 12/25/7 10/26/7
f  13/27/8 11/28/8 12/29/8
f  16/22/9 14/21/9 18/23/9
f  17/25/10 18/24/10 15/26/10
f  16/28/11 18/27/11 17/29/11
f  19/21/12 21/22/12 23/23/12
f  23/24/13 22/25/13 20/26/13
f  23/27/14 21/28/14 22/29/14
f  26/22/15 24/21/15 28/23/15
f  27/25/16 28/24/16 25/26/16
f  26/30/17 28/27/17 27/29/17
