# 
# Wavefront OBJ file
# Converted by the DEEP Exploration Deep Exploration 5 5.0.2.1477 Release
# Right Hemisphere, LTD
# http://www.righthemisphere.com/
# 
mtllib jungle_rock_1.mtl
# object jungle_rock_1
g jungle_rock_1
v -2.00000 -0.00000 2.00000
v 2.00000 -0.00000 2.00000
v 2.00000 -0.00000 -2.00000
v -2.00000 -0.00000 -2.00000
v -1.80000 2.56667 1.60000
v 1.80000 2.36667 1.50000
v 1.60000 2.36667 -1.60000
v -1.70000 2.56667 -1.40000
v -2.00000 5.33333 2.00000
v 2.00000 5.33333 2.00000
v 2.00000 5.33333 -2.00000
v -2.00000 5.33333 -2.00000
v -1.30000 7.00000 1.10000
v 1.10000 7.50000 1.10000
v 1.10000 7.80000 -1.30000
v -1.30000 7.20000 -1.10000
# 16 verticies
vt 0.23864 0.58333
vt 0.22841 0.70286
vt 0.04432 0.71296
vt 0.03409 0.58333
vt 0.23864 0.03896
vt 0.21818 0.18082
vt 0.05966 0.18082
vt 0.03409 0.03896
vt 0.32216 0.19281
vt 0.49091 0.18082
vt 0.51136 0.03896
vt 0.30682 0.03896
vt 0.60000 0.19281
vt 0.75341 0.19281
vt 0.78409 0.03896
vt 0.57955 0.03896
vt 0.23864 0.85269
vt 0.03409 0.85269
vt 0.23864 0.35864
vt 0.03409 0.35864
vt 0.30682 0.35864
vt 0.51136 0.35864
vt 0.57955 0.35864
vt 0.78409 0.35864
vt 0.19261 0.96212
vt 0.06989 0.93687
vt 0.20284 0.50649
vt 0.08011 0.48851
vt 0.34261 0.47053
vt 0.46534 0.50649
vt 0.62557 0.45854
vt 0.73807 0.47053
vt 0.62557 0.48886
vt 0.74830 0.50649
# 34 texture verticies
vn 0.01941 0.18194 0.98312
vn 0.01977 -0.03323 0.99925
vn 0.01971 0.07491 0.99700
vn 0.00000 0.15399 0.98807
vn 0.99092 0.13067 -0.03174
vn 0.99907 -0.00445 -0.04295
vn 0.99673 0.06854 -0.04277
vn 0.99645 0.08421 -0.00000
vn -0.04163 0.05678 -0.99752
vn -0.04137 -0.06566 -0.99698
vn -0.02511 0.19309 -0.98086
vn 0.00000 0.22763 -0.97375
vn -0.99875 0.04484 -0.02218
vn -0.99960 -0.01723 -0.02222
vn -0.99478 0.10071 -0.01654
vn -0.99698 0.07769 -0.00000
vn -0.02579 0.23121 0.97256
vn 0.00981 -0.15395 0.98803
vn 0.97977 0.19961 0.01423
vn 0.99755 0.06636 -0.02203
vn -0.02520 0.02854 -0.99928
vn -0.04692 0.18046 -0.98246
vn -0.99729 0.07262 -0.01138
vn -0.97738 0.21122 0.01051
vn -0.07419 0.35611 0.93149
vn -0.03720 0.41680 0.90824
vn 0.00000 0.47515 0.87991
vn 0.94235 0.33205 0.04151
vn 0.93348 0.35804 0.02077
vn -0.06879 0.33197 -0.94078
vn -0.13643 0.22407 -0.96498
vn -0.93176 0.36275 0.01537
vn -0.94067 0.33794 0.03072
vn -0.21727 0.97048 0.10468
vn -0.23129 0.96537 0.12067
vn -0.20315 0.97513 0.08865
# 36 normals
usemtl jungle_rock_1
f  2/1/1 6/2/2 5/3/3 1/4/4
f  3/5/5 7/6/6 6/7/7 2/8/8
f  8/9/9 7/10/10 3/11/11 4/12/12
f  5/13/13 8/14/14 4/15/15 1/16/16
f  6/2/2 10/17/17 9/18/18 5/3/3
f  7/6/6 11/19/19 10/20/20 6/7/7
f  12/21/21 11/22/22 7/10/10 8/9/9
f  9/23/23 12/24/24 8/14/14 5/13/13
f  10/17/17 14/25/25 13/26/26 9/18/27
f  11/19/19 15/27/28 14/28/29 10/20/20
f  16/29/30 15/30/31 11/22/22 12/21/21
f  13/31/32 16/32/33 12/24/24 9/23/23
f  14/33/34 15/34/35 16/32/34 13/31/36
