# 
# Wavefront OBJ file
# Converted by the DEEP Exploration Deep Exploration 5 5.0.2.1477 Release
# Right Hemisphere, LTD
# http://www.righthemisphere.com/
# 
mtllib jungle_rockdoor_1.mtl
# object jungle_rockdoor_1
g jungle_rockdoor_1
v -8.00000 0.00000 1.56775
v -5.00000 0.00000 1.56775
v -5.00000 0.00000 -1.43225
v -8.00000 0.00000 -1.43225
v -7.80000 0.90000 1.26775
v -5.30000 0.80000 1.16775
v -5.30000 0.80000 -0.93225
v -7.70000 0.90000 -1.13225
v -8.00000 7.90000 1.56775
v -5.00000 7.80000 1.56775
v -5.00000 7.80000 -1.43225
v -8.00000 7.90000 -1.43225
v -7.60000 8.30000 1.36775
v -5.20000 8.50000 1.36775
v -5.30000 8.50000 -1.13225
v -7.70000 8.30000 -0.93225
v -8.00000 8.80000 1.56775
v -5.00000 8.80000 1.56775
v -5.00000 8.80000 -1.43225
v -8.00000 8.80000 -1.43225
v -7.50000 10.70000 1.06775
v -5.00000 11.00000 1.56775
v -5.00000 11.00000 -1.43225
v -7.50000 10.70000 -0.73225
v 8.00000 0.00000 1.56775
v 5.00000 0.00000 1.56775
v 5.00000 0.00000 -1.43225
v 8.00000 0.00000 -1.43225
v 7.80000 0.60000 1.36775
v 5.20000 0.70000 1.36775
v 5.20000 1.10000 -1.23225
v 7.80000 1.00000 -1.23225
v 8.00000 7.90000 1.56775
v 4.90000 7.90000 1.56775
v 4.90000 7.90000 -1.43225
v 8.00000 7.90000 -1.43225
v 7.70000 8.40000 1.26775
v 5.20000 8.30000 1.26775
v 5.20000 8.50000 -1.03225
v 7.70000 8.60000 -1.03225
v 8.00000 8.80000 1.56775
v 4.90000 8.70000 1.56775
v 4.90000 8.70000 -1.43225
v 8.00000 8.80000 -1.43225
v 7.50000 10.70000 1.06775
v 5.00000 11.00000 1.56775
v 5.00000 11.00000 -1.43225
v 7.50000 10.70000 -0.73225
v -4.60000 10.80000 1.36775
v -4.60000 9.00000 1.36775
v -4.70000 10.80000 -1.23225
v -4.70000 9.00000 -1.23225
v 4.30000 8.80000 1.56775
v 4.30000 11.00000 1.56775
v 4.30000 11.00000 -1.43225
v 4.30000 8.80000 -1.43225
v -4.10000 11.00000 1.56775
v -4.30000 8.80000 1.56775
v -4.10000 11.00000 -1.43225
v -4.30000 8.80000 -1.43225
v 4.70000 9.00000 1.26775
v 4.70000 10.70000 1.16775
v 4.70000 10.80000 -1.13225
v 4.60000 9.10000 -1.13225
v -0.10000 9.40000 0.96775
v 0.10000 10.90000 0.96775
v 0.10000 10.90000 -0.83225
v -0.10000 9.40000 -0.83225
v 0.35294 9.17647 1.39128
v 0.47280 11.27399 1.40243
v 0.47280 11.27399 -1.45826
v 0.35294 9.17647 -1.44989
v -0.35419 9.16706 1.50070
v -0.38528 11.26450 1.51510
v -0.48528 11.26450 -1.56775
v -0.45419 9.16706 -1.55696
# 76 verticies
vt 0.13800 0.01846
vt 0.12600 0.04993
vt 0.02600 0.05386
vt 0.01800 0.01846
vt 0.86500 0.01800
vt 0.85000 0.04745
vt 0.78700 0.04745
vt 0.77500 0.01800
vt 0.90400 0.05018
vt 0.97600 0.04658
vt 0.98500 0.01778
vt 0.89500 0.01778
vt 0.02400 0.65018
vt 0.09600 0.65018
vt 0.10500 0.61778
vt 0.01500 0.61778
vt 0.13800 0.32527
vt 0.01800 0.32920
vt 0.86500 0.30518
vt 0.77500 0.30518
vt 0.89500 0.30222
vt 0.98500 0.29862
vt 0.01500 0.90222
vt 0.10500 0.90222
vt 0.13000 0.35280
vt 0.03400 0.34493
vt 0.85600 0.33095
vt 0.78100 0.33095
vt 0.34400 0.85000
vt 0.41600 0.85600
vt 0.42500 0.86500
vt 0.33500 0.86500
vt 0.34700 0.78100
vt 0.33500 0.77500
vt 0.13800 0.36460
vt 0.01800 0.36460
vt 0.86500 0.34200
vt 0.77500 0.34200
vt 0.01800 0.51018
vt 0.13800 0.51018
vt 0.12600 0.50107
vt 0.03000 0.49500
vt 0.45500 0.79375
vt 0.54500 0.79375
vt 0.53000 0.77500
vt 0.46100 0.77500
vt 0.13800 0.45113
vt 0.03800 0.43933
vt 0.03800 0.56786
vt 0.13800 0.57697
vt 0.47000 0.86500
vt 0.52400 0.86500
vt 0.23135 0.61600
vt 0.23135 0.73847
vt 0.13778 0.70989
vt 0.13778 0.63641
vt 0.49574 0.04033
vt 0.38839 0.04400
vt 0.38013 0.01833
vt 0.50400 0.01833
vt 0.54100 0.04400
vt 0.61900 0.05867
vt 0.62500 0.01833
vt 0.53500 0.01833
vt 0.78013 0.37800
vt 0.78839 0.41944
vt 0.89574 0.41567
vt 0.90400 0.37800
vt 0.74500 0.01833
vt 0.73900 0.05603
vt 0.66100 0.04095
vt 0.65500 0.01833
vt 0.50400 0.30800
vt 0.37600 0.30800
vt 0.53500 0.30800
vt 0.62500 0.30800
vt 0.77600 0.67563
vt 0.90400 0.67563
vt 0.74500 0.31612
vt 0.65500 0.31612
vt 0.49161 0.32633
vt 0.38839 0.32267
vt 0.54400 0.32267
vt 0.61300 0.33000
vt 0.78839 0.69823
vt 0.89161 0.70200
vt 0.73300 0.34251
vt 0.66400 0.33497
vt 0.50400 0.34100
vt 0.37600 0.33733
vt 0.53500 0.33733
vt 0.62500 0.33733
vt 0.63641 0.72598
vt 0.62508 0.74290
vt 0.74222 0.74290
vt 0.73089 0.72598
vt 0.74500 0.35005
vt 0.65500 0.35005
vt 0.48335 0.41067
vt 0.38013 0.42167
vt 0.62886 0.74290
vt 0.72333 0.71329
vt 0.72400 0.42167
vt 0.67000 0.42167
vt 0.62886 0.61600
vt 0.72333 0.63715
vt 0.15400 0.37247
vt 0.15400 0.44327
vt 0.24632 0.62416
vt 0.24257 0.73030
vt 0.15000 0.57090
vt 0.15000 0.51625
vt 0.38943 0.57070
vt 0.39318 0.46419
vt 0.37818 0.45600
vt 0.37818 0.57889
vt 0.16600 0.36460
vt 0.17400 0.45113
vt 0.26503 0.61600
vt 0.26503 0.73847
vt 0.17400 0.57697
vt 0.16600 0.51018
vt 0.40442 0.57889
vt 0.40442 0.45600
vt 0.92800 0.73500
vt 0.94333 0.74228
vt 0.94333 0.80412
vt 0.92800 0.81503
vt 0.53500 0.42167
vt 0.54700 0.41067
vt 0.54400 0.34833
vt 0.60240 0.61600
vt 0.61752 0.63292
vt 0.61752 0.73021
vt 0.60240 0.74290
vt 0.28800 0.85503
vt 0.30333 0.84776
vt 0.29950 0.78591
vt 0.28800 0.77500
vt 0.61600 0.35200
vt 0.61600 0.41433
vt 0.62500 0.42167
vt 0.72682 0.57889
vt 0.73807 0.56660
vt 0.74182 0.46829
vt 0.72682 0.45600
vt 0.58868 0.84895
vt 0.58868 0.78459
vt 0.57535 0.77500
vt 0.57500 0.86500
vt 0.78126 0.82500
vt 0.77667 0.74870
vt 0.64531 0.84895
vt 0.66500 0.86500
vt 0.45778 0.74400
vt 0.45778 0.62299
vt 0.66474 0.77500
vt 0.64531 0.78459
vt 0.13667 0.78870
vt 0.14126 0.86500
vt 0.56187 0.48058
vt 0.56187 0.55431
vt 0.57885 0.57961
vt 0.57885 0.46323
vt 0.32383 0.37904
vt 0.32259 0.46154
vt 0.33400 0.38820
vt 0.34200 0.44720
vt 0.42222 0.64049
vt 0.42222 0.71397
vt 0.40032 0.74400
vt 0.40406 0.61815
vt 0.34200 0.57393
vt 0.33400 0.52840
vt 0.31983 0.52132
vt 0.31859 0.58500
vt 0.55235 0.45875
vt 0.54860 0.58400
vt 0.55235 0.45733
# 179 texture verticies
vn 0.02705 0.39084 0.92006
vn 0.03106 0.12526 0.99164
vn 0.03148 0.25179 0.96727
vn 0.00000 0.31623 0.94868
vn 0.93633 0.35112 -0.00000
vn 0.99593 0.09010 -0.00000
vn 0.97463 0.22380 -0.00000
vn 0.05981 0.28602 -0.95635
vn 0.09206 0.55234 -0.82852
vn 0.04649 0.43862 -0.89747
vn 0.00000 0.31623 -0.94868
vn -0.98425 0.17465 -0.02730
vn -0.99580 0.08740 -0.02740
vn -0.96185 0.27285 -0.01970
vn -0.97619 0.21693 -0.00000
vn -0.00333 0.22063 0.97535
vn 0.01745 0.11549 0.99316
vn 0.97610 0.21698 -0.01240
vn 0.99797 0.06376 -0.00000
vn 0.03953 -0.05523 -0.99769
vn -0.03012 0.38057 -0.92426
vn -0.99918 -0.03479 -0.02081
vn -0.99908 -0.04282 0.00000
vn -0.02239 0.26873 0.96295
vn -0.00395 0.35359 0.93539
vn 0.91277 0.40684 -0.03651
vn 0.93964 0.34168 -0.01830
vn -0.04205 0.58376 -0.81084
vn -0.10686 0.35262 -0.92964
vn 0.02577 0.77301 -0.63387
vn -0.76689 0.64153 0.01791
vn -0.82038 0.57070 0.03567
vn -0.70711 0.70711 -0.00000
vn 0.01472 -0.45588 0.88992
vn 0.00000 -0.55470 0.83205
vn 0.02925 -0.35097 0.93593
vn 0.77910 -0.62667 -0.01694
vn 0.63399 -0.77334 0.00000
vn 0.64978 -0.76002 -0.01293
vn 0.84179 -0.53875 -0.03367
vn 0.00000 -0.70711 -0.70711
vn 0.00000 -0.70711 -0.70711
vn 0.00000 -0.70711 -0.70711
vn -0.81791 -0.57509 0.01687
vn -0.85749 -0.51450 0.00000
vn -0.77382 -0.63251 0.03364
vn 0.18330 0.06680 0.98079
vn -0.19612 0.00000 0.98058
vn -0.09935 0.12892 0.98667
vn 0.00000 0.25449 0.96707
vn -0.13819 0.17718 -0.97443
vn -0.26963 -0.00000 -0.96296
vn 0.00000 0.34571 -0.93834
vn -0.96707 0.25449 -0.00000
vn 0.19958 0.97987 -0.00447
vn -0.11915 0.99288 -0.00000
vn 0.00317 0.18920 0.98193
vn 0.00317 0.07302 0.99733
vn 0.00523 0.29417 0.95574
vn 0.00000 0.31623 0.94868
vn -0.99054 0.13702 0.00686
vn -0.99954 0.02969 0.00684
vn -0.97433 0.22473 0.01341
vn -0.96152 0.27472 -0.00000
vn 0.00342 0.18691 -0.98237
vn 0.00192 0.03997 -0.99920
vn 0.00192 0.11556 -0.99330
vn 0.00000 0.19612 -0.98058
vn 0.96713 0.25388 0.01468
vn 0.99895 0.04496 0.00841
vn 0.98684 0.16147 0.00845
vn 0.94868 0.31623 -0.00000
vn -0.00036 0.15876 0.98732
vn -0.00853 0.38309 0.92367
vn -0.99908 -0.04276 -0.00319
vn -0.93969 0.34177 0.01291
vn -0.00780 0.35678 -0.93416
vn -0.00038 0.15093 -0.98854
vn 0.95502 0.29632 0.01128
vn 0.98738 0.15839 -0.00145
vn -0.01225 0.56402 0.82567
vn -0.02446 0.61150 0.79087
vn -0.85626 0.51622 0.01866
vn -0.90349 0.42699 0.03713
vn -0.80000 0.60000 -0.00000
vn -0.02249 0.56232 -0.82661
vn -0.01126 0.52967 -0.84813
vn 0.92531 0.37779 0.03285
vn 0.89413 0.44751 0.01648
vn 0.02176 -0.60115 0.79884
vn 0.01905 -0.59070 0.80666
vn 0.02446 -0.61150 0.79087
vn -0.76244 -0.64699 -0.00959
vn -0.68722 -0.72645 0.00000
vn -0.69774 -0.71590 -0.02544
vn -0.81664 -0.57498 -0.05000
vn 0.03238 -0.89510 -0.44469
vn 0.02856 -0.88533 -0.46409
vn 0.03618 -0.90443 -0.42508
vn 0.69774 -0.71590 -0.02544
vn 0.55470 -0.83205 0.00000
vn 0.81664 -0.57498 -0.05000
vn 0.09480 0.12370 0.98778
vn 0.19513 -0.00848 0.98074
vn -0.00814 0.25248 0.96757
vn 0.13204 0.17013 -0.97653
vn 0.26831 -0.01167 -0.96326
vn -0.01107 0.34312 -0.93923
vn 0.96707 0.25449 -0.00000
vn 0.11915 0.99288 -0.00000
vn 0.44721 0.00000 0.89443
vn 0.44036 0.89766 -0.01694
vn 0.49863 0.86677 -0.00849
vn 0.55470 0.83205 -0.00000
vn 0.55470 -0.00000 -0.83205
vn 0.49863 -0.86677 -0.00849
vn 0.44036 -0.89766 -0.01694
vn -0.45345 0.02427 0.89095
vn -0.26842 0.02440 0.96299
vn -0.22491 0.01036 0.97432
vn -0.37139 0.00000 0.92848
vn -0.34217 0.93962 0.00601
vn -0.17362 0.98481 0.00078
vn -0.25456 0.96705 0.00404
vn -0.31260 0.94981 0.01202
vn -0.38697 0.01480 -0.92197
vn -0.13287 0.00903 -0.99109
vn -0.27272 0.01102 -0.96203
vn -0.44721 -0.00000 -0.89443
vn -0.50709 -0.86182 0.01088
vn -0.08963 -0.99597 -0.00107
vn -0.32063 -0.94717 0.00757
vn -0.56455 -0.82511 0.02171
vn 0.64781 0.02392 0.76143
vn 0.58395 0.04767 0.81039
vn 0.70711 0.00000 0.70711
vn -0.81326 0.03486 0.58085
vn -0.81171 0.03430 0.58306
vn -0.81482 0.03543 0.57864
vn 0.39200 0.91989 0.01171
vn 0.62122 0.78290 0.03404
vn 0.53717 0.84330 0.01711
vn 0.20008 0.97978 -0.00000
vn -0.62196 0.78283 0.01856
vn -0.52853 0.84811 0.03687
vn -0.70711 0.70711 -0.00000
vn 0.64987 -0.01736 -0.75984
vn 0.58851 -0.03462 -0.80775
vn 0.70711 -0.00000 -0.70711
vn -0.69848 0.03558 -0.71474
vn -0.67940 0.03996 -0.73268
vn -0.71708 0.03118 -0.69629
vn 0.38998 -0.92058 -0.02109
vn 0.73466 -0.67589 -0.05877
vn 0.60108 -0.79863 -0.02989
vn 0.08883 -0.99605 0.00000
vn -0.83755 -0.54623 0.01214
vn -0.81923 -0.57343 0.00607
vn -0.71901 0.06453 0.69200
vn -0.65696 0.08760 0.74882
vn -0.77558 0.04097 0.62992
vn -0.04401 -0.00142 0.99903
vn -0.04336 -0.00283 0.99906
vn -0.04466 0.00000 0.99900
vn -0.70823 0.70598 -0.00000
vn 0.07141 0.99745 -0.00000
vn -0.82972 0.07638 -0.55293
vn -0.78358 0.10448 -0.61244
vn -0.87050 0.04779 -0.48985
vn 0.00548 -0.00218 -0.99998
vn 0.00648 -0.00436 -0.99997
vn 0.00447 -0.00000 -0.99999
vn -0.44255 -0.89674 0.00000
vn -0.27325 -0.96194 0.00000
vn 0.01589 -0.00410 0.99987
vn 0.01465 -0.00665 0.99987
vn 0.84585 -0.05863 0.53019
vn 0.91552 -0.12207 0.38330
vn 0.75041 0.00659 0.66094
vn 0.55800 0.82978 -0.00952
vn 0.52863 0.84885 -0.00000
vn 0.58664 0.80962 -0.01903
vn -0.07099 0.99747 0.00230
vn -0.07198 0.99741 0.00115
vn 0.85395 -0.05678 -0.51724
vn 0.90663 -0.12088 -0.40424
vn 0.78449 0.00844 -0.62008
vn -0.03705 -0.00569 -0.99930
vn -0.03487 -0.00136 -0.99939
vn 0.62713 -0.77885 -0.00944
vn 0.67563 -0.73724 0.00000
vn 0.37609 -0.92656 -0.00573
vn 0.34709 -0.93776 -0.01135
# 193 normals
usemtl jungle_rockdoor_1
f  2/1/1 6/2/2 5/3/3 1/4/4
f  3/5/5 7/6/6 6/7/7 2/8/5
f  8/9/8 7/10/9 3/11/10 4/12/11
f  5/13/12 8/14/13 4/15/14 1/16/15
f  6/2/2 10/17/16 9/18/17 5/3/3
f  7/6/6 11/19/18 10/20/19 6/7/7
f  12/21/20 11/22/21 7/10/20 8/9/8
f  9/23/22 12/24/23 8/14/13 5/13/12
f  10/17/16 14/25/24 13/26/25 9/18/17
f  11/19/18 15/27/26 14/28/27 10/20/19
f  16/29/28 15/30/29 11/31/21 12/32/30
f  13/33/31 16/29/32 12/32/31 9/34/33
f  14/25/34 18/35/35 17/36/34 13/26/36
f  15/27/37 19/37/38 18/38/39 14/28/40
f  20/39/41 19/40/42 15/41/41 16/42/43
f  17/43/44 20/44/45 16/45/44 13/46/46
f  18/35/47 22/47/48 21/48/49 17/36/50
f  24/49/51 23/50/52 19/40/51 20/39/53
f  21/51/54 24/52/54 20/44/54 17/43/54
f  22/53/55 23/54/56 24/55/56 21/56/56
f  29/57/57 30/58/58 26/59/59 25/60/60
f  30/61/61 31/62/62 27/63/63 26/64/64
f  27/65/65 31/66/66 32/67/67 28/68/68
f  28/69/69 32/70/70 29/71/71 25/72/72
f  33/73/73 34/74/74 30/58/58 29/57/57
f  34/75/75 35/76/76 31/62/62 30/61/61
f  31/66/66 35/77/77 36/78/78 32/67/67
f  32/70/70 36/79/79 33/80/80 29/71/71
f  37/81/81 38/82/82 34/74/74 33/73/73
f  38/83/83 39/84/84 35/76/76 34/75/85
f  35/77/77 39/85/86 40/86/87 36/78/78
f  36/79/79 40/87/88 37/88/89 33/80/80
f  41/89/90 42/90/91 38/82/90 37/81/92
f  42/91/93 43/92/94 39/84/95 38/83/96
f  39/93/97 43/94/98 44/95/97 40/96/99
f  40/87/100 44/97/101 41/98/100 37/88/102
f  45/99/103 46/100/104 42/90/103 41/89/105
f  43/94/106 47/101/107 48/102/106 44/95/108
f  44/97/109 48/103/109 45/104/109 41/98/109
f  48/102/110 47/101/110 46/105/110 45/106/110
f  18/35/47 50/107/111 49/108/111 22/47/111
f  22/53/55 49/109/112 51/110/113 23/54/114
f  23/50/115 51/111/115 52/112/115 19/40/115
f  52/113/116 50/114/117 18/115/39 19/116/38
f  50/107/118 58/117/119 57/118/120 49/108/121
f  49/109/122 57/119/123 59/120/124 51/110/125
f  51/111/126 59/121/127 60/122/128 52/112/129
f  52/113/130 60/123/131 58/124/132 50/114/133
f  53/125/134 61/126/135 62/127/134 54/128/136
f  46/129/137 62/130/138 61/131/137 42/91/139
f  54/132/140 62/133/141 63/134/142 55/135/143
f  47/101/144 63/134/145 62/133/144 46/105/146
f  55/136/147 63/137/148 64/138/147 56/139/149
f  43/92/150 64/140/151 63/141/150 47/142/152
f  56/143/153 64/144/154 61/145/155 53/146/156
f  42/91/93 61/131/157 64/140/158 43/92/94
f  66/147/159 65/148/160 69/149/159 70/150/161
f  54/128/162 70/151/163 69/152/162 53/125/164
f  67/153/165 66/147/165 70/150/165 71/154/165
f  55/135/143 71/155/166 70/156/166 54/132/140
f  72/157/167 68/158/168 67/153/167 71/154/169
f  72/159/170 71/160/171 55/136/170 56/139/172
f  65/161/173 68/162/173 72/163/174 69/164/174
f  53/146/156 69/164/174 72/163/174 56/143/153
f  73/165/175 74/166/176 57/118/120 58/117/119
f  73/165/177 65/167/178 66/168/177 74/166/179
f  66/169/180 67/170/181 75/171/180 74/172/182
f  57/119/123 74/172/183 75/171/184 59/120/124
f  67/173/185 68/174/186 76/175/185 75/176/187
f  59/121/127 75/176/188 76/175/189 60/122/128
f  68/162/190 65/161/191 73/177/192 76/178/193
f  60/123/131 76/178/193 73/179/192 58/124/132
