# 
# Wavefront OBJ file
# Converted by the DEEP Exploration Deep Exploration 5 5.0.2.1477 Release
# Right Hemisphere, LTD
# http://www.righthemisphere.com/
# 
mtllib jungle_tree_1.mtl
# object jungle_tree_1
g jungle_tree_1
v -1.20000 0.00000 1.20000
v 1.20000 0.00000 1.20000
v 1.20000 0.00000 -1.20000
v -1.20000 0.00000 -1.20000
v -0.60000 8.00000 0.60000
v 0.60000 8.00000 0.60000
v 0.60000 8.00000 -0.60000
v -0.60000 8.00000 -0.60000
v 0.30000 0.00000 1.10000
v -0.30000 0.00000 1.10000
v 0.30000 0.60000 1.10000
v -0.30000 0.60000 1.10000
v -0.00000 0.00000 2.30000
v -0.86845 8.65314 -1.47305
v 2.46911 8.65314 -1.47305
v 2.46911 8.65314 -4.81061
v -0.86845 8.65314 -4.81061
v -0.86845 11.99070 -1.47305
v 2.46911 11.99070 -1.47305
v 2.46911 11.99070 -4.81061
v -0.86845 11.99070 -4.81061
v 0.30000 0.00000 -1.10000
v -0.30000 0.00000 -1.10000
v 0.30000 0.60000 -1.10000
v -0.30000 0.60000 -1.10000
v -0.00000 0.00000 -2.30000
v 1.10000 0.00000 -0.30000
v 1.10000 0.00000 0.30000
v 1.10000 0.60000 -0.30000
v 1.10000 0.60000 0.30000
v 2.30000 0.00000 0.00000
v -1.10000 0.00000 -0.30000
v -1.10000 0.00000 0.30000
v -1.10000 0.60000 -0.30000
v -1.10000 0.60000 0.30000
v -2.30000 0.00000 0.00000
v -3.00000 6.99998 3.00000
v 3.00000 6.99998 3.00000
v 3.00000 6.99998 -3.00000
v -3.00000 6.99998 -3.00000
v -3.00000 12.99998 3.00000
v 3.00000 12.99998 3.00000
v 3.00000 12.99998 -3.00000
v -3.00000 12.99998 -3.00000
v 0.98000 7.97403 4.88000
v 4.58000 7.97403 4.88000
v 4.58000 7.97403 1.28000
v 0.98000 7.97403 1.28000
v 0.98000 11.57403 4.88000
v 4.58000 11.57403 4.88000
v 4.58000 11.57403 1.28000
v 0.98000 11.57403 1.28000
v -4.54760 9.74852 1.47240
v -1.91960 9.74852 1.47240
v -1.91960 9.74852 -1.15560
v -4.54760 9.74852 -1.15560
v -4.54760 12.37652 1.47240
v -1.91960 12.37652 1.47240
v -1.91960 12.37652 -1.15560
v -4.54760 12.37652 -1.15560
# 60 verticies
vt 0.46036 0.00356
vt 0.43308 0.38775
vt 0.37852 0.38775
vt 0.35124 0.00356
vt 0.22847 0.00356
vt 0.20119 0.38775
vt 0.14663 0.38775
vt 0.11935 0.00356
vt 0.03069 0.38775
vt 0.08525 0.38775
vt 0.11253 0.00356
vt 0.00341 0.00356
vt 0.26257 0.38775
vt 0.31714 0.38775
vt 0.34442 0.00356
vt 0.23529 0.00356
vt 0.81481 0.11884
vt 0.81481 0.14203
vt 0.86634 0.11884
vt 0.87246 0.15652
vt 0.89565 0.15652
vt 0.89565 0.13333
vt 0.87246 0.13333
vt 0.80837 0.11884
vt 0.75684 0.14203
vt 0.75684 0.11884
vt 0.95330 0.11594
vt 0.90177 0.12754
vt 0.90177 0.10435
vt 0.29339 0.86603
vt 0.57618 0.86603
vt 0.57618 0.58324
vt 0.29339 0.58324
vt 0.28632 0.39484
vt 0.28632 0.67762
vt 0.00353 0.67762
vt 0.00353 0.39484
vt 0.86603 0.58324
vt 0.86603 0.86603
vt 0.58324 0.86603
vt 0.58324 0.58324
vt 0.00353 0.96748
vt 0.28632 0.96748
vt 0.28632 0.68469
vt 0.00353 0.68469
vt 0.46730 0.57618
vt 0.75009 0.57618
vt 0.75009 0.29339
vt 0.46730 0.29339
vt 0.75009 0.00353
vt 0.75009 0.28632
vt 0.46730 0.28632
vt 0.46730 0.00353
vt 0.46730 0.57456
# 54 texture verticies
vn 0.00000 0.07479 0.99720
vn 0.99720 0.07479 -0.00000
vn 0.00000 0.07479 -0.99720
vn -0.99720 0.07479 -0.00000
vn 0.97014 0.00000 0.24254
vn 0.00000 -0.00000 -1.00000
vn -0.97014 0.00000 0.24254
vn 0.00000 0.89443 0.44721
vn 0.00000 -1.00000 0.00000
vn 0.00000 0.00000 1.00000
vn 1.00000 0.00000 0.00000
vn -1.00000 0.00000 0.00000
vn 0.00000 1.00000 -0.00000
vn 0.97014 -0.00000 -0.24254
vn -0.97014 -0.00000 -0.24254
vn 0.00000 0.89443 -0.44721
vn 0.24254 -0.00000 -0.97014
vn 0.24254 0.00000 0.97014
vn 0.44721 0.89443 -0.00000
vn -0.24254 -0.00000 -0.97014
vn -0.24254 0.00000 0.97014
vn -0.44721 0.89443 -0.00000
# 22 normals
usemtl jungle_tree_1
f  2/1/1 6/2/1 5/3/1 1/4/1
f  3/5/2 7/6/2 6/7/2 2/8/2
f  8/9/3 7/10/3 3/11/3 4/12/3
f  5/13/4 8/14/4 4/15/4 1/16/4
f  9/17/5 11/18/5 13/19/5
f  12/20/6 11/21/6 9/22/6 10/23/6
f  13/24/7 12/25/7 10/26/7
f  13/27/8 11/28/8 12/29/8
f  17/30/9 16/31/9 15/32/9 14/33/9
f  15/34/10 19/35/10 18/36/10 14/37/10
f  16/38/11 20/39/11 19/40/11 15/41/11
f  21/42/6 20/43/6 16/44/6 17/45/6
f  18/46/12 21/47/12 17/48/12 14/49/12
f  19/50/13 20/51/13 21/52/13 18/53/13
f  24/18/14 22/17/14 26/19/14
f  25/25/15 26/24/15 23/26/15
f  24/28/16 26/27/16 25/29/16
f  27/17/17 29/18/17 31/19/17
f  31/24/18 30/25/18 28/26/18
f  31/27/19 29/28/19 30/29/19
f  34/18/20 32/17/20 36/19/20
f  35/25/21 36/24/21 33/26/21
f  34/28/22 36/27/22 35/29/22
f  40/30/9 39/31/9 38/32/9 37/33/9
f  38/34/10 42/35/10 41/36/10 37/37/10
f  39/38/11 43/39/11 42/40/11 38/41/11
f  44/42/6 43/43/6 39/44/6 40/45/6
f  41/46/12 44/47/12 40/48/12 37/49/12
f  42/50/13 43/51/13 44/52/13 41/53/13
f  48/30/9 47/31/9 46/32/9 45/33/9
f  46/34/10 50/35/10 49/36/10 45/37/10
f  47/38/11 51/39/11 50/40/11 46/41/11
f  52/42/6 51/43/6 47/44/6 48/45/6
f  49/46/12 52/47/12 48/48/12 45/49/12
f  50/50/13 51/51/13 52/52/13 49/53/13
f  56/30/9 55/31/9 54/32/9 53/33/9
f  54/34/10 58/35/10 57/36/10 53/37/10
f  55/38/11 59/39/11 58/40/11 54/41/11
f  60/42/6 59/43/6 55/44/6 56/45/6
f  57/54/12 60/47/12 56/48/12 53/49/12
f  58/50/13 59/51/13 60/52/13 57/53/13
