# 
# Wavefront OBJ file
# Converted by the DEEP Exploration Deep Exploration 5 5.0.2.1477 Release
# Right Hemisphere, LTD
# http://www.righthemisphere.com/
# 
mtllib town_pole_3.mtl
# object town_pole_3
g town_pole_3
v -4.00000 -0.00000 -0.00000
v 4.00000 0.00000 0.00000
v -4.00000 2.00000 -0.00000
v 4.00000 2.00000 -0.00000
# 4 verticies
vt 0.94444 0.04167
vt 0.94444 0.20833
vt 0.05556 0.20833
vt 0.05556 0.04167
# 4 texture verticies
vn -0.00000 0.00000 1.00000
# 1 normals
usemtl town_pole_3
f  2/1/1 4/2/1 3/3/1 1/4/1
