# 
# Wavefront OBJ file
# Converted by the DEEP Exploration Deep Exploration 5 5.0.2.1477 Release
# Right Hemisphere, LTD
# http://www.righthemisphere.com/
# 
mtllib town_home_3.mtl
# object town_home_3
g town_home_3
v -2.50000 0.00000 2.50000
v 2.50000 0.00000 2.50000
v 2.50000 -0.00000 -2.50000
v -2.50000 -0.00000 -2.50000
v -2.50000 3.00000 2.50000
v 2.50000 3.00000 2.50000
v 2.50000 3.00000 -2.50000
v -2.50000 3.00000 -2.50000
v -2.80000 3.00000 2.80000
v 2.80000 3.00000 2.80000
v 2.80000 3.00000 -2.80000
v -2.80000 3.00000 -2.80000
v -2.80000 3.40000 2.80000
v 2.80000 3.40000 2.80000
v 2.80000 3.40000 -2.80000
v -2.80000 3.40000 -2.80000
# 16 verticies
vt 0.27692 0.79808
vt 0.27692 0.97115
vt 0.03077 0.97115
vt 0.03077 0.79808
vt 0.89231 0.56731
vt 0.89231 0.74038
vt 0.64615 0.74038
vt 0.64615 0.56731
vt 0.03077 0.74038
vt 0.27692 0.74038
vt 0.27692 0.56731
vt 0.03077 0.56731
vt 0.33846 0.74038
vt 0.58462 0.74038
vt 0.58462 0.56731
vt 0.33846 0.56731
vt 0.41667 0.35256
vt 0.73718 0.35256
vt 0.73718 0.03205
vt 0.41667 0.03205
vt 0.73718 0.40385
vt 0.73718 0.44231
vt 0.41667 0.44231
vt 0.41667 0.40385
vt 0.73718 0.48077
vt 0.73718 0.51923
vt 0.41667 0.51923
vt 0.41667 0.48077
vt 0.03205 0.05769
vt 0.35256 0.05769
vt 0.35256 0.01923
vt 0.03205 0.01923
vt 0.03205 0.51923
vt 0.35256 0.51923
vt 0.35256 0.48077
vt 0.03205 0.48077
vt 0.35256 0.10897
vt 0.35256 0.42822
vt 0.03205 0.42949
vt 0.03205 0.10897
# 40 texture verticies
vn 0.00000 0.00000 1.00000
vn 1.00000 0.00000 0.00000
vn 0.00000 -0.00000 -1.00000
vn -1.00000 0.00000 0.00000
vn 0.00000 -1.00000 0.00000
vn 0.00000 1.00000 -0.00000
# 6 normals
usemtl town_home_3
f  2/1/1 6/2/1 5/3/1 1/4/1
f  3/5/2 7/6/2 6/7/2 2/8/2
f  8/9/3 7/10/3 3/11/3 4/12/3
f  5/13/4 8/14/4 4/15/4 1/16/4
f  12/17/5 11/18/5 10/19/5 9/20/5
f  10/21/1 14/22/1 13/23/1 9/24/1
f  11/25/2 15/26/2 14/27/2 10/28/2
f  16/29/3 15/30/3 11/31/3 12/32/3
f  13/33/4 16/34/4 12/35/4 9/36/4
f  14/37/6 15/38/6 16/39/6 13/40/6
