# 
# Wavefront OBJ file
# Converted by the DEEP Exploration Deep Exploration 5 5.0.2.1477 Release
# Right Hemisphere, LTD
# http://www.righthemisphere.com/
# 
mtllib town_pole_1.mtl
# object town_pole_1
g town_pole_1
v 0.40000 0.00000 0.00000
v 0.20000 -0.00000 -0.34641
v -0.20000 -0.00000 -0.34641
v -0.40000 0.00000 0.00000
v -0.20000 0.00000 0.34641
v 0.20000 0.00000 0.34641
v 0.40000 10.00000 -0.00000
v 0.20000 10.00000 -0.34641
v -0.20000 10.00000 -0.34641
v -0.40000 10.00000 -0.00000
v -0.20000 10.00000 0.34641
v 0.20000 10.00000 0.34641
v -2.00000 8.90000 0.10000
v 2.00000 8.90000 0.10000
v 2.00000 8.90000 -0.10000
v -2.00000 8.90000 -0.10000
v -2.00000 9.10000 0.10000
v 2.00000 9.10000 0.10000
v 2.00000 9.10000 -0.10000
v -2.00000 9.10000 -0.10000
# 20 verticies
vt 0.21340 0.00244
vt 0.21340 0.97795
vt 0.18137 0.97795
vt 0.18137 0.00244
vt 0.11002 0.97795
vt 0.14488 0.97795
vt 0.14488 0.00244
vt 0.11002 0.00244
vt 0.07353 0.97795
vt 0.10556 0.97795
vt 0.10556 0.00244
vt 0.07353 0.00244
vt 0.04150 0.97795
vt 0.04150 0.00244
vt 0.03704 0.97795
vt 0.00218 0.97795
vt 0.00218 0.00244
vt 0.03704 0.00244
vt 0.14935 0.97795
vt 0.14935 0.00244
vt 0.27336 0.10556
vt 0.23645 0.10556
vt 0.21799 0.07353
vt 0.23645 0.04150
vt 0.27336 0.04150
vt 0.29181 0.07353
vt 0.61026 0.01765
vt 0.99758 0.01765
vt 0.99758 0.00196
vt 0.61026 0.00196
vt 0.60542 0.00196
vt 0.60542 0.01765
vt 0.21811 0.01765
vt 0.21811 0.00196
vt 0.31176 0.04118
vt 0.31176 0.05686
vt 0.29608 0.05686
vt 0.29608 0.04118
vt 0.61026 0.03725
vt 0.99758 0.03725
vt 0.99758 0.02157
vt 0.61026 0.02157
vt 0.31569 0.05686
vt 0.33137 0.05686
vt 0.33137 0.04118
vt 0.31569 0.04118
vt 0.60542 0.02157
vt 0.60542 0.03725
vt 0.21811 0.03725
vt 0.21811 0.02157
# 50 texture verticies
vn 0.86603 -0.00000 -0.50000
vn 0.00000 -0.00000 -1.00000
vn -0.86603 -0.00000 -0.50000
vn -0.86603 0.00000 0.50000
vn 0.00000 0.00000 1.00000
vn 0.86603 0.00000 0.50000
vn 0.00000 1.00000 -0.00000
vn 0.00000 -1.00000 0.00000
vn 1.00000 0.00000 0.00000
vn -1.00000 0.00000 0.00000
# 10 normals
usemtl town_pole_1
f  2/1/1 8/2/1 7/3/1 1/4/1
f  9/5/2 8/6/2 2/7/2 3/8/2
f  10/9/3 9/10/3 3/11/3 4/12/3
f  11/13/4 10/9/4 4/12/4 5/14/4
f  12/15/5 11/16/5 5/17/5 6/18/5
f  1/4/6 7/3/6 12/19/6 6/20/6
f  8/21/7 9/22/7 10/23/7 11/24/7 12/25/7 7/26/7
f  16/27/8 15/28/8 14/29/8 13/30/8
f  14/31/5 18/32/5 17/33/5 13/34/5
f  15/35/9 19/36/9 18/37/9 14/38/9
f  20/39/2 19/40/2 15/41/2 16/42/2
f  17/43/10 20/44/10 16/45/10 13/46/10
f  18/47/7 19/48/7 20/49/7 17/50/7
