# 
# Wavefront OBJ file
# Converted by the DEEP Exploration Deep Exploration 5 5.0.2.1477 Release
# Right Hemisphere, LTD
# http://www.righthemisphere.com/
# 
mtllib town_wall_4.mtl
# object town_wall_4
g town_wall_4
v -0.50000 0.00000 0.50000
v 0.50000 0.00000 0.50000
v 0.50000 -0.00000 -0.50000
v -0.50000 -0.00000 -0.50000
v -0.30000 4.00000 0.30000
v 0.30000 4.00000 0.30000
v 0.30000 4.00000 -0.30000
v -0.30000 4.00000 -0.30000
v -0.50000 3.50000 0.50000
v 0.50000 3.50000 0.50000
v 0.50000 3.50000 -0.50000
v -0.50000 3.50000 -0.50000
# 12 verticies
vt 0.01047 0.98953
vt 0.19884 0.98953
vt 0.19884 0.80116
vt 0.01047 0.80116
vt 0.94380 0.00969
vt 0.94380 0.10659
vt 0.84690 0.10659
vt 0.84690 0.00969
vt 0.46674 0.77940
vt 0.42907 0.68339
vt 0.61744 0.68339
vt 0.57977 0.77940
vt 0.61744 0.01130
vt 0.42907 0.01130
vt 0.04814 0.77940
vt 0.01047 0.68339
vt 0.19884 0.68339
vt 0.16116 0.77940
vt 0.19884 0.01130
vt 0.01047 0.01130
vt 0.40814 0.68339
vt 0.21977 0.68339
vt 0.25744 0.77940
vt 0.37047 0.77940
vt 0.21977 0.01130
vt 0.40814 0.01130
vt 0.82674 0.68339
vt 0.63837 0.68339
vt 0.67605 0.77940
vt 0.78907 0.77940
vt 0.63837 0.01129
vt 0.82674 0.01130
# 32 texture verticies
vn 0.00000 -1.00000 0.00000
vn 0.00000 1.00000 -0.00000
vn 0.00000 0.37139 0.92848
vn 0.00000 0.12581 0.99205
vn 0.00000 0.25163 0.96782
vn 0.00000 0.00000 1.00000
vn 0.92848 0.37139 -0.00000
vn 0.99205 0.12581 -0.00000
vn 0.96782 0.25163 -0.00000
vn 1.00000 0.00000 0.00000
vn 0.00000 0.18911 -0.98196
vn 0.00000 0.37139 -0.92848
vn 0.00000 -0.00000 -1.00000
vn -0.98196 0.18911 -0.00000
vn -0.92848 0.37139 -0.00000
vn -1.00000 0.00000 0.00000
# 16 normals
usemtl town_wall_4
f  4/1/1 3/2/1 2/3/1 1/4/1
f  6/5/2 7/6/2 8/7/2 5/8/2
f  5/9/3 9/10/4 10/11/5 6/12/3
f  2/13/6 10/11/5 9/10/4 1/14/6
f  6/15/7 10/16/8 11/17/9 7/18/7
f  3/19/10 11/17/9 10/16/8 2/20/10
f  11/21/11 12/22/11 8/23/12 7/24/12
f  4/25/13 12/22/11 11/21/11 3/26/13
f  12/27/14 9/28/14 5/29/15 8/30/15
f  1/31/16 9/28/14 12/27/14 4/32/16
