# 
# Wavefront OBJ file
# Converted by the DEEP Exploration Deep Exploration 5 5.0.2.1477 Release
# Right Hemisphere, LTD
# http://www.righthemisphere.com/
# 
mtllib town_wall_2.mtl
# object town_wall_2
g town_wall_2
v -2.00000 0.00000 0.25000
v 2.00000 0.00000 0.25000
v 2.00000 -0.00000 -0.25000
v -2.00000 -0.00000 -0.25000
v -2.00000 3.50000 0.25000
v 2.00000 3.50000 0.25000
v 2.00000 3.50000 -0.25000
v -2.00000 3.50000 -0.25000
# 8 verticies
vt 0.03571 0.06250
vt 0.46429 0.06250
vt 0.46429 0.02083
vt 0.03571 0.02083
vt 0.96429 0.03472
vt 0.96429 0.38194
vt 0.53571 0.38194
vt 0.53571 0.03472
vt 0.06250 0.53472
vt 0.06250 0.88194
vt 0.02083 0.88194
vt 0.02083 0.53472
vt 0.03571 0.46528
vt 0.46429 0.46528
vt 0.46429 0.11806
vt 0.03571 0.11806
vt 0.10417 0.88194
vt 0.14583 0.88194
vt 0.14583 0.53472
vt 0.10417 0.53472
vt 0.96429 0.43867
vt 0.96429 0.47917
vt 0.53571 0.47917
vt 0.53571 0.43750
# 24 texture verticies
vn 0.00000 -1.00000 0.00000
vn 0.00000 0.00000 1.00000
vn 1.00000 0.00000 0.00000
vn 0.00000 -0.00000 -1.00000
vn -1.00000 0.00000 0.00000
vn 0.00000 1.00000 -0.00000
# 6 normals
usemtl town_wall_2
f  4/1/1 3/2/1 2/3/1 1/4/1
f  2/5/2 6/6/2 5/7/2 1/8/2
f  3/9/3 7/10/3 6/11/3 2/12/3
f  8/13/4 7/14/4 3/15/4 4/16/4
f  5/17/5 8/18/5 4/19/5 1/20/5
f  6/21/6 7/22/6 8/23/6 5/24/6
