# 
# Wavefront OBJ file
# Converted by the DEEP Exploration Deep Exploration 5 5.0.2.1477 Release
# Right Hemisphere, LTD
# http://www.righthemisphere.com/
# 
mtllib tank_enemy_03_body.mtl
# object tank_enemy_03_body
g tank_enemy_03_body
v -1.43748 0.00000 1.38000
v 1.43752 0.00000 1.38000
v -1.43748 1.15000 1.38000
v 1.43752 1.15000 1.38000
v 1.43752 0.80500 1.38000
v -1.43748 0.80500 1.38000
v 1.43752 0.34500 1.38000
v -1.43748 0.34500 1.38000
v 1.72502 -0.00000 -1.38000
v -1.72498 -0.00000 -1.38000
v 1.72502 1.49500 -1.38000
v -1.72498 1.49500 -1.38000
v 1.72502 1.15000 -1.38000
v -1.72498 1.15000 -1.38000
v 1.72502 0.34500 -1.38000
v -1.72498 0.34500 -1.38000
v 1.43752 0.34500 1.72500
v -1.43748 0.34500 1.72500
v 1.72502 0.34500 -1.72500
v -1.72498 0.34500 -1.72500
v 1.72502 1.15000 -1.72500
v -1.72498 1.15000 -1.72500
v 1.43752 0.80500 1.72500
v -1.43748 0.80500 1.72500
v -1.43748 0.00000 -0.00000
v 1.43752 0.00000 -0.00000
v -1.43748 1.15000 -0.00000
v 1.43752 1.15000 -0.00000
v 1.43752 0.80500 -0.00000
v -1.43748 0.80500 -0.00000
v 1.43752 0.34500 -0.00000
v -1.43748 0.34500 -0.00000
v 1.72502 0.00000 -0.34500
v -1.72498 0.00000 -0.34500
v 1.72502 1.49500 -0.34500
v -1.72498 1.49500 -0.34500
v 1.72502 1.15000 -0.34500
v -1.72498 1.15000 -0.34500
v 1.72502 0.34500 -0.34500
v -1.72498 0.34500 -0.34500
# 40 verticies
vt 0.01823 0.53958
vt 0.01823 0.50208
vt 0.27344 0.50208
vt 0.27344 0.53958
vt 0.64815 0.28590
vt 0.64815 0.21410
vt 0.35185 0.21410
vt 0.35185 0.28590
vt 0.01823 0.47396
vt 0.27344 0.47396
vt 0.27344 0.56771
vt 0.01823 0.56771
vt 0.38148 0.08846
vt 0.38148 0.11923
vt 0.35185 0.08846
vt 0.01852 0.38013
vt 0.04815 0.41090
vt 0.04815 0.38013
vt 0.38148 0.04744
vt 0.35185 0.04744
vt 0.38148 0.01667
vt 0.04815 0.33910
vt 0.01852 0.33910
vt 0.04815 0.30833
vt 0.64815 0.18333
vt 0.35185 0.18333
vt 0.35185 0.31667
vt 0.64815 0.31667
vt 0.64815 0.11923
vt 0.61852 0.15000
vt 0.61852 0.11923
vt 0.31481 0.41090
vt 0.28519 0.41090
vt 0.28519 0.44167
vt 0.61852 0.04744
vt 0.64815 0.04744
vt 0.61852 0.01667
vt 0.31481 0.33910
vt 0.28519 0.33910
vt 0.28519 0.30833
vt 0.04321 0.01823
vt 0.04321 0.14583
vt 0.29012 0.14583
vt 0.29012 0.01823
vt 0.95679 0.01823
vt 0.95679 0.14583
vt 0.70988 0.14583
vt 0.70988 0.01823
vt 0.50000 0.08846
vt 0.50000 0.11923
vt 0.16667 0.41090
vt 0.16667 0.38013
vt 0.50000 0.04744
vt 0.50000 0.01667
vt 0.16667 0.33910
vt 0.16667 0.30833
vt 0.01852 0.17773
vt 0.31481 0.17773
vt 0.31481 0.27344
vt 0.01852 0.27344
vt 0.98148 0.17773
vt 0.68519 0.17773
vt 0.68519 0.27344
vt 0.98148 0.27344
vt 0.52963 0.11923
vt 0.52963 0.15000
vt 0.19630 0.44167
vt 0.19630 0.41090
vt 0.52963 0.04744
vt 0.52963 0.01667
vt 0.19630 0.33910
vt 0.19630 0.30833
vt 0.28519 0.30664
# 73 texture verticies
vn 0.00000 0.00000 1.00000
vn 0.00000 -0.00000 -1.00000
vn 0.00000 -0.70711 0.70711
vn 0.00000 0.70711 0.70711
vn 1.00000 0.00000 0.00000
vn -1.00000 0.00000 0.00000
vn 0.00000 -0.70711 -0.70711
vn 0.00000 0.70711 -0.70711
vn 0.00000 -1.00000 0.00000
vn 0.00000 1.00000 -0.00000
vn 0.00000 0.70711 0.70711
vn 0.76822 0.00000 0.64018
vn 0.76822 0.00000 0.64018
vn -0.76822 0.00000 0.64018
# 14 normals
usemtl tank_enemy_03_body
f  24/1/1 18/2/1 17/3/1 23/4/1
f  21/5/2 19/6/2 20/7/2 22/8/2
f  18/2/3 1/9/3 2/10/3 17/3/3
f  23/4/4 4/11/4 3/12/4 24/1/4
f  5/13/5 4/14/5 23/15/5
f  24/16/6 3/17/6 6/18/6
f  7/19/5 5/13/5 23/15/5 17/20/5
f  17/20/5 2/21/5 7/19/5
f  24/16/6 6/18/6 8/22/6 18/23/6
f  8/22/6 1/24/6 18/23/6
f  19/6/7 9/25/7 10/26/7 20/7/7
f  22/8/8 12/27/8 11/28/8 21/5/8
f  21/29/5 11/30/5 13/31/5
f  22/32/6 14/33/6 12/34/6
f  21/29/5 13/31/5 15/35/5 19/36/5
f  19/36/5 15/35/5 9/37/5
f  20/38/6 16/39/6 14/33/6 22/32/6
f  20/38/6 10/40/6 16/39/6
f  1/41/9 25/42/9 26/43/9 2/44/9
f  4/45/10 28/46/10 27/47/10 3/48/10
f  5/13/5 29/49/5 28/50/5 4/14/5
f  3/17/6 27/51/6 30/52/6 6/18/6
f  7/19/5 31/53/5 29/49/5 5/13/5
f  2/21/5 26/54/5 31/53/5 7/19/5
f  6/18/6 30/52/6 32/55/6 8/22/6
f  8/22/6 32/55/6 25/56/6 1/24/6
f  34/57/9 33/58/9 26/43/9 25/42/9
f  9/59/9 33/58/9 34/57/9 10/60/9
f  28/46/11 35/61/11 36/62/11 27/47/11
f  12/63/10 36/62/10 35/61/10 11/64/10
f  29/49/12 37/65/12 35/66/13 28/50/13
f  11/30/5 35/66/5 37/65/5 13/31/5
f  27/51/14 36/67/14 38/68/14 30/52/14
f  14/33/6 38/68/6 36/67/6 12/34/6
f  31/53/13 39/69/13 37/65/12 29/49/12
f  13/31/5 37/65/5 39/69/5 15/35/5
f  33/70/13 39/69/13 31/53/13 26/54/13
f  15/35/5 39/69/5 33/70/5 9/37/5
f  38/68/14 40/71/14 32/55/14 30/52/14
f  16/39/6 40/71/6 38/68/6 14/33/6
f  32/55/14 40/71/14 34/72/14 25/56/14
f  10/73/6 34/72/6 40/71/6 16/39/6
