# 
# Wavefront OBJ file
# Converted by the DEEP Exploration Deep Exploration 5 5.0.2.1477 Release
# Right Hemisphere, LTD
# http://www.righthemisphere.com/
# 
mtllib tank_enemy_01_body.mtl
# object tank_enemy_01_body
g tank_enemy_01_body
v -1.25000 0.00000 1.24000
v 1.25000 0.00000 1.24000
v -1.25000 1.00000 0.94000
v 1.25000 1.00000 0.94000
v 1.25000 0.70000 1.24000
v -1.25000 0.70000 1.24000
v 1.25000 0.50000 1.24000
v -1.25000 0.50000 1.24000
v 1.25000 -0.00000 -0.76000
v -1.25000 -0.00000 -0.76000
v 1.25000 1.00000 -1.06000
v -1.25000 1.00000 -1.06000
v 1.25000 0.70000 -0.76000
v -1.25000 0.70000 -0.76000
v 1.25000 0.50000 -0.76000
v -1.25000 0.50000 -0.76000
v 1.25000 0.50000 1.74000
v -1.25000 0.50000 1.74000
v 1.25000 0.50000 -1.26000
v -1.25000 0.50000 -1.26000
v 1.25000 0.70000 -1.26000
v -1.25000 0.70000 -1.26000
v 1.25000 0.70000 1.74000
v -1.25000 0.70000 1.74000
# 24 verticies
vt 0.36050 0.50431
vt 0.36050 0.48214
vt 0.67398 0.48214
vt 0.67398 0.50431
vt 0.67398 0.60828
vt 0.67398 0.58621
vt 0.36050 0.58621
vt 0.36050 0.60828
vt 0.36050 0.42672
vt 0.67398 0.42672
vt 0.32915 0.15385
vt 0.32915 0.26298
vt 0.01567 0.26298
vt 0.01567 0.15385
vt 0.49337 0.09103
vt 0.53157 0.12414
vt 0.42971 0.09103
vt 0.01592 0.09103
vt 0.11777 0.12414
vt 0.07958 0.09103
vt 0.49337 0.06897
vt 0.42971 0.06897
vt 0.49337 0.01379
vt 0.07958 0.06897
vt 0.01592 0.06897
vt 0.07958 0.01379
vt 0.36050 0.39847
vt 0.67398 0.39847
vt 0.67398 0.15326
vt 0.36050 0.15326
vt 0.67398 0.53103
vt 0.36050 0.53103
vt 0.32915 0.53581
vt 0.01567 0.53581
vt 0.36050 0.60547
vt 0.36050 0.64138
vt 0.67398 0.64138
vt 0.74801 0.09103
vt 0.78621 0.12414
vt 0.81167 0.09103
vt 0.37241 0.12414
vt 0.33422 0.09103
vt 0.39788 0.09103
vt 0.74801 0.06897
vt 0.81167 0.06897
vt 0.74801 0.01379
vt 0.33422 0.06897
vt 0.39788 0.06897
vt 0.33422 0.01379
# 49 texture verticies
vn 0.00000 0.00000 1.00000
vn 0.00000 0.19221 -0.98135
vn 0.00000 -0.00000 -1.00000
vn 0.00000 0.38443 -0.92316
vn 0.00000 -0.70711 0.70711
vn 0.00000 0.93633 0.35112
vn 0.00000 0.99293 0.11873
vn 0.00000 0.97140 0.23747
vn 1.00000 0.00000 0.00000
vn -1.00000 0.00000 0.00000
vn 0.00000 -1.00000 0.00000
vn 0.00000 -0.70711 -0.70711
vn 0.00000 1.00000 -0.00000
vn 0.00000 0.55470 -0.83205
# 14 normals
usemtl tank_enemy_01_body
f  24/1/1 18/2/1 17/3/1 23/4/1
f  21/5/2 19/6/3 20/7/3 22/8/4
f  18/2/5 1/9/5 2/10/5 17/3/5
f  23/11/6 4/12/7 3/13/8 24/14/6
f  5/15/9 4/16/9 23/17/9
f  24/18/10 3/19/10 6/20/10
f  7/21/9 5/15/9 23/17/9 17/22/9
f  17/22/9 2/23/9 7/21/9
f  24/18/10 6/20/10 8/24/10 18/25/10
f  8/24/10 1/26/10 18/25/10
f  10/27/11 9/28/11 2/29/11 1/30/11
f  19/6/12 9/31/12 10/32/12 20/7/12
f  4/12/7 11/33/13 12/34/13 3/13/8
f  22/35/4 12/36/14 11/37/14 21/5/2
f  5/15/9 13/38/9 11/39/9 4/16/9
f  21/40/9 11/39/9 13/38/9
f  3/19/10 12/41/10 14/42/10 6/20/10
f  22/43/10 14/42/10 12/41/10
f  7/21/9 15/44/9 13/38/9 5/15/9
f  21/40/9 13/38/9 15/44/9 19/45/9
f  9/46/9 15/44/9 7/21/9 2/23/9
f  19/45/9 15/44/9 9/46/9
f  14/42/10 16/47/10 8/24/10 6/20/10
f  20/48/10 16/47/10 14/42/10 22/43/10
f  8/24/10 16/47/10 10/49/10 1/26/10
f  20/48/10 10/49/10 16/47/10
