# 
# Wavefront OBJ file
# Converted by the DEEP Exploration Deep Exploration 5 5.0.2.1477 Release
# Right Hemisphere, LTD
# http://www.righthemisphere.com/
# 
mtllib tank_enemy_04_body.mtl
# object tank_enemy_04_body
g tank_enemy_04_body
v -0.44000 -0.03187 -1.54000
v -0.44000 -0.03187 1.54000
v -0.44000 0.73813 -1.54000
v -0.44000 0.73813 1.54000
v -0.44000 0.51813 1.54000
v -0.44000 0.51813 -1.54000
v -0.44000 0.18813 1.54000
v -0.44000 0.18813 -1.54000
v -0.77000 0.18813 1.54000
v -0.77000 0.18813 -1.54000
v -0.77000 0.51813 1.54000
v -0.77000 0.51813 -1.54000
v 0.44000 -0.03187 -1.54000
v 0.44000 -0.03187 1.54000
v 0.44000 0.73813 -1.54000
v 0.44000 0.73813 1.54000
v 0.44000 0.51813 1.54000
v 0.44000 0.51813 -1.54000
v 0.44000 0.18813 1.54000
v 0.44000 0.18813 -1.54000
v 0.77000 0.18813 1.54000
v 0.77000 0.18813 -1.54000
v 0.77000 0.51813 -1.54000
v 0.77000 0.51813 1.54000
v 1.54000 -0.03187 0.44000
v -1.54000 -0.03187 0.44000
v 1.54000 0.73813 0.44000
v -1.54000 0.73813 0.44000
v -1.54000 0.51813 0.44000
v 1.54000 0.51813 0.44000
v -1.54000 0.18813 0.44000
v 1.54000 0.18813 0.44000
v -1.54000 0.18813 0.77000
v 1.54000 0.18813 0.77000
v -1.54000 0.51813 0.77000
v 1.54000 0.51813 0.77000
v 1.54000 -0.03187 -0.44000
v -1.54000 -0.03187 -0.44000
v 1.54000 0.73813 -0.44000
v -1.54000 0.73813 -0.44000
v -1.54000 0.51813 -0.44000
v 1.54000 0.51813 -0.44000
v -1.54000 0.18813 -0.44000
v 1.54000 0.18813 -0.44000
v -1.54000 0.18813 -0.77000
v 1.54000 0.18813 -0.77000
v 1.54000 0.51813 -0.77000
v -1.54000 0.51813 -0.77000
v -1.32000 0.40813 -0.88000
v -0.88000 0.40813 -1.32000
v -0.70400 1.05814 -1.05600
v -1.05600 1.05814 -0.70400
v 1.32000 0.40813 -0.88000
v 1.05600 1.05814 -0.70400
v 0.88000 0.40813 -1.32000
v 0.70400 1.05814 -1.05600
v 0.88000 0.40813 1.32000
v 0.70400 1.05814 1.05600
v 1.05600 1.05814 0.70400
v 1.32000 0.40813 0.88000
v -1.32000 0.40813 0.88000
v -1.05600 1.05814 0.70400
v -0.70400 1.05814 1.05600
v -0.88000 0.40813 1.32000
v -0.88000 0.84813 -1.32000
v 0.88000 0.84813 -1.32000
v 1.32000 0.84813 -0.88000
v 1.32000 0.84813 0.88000
v -1.32000 0.84813 -0.88000
v -1.32000 0.84813 0.88000
v 0.88000 0.84813 1.32000
v -0.88000 0.84813 1.32000
v 1.54000 0.51813 -0.79200
v -1.54000 0.51813 -0.79200
v -1.54000 0.76013 -0.44000
v 1.54000 0.76013 -0.44000
v -1.54000 0.76013 0.44000
v 1.54000 0.76013 0.44000
v -1.54000 0.51813 0.79200
v 1.54000 0.51813 0.79200
v 1.54000 0.40813 -0.79200
v -1.54000 0.40813 -0.79200
v -1.54000 0.40813 0.79200
v 1.54000 0.40813 0.79200
v 1.54000 0.52913 -0.81400
v -1.54000 0.52913 -0.81400
v -1.54000 0.78213 -0.44000
v 1.54000 0.78213 -0.44000
v -1.54000 0.78213 0.44000
v 1.54000 0.78213 0.44000
v -1.54000 0.52913 0.81400
v 1.54000 0.52913 0.81400
v 1.54000 0.40813 -0.81400
v -1.54000 0.40813 -0.81400
v -1.54000 0.40813 0.81400
v 1.54000 0.40813 0.81400
v -0.79200 0.51813 1.54000
v -0.79200 0.51813 -1.54000
v -0.44000 0.76013 -1.54000
v -0.44000 0.76013 1.54000
v 0.44000 0.76013 -1.54000
v 0.44000 0.76013 1.54000
v 0.79200 0.51813 -1.54000
v 0.79200 0.51813 1.54000
v -0.79200 0.40813 1.54000
v -0.79200 0.40813 -1.54000
v 0.79200 0.40813 -1.54000
v 0.79200 0.40813 1.54000
v -0.81400 0.52913 1.54000
v -0.81400 0.52913 -1.54000
v -0.44000 0.78213 -1.54000
v -0.44000 0.78213 1.54000
v 0.44000 0.78213 -1.54000
v 0.44000 0.78213 1.54000
v 0.81400 0.52913 -1.54000
v 0.81400 0.52913 1.54000
v -0.81400 0.40813 1.54000
v -0.81400 0.40813 -1.54000
v 0.81400 0.40813 -1.54000
v 0.81400 0.40813 1.54000
# 120 verticies
vt 0.20000 0.04167
vt 0.20000 0.01389
vt 0.02222 0.01389
vt 0.02222 0.04167
vt 0.24074 0.31111
vt 0.25661 0.31111
vt 0.25661 0.13333
vt 0.24074 0.13333
vt 0.68519 0.18889
vt 0.70106 0.18889
vt 0.70106 0.36667
vt 0.68519 0.36667
vt 0.36772 0.64484
vt 0.36772 0.65278
vt 0.35185 0.64484
vt 0.01852 0.64484
vt 0.03439 0.65278
vt 0.03439 0.64484
vt 0.36772 0.63294
vt 0.35185 0.63294
vt 0.36772 0.62500
vt 0.03439 0.63294
vt 0.01852 0.63294
vt 0.03439 0.62500
vt 0.29894 0.31111
vt 0.29894 0.13333
vt 0.74339 0.18889
vt 0.74339 0.36667
vt 0.41005 0.64484
vt 0.41005 0.65278
vt 0.07672 0.65278
vt 0.07672 0.64484
vt 0.41005 0.63294
vt 0.41005 0.62500
vt 0.07672 0.63294
vt 0.07672 0.62500
vt 0.31481 0.31111
vt 0.31481 0.13333
vt 0.75926 0.18889
vt 0.75926 0.36667
vt 0.42593 0.63294
vt 0.42593 0.64484
vt 0.09259 0.64484
vt 0.09259 0.63294
vt 0.02222 0.06944
vt 0.20000 0.06944
vt 0.20000 0.09722
vt 0.02222 0.09722
vt 0.46667 0.06944
vt 0.64444 0.06944
vt 0.64444 0.09722
vt 0.46667 0.09722
vt 0.68889 0.03439
vt 0.86667 0.03439
vt 0.86667 0.01852
vt 0.68889 0.01852
vt 0.58889 0.36772
vt 0.41111 0.36772
vt 0.41111 0.35185
vt 0.58889 0.35185
vt 0.25661 0.65278
vt 0.25661 0.64484
vt 0.24074 0.64484
vt 0.14550 0.65278
vt 0.12963 0.64484
vt 0.14550 0.64484
vt 0.25661 0.63294
vt 0.24074 0.63294
vt 0.25661 0.62500
vt 0.14550 0.63294
vt 0.12963 0.63294
vt 0.14550 0.62500
vt 0.68889 0.07672
vt 0.86667 0.07672
vt 0.58889 0.41005
vt 0.41111 0.41005
vt 0.29894 0.65278
vt 0.29894 0.64484
vt 0.18783 0.64484
vt 0.18783 0.65278
vt 0.29894 0.63294
vt 0.29894 0.62500
vt 0.18783 0.63294
vt 0.18783 0.62500
vt 0.68889 0.09259
vt 0.86667 0.09259
vt 0.58889 0.42593
vt 0.41111 0.42593
vt 0.31481 0.64484
vt 0.31481 0.63294
vt 0.20370 0.63294
vt 0.20370 0.64484
vt 0.20000 0.15278
vt 0.20000 0.12500
vt 0.02222 0.12500
vt 0.02222 0.15278
vt 0.04167 0.40972
vt 0.02083 0.43056
vt 0.02083 0.51389
vt 0.04167 0.53472
vt 0.12500 0.53472
vt 0.14583 0.51389
vt 0.14583 0.43056
vt 0.12500 0.40972
vt 0.30000 0.50556
vt 0.28333 0.52222
vt 0.21667 0.52222
vt 0.20000 0.50556
vt 0.20000 0.43889
vt 0.21667 0.42222
vt 0.28333 0.42222
vt 0.30000 0.43889
vt 0.29167 0.53472
vt 0.20833 0.53472
vt 0.02083 0.56944
vt 0.02083 0.59722
vt 0.12083 0.59722
vt 0.12083 0.56944
vt 0.31250 0.43056
vt 0.31250 0.51389
vt 0.98148 0.23611
vt 0.98148 0.26389
vt 0.90741 0.26389
vt 0.90741 0.23611
vt 0.18750 0.59722
vt 0.28750 0.59722
vt 0.28750 0.56944
vt 0.18750 0.56944
vt 0.18750 0.51389
vt 0.18750 0.43056
vt 0.20833 0.40972
vt 0.29167 0.40972
vt 0.73611 0.40278
vt 0.73611 0.43056
vt 0.65278 0.43056
vt 0.65278 0.40278
vt 0.31250 0.59722
vt 0.31250 0.56944
vt 0.63194 0.43056
vt 0.63194 0.40278
vt 0.14583 0.59722
vt 0.14583 0.56944
vt 0.75694 0.40278
vt 0.75694 0.43056
vt 0.42593 0.57843
vt 0.40891 0.59722
vt 0.40891 0.59559
vt 0.42492 0.57761
vt 0.74224 0.59559
vt 0.74224 0.59722
vt 0.75926 0.57843
vt 0.75826 0.57761
vt 0.36887 0.59722
vt 0.36887 0.59559
vt 0.70220 0.59722
vt 0.70220 0.59559
vt 0.35185 0.57843
vt 0.35285 0.57761
vt 0.68519 0.57843
vt 0.68619 0.57761
vt 0.42593 0.56944
vt 0.42492 0.56944
vt 0.35556 0.12500
vt 0.35556 0.15278
vt 0.53333 0.15278
vt 0.53333 0.12500
vt 0.75926 0.56944
vt 0.75826 0.56944
vt 0.68519 0.56944
vt 0.68619 0.56944
vt 0.75556 0.12500
vt 0.57778 0.12500
vt 0.57778 0.15278
vt 0.75556 0.15278
vt 0.35185 0.56944
vt 0.35285 0.56944
vt 0.97778 0.40947
vt 0.80000 0.40947
vt 0.80000 0.42593
vt 0.97778 0.42593
vt 0.02222 0.31481
vt 0.02222 0.29780
vt 0.20000 0.29780
vt 0.20000 0.31481
vt 0.97778 0.36831
vt 0.80000 0.36831
vt 0.02222 0.25776
vt 0.20000 0.25776
vt 0.97778 0.35185
vt 0.80000 0.35185
vt 0.02222 0.24074
vt 0.20000 0.24074
vt 0.24444 0.04167
vt 0.24444 0.01389
vt 0.42222 0.01389
vt 0.42222 0.04167
vt 0.58889 0.29167
vt 0.41111 0.29167
vt 0.41111 0.31944
vt 0.58889 0.31944
vt 0.20000 0.37500
vt 0.20000 0.34722
vt 0.02222 0.34722
vt 0.02222 0.37500
vt 0.41111 0.23611
vt 0.58889 0.23611
vt 0.58889 0.26389
vt 0.41111 0.26389
vt 0.25776 0.37337
vt 0.25776 0.37500
vt 0.24074 0.35621
vt 0.24174 0.35539
vt 0.90741 0.30065
vt 0.92442 0.31944
vt 0.92442 0.31781
vt 0.90841 0.29984
vt 0.29780 0.37500
vt 0.29780 0.37337
vt 0.96446 0.31944
vt 0.96446 0.31781
vt 0.31481 0.35621
vt 0.31381 0.35539
vt 0.98148 0.30065
vt 0.98048 0.29984
vt 0.24074 0.34722
vt 0.24174 0.34722
vt 0.34722 0.18889
vt 0.34722 0.36667
vt 0.37500 0.36667
vt 0.37500 0.18889
vt 0.90741 0.29167
vt 0.90841 0.29167
vt 0.98148 0.29167
vt 0.98048 0.29167
vt 0.62500 0.36667
vt 0.65278 0.36667
vt 0.65278 0.18889
vt 0.62500 0.18889
vt 0.31481 0.34722
vt 0.31381 0.34722
vt 0.90741 0.20000
vt 0.92387 0.20000
vt 0.92387 0.02222
vt 0.90741 0.02222
vt 0.81331 0.13333
vt 0.81331 0.31111
vt 0.79630 0.31111
vt 0.79630 0.13333
vt 0.96502 0.20000
vt 0.96502 0.02222
vt 0.85335 0.13333
vt 0.85335 0.31111
vt 0.98148 0.20000
vt 0.98148 0.02222
vt 0.87037 0.13333
vt 0.87037 0.31111
vt 0.41111 0.18056
vt 0.58889 0.18056
vt 0.58889 0.20833
vt 0.41111 0.20833
vt 0.20000 0.20833
vt 0.20000 0.18056
vt 0.02222 0.18056
vt 0.02222 0.20833
vt 0.42222 0.06944
vt 0.24444 0.06944
vt 0.24444 0.09717
vt 0.42222 0.09722
vt 0.46667 0.04167
vt 0.46667 0.01389
vt 0.64444 0.01389
vt 0.64444 0.04167
# 272 texture verticies
vn -1.00000 0.00000 0.00000
vn -0.55470 -0.83205 0.00000
vn -0.19221 -0.98135 0.00000
vn -0.38443 -0.92316 0.00000
vn -0.55470 0.83205 -0.00000
vn -0.19221 0.98135 -0.00000
vn -0.38443 0.92316 -0.00000
vn 0.00000 0.00000 1.00000
vn 0.00000 -0.00000 -1.00000
vn 0.28978 -0.95709 0.00000
vn 0.38443 0.92316 -0.00000
vn 0.19221 0.98135 -0.00000
vn 0.55470 -0.83205 0.00000
vn 0.55470 0.83205 -0.00000
vn 1.00000 0.00000 0.00000
vn 0.00000 -0.92316 0.38443
vn 0.00000 -0.98135 0.19221
vn 0.00000 -0.83205 0.55470
vn 0.00000 0.92316 0.38443
vn 0.00000 0.98135 0.19221
vn 0.00000 0.83205 0.55470
vn 0.00000 -0.95709 -0.28978
vn 0.00000 0.98135 -0.19221
vn 0.00000 0.92316 -0.38443
vn 0.00000 -0.83205 -0.55470
vn 0.00000 0.83205 -0.55470
vn 0.00000 -1.00000 0.00000
vn 0.30875 0.94355 -0.11997
vn 0.08348 0.97307 -0.21484
vn -0.13976 0.92255 -0.35968
vn -0.43284 0.89541 -0.10437
vn -0.24906 0.95841 0.13939
vn -0.08348 0.97307 0.21484
vn 0.13976 0.92255 0.35968
vn 0.35968 0.92255 0.13976
vn 0.20321 0.82776 -0.52300
vn -0.20321 0.82776 -0.52300
vn 0.52300 0.82776 0.20321
vn 0.52300 0.82776 -0.20321
vn -0.48265 0.83311 -0.27012
vn -0.56013 0.81732 0.13506
vn -0.20321 0.82776 0.52300
vn 0.20321 0.82776 0.52300
vn -0.70711 -0.00000 -0.70711
vn -0.70711 0.00000 0.70711
vn 0.70711 -0.00000 -0.70711
vn 0.70711 0.00000 0.70711
vn 0.00000 -1.00000 0.00000
vn 0.00000 -1.00000 -0.00000
vn 0.00000 -0.91938 0.39338
vn 0.00000 -0.98047 0.19669
vn 0.00000 -0.82404 0.56653
vn 0.00000 0.82828 -0.56031
vn 0.00000 0.98094 -0.19433
vn 0.00000 0.92138 -0.38867
vn 0.00000 -0.98047 -0.19669
vn 0.00000 -0.91938 -0.39338
vn 0.00000 0.92138 0.38866
vn 0.00000 0.98094 0.19433
vn 0.00000 -0.82404 -0.56653
vn 0.00000 0.82828 0.56031
vn 0.00000 -1.00000 0.00000
vn -0.00000 -1.00000 0.00000
vn 0.56653 -0.82404 0.00000
vn 0.19669 -0.98047 0.00000
vn 0.39338 -0.91938 0.00000
vn -0.38867 0.92138 -0.00000
vn -0.19433 0.98094 -0.00000
vn -0.56031 0.82828 -0.00000
vn -0.39338 -0.91938 0.00000
vn -0.19669 -0.98047 0.00000
vn 0.19433 0.98094 -0.00000
vn 0.38867 0.92138 -0.00000
vn -0.56653 -0.82404 0.00000
vn 0.56031 0.82828 -0.00000
# 75 normals
usemtl tank_enemy_04_body
f  12/1/1 10/2/1 9/3/1 11/4/1
f  10/5/2 1/6/3 2/7/4 9/8/2
f  11/9/5 4/10/6 3/11/7 12/12/5
f  5/13/8 4/14/8 11/15/8
f  12/16/9 3/17/9 6/18/9
f  7/19/8 5/13/8 11/15/8 9/20/8
f  9/20/8 2/21/8 7/19/8
f  12/16/9 6/18/9 8/22/9 10/23/9
f  8/22/9 1/24/9 10/23/9
f  1/6/3 13/25/10 14/26/10 2/7/4
f  4/10/6 16/27/11 15/28/12 3/11/7
f  5/13/8 17/29/8 16/30/8 4/14/8
f  3/17/9 15/31/9 18/32/9 6/18/9
f  7/19/8 19/33/8 17/29/8 5/13/8
f  2/21/8 14/34/8 19/33/8 7/19/8
f  6/18/9 18/32/9 20/35/9 8/22/9
f  8/22/9 20/35/9 13/36/9 1/24/9
f  22/37/13 21/38/13 14/26/10 13/25/10
f  16/27/11 24/39/14 23/40/14 15/28/12
f  19/33/8 21/41/8 24/42/8 17/29/8
f  23/43/9 22/44/9 20/35/9 18/32/9
f  21/45/15 22/46/15 23/47/15 24/48/15
f  17/29/8 24/42/8 16/30/8
f  19/33/8 14/34/8 21/41/8
f  23/43/9 18/32/9 15/31/9
f  22/44/9 13/36/9 20/35/9
f  33/49/8 34/50/8 36/51/8 35/52/8
f  26/53/16 25/54/17 34/55/18 33/56/18
f  27/57/19 28/58/20 35/59/21 36/60/21
f  28/61/1 29/62/1 35/63/1
f  27/64/15 36/65/15 30/66/15
f  35/63/1 29/62/1 31/67/1 33/68/1
f  26/69/1 33/68/1 31/67/1
f  32/70/15 30/66/15 36/65/15 34/71/15
f  25/72/15 32/70/15 34/71/15
f  38/73/22 37/74/22 25/54/17 26/53/16
f  39/75/23 40/76/24 28/58/20 27/57/19
f  40/77/1 41/78/1 29/62/1 28/61/1
f  42/79/15 39/80/15 27/64/15 30/66/15
f  41/78/1 43/81/1 31/67/1 29/62/1
f  43/81/1 38/82/1 26/69/1 31/67/1
f  44/83/15 42/79/15 30/66/15 32/70/15
f  37/84/15 44/83/15 32/70/15 25/72/15
f  38/73/22 45/85/25 46/86/25 37/74/22
f  47/87/26 48/88/26 40/76/24 39/75/23
f  48/89/1 45/90/1 43/81/1 41/78/1
f  44/83/15 46/91/15 47/92/15 42/79/15
f  47/93/9 46/94/9 45/95/9 48/96/9
f  48/89/1 41/78/1 40/77/1
f  38/82/1 43/81/1 45/90/1
f  42/79/15 47/92/15 39/80/15
f  37/84/15 46/91/15 44/83/15
f  64/97/27 61/98/27 49/99/27 50/100/27 55/101/27 53/102/27 60/103/27\
57/104/27
f  54/105/28 56/106/29 51/107/30 52/108/31 62/109/32 63/110/33\
58/111/34 59/112/35
f  66/113/36 65/114/37 51/107/30 56/106/29
f  50/115/9 65/116/9 66/117/9 55/118/9
f  68/119/38 67/120/39 54/105/28 59/112/35
f  53/121/15 67/122/15 68/123/15 60/124/15
f  70/125/1 69/126/1 49/127/1 61/128/1
f  52/108/31 69/129/40 70/130/41 62/109/32
f  72/131/42 71/132/43 58/111/34 63/110/33
f  57/133/8 71/134/8 72/135/8 64/136/8
f  69/126/44 65/137/44 50/138/44 49/127/44
f  51/107/30 65/114/37 69/129/40 52/108/31
f  64/136/45 72/135/45 70/139/45 61/140/45
f  62/109/32 70/130/41 72/131/42 63/110/33
f  55/118/46 66/117/46 67/141/46 53/142/46
f  54/105/28 67/120/39 66/113/36 56/106/29
f  60/143/47 68/144/47 71/134/47 57/133/47
f  58/111/34 71/132/43 68/119/38 59/112/35
f  85/145/15 88/146/15 76/147/15 73/148/15
f  75/149/1 87/150/1 86/151/1 74/152/1
f  76/147/15 88/146/15 90/153/15 78/154/15
f  89/155/1 87/150/1 75/149/1 77/156/1
f  78/154/15 90/153/15 92/157/15 80/158/15
f  91/159/1 89/155/1 77/156/1 79/160/1
f  93/161/15 85/145/15 73/148/15 81/162/15
f  82/163/48 94/164/48 93/165/48 81/166/48
f  74/152/1 86/151/1 94/167/1 82/168/1
f  95/169/1 91/159/1 79/160/1 83/170/1
f  96/171/49 95/172/49 83/173/49 84/174/49
f  80/158/15 92/157/15 96/175/15 84/176/15
f  76/177/50 75/178/51 74/179/52 73/180/52
f  86/181/53 87/182/54 88/183/55 85/184/53
f  78/185/56 77/186/57 75/178/51 76/177/50
f  87/182/54 89/187/58 90/188/59 88/183/55
f  80/189/60 79/190/60 77/186/57 78/185/56
f  89/187/58 91/191/61 92/192/61 90/188/59
f  74/193/8 82/194/8 81/195/8 73/196/8
f  93/197/9 94/198/9 86/199/9 85/200/9
f  80/201/9 84/202/9 83/203/9 79/204/9
f  95/205/8 96/206/8 92/207/8 91/208/8
f  100/209/8 112/210/8 109/211/8 97/212/8
f  110/213/9 111/214/9 99/215/9 98/216/9
f  114/217/8 112/210/8 100/209/8 102/218/8
f  99/215/9 111/214/9 113/219/9 101/220/9
f  116/221/8 114/217/8 102/218/8 104/222/8
f  101/220/9 113/219/9 115/223/9 103/224/9
f  97/212/8 109/211/8 117/225/8 105/226/8
f  117/227/62 118/228/62 106/229/62 105/230/62
f  118/231/9 110/213/9 98/216/9 106/232/9
f  103/224/9 115/223/9 119/233/9 107/234/9
f  107/235/63 119/236/63 120/237/63 108/238/63
f  120/239/8 116/221/8 104/222/8 108/240/8
f  98/241/64 99/242/65 100/243/66 97/244/64
f  112/245/67 111/246/68 110/247/69 109/248/69
f  99/242/65 101/249/70 102/250/71 100/243/66
f  114/251/72 113/252/73 111/246/68 112/245/67
f  101/249/70 103/253/74 104/254/74 102/250/71
f  116/255/75 115/256/75 113/252/73 114/251/72
f  105/257/15 106/258/15 98/259/15 97/260/15
f  110/261/1 118/262/1 117/263/1 109/264/1
f  107/265/1 108/266/1 104/267/1 103/268/1
f  116/269/15 120/270/15 119/271/15 115/272/15
