# 
# Wavefront OBJ file
# Converted by the DEEP Exploration Deep Exploration 5 5.0.2.1477 Release
# Right Hemisphere, LTD
# http://www.righthemisphere.com/
# 
mtllib historic_column_11.mtl
# object historic_column_11
g historic_column_11
v -0.00000 -0.00000 0.40000
v 0.60000 0.40000 0.40000
v 0.60000 0.40000 -0.40000
v -0.00000 -0.00000 -0.40000
v -0.00000 0.80000 0.40000
v 0.60000 0.80000 0.40000
v 0.60000 0.80000 -0.40000
v -0.00000 0.80000 -0.40000
# 8 verticies
vt 0.35256 0.03297
vt 0.35256 0.23077
vt 0.03205 0.23077
vt 0.03205 0.03297
vt 0.66154 0.23077
vt 0.66154 0.42857
vt 0.41538 0.42857
vt 0.41538 0.03297
vt 0.35256 0.42857
vt 0.03205 0.42857
vt 0.72308 0.42857
vt 0.96923 0.42857
vt 0.96923 0.23077
vt 0.72308 0.03297
vt 0.03205 0.89011
vt 0.35256 0.89011
vt 0.35256 0.49451
vt 0.03205 0.49451
vt 0.66154 0.49219
vt 0.66154 0.81410
vt 0.41538 0.81410
vt 0.41538 0.49359
# 22 texture verticies
vn 0.55470 -0.83205 0.00000
vn -0.00000 0.00000 1.00000
vn 0.00000 0.00000 1.00000
vn -0.00000 0.00000 1.00000
vn 1.00000 0.00000 0.00000
vn -0.00000 -0.00000 -1.00000
vn 0.00000 -0.00000 -1.00000
vn -0.00000 -0.00000 -1.00000
vn -1.00000 0.00000 0.00000
vn 0.00000 1.00000 -0.00000
# 10 normals
usemtl historic_column_11
f  4/1/1 3/2/1 2/3/1 1/4/1
f  2/5/2 6/6/3 5/7/2 1/8/4
f  3/2/5 7/9/5 6/10/5 2/3/5
f  8/11/6 7/12/7 3/13/6 4/14/8
f  5/15/9 8/16/9 4/17/9 1/18/9
f  6/19/10 7/20/10 8/21/10 5/22/10
