# 
# Wavefront OBJ file
# Converted by the DEEP Exploration Deep Exploration 5 5.0.2.1477 Release
# Right Hemisphere, LTD
# http://www.righthemisphere.com/
# 
mtllib historic_column_6.mtl
# object historic_column_6
g historic_column_6
v -0.60000 -0.00000 0.60000
v 0.60000 -0.00000 0.60000
v 0.60000 -0.00000 -0.60000
v -0.60000 -0.00000 -0.60000
v -0.58000 0.54000 0.58000
v 0.50000 0.66000 0.56000
v 0.54000 0.34000 -0.56000
v -0.56000 0.44000 -0.56000
v -0.32000 1.20000 -0.00000
v -0.28000 1.10000 -0.32000
v 0.02000 1.01500 -0.36000
v -0.06000 1.10000 0.04000
v -0.54000 0.80000 0.20000
v -0.50000 0.80000 -0.48000
v 0.08000 0.80000 -0.48000
v 0.00000 0.74000 0.26000
# 16 verticies
vt 0.02521 0.68067
vt 0.32773 0.68067
vt 0.32773 0.37815
vt 0.02521 0.37815
vt 0.68067 0.55147
vt 0.65546 0.68382
vt 0.38319 0.65976
vt 0.37815 0.55147
vt 0.68067 0.37500
vt 0.67059 0.44318
vt 0.38824 0.50735
vt 0.37815 0.37500
vt 0.03529 0.13613
vt 0.31261 0.11092
vt 0.32773 0.02521
vt 0.02521 0.02521
vt 0.38319 0.16134
vt 0.67059 0.13613
vt 0.68067 0.02521
vt 0.37815 0.02521
vt 0.96674 0.02881
vt 0.85732 0.09331
vt 0.73915 0.10621
vt 0.73039 0.02451
vt 0.47899 0.22689
vt 0.65042 0.22689
vt 0.05042 0.22689
vt 0.19664 0.22689
vt 0.97549 0.26961
vt 0.87482 0.25241
vt 0.84419 0.14061
vt 0.78729 0.14921
vt 0.52941 0.32617
vt 0.61008 0.30252
vt 0.10588 0.30252
vt 0.17143 0.28235
vt 0.16134 0.30252
vt 0.17647 0.21176
vt 0.09580 0.32773
# 39 texture verticies
vn 0.00000 -1.00000 0.00000
vn 0.00578 0.04963 0.99875
vn 0.01157 0.06224 0.99799
vn 0.00000 0.03701 0.99931
vn 0.98665 0.16266 -0.00749
vn 0.74434 0.66591 -0.05014
vn 0.98872 0.14981 -0.00000
vn 0.01009 0.14122 -0.98993
vn 0.01008 0.16809 -0.98572
vn 0.00540 0.10464 -0.99450
vn 0.00000 0.09054 -0.99589
vn -0.99656 0.08095 -0.01765
vn -0.99115 0.12753 -0.03694
vn -0.99781 0.06494 -0.01281
vn -0.99931 0.03701 -0.00000
vn 0.11353 0.98290 0.14495
vn 0.59005 0.80683 0.02929
vn 0.00229 0.75392 0.65696
vn -0.08152 0.82654 0.55694
vn -0.96624 0.25345 -0.04634
vn -0.88284 0.44860 -0.13909
vn 0.00654 0.28810 -0.95758
vn 0.00791 0.38271 -0.92383
vn 0.91292 0.38272 0.14182
vn -0.00455 0.47624 0.87930
vn 0.02858 0.43441 0.90026
vn -0.03766 0.51650 0.85546
vn -0.80159 0.57149 -0.17565
vn -0.68970 0.66211 -0.29312
vn 0.01172 0.48147 -0.87638
vn 0.02344 0.49221 -0.87016
vn 0.97057 0.18438 0.15493
vn 0.96768 0.21030 0.13920
vn 0.31633 0.92875 -0.19331
vn 0.25045 0.95596 -0.15305
vn 0.38008 0.89531 -0.23227
# 36 normals
usemtl historic_column_6
f  4/1/1 3/2/1 2/3/1 1/4/1
f  2/5/2 6/6/3 5/7/2 1/8/4
f  3/9/5 7/10/6 6/11/5 2/12/7
f  8/13/8 7/14/9 3/15/10 4/16/11
f  5/17/12 8/18/13 4/19/14 1/20/15
f  6/21/16 16/22/17 13/23/18 5/24/19
f  13/25/20 14/26/21 8/18/13 5/17/12
f  14/27/22 15/28/23 7/14/9 8/13/8
f  7/29/6 15/30/24 16/22/17 6/21/16
f  12/31/25 9/32/26 13/23/18 16/22/27
f  9/33/28 10/34/29 14/26/21 13/25/20
f  10/35/30 11/36/31 15/28/23 14/27/22
f  15/28/24 11/36/32 12/37/33 16/38/17
f  12/37/34 11/36/35 10/35/34 9/39/36
