# 
# Wavefront OBJ file
# Converted by the DEEP Exploration Deep Exploration 5 5.0.2.1477 Release
# Right Hemisphere, LTD
# http://www.righthemisphere.com/
# 
mtllib historic_column_7.mtl
# object historic_column_7
g historic_column_7
v -0.30000 -0.00000 0.30000
v 0.30000 -0.00000 0.30000
v 0.30000 -0.00000 -0.30000
v -0.30000 -0.00000 -0.30000
v -0.15000 0.40000 0.15000
v 0.11000 0.42000 0.10000
v 0.12000 0.48000 -0.19000
v -0.14000 0.40000 -0.17000
v -0.25000 0.20000 0.25000
v 0.28000 0.28000 0.22000
v 0.27000 0.28000 -0.26000
v -0.26000 0.20000 -0.27000
# 12 verticies
vt 0.02976 0.39796
vt 0.32738 0.39796
vt 0.32738 0.03061
vt 0.02976 0.03061
vt 0.59028 0.79410
vt 0.59524 0.97024
vt 0.46627 0.95809
vt 0.46131 0.76373
vt 0.41171 0.70299
vt 0.67460 0.72121
vt 0.68452 0.67262
vt 0.38690 0.67262
vt 0.51020 0.29018
vt 0.43673 0.20337
vt 0.73061 0.20337
vt 0.68776 0.32738
vt 0.75510 0.02976
vt 0.38776 0.02976
vt 0.31250 0.63194
vt 0.04960 0.58234
vt 0.10913 0.70635
vt 0.23810 0.75595
vt 0.02976 0.45833
vt 0.32738 0.45833
vt 0.73673 0.50000
vt 0.41837 0.50000
vt 0.47959 0.61429
vt 0.67551 0.61429
vt 0.38776 0.38495
vt 0.75510 0.38571
# 30 texture verticies
vn 0.00000 -1.00000 0.00000
vn -0.17827 0.97962 0.09250
vn -0.27590 0.94309 0.18561
vn -0.07716 0.99702 -0.00241
vn 0.03212 0.58699 0.80896
vn -0.00180 0.32581 0.94543
vn 0.02598 0.48886 0.87197
vn 0.08156 0.70386 0.70564
vn 0.00641 0.25908 0.96583
vn 0.00000 0.24254 0.97014
vn 0.73728 0.67233 0.06622
vn 0.64125 0.76721 -0.01336
vn 0.86186 0.50567 0.03873
vn 0.81520 0.56094 0.14417
vn 0.99586 0.09036 -0.01035
vn 0.99746 0.07125 -0.00000
vn -0.05136 0.25090 -0.96665
vn -0.02974 0.31560 -0.94843
vn -0.10052 0.35395 -0.92985
vn -0.14441 0.22865 -0.96274
vn -0.00192 0.14526 -0.98939
vn 0.00000 0.14142 -0.98995
vn -0.93324 0.35924 0.00232
vn -0.93560 0.35260 0.01799
vn -0.87197 0.48954 -0.00474
vn -0.85127 0.52406 -0.02660
vn -0.97510 0.22158 0.00932
vn -0.98058 0.19612 -0.00000
# 28 normals
usemtl historic_column_7
f  4/1/1 3/2/1 2/3/1 1/4/1
f  6/5/2 7/6/3 8/7/2 5/8/4
f  5/8/5 9/9/6 10/10/7 6/5/8
f  2/11/9 10/10/7 9/9/6 1/12/10
f  6/13/11 10/14/12 11/15/13 7/16/14
f  3/17/15 11/15/13 10/14/15 2/18/16
f  11/19/17 12/20/18 8/21/19 7/22/20
f  4/23/21 12/20/18 11/19/17 3/24/22
f  12/25/23 9/26/24 5/27/25 8/28/26
f  1/29/27 9/26/24 12/25/23 4/30/28
