# 
# Wavefront OBJ file
# Converted by the DEEP Exploration Deep Exploration 5 5.0.2.1477 Release
# Right Hemisphere, LTD
# http://www.righthemisphere.com/
# 
mtllib historic_column_5.mtl
# object historic_column_5
g historic_column_5
v -0.60000 -0.00000 0.60000
v 0.60000 -0.00000 0.60000
v 0.60000 -0.00000 -0.60000
v -0.60000 -0.00000 -0.60000
v -0.60000 2.40000 0.60000
v 0.60000 2.40000 0.60000
v 0.60000 2.40000 -0.60000
v -0.60000 2.40000 -0.60000
# 8 verticies
vt 0.02083 0.77917
vt 0.22917 0.77917
vt 0.22917 0.57083
vt 0.02083 0.57083
vt 0.47917 0.02292
vt 0.47917 0.52708
vt 0.27083 0.52708
vt 0.27083 0.02292
vt 0.22917 0.02292
vt 0.22917 0.52708
vt 0.02083 0.52708
vt 0.02083 0.02292
vt 0.77083 0.52708
vt 0.97917 0.52708
vt 0.97917 0.02292
vt 0.77083 0.02292
vt 0.52083 0.52708
vt 0.72917 0.52708
vt 0.72917 0.02292
vt 0.52083 0.02292
vt 0.47917 0.57031
vt 0.47917 0.77917
vt 0.27083 0.77917
vt 0.27083 0.57083
# 24 texture verticies
vn 0.00000 -1.00000 0.00000
vn 0.00000 0.00000 1.00000
vn 1.00000 0.00000 0.00000
vn 0.00000 -0.00000 -1.00000
vn -1.00000 0.00000 0.00000
vn 0.00000 1.00000 -0.00000
# 6 normals
usemtl historic_column_5
f  4/1/1 3/2/1 2/3/1 1/4/1
f  2/5/2 6/6/2 5/7/2 1/8/2
f  3/9/3 7/10/3 6/11/3 2/12/3
f  8/13/4 7/14/4 3/15/4 4/16/4
f  5/17/5 8/18/5 4/19/5 1/20/5
f  6/21/6 7/22/6 8/23/6 5/24/6
