# 
# Wavefront OBJ file
# Converted by the DEEP Exploration Deep Exploration 5 5.0.2.1477 Release
# Right Hemisphere, LTD
# http://www.righthemisphere.com/
# 
mtllib historic_tower_1.mtl
# object historic_tower_1
g historic_tower_1
v 1.20000 2.39894 -2.40000
v 2.40000 2.39894 -2.40000
v 2.40000 2.39894 -1.20000
v 1.20000 2.39894 -1.20000
v 1.80000 3.99894 -1.80000
v 3.00000 0.00000 3.00000
v 3.00000 -0.00000 -3.00000
v 3.00000 0.80000 3.00000
v 3.00000 0.80000 -3.00000
v 1.60000 0.80000 1.60000
v 1.60000 0.80000 -1.60000
v 1.60000 1.60000 1.60000
v 1.60000 1.60000 -1.60000
v 2.40000 1.60000 2.40000
v 2.40000 1.60000 -2.40000
v 2.40000 2.40000 2.40000
v 2.40000 2.40000 -2.40000
v 0.00000 0.00000 3.00000
v 0.00000 -0.00000 -3.00000
v 0.00000 0.80000 3.00000
v 0.00000 0.80000 -3.00000
v 0.00000 0.80000 1.60000
v 0.00000 0.80000 -1.60000
v 0.00000 1.60000 1.60000
v 0.00000 1.60000 -1.60000
v 0.00000 1.60000 2.40000
v 0.00000 1.60000 -2.40000
v 0.00000 2.40000 2.40000
v 0.00000 2.40000 -2.40000
v 1.20000 2.39894 1.20000
v 2.40000 2.39894 1.20000
v 2.40000 2.39894 2.40000
v 1.20000 2.39894 2.40000
v 1.80000 3.99894 1.80000
v -1.20000 2.39894 -2.40000
v -2.40000 2.39894 -2.40000
v -2.40000 2.39894 -1.20000
v -1.20000 2.39894 -1.20000
v -1.80000 3.99894 -1.80000
v -3.00000 0.00000 3.00000
v -3.00000 -0.00000 -3.00000
v -3.00000 0.80000 3.00000
v -3.00000 0.80000 -3.00000
v -1.60000 0.80000 1.60000
v -1.60000 0.80000 -1.60000
v -1.60000 1.60000 1.60000
v -1.60000 1.60000 -1.60000
v -2.40000 1.60000 2.40000
v -2.40000 1.60000 -2.40000
v -2.40000 2.40000 2.40000
v -2.40000 2.40000 -2.40000
v -1.20000 2.39894 1.20000
v -2.40000 2.39894 1.20000
v -2.40000 2.39894 2.40000
v -1.20000 2.39894 2.40000
v -1.80000 3.99894 1.80000
# 56 verticies
vt 0.31250 0.77604
vt 0.35938 0.68229
vt 0.26563 0.68229
vt 0.43750 0.77604
vt 0.39062 0.68229
vt 0.48438 0.68229
vt 0.10938 0.68229
vt 0.06250 0.77604
vt 0.01562 0.68229
vt 0.14063 0.68229
vt 0.18750 0.77604
vt 0.23438 0.68229
vt 0.98077 0.01389
vt 0.98077 0.06944
vt 0.51923 0.06944
vt 0.51923 0.01389
vt 0.69010 0.51389
vt 0.69010 0.56944
vt 0.43490 0.56944
vt 0.43490 0.51389
vt 0.39773 0.51389
vt 0.39773 0.56944
vt 0.01894 0.56944
vt 0.01894 0.51389
vt 0.48214 0.01923
vt 0.26786 0.01923
vt 0.26786 0.48077
vt 0.48214 0.48077
vt 0.01786 0.65278
vt 0.01786 0.59722
vt 0.23214 0.59722
vt 0.23214 0.65278
vt 0.94048 0.51389
vt 0.72619 0.51389
vt 0.72619 0.56944
vt 0.94048 0.56944
vt 0.01786 0.48077
vt 0.01786 0.01923
vt 0.23214 0.01923
vt 0.23214 0.48077
vt 0.68333 0.65278
vt 0.68333 0.59722
vt 0.81667 0.59722
vt 0.81667 0.65278
vt 0.98333 0.59722
vt 0.85000 0.59722
vt 0.85000 0.65278
vt 0.98333 0.65278
vt 0.89931 0.10227
vt 0.72569 0.10227
vt 0.72569 0.48106
vt 0.89931 0.48106
vt 0.47569 0.65278
vt 0.47569 0.59722
vt 0.64931 0.59722
vt 0.64931 0.65278
vt 0.44097 0.59722
vt 0.26736 0.59722
vt 0.26736 0.65278
vt 0.44097 0.65278
vt 0.51736 0.48106
vt 0.51736 0.10227
vt 0.69097 0.10227
vt 0.69097 0.48106
vt 0.18750 0.77578
# 65 texture verticies
vn 0.00000 0.35112 -0.93633
vn 0.93633 0.35112 -0.00000
vn 0.00000 0.35112 0.93633
vn -0.93633 0.35112 -0.00000
vn 1.00000 0.00000 0.00000
vn 0.00000 -1.00000 0.00000
vn 0.00000 0.00000 1.00000
vn 0.00000 -0.00000 -1.00000
vn 0.00000 1.00000 -0.00000
vn 0.00000 0.35112 0.93633
vn -1.00000 0.00000 0.00000
# 11 normals
usemtl historic_tower_1
f  5/1/1 2/2/1 1/3/1
f  5/4/2 3/5/2 2/6/2
f  3/7/3 5/8/3 4/9/3
f  4/10/4 5/11/4 1/12/4
f  7/13/5 9/14/5 8/15/5 6/16/5
f  11/17/5 13/18/5 12/19/5 10/20/5
f  15/21/5 17/22/5 16/23/5 14/24/5
f  6/25/6 18/26/6 19/27/6 7/28/6
f  20/29/7 18/30/7 6/31/7 8/32/7
f  7/33/8 19/34/8 21/35/8 9/36/8
f  21/37/9 20/38/9 8/39/9 9/40/9
f  24/41/7 22/42/7 10/43/7 12/44/7
f  11/45/8 23/46/8 25/47/8 13/48/8
f  14/49/6 26/50/6 27/51/6 15/52/6
f  28/53/7 26/54/7 14/55/7 16/56/7
f  15/57/8 27/58/8 29/59/8 17/60/8
f  29/61/9 28/62/9 16/63/9 17/64/9
f  34/1/1 31/2/1 30/3/1
f  34/4/2 32/5/2 31/6/2
f  32/7/10 34/8/10 33/9/10
f  33/10/4 34/11/4 30/12/4
f  36/2/1 39/1/1 35/3/1
f  37/5/4 39/4/4 36/6/4
f  39/8/3 37/7/3 38/9/3
f  39/11/2 38/10/2 35/12/2
f  42/15/11 43/14/11 41/13/11 40/16/11
f  46/19/11 47/18/11 45/17/11 44/20/11
f  50/23/11 51/22/11 49/21/11 48/24/11
f  19/27/6 18/26/6 40/25/6 41/28/6
f  40/31/7 18/30/7 20/29/7 42/32/7
f  21/35/8 19/34/8 41/33/8 43/36/8
f  42/39/9 20/38/9 21/37/9 43/40/9
f  44/43/7 22/42/7 24/41/7 46/44/7
f  25/47/8 23/46/8 45/45/8 47/48/8
f  27/51/6 26/50/6 48/49/6 49/52/6
f  48/55/7 26/54/7 28/53/7 50/56/7
f  29/59/8 27/58/8 49/57/8 51/60/8
f  50/63/9 28/62/9 29/61/9 51/64/9
f  53/2/1 56/1/1 52/3/1
f  54/5/4 56/4/4 53/6/4
f  56/8/10 54/7/10 55/9/10
f  56/65/2 55/10/2 52/12/2
