# 
# Wavefront OBJ file
# Converted by the DEEP Exploration Deep Exploration 5 5.0.2.1477 Release
# Right Hemisphere, LTD
# http://www.righthemisphere.com/
# 
mtllib historic_wall_3.mtl
# object historic_wall_3
g historic_wall_3
v -2.00000 0.00000 0.50000
v 2.00000 0.00000 0.50000
v 2.00000 -0.00000 -0.50000
v -2.00000 -0.00000 -0.50000
v -2.00000 5.00000 0.50000
v 2.00000 5.00000 0.50000
v 2.00000 5.00000 -0.50000
v -2.00000 5.00000 -0.50000
v -1.50000 0.00000 0.50000
v -1.50000 -0.00000 -0.50000
v 1.50000 -0.00000 -0.50000
v 1.50000 0.00000 0.50000
v 1.50000 5.00000 0.50000
v 1.50000 5.00000 -0.50000
v 2.00000 4.50000 0.50000
v 2.00000 4.50000 -0.50000
v -2.00000 4.50000 0.50000
v -2.00000 4.50000 -0.50000
v 1.50000 4.50000 0.50000
v 1.50000 4.50000 -0.50000
v 2.00000 2.00000 0.50000
v 2.00000 2.00000 -0.50000
v -2.00000 2.00000 -0.50000
v -2.00000 2.00000 0.50000
v -1.50000 2.00000 0.50000
v -1.50000 2.00000 -0.50000
v 1.50000 2.00000 0.50000
v 1.50000 2.00000 -0.50000
v -0.40000 4.90000 -0.40000
v -0.60000 4.40000 -0.40000
v -0.95000 4.40000 0.40000
v -0.60000 4.90000 0.30000
v -1.50000 5.00000 0.50000
v -1.50000 5.00000 -0.50000
v -1.50000 4.50000 0.50000
v -1.50000 4.50000 -0.50000
v 1.50000 5.00000 0.50000
v 1.50000 4.50000 0.50000
v 1.50000 4.50000 -0.50000
v 1.50000 5.00000 -0.50000
v 0.85000 4.90000 0.35000
v 0.90000 4.50000 0.30000
v 0.80000 4.65000 -0.40000
v 0.65000 5.00000 -0.40000
# 44 verticies
vt 0.00990 0.59549
vt 0.05690 0.59549
vt 0.05690 0.50868
vt 0.00990 0.50868
vt 0.00926 0.61285
vt 0.05556 0.61285
vt 0.05556 0.69965
vt 0.00926 0.69965
vt 0.33893 0.59549
vt 0.33893 0.50868
vt 0.38594 0.50868
vt 0.38594 0.59549
vt 0.97135 0.59549
vt 0.92448 0.59549
vt 0.92448 0.50868
vt 0.97135 0.50868
vt 0.40451 0.49000
vt 0.40451 0.44200
vt 0.49132 0.44200
vt 0.49132 0.49000
vt 0.59549 0.44200
vt 0.50868 0.44200
vt 0.50868 0.49000
vt 0.59549 0.49000
vt 0.61406 0.49000
vt 0.61406 0.44200
vt 0.66107 0.44200
vt 0.66107 0.49000
vt 0.05690 0.44200
vt 0.00990 0.44200
vt 0.00990 0.49000
vt 0.05690 0.49000
vt 0.94310 0.44200
vt 0.99010 0.44200
vt 0.99010 0.49000
vt 0.94310 0.49000
vt 0.38594 0.49000
vt 0.38594 0.44200
vt 0.33893 0.44200
vt 0.33893 0.49000
vt 0.40451 0.20200
vt 0.49132 0.20200
vt 0.49132 0.01000
vt 0.40451 0.01000
vt 0.59549 0.20200
vt 0.50868 0.20200
vt 0.50868 0.01000
vt 0.59549 0.01000
vt 0.61406 0.20200
vt 0.66107 0.20200
vt 0.66107 0.01000
vt 0.61406 0.01000
vt 0.05690 0.20200
vt 0.00990 0.20200
vt 0.00990 0.01000
vt 0.05690 0.01000
vt 0.94310 0.01000
vt 0.94310 0.20200
vt 0.99010 0.20200
vt 0.99010 0.01000
vt 0.33893 0.20200
vt 0.33893 0.01000
vt 0.38594 0.20200
vt 0.38594 0.01000
vt 0.82118 0.74038
vt 0.82118 0.50962
vt 0.90799 0.50962
vt 0.90799 0.74038
vt 0.80382 0.74038
vt 0.80382 0.50962
vt 0.71701 0.50962
vt 0.71701 0.74038
vt 0.69857 0.59549
vt 0.40560 0.59549
vt 0.40560 0.50868
vt 0.69857 0.50868
vt 0.15741 0.69097
vt 0.13889 0.63021
vt 0.16031 0.48040
vt 0.14151 0.43240
vt 0.25868 0.61285
vt 0.25868 0.69965
vt 0.34549 0.69097
vt 0.31173 0.62153
vt 0.74568 0.48040
vt 0.71277 0.43240
vt 0.74568 0.43240
vt 0.76448 0.48040
vt 0.42917 0.69965
vt 0.36250 0.69097
vt 0.37819 0.62587
vt 0.42917 0.61285
vt 0.51250 0.65885
vt 0.46152 0.64948
vt 0.46544 0.61198
vt 0.51250 0.61198
vt 0.18452 0.63021
vt 0.17500 0.69097
vt 0.24167 0.69965
vt 0.24167 0.61285
vt 0.54093 0.62604
vt 0.52917 0.65885
vt 0.59583 0.65885
vt 0.59583 0.61198
vt 0.44583 0.65645
vt 0.45760 0.62604
# 106 texture verticies
vn 0.00000 -1.00000 0.00000
vn 0.00000 1.00000 -0.00000
vn 0.06953 0.99752 0.01123
vn 0.03021 0.99954 -0.00000
vn 1.00000 0.00000 0.00000
vn -1.00000 0.00000 0.00000
vn 0.00000 0.00000 1.00000
vn 0.06810 0.01059 0.99762
vn 0.10912 0.00000 0.99403
vn 0.03274 -0.00705 -0.99944
vn 0.00000 -0.00000 -1.00000
vn 0.04531 -0.00000 -0.99897
vn 0.10417 0.99442 0.01683
vn 0.11775 0.99247 0.03364
vn 0.09814 -0.02114 -0.99495
vn 0.10569 -0.04228 -0.99350
vn -0.15203 -0.98747 -0.04231
vn -0.11043 -0.99388 0.00000
vn -0.19309 -0.97754 -0.08448
vn 0.20341 0.03163 0.97858
vn 0.18964 0.06321 0.97982
vn 0.85197 -0.42606 0.30433
vn 0.79896 -0.48936 0.34955
vn 0.89744 -0.35897 0.25641
vn -0.06887 0.99554 0.06446
vn 0.01508 0.99163 0.12820
vn -0.15206 0.98837 -0.00000
vn -0.25977 -0.07342 0.96287
vn -0.20103 -0.14620 0.96861
vn -0.31623 0.00000 0.94868
vn -0.11617 -0.98940 -0.08713
vn -0.22988 -0.95783 -0.17241
vn -0.12911 -0.02502 -0.99131
vn -0.11669 -0.05001 -0.99191
vn -0.14142 -0.00000 -0.98995
vn -0.95076 -0.27487 0.14322
vn -0.91814 -0.39349 0.04684
vn -0.96015 -0.14953 0.23610
# 38 normals
usemtl historic_wall_3
f  4/1/1 10/2/1 9/3/1 1/4/1
f  5/5/2 33/6/3 34/7/4 8/8/2
f  10/2/1 11/9/1 12/10/1 9/3/1
f  2/11/1 12/10/1 11/9/1 3/12/1
f  7/13/2 14/14/2 13/15/2 6/16/2
f  6/17/5 15/18/5 16/19/5 7/20/5
f  18/21/6 17/22/6 5/23/6 8/24/6
f  5/25/7 17/26/7 35/27/8 33/28/9
f  36/29/10 18/30/11 8/31/11 34/32/12
f  19/33/7 15/34/7 6/35/7 13/36/7
f  7/37/11 16/38/11 20/39/11 14/40/11
f  15/18/5 21/41/5 22/42/5 16/19/5
f  3/43/5 22/42/5 21/41/5 2/44/5
f  18/21/6 23/45/6 24/46/6 17/22/6
f  1/47/6 24/46/6 23/45/6 4/48/6
f  24/49/7 25/50/7 35/27/8 17/26/7
f  9/51/7 25/50/7 24/49/7 1/52/7
f  36/29/10 26/53/11 23/54/11 18/30/11
f  4/55/11 23/54/11 26/53/11 10/56/11
f  12/57/7 27/58/7 25/50/7 9/51/7
f  19/33/7 27/58/7 21/59/7 15/34/7
f  2/60/7 21/59/7 27/58/7 12/57/7
f  10/56/11 26/53/11 28/61/11 11/62/11
f  22/63/11 28/61/11 20/39/11 16/38/11
f  11/62/11 28/61/11 22/63/11 3/64/11
f  35/65/5 25/66/5 26/67/5 36/68/5
f  20/69/6 28/70/6 27/71/6 19/72/6
f  28/73/2 26/74/2 25/75/2 27/76/2
f  29/77/13 34/7/4 33/6/3 32/78/14
f  36/29/10 34/32/12 29/79/15 30/80/16
f  35/81/17 36/82/18 30/83/17 31/84/19
f  32/85/20 33/28/9 35/27/8 31/86/21
f  32/85/22 31/86/23 30/87/22 29/88/24
f  40/89/25 44/90/26 41/91/25 37/92/27
f  37/93/28 41/94/29 42/95/28 38/96/30
f  42/97/31 43/98/32 39/99/31 38/100/1
f  43/101/33 44/102/34 40/103/33 39/104/35
f  44/105/36 43/106/37 42/95/36 41/94/38
