# 
# Wavefront OBJ file
# Converted by the DEEP Exploration Deep Exploration 5 5.0.2.1477 Release
# Right Hemisphere, LTD
# http://www.righthemisphere.com/
# 
mtllib historic_wall_4.mtl
# object historic_wall_4
g historic_wall_4
v -0.70000 0.00000 0.70000
v 0.70000 0.00000 0.70000
v 0.70000 -0.00000 -0.70000
v -0.70000 -0.00000 -0.70000
v -0.50000 6.00000 0.50000
v 0.50000 6.00000 0.50000
v 0.50000 6.00000 -0.50000
v -0.50000 6.00000 -0.50000
v -0.70000 5.50000 0.70000
v 0.70000 5.50000 0.70000
v 0.70000 5.50000 -0.70000
v -0.70000 5.50000 -0.70000
# 12 verticies
vt 0.81250 0.18750
vt 0.98750 0.18750
vt 0.98750 0.01250
vt 0.81250 0.01250
vt 0.93095 0.21190
vt 0.93095 0.33095
vt 0.81190 0.33095
vt 0.81190 0.21190
vt 0.43750 0.84332
vt 0.41250 0.77419
vt 0.58750 0.77419
vt 0.56250 0.84332
vt 0.58750 0.01382
vt 0.41250 0.01382
vt 0.03750 0.84332
vt 0.01250 0.77419
vt 0.18750 0.77419
vt 0.16250 0.84332
vt 0.18750 0.01382
vt 0.01250 0.01382
vt 0.38750 0.77419
vt 0.21250 0.77419
vt 0.23750 0.84332
vt 0.36250 0.84332
vt 0.21250 0.01382
vt 0.38750 0.01382
vt 0.78750 0.77419
vt 0.61250 0.77419
vt 0.63750 0.84332
vt 0.76250 0.84332
vt 0.61250 0.01382
vt 0.78750 0.01382
# 32 texture verticies
vn 0.00000 -1.00000 0.00000
vn 0.00000 1.00000 -0.00000
vn 0.00000 0.37139 0.92848
vn 0.00000 0.12581 0.99205
vn 0.00000 0.25163 0.96782
vn 0.00000 0.00000 1.00000
vn 0.92848 0.37139 -0.00000
vn 0.99205 0.12581 -0.00000
vn 0.96782 0.25163 -0.00000
vn 1.00000 0.00000 0.00000
vn 0.00000 0.18911 -0.98196
vn 0.00000 0.37139 -0.92848
vn 0.00000 -0.00000 -1.00000
vn -0.98196 0.18911 -0.00000
vn -0.92848 0.37139 -0.00000
vn -1.00000 0.00000 0.00000
# 16 normals
usemtl historic_wall_4
f  4/1/1 3/2/1 2/3/1 1/4/1
f  6/5/2 7/6/2 8/7/2 5/8/2
f  5/9/3 9/10/4 10/11/5 6/12/3
f  2/13/6 10/11/5 9/10/4 1/14/6
f  6/15/7 10/16/8 11/17/9 7/18/7
f  3/19/10 11/17/9 10/16/8 2/20/10
f  11/21/11 12/22/11 8/23/12 7/24/12
f  4/25/13 12/22/11 11/21/11 3/26/13
f  12/27/14 9/28/14 5/29/15 8/30/15
f  1/31/16 9/28/14 12/27/14 4/32/16
