# 
# Wavefront OBJ file
# Converted by the DEEP Exploration Deep Exploration 5 5.0.2.1477 Release
# Right Hemisphere, LTD
# http://www.righthemisphere.com/
# 
mtllib historic_tower_4.mtl
# object historic_tower_4
g historic_tower_4
v 0.00000 0.40000 0.70000
v 1.25000 1.05000 0.70000
v 1.25000 1.05000 0.55000
v 1.50000 0.90000 0.50000
v 1.50000 0.90000 -0.00000
v 0.00000 0.00000 -0.00000
v 0.00000 0.00000 0.50000
v 0.00000 0.40000 0.55000
v 0.00000 2.50000 0.70000
v 1.25000 2.40000 0.70000
v 1.25000 2.40000 0.55000
v 1.50000 2.65000 0.50000
v 1.50000 2.65000 -0.00000
v 0.00000 2.75000 -0.00000
v 0.00000 2.75000 0.50000
v 0.00000 2.50000 0.55000
v -1.25000 1.05000 0.70000
v -1.25000 1.05000 0.55000
v -1.50000 0.90000 0.50000
v -1.50000 0.90000 -0.00000
v -1.25000 2.40000 0.70000
v -1.25000 2.40000 0.55000
v -1.50000 2.65000 0.50000
v -1.50000 2.65000 -0.00000
# 24 verticies
vt 0.77632 0.49708
vt 0.77632 0.61871
vt 0.75000 0.61871
vt 0.75000 0.49708
vt 0.02256 0.02412
vt 0.29323 0.19781
vt 0.24812 0.22675
vt 0.02256 0.10132
vt 0.71930 0.02412
vt 0.71930 0.20436
vt 0.64912 0.20436
vt 0.64912 0.02412
vt 0.97807 0.15564
vt 0.97807 0.42970
vt 0.75877 0.45000
vt 0.75877 0.02368
vt 0.77632 0.87134
vt 0.75000 0.87134
vt 0.29323 0.53553
vt 0.24812 0.48728
vt 0.71930 0.55482
vt 0.64912 0.55482
vt 0.33835 0.55482
vt 0.60902 0.53553
vt 0.60902 0.19781
vt 0.33835 0.02412
vt 0.55702 0.59211
vt 0.55702 0.61842
vt 0.33772 0.61842
vt 0.33772 0.59211
vt 0.02256 0.55482
vt 0.02256 0.50658
vt 0.29323 0.59649
vt 0.29323 0.66667
vt 0.02256 0.66667
vt 0.02256 0.59649
vt 0.02256 0.66406
# 37 texture verticies
vn 0.46135 -0.88722 0.00000
vn 0.00000 -0.14422 0.98955
vn 0.16413 -0.05476 0.98492
vn 0.12003 -0.09618 0.98810
vn 0.00000 -0.12403 0.99228
vn 0.51450 -0.85749 0.00000
vn 0.00000 0.00000 1.00000
vn 1.00000 0.00000 0.00000
vn 0.10509 0.09293 0.99011
vn 0.10597 0.09593 0.98973
vn 0.00000 -0.00000 -1.00000
vn 0.07975 0.99682 -0.00000
vn 0.00000 1.00000 -0.00000
vn 0.00000 0.19021 0.98174
vn 0.00000 0.19612 0.98058
vn 0.06652 0.99779 -0.00000
vn -0.46135 -0.88722 0.00000
vn -0.12003 -0.09618 0.98810
vn -0.16413 -0.05476 0.98492
vn -0.51450 -0.85749 0.00000
vn -1.00000 0.00000 0.00000
vn -0.10597 0.09593 0.98973
vn -0.10509 0.09293 0.99011
vn -0.07975 0.99682 -0.00000
vn -0.06652 0.99779 -0.00000
# 25 normals
usemtl historic_tower_4
f  8/1/1 3/2/1 2/3/1 1/4/1
f  7/5/2 4/6/3 3/7/4 8/8/5
f  6/9/6 5/10/6 4/11/6 7/12/6
f  2/13/7 10/14/7 9/15/7 1/16/7
f  3/2/8 11/17/8 10/18/8 2/3/8
f  4/6/3 12/19/9 11/20/10 3/7/4
f  5/10/8 13/21/8 12/22/8 4/11/8
f  14/23/11 13/24/11 5/25/11 6/26/11
f  10/27/12 11/28/12 16/29/13 9/30/13
f  11/20/10 12/19/9 15/31/14 16/32/15
f  12/33/16 13/34/16 14/35/13 15/36/13
f  17/3/17 18/2/17 8/1/17 1/4/17
f  18/7/18 19/6/19 7/5/2 8/8/5
f  19/11/20 20/10/20 6/9/20 7/12/20
f  9/15/7 21/14/7 17/13/7 1/16/7
f  21/18/21 22/17/21 18/2/21 17/3/21
f  22/20/22 23/19/23 19/6/19 18/7/18
f  23/22/21 24/21/21 20/10/21 19/11/21
f  20/25/11 24/24/11 14/23/11 6/26/11
f  16/29/13 22/28/24 21/27/24 9/30/13
f  15/31/14 23/19/23 22/20/22 16/32/15
f  14/37/13 24/34/25 23/33/25 15/36/13
