# 
# Wavefront OBJ file
# Converted by the DEEP Exploration Deep Exploration 5 5.0.2.1477 Release
# Right Hemisphere, LTD
# http://www.righthemisphere.com/
# 
mtllib historic_wall_5.mtl
# object historic_wall_5
g historic_wall_5
v -0.70000 0.00000 0.70000
v 0.70000 0.00000 0.70000
v 0.70000 -0.00000 -0.70000
v -0.70000 -0.00000 -0.70000
v -0.55000 4.25000 0.60000
v 0.70000 5.50000 0.70000
v 0.70000 5.10000 -0.65000
v -0.60000 4.25000 -0.60000
v -0.70000 -0.00000 -0.00000
v 0.70000 -0.00000 -0.00000
v 0.70000 5.20000 -0.00000
v -0.45000 4.25000 0.05000
v -0.00000 0.00000 0.70000
v 0.15000 4.40000 0.55000
v -0.00000 -0.00000 -0.70000
v -0.05000 4.65000 -0.55000
v -0.00000 -0.00000 -0.00000
v 0.20000 4.10000 -0.00000
v 0.70000 3.50000 -0.70000
v 0.70000 3.50000 -0.00000
v 0.70000 3.50000 0.70000
v -0.70000 3.50000 0.70000
v -0.70000 3.50000 -0.00000
v -0.70000 3.50000 -0.70000
v -0.00000 3.50000 0.70000
v -0.00000 3.50000 -0.70000
# 26 verticies
vt 0.76786 0.89881
vt 0.87500 0.89881
vt 0.87500 0.79167
vt 0.76786 0.79167
vt 0.98214 0.79167
vt 0.98214 0.89881
vt 0.87500 0.68452
vt 0.76786 0.68452
vt 0.98214 0.68452
vt 0.52404 0.82189
vt 0.61752 0.82832
vt 0.62420 0.89905
vt 0.53739 0.89262
vt 0.69097 0.89905
vt 0.69097 0.80903
vt 0.59081 0.96978
vt 0.51736 0.97621
vt 0.69097 0.98264
vt 0.48214 0.01989
vt 0.48214 0.55139
vt 0.37500 0.55139
vt 0.37500 0.01989
vt 0.37500 0.80956
vt 0.47449 0.79437
vt 0.26786 0.55139
vt 0.26786 0.01989
vt 0.26786 0.85511
vt 0.76786 0.01961
vt 0.76786 0.53633
vt 0.87500 0.53633
vt 0.87500 0.01961
vt 0.86735 0.64706
vt 0.78316 0.64706
vt 0.98214 0.53633
vt 0.98214 0.01961
vt 0.96684 0.64706
vt 0.23214 0.01989
vt 0.23214 0.55139
vt 0.12500 0.55139
vt 0.12500 0.01989
vt 0.14796 0.68807
vt 0.23214 0.85511
vt 0.01786 0.55139
vt 0.01786 0.01989
vt 0.04082 0.66529
vt 0.51786 0.53593
vt 0.53316 0.64653
vt 0.61735 0.70551
vt 0.62500 0.53593
vt 0.51786 0.01979
vt 0.62500 0.01979
vt 0.73214 0.53593
vt 0.73214 0.01979
vt 0.73214 0.77159
# 54 texture verticies
vn 0.00000 -1.00000 0.00000
vn 0.00606 0.97188 -0.23540
vn -0.21634 0.84870 -0.48260
vn -0.42781 0.89637 0.11622
vn 0.22451 0.97446 -0.00479
vn -0.88592 0.42488 -0.18606
vn -0.86939 0.42835 -0.24634
vn -0.86588 0.45981 -0.19706
vn -0.36057 0.57248 0.73638
vn -0.13609 0.90313 0.40723
vn -0.69181 0.60356 0.39639
vn 1.00000 0.00000 0.00000
vn -1.00000 0.00000 0.00000
vn -0.98463 0.16419 -0.05948
vn -0.99370 0.10765 0.03106
vn -0.96420 0.26485 0.01304
vn -0.96948 0.17039 -0.17627
vn -0.99780 0.06623 -0.00000
vn -0.97033 0.21613 0.10844
vn 0.00000 0.00000 1.00000
vn -0.08867 0.05540 0.99452
vn 0.00611 0.07605 0.99709
vn -0.07644 0.10889 0.99111
vn -0.26312 0.00000 0.96476
vn 0.00000 0.04414 0.99903
vn 0.01828 0.14530 0.98922
vn -0.00222 0.08763 -0.99615
vn -0.00665 0.13303 -0.99109
vn -0.06937 0.12739 -0.98942
vn -0.02876 0.03997 -0.99879
vn 0.00000 -0.00000 -1.00000
vn 0.00000 0.01562 -0.99988
vn -0.10089 0.07514 -0.99206
# 33 normals
usemtl historic_wall_5
f  4/1/1 15/2/1 17/3/1 9/4/1
f  10/5/1 17/3/1 15/2/1 3/6/1
f  17/3/1 13/7/1 1/8/1 9/4/1
f  2/9/1 13/7/1 17/3/1 10/5/1
f  5/10/2 14/11/3 18/12/4 12/13/5
f  11/14/6 18/12/4 14/11/7 6/15/8
f  18/12/4 16/16/9 8/17/10 12/13/5
f  7/18/11 16/16/9 18/12/4 11/14/6
f  3/19/12 19/20/12 20/21/12 10/22/12
f  11/23/12 20/21/12 19/20/12 7/24/12
f  20/21/12 21/25/12 2/26/12 10/22/12
f  6/27/12 21/25/12 20/21/12 11/23/12
f  1/28/13 22/29/14 23/30/15 9/31/13
f  12/32/16 23/30/15 22/29/14 5/33/17
f  23/30/15 24/34/18 4/35/13 9/31/13
f  8/36/19 24/34/18 23/30/15 12/32/16
f  2/37/20 21/38/21 25/39/22 13/40/20
f  14/41/23 25/39/22 21/38/21 6/42/24
f  13/40/20 25/39/22 22/43/25 1/44/20
f  5/45/26 22/43/25 25/39/22 14/41/23
f  24/46/27 8/47/28 16/48/29 26/49/30
f  4/50/31 24/46/27 26/49/30 15/51/31
f  26/49/30 19/52/32 3/53/31 15/51/31
f  26/49/30 16/48/29 7/54/33 19/52/32
