# 
# Wavefront OBJ file
# Converted by the DEEP Exploration Deep Exploration 5 5.0.2.1477 Release
# Right Hemisphere, LTD
# http://www.righthemisphere.com/
# 
mtllib historic_block_3.mtl
# object historic_block_3
g historic_block_3
v 1.25000 2.25000 1.25000
v 1.00000 2.50000 1.25000
v 1.00000 2.25000 1.25000
v 1.25000 2.25000 1.00000
v 1.25000 2.50000 1.00000
v 1.00000 2.50000 1.00000
v -1.25000 0.25000 1.25000
v -1.00000 0.00000 1.25000
v -1.00000 0.25000 1.25000
v -1.25000 0.25000 1.00000
v -1.25000 0.00000 1.00000
v -1.00000 0.00000 1.00000
v 1.25000 0.25000 1.25000
v 1.00000 0.00000 1.25000
v 1.00000 0.25000 1.25000
v 1.25000 0.25000 1.00000
v 1.25000 0.00000 1.00000
v 1.00000 0.00000 1.00000
v -1.25000 2.25000 1.25000
v -1.00000 2.50000 1.25000
v -1.00000 2.25000 1.25000
v -1.25000 2.25000 1.00000
v -1.25000 2.50000 1.00000
v -1.00000 2.50000 1.00000
v -1.25000 0.25000 -1.25000
v -1.00000 -0.00000 -1.25000
v -1.00000 0.25000 -1.25000
v -1.25000 0.25000 -1.00000
v -1.25000 -0.00000 -1.00000
v -1.00000 -0.00000 -1.00000
v 1.25000 0.25000 -1.25000
v 1.00000 -0.00000 -1.25000
v 1.00000 0.25000 -1.25000
v 1.25000 0.25000 -1.00000
v 1.25000 -0.00000 -1.00000
v 1.00000 -0.00000 -1.00000
v -1.25000 2.25000 -1.25000
v -1.00000 2.50000 -1.25000
v -1.00000 2.25000 -1.25000
v -1.25000 2.50000 -1.00000
v -1.25000 2.25000 -1.00000
v -1.00000 2.50000 -1.00000
v 1.25000 2.25000 -1.25000
v 1.00000 2.50000 -1.25000
v 1.00000 2.25000 -1.25000
v 1.25000 2.50000 -1.00000
v 1.25000 2.25000 -1.00000
v 1.00000 2.50000 -1.00000
v -0.82000 0.38000 -1.40000
v -0.42000 0.38000 -1.40000
v -0.82000 0.78000 -1.40000
v -0.42000 0.78000 -1.40000
v -0.62000 0.58000 -2.00000
v -0.32000 0.28000 -1.40000
v -0.92000 0.28000 -1.40000
v -0.92000 0.28000 1.40000
v -0.32000 0.28000 1.40000
v -0.32000 0.88000 -1.40000
v -0.92000 0.88000 -1.40000
v -0.92000 0.88000 1.40000
v -0.32000 0.88000 1.40000
v -0.82000 0.38000 1.40000
v -0.42000 0.38000 1.40000
v -0.82000 0.78000 1.40000
v -0.42000 0.78000 1.40000
v -0.62000 0.58000 2.00000
v -0.20000 1.00000 -1.40000
v 0.20000 1.00000 -1.40000
v -0.20000 1.40000 -1.40000
v 0.20000 1.40000 -1.40000
v 0.00000 1.20000 -2.00000
v 0.30000 0.90000 -1.40000
v -0.30000 0.90000 -1.40000
v -0.30000 0.90000 1.40000
v 0.30000 0.90000 1.40000
v 0.30000 1.50000 -1.40000
v -0.30000 1.50000 -1.40000
v -0.30000 1.50000 1.40000
v 0.30000 1.50000 1.40000
v -0.20000 1.00000 1.40000
v 0.20000 1.00000 1.40000
v -0.20000 1.40000 1.40000
v 0.20000 1.40000 1.40000
v 0.00000 1.20000 2.00000
v -0.82000 1.62000 -1.40000
v -0.42000 1.62000 -1.40000
v -0.82000 2.02000 -1.40000
v -0.42000 2.02000 -1.40000
v -0.62000 1.82000 -2.00000
v -0.32000 1.52000 -1.40000
v -0.92000 1.52000 -1.40000
v -0.92000 1.52000 1.40000
v -0.32000 1.52000 1.40000
v -0.32000 2.12000 -1.40000
v -0.92000 2.12000 -1.40000
v -0.92000 2.12000 1.40000
v -0.32000 2.12000 1.40000
v -0.82000 1.62000 1.40000
v -0.42000 1.62000 1.40000
v -0.82000 2.02000 1.40000
v -0.42000 2.02000 1.40000
v -0.62000 1.82000 2.00000
v 0.42000 1.62000 -1.40000
v 0.82000 1.62000 -1.40000
v 0.42000 2.02000 -1.40000
v 0.82000 2.02000 -1.40000
v 0.62000 1.82000 -2.00000
v 0.92000 1.52000 -1.40000
v 0.32000 1.52000 -1.40000
v 0.32000 1.52000 1.40000
v 0.92000 1.52000 1.40000
v 0.92000 2.12000 -1.40000
v 0.32000 2.12000 -1.40000
v 0.32000 2.12000 1.40000
v 0.92000 2.12000 1.40000
v 0.42000 1.62000 1.40000
v 0.82000 1.62000 1.40000
v 0.42000 2.02000 1.40000
v 0.82000 2.02000 1.40000
v 0.62000 1.82000 2.00000
v 0.42000 0.38000 -1.40000
v 0.82000 0.38000 -1.40000
v 0.42000 0.78000 -1.40000
v 0.82000 0.78000 -1.40000
v 0.62000 0.58000 -2.00000
v 0.92000 0.28000 -1.40000
v 0.32000 0.28000 -1.40000
v 0.32000 0.28000 1.40000
v 0.92000 0.28000 1.40000
v 0.92000 0.88000 -1.40000
v 0.32000 0.88000 -1.40000
v 0.32000 0.88000 1.40000
v 0.92000 0.88000 1.40000
v 0.42000 0.38000 1.40000
v 0.82000 0.38000 1.40000
v 0.42000 0.78000 1.40000
v 0.82000 0.78000 1.40000
v 0.62000 0.58000 2.00000
v -1.40000 0.38000 0.82000
v -1.40000 0.38000 0.42000
v -1.40000 0.78000 0.82000
v -1.40000 0.78000 0.42000
v -2.00000 0.58000 0.62000
v -1.40000 0.28000 0.32000
v -1.40000 0.28000 0.92000
v 1.40000 0.28000 0.92000
v 1.40000 0.28000 0.32000
v -1.40000 0.88000 0.32000
v -1.40000 0.88000 0.92000
v 1.40000 0.88000 0.92000
v 1.40000 0.88000 0.32000
v 1.40000 0.38000 0.82000
v 1.40000 0.38000 0.42000
v 1.40000 0.78000 0.82000
v 1.40000 0.78000 0.42000
v 2.00000 0.58000 0.62000
v -1.40000 1.00000 0.20000
v -1.40000 1.00000 -0.20000
v -1.40000 1.40000 0.20000
v -1.40000 1.40000 -0.20000
v -2.00000 1.20000 -0.00000
v -1.40000 0.90000 -0.30000
v -1.40000 0.90000 0.30000
v 1.40000 0.90000 0.30000
v 1.40000 0.90000 -0.30000
v -1.40000 1.50000 -0.30000
v -1.40000 1.50000 0.30000
v 1.40000 1.50000 0.30000
v 1.40000 1.50000 -0.30000
v 1.40000 1.00000 0.20000
v 1.40000 1.00000 -0.20000
v 1.40000 1.40000 0.20000
v 1.40000 1.40000 -0.20000
v 2.00000 1.20000 -0.00000
v -1.40000 1.62000 0.82000
v -1.40000 1.62000 0.42000
v -1.40000 2.02000 0.82000
v -1.40000 2.02000 0.42000
v -2.00000 1.82000 0.62000
v -1.40000 1.52000 0.32000
v -1.40000 1.52000 0.92000
v 1.40000 1.52000 0.92000
v 1.40000 1.52000 0.32000
v -1.40000 2.12000 0.32000
v -1.40000 2.12000 0.92000
v 1.40000 2.12000 0.92000
v 1.40000 2.12000 0.32000
v 1.40000 1.62000 0.82000
v 1.40000 1.62000 0.42000
v 1.40000 2.02000 0.82000
v 1.40000 2.02000 0.42000
v 2.00000 1.82000 0.62000
v -1.40000 1.62000 -0.42000
v -1.40000 1.62000 -0.82000
v -1.40000 2.02000 -0.42000
v -1.40000 2.02000 -0.82000
v -2.00000 1.82000 -0.62000
v -1.40000 1.52000 -0.92000
v -1.40000 1.52000 -0.32000
v 1.40000 1.52000 -0.32000
v 1.40000 1.52000 -0.92000
v -1.40000 2.12000 -0.92000
v -1.40000 2.12000 -0.32000
v 1.40000 2.12000 -0.32000
v 1.40000 2.12000 -0.92000
v 1.40000 1.62000 -0.42000
v 1.40000 1.62000 -0.82000
v 1.40000 2.02000 -0.42000
v 1.40000 2.02000 -0.82000
v 2.00000 1.82000 -0.62000
v -1.40000 0.38000 -0.42000
v -1.40000 0.38000 -0.82000
v -1.40000 0.78000 -0.42000
v -1.40000 0.78000 -0.82000
v -2.00000 0.58000 -0.62000
v -1.40000 0.28000 -0.92000
v -1.40000 0.28000 -0.32000
v 1.40000 0.28000 -0.32000
v 1.40000 0.28000 -0.92000
v -1.40000 0.88000 -0.92000
v -1.40000 0.88000 -0.32000
v 1.40000 0.88000 -0.32000
v 1.40000 0.88000 -0.92000
v 1.40000 0.38000 -0.42000
v 1.40000 0.38000 -0.82000
v 1.40000 0.78000 -0.42000
v 1.40000 0.78000 -0.82000
v 2.00000 0.58000 -0.62000
# 228 verticies
vt 0.65884 0.20646
vt 0.65884 0.43639
vt 0.63010 0.43639
vt 0.63010 0.20646
vt 0.01105 0.43639
vt 0.03980 0.43639
vt 0.03980 0.20646
vt 0.01105 0.20646
vt 0.88878 0.43639
vt 0.88878 0.46514
vt 0.65884 0.46514
vt 0.03980 0.46514
vt 0.26973 0.46514
vt 0.26973 0.43639
vt 0.88878 0.20646
vt 0.91752 0.43639
vt 0.91752 0.20646
vt 0.88878 0.17772
vt 0.65884 0.17772
vt 0.26973 0.20646
vt 0.29847 0.20646
vt 0.29847 0.43639
vt 0.26973 0.17772
vt 0.03980 0.17772
vt 0.29847 0.74592
vt 0.26973 0.74592
vt 0.26973 0.51599
vt 0.29847 0.51599
vt 0.57925 0.20646
vt 0.57925 0.43639
vt 0.60799 0.43639
vt 0.60799 0.20646
vt 0.57925 0.74592
vt 0.34932 0.74592
vt 0.34932 0.77466
vt 0.57925 0.77466
vt 0.65884 0.77466
vt 0.65884 0.74592
vt 0.88878 0.74592
vt 0.88878 0.77466
vt 0.03980 0.77466
vt 0.03980 0.74592
vt 0.26973 0.77466
vt 0.34932 0.43639
vt 0.34932 0.46514
vt 0.57925 0.46514
vt 0.03980 0.51599
vt 0.01105 0.51599
vt 0.01105 0.74592
vt 0.03980 0.48724
vt 0.26973 0.48724
vt 0.34932 0.20646
vt 0.32058 0.43639
vt 0.32058 0.20646
vt 0.34932 0.17772
vt 0.57925 0.17772
vt 0.34932 0.51599
vt 0.32058 0.51599
vt 0.32058 0.74592
vt 0.63010 0.51599
vt 0.65884 0.51599
vt 0.63010 0.74592
vt 0.57925 0.51599
vt 0.34932 0.48724
vt 0.57925 0.48724
vt 0.60799 0.51599
vt 0.60799 0.74592
vt 0.88878 0.51599
vt 0.88878 0.48724
vt 0.65884 0.48724
vt 0.91752 0.51599
vt 0.91752 0.74592
vt 0.91752 0.48724
vt 0.63010 0.48724
vt 0.29847 0.46514
vt 0.01105 0.46514
vt 0.01105 0.48724
vt 0.32058 0.17772
vt 0.29847 0.17772
vt 0.01105 0.17772
vt 0.89524 0.13393
vt 0.89524 0.08036
vt 0.81905 0.10714
vt 0.80000 0.12698
vt 0.80000 0.15873
vt 0.72381 0.14286
vt 0.72381 0.09524
vt 0.80000 0.11111
vt 0.80000 0.07937
vt 0.91429 0.03571
vt 0.99048 0.00893
vt 0.99048 0.06250
vt 0.34598 0.08571
vt 0.34598 0.00952
vt 0.01116 0.00952
vt 0.01116 0.08571
vt 0.72381 0.00893
vt 0.72381 0.06250
vt 0.80000 0.06250
vt 0.80000 0.00893
vt 0.70313 0.00893
vt 0.70313 0.06250
vt 0.36830 0.06250
vt 0.36830 0.00893
vt 0.01116 0.15774
vt 0.34598 0.15774
vt 0.34598 0.10417
vt 0.01116 0.10417
vt 0.36830 0.08095
vt 0.70313 0.08095
vt 0.70313 0.15714
vt 0.36830 0.15714
vt 0.81905 0.06250
vt 0.81905 0.00893
vt 0.89524 0.00893
vt 0.89524 0.06250
vt 0.00952 0.79464
vt 0.00952 0.84821
vt 0.08571 0.82143
vt 0.91429 0.11111
vt 0.91429 0.07937
vt 0.99048 0.09524
vt 0.91429 0.15873
vt 0.99048 0.14286
vt 0.91429 0.12698
vt 0.10476 0.79464
vt 0.18095 0.82143
vt 0.10476 0.84821
vt 0.10476 0.79297
# 129 texture verticies
vn 0.00000 0.00000 1.00000
vn 0.00000 -0.00000 -1.00000
vn 1.00000 0.00000 0.00000
vn -1.00000 0.00000 0.00000
vn 0.00000 -1.00000 0.00000
vn 0.00000 1.00000 -0.00000
vn 0.57735 0.57735 0.57735
vn -0.57735 0.57735 0.57735
vn 0.57735 0.57735 -0.57735
vn -0.57735 0.57735 -0.57735
vn 0.57735 -0.57735 0.57735
vn -0.57735 -0.57735 0.57735
vn 0.57735 -0.57735 -0.57735
vn -0.57735 -0.57735 -0.57735
vn 0.00000 -0.94868 -0.31623
vn -0.94868 -0.00000 -0.31623
vn 0.94868 -0.00000 -0.31623
vn 0.00000 0.94868 -0.31623
vn 0.00000 -0.94868 0.31623
vn -0.94868 0.00000 0.31623
vn 0.94868 0.00000 0.31623
vn 0.00000 0.94868 0.31623
vn -0.94868 -0.00000 -0.31623
vn 0.94868 -0.00000 -0.31623
vn 0.00000 0.94868 -0.31623
vn -0.94868 0.00000 0.31623
vn 0.94868 0.00000 0.31623
vn 0.00000 0.94868 0.31623
vn 0.94868 -0.00000 -0.31623
vn 0.94868 0.00000 0.31623
vn -0.31623 -0.94868 0.00000
vn -0.31623 0.00000 0.94868
vn -0.31623 -0.00000 -0.94868
vn -0.31623 0.94868 -0.00000
vn 0.31623 -0.94868 0.00000
vn 0.31623 0.00000 0.94868
vn 0.31623 -0.00000 -0.94868
vn 0.31623 0.94868 -0.00000
vn -0.31623 0.00000 0.94868
vn -0.31623 -0.00000 -0.94868
vn -0.31623 0.94868 -0.00000
vn 0.31623 0.00000 0.94868
vn 0.31623 -0.00000 -0.94868
vn 0.31623 0.94868 -0.00000
vn -0.31623 -0.00000 -0.94868
vn 0.31623 -0.00000 -0.94868
# 46 normals
usemtl historic_block_3
f  9/1/1 21/2/1 19/3/1 7/4/1
f  37/5/2 39/6/2 27/7/2 25/8/2
f  21/2/1 3/9/1 2/10/1 20/11/1
f  38/12/2 44/13/2 45/14/2 39/6/2
f  9/1/1 15/15/1 3/9/1 21/2/1
f  1/16/1 3/9/1 15/15/1 13/17/1
f  14/18/1 15/15/1 9/1/1 8/19/1
f  45/14/2 33/20/2 27/7/2 39/6/2
f  31/21/2 33/20/2 45/14/2 43/22/2
f  27/7/2 33/20/2 32/23/2 26/24/2
f  43/25/3 47/26/3 34/27/3 31/28/3
f  28/29/4 41/30/4 37/31/4 25/32/4
f  36/33/5 30/34/5 26/35/5 32/36/5
f  38/37/6 42/38/6 48/39/6 44/40/6
f  5/41/3 4/42/3 47/26/3 46/43/3
f  41/30/4 22/44/4 23/45/4 40/46/4
f  4/42/3 16/47/3 34/27/3 47/26/3
f  13/48/3 16/47/3 4/42/3 1/49/3
f  34/27/3 16/47/3 17/50/3 35/51/3
f  28/29/4 10/52/4 22/44/4 41/30/4
f  19/53/4 22/44/4 10/52/4 7/54/4
f  11/55/4 10/52/4 28/29/4 29/56/4
f  30/34/5 12/57/5 11/58/5 29/59/5
f  23/60/6 24/61/6 42/38/6 40/62/6
f  36/33/5 18/63/5 12/57/5 30/34/5
f  8/64/5 12/57/5 18/63/5 14/65/5
f  17/66/5 18/63/5 36/33/5 35/67/5
f  42/38/6 24/61/6 6/68/6 48/39/6
f  2/69/6 6/68/6 24/61/6 20/70/6
f  48/39/6 6/68/6 5/71/6 46/72/6
f  6/68/6 2/69/6 5/71/6
f  3/9/1 1/16/1 2/10/1
f  1/49/3 4/42/3 5/41/3
f  2/69/7 1/73/7 5/71/7
f  20/70/6 24/61/6 23/60/6
f  19/3/1 21/2/1 20/11/1
f  22/44/4 19/53/4 23/45/4
f  19/74/8 20/70/8 23/60/8
f  44/40/6 48/39/6 46/72/6
f  43/22/2 45/14/2 44/13/2
f  47/26/3 43/25/3 46/43/3
f  43/22/9 44/13/9 46/75/9
f  42/38/6 38/37/6 40/62/6
f  39/6/2 37/5/2 38/12/2
f  37/31/4 41/30/4 40/46/4
f  38/12/10 37/5/10 40/76/10
f  14/65/5 18/63/5 17/66/5
f  13/17/1 15/15/1 14/18/1
f  16/47/3 13/48/3 17/50/3
f  13/48/11 14/77/11 17/50/11
f  12/57/5 8/64/5 11/58/5
f  9/1/1 7/4/1 8/19/1
f  7/54/4 10/52/4 11/55/4
f  8/78/12 7/54/12 11/55/12
f  36/33/5 32/36/5 35/67/5
f  33/20/2 31/21/2 32/23/2
f  31/28/3 34/27/3 35/51/3
f  32/23/13 31/21/13 35/79/13
f  26/35/5 30/34/5 29/59/5
f  25/8/2 27/7/2 26/24/2
f  28/29/4 25/32/4 29/56/4
f  25/8/14 26/24/14 29/80/14
f  50/81/15 49/82/15 53/83/15
f  49/84/16 51/85/16 53/86/16
f  53/87/17 52/88/17 50/89/17
f  53/90/18 51/91/18 52/92/18
f  57/93/5 56/94/5 55/95/5 54/96/5
f  55/97/2 59/98/2 58/99/2 54/100/2
f  56/101/4 60/102/4 59/103/4 55/104/4
f  58/105/3 61/106/3 57/107/3 54/108/3
f  59/109/6 60/110/6 61/111/6 58/112/6
f  60/113/1 56/114/1 57/115/1 61/116/1
f  62/117/19 63/118/19 66/119/19
f  64/120/20 62/121/20 66/122/20
f  65/123/21 66/124/21 63/125/21
f  64/126/22 66/127/22 65/128/22
f  68/81/15 67/82/15 71/83/15
f  67/84/23 69/85/23 71/86/23
f  71/87/24 70/88/24 68/89/24
f  71/90/25 69/91/25 70/92/25
f  75/93/5 74/94/5 73/95/5 72/96/5
f  73/97/2 77/98/2 76/99/2 72/100/2
f  74/101/4 78/102/4 77/103/4 73/104/4
f  76/105/3 79/106/3 75/107/3 72/108/3
f  77/109/6 78/110/6 79/111/6 76/112/6
f  78/113/1 74/114/1 75/115/1 79/116/1
f  80/117/19 81/118/19 84/119/19
f  82/120/26 80/121/26 84/122/26
f  83/123/27 84/124/27 81/125/27
f  82/126/28 84/127/28 83/128/28
f  86/81/15 85/82/15 89/83/15
f  85/84/16 87/85/16 89/86/16
f  89/87/29 88/88/29 86/89/29
f  89/90/18 87/91/18 88/92/18
f  93/93/5 92/94/5 91/95/5 90/96/5
f  91/97/2 95/98/2 94/99/2 90/100/2
f  92/101/4 96/102/4 95/103/4 91/104/4
f  94/105/3 97/106/3 93/107/3 90/108/3
f  95/109/6 96/110/6 97/111/6 94/112/6
f  96/113/1 92/114/1 93/115/1 97/116/1
f  98/117/19 99/118/19 102/119/19
f  100/120/20 98/121/20 102/122/20
f  101/123/30 102/124/30 99/125/30
f  100/126/22 102/127/22 101/128/22
f  104/81/15 103/82/15 107/83/15
f  103/84/16 105/85/16 107/86/16
f  107/87/17 106/88/17 104/89/17
f  107/90/18 105/91/18 106/92/18
f  111/93/5 110/94/5 109/95/5 108/96/5
f  109/97/2 113/98/2 112/99/2 108/100/2
f  110/101/4 114/102/4 113/103/4 109/104/4
f  112/105/3 115/106/3 111/107/3 108/108/3
f  113/109/6 114/110/6 115/111/6 112/112/6
f  114/113/1 110/114/1 111/115/1 115/116/1
f  116/117/19 117/118/19 120/119/19
f  118/120/20 116/121/20 120/122/20
f  119/123/21 120/124/21 117/125/21
f  118/126/22 120/127/22 119/128/22
f  122/81/15 121/82/15 125/83/15
f  121/84/16 123/85/16 125/86/16
f  125/87/17 124/88/17 122/89/17
f  125/90/18 123/91/18 124/92/18
f  129/93/5 128/94/5 127/95/5 126/96/5
f  127/97/2 131/98/2 130/99/2 126/100/2
f  128/101/4 132/102/4 131/103/4 127/104/4
f  130/105/3 133/106/3 129/107/3 126/108/3
f  131/109/6 132/110/6 133/111/6 130/112/6
f  132/113/1 128/114/1 129/115/1 133/116/1
f  134/117/19 135/118/19 138/119/19
f  136/120/20 134/121/20 138/122/20
f  137/123/21 138/124/21 135/125/21
f  136/126/22 138/127/22 137/128/22
f  140/81/31 139/82/31 143/83/31
f  139/84/32 141/85/32 143/86/32
f  143/87/33 142/88/33 140/89/33
f  143/90/34 141/91/34 142/92/34
f  147/93/5 146/94/5 145/95/5 144/96/5
f  145/97/4 149/98/4 148/99/4 144/100/4
f  146/101/1 150/102/1 149/103/1 145/104/1
f  148/105/2 151/106/2 147/107/2 144/108/2
f  149/109/6 150/110/6 151/111/6 148/112/6
f  150/113/3 146/114/3 147/115/3 151/116/3
f  152/117/35 153/118/35 156/119/35
f  154/120/36 152/121/36 156/122/36
f  155/123/37 156/124/37 153/125/37
f  154/126/38 156/127/38 155/128/38
f  158/81/31 157/82/31 161/83/31
f  157/84/39 159/85/39 161/86/39
f  161/87/40 160/88/40 158/89/40
f  161/90/41 159/91/41 160/92/41
f  165/93/5 164/94/5 163/95/5 162/96/5
f  163/97/4 167/98/4 166/99/4 162/100/4
f  164/101/1 168/102/1 167/103/1 163/104/1
f  166/105/2 169/106/2 165/107/2 162/108/2
f  167/109/6 168/110/6 169/111/6 166/112/6
f  168/113/3 164/114/3 165/115/3 169/116/3
f  170/117/35 171/118/35 174/119/35
f  172/120/42 170/121/42 174/122/42
f  173/123/43 174/124/43 171/125/43
f  172/126/44 174/127/44 173/128/44
f  176/81/31 175/82/31 179/83/31
f  175/84/32 177/85/32 179/86/32
f  179/87/45 178/88/45 176/89/45
f  179/90/34 177/91/34 178/92/34
f  183/93/5 182/94/5 181/95/5 180/96/5
f  181/97/4 185/98/4 184/99/4 180/100/4
f  182/101/1 186/102/1 185/103/1 181/104/1
f  184/105/2 187/106/2 183/107/2 180/108/2
f  185/109/6 186/110/6 187/111/6 184/112/6
f  186/113/3 182/114/3 183/115/3 187/116/3
f  188/117/35 189/118/35 192/119/35
f  190/120/36 188/121/36 192/122/36
f  191/123/46 192/124/46 189/125/46
f  190/126/38 192/127/38 191/128/38
f  194/81/31 193/82/31 197/83/31
f  193/84/32 195/85/32 197/86/32
f  197/87/33 196/88/33 194/89/33
f  197/90/34 195/91/34 196/92/34
f  201/93/5 200/94/5 199/95/5 198/96/5
f  199/97/4 203/98/4 202/99/4 198/100/4
f  200/101/1 204/102/1 203/103/1 199/104/1
f  202/105/2 205/106/2 201/107/2 198/108/2
f  203/109/6 204/110/6 205/111/6 202/112/6
f  204/113/3 200/114/3 201/115/3 205/116/3
f  206/117/35 207/118/35 210/119/35
f  208/120/36 206/121/36 210/122/36
f  209/123/37 210/124/37 207/125/37
f  208/126/38 210/127/38 209/128/38
f  212/81/31 211/82/31 215/83/31
f  211/84/32 213/85/32 215/86/32
f  215/87/33 214/88/33 212/89/33
f  215/90/34 213/91/34 214/92/34
f  219/93/5 218/94/5 217/95/5 216/96/5
f  217/97/4 221/98/4 220/99/4 216/100/4
f  218/101/1 222/102/1 221/103/1 217/104/1
f  220/105/2 223/106/2 219/107/2 216/108/2
f  221/109/6 222/110/6 223/111/6 220/112/6
f  222/113/3 218/114/3 219/115/3 223/116/3
f  224/117/35 225/118/35 228/119/35
f  226/120/36 224/121/36 228/122/36
f  227/123/37 228/124/37 225/125/37
f  226/129/38 228/127/38 227/128/38
