# 
# Wavefront OBJ file
# Converted by the DEEP Exploration Deep Exploration 5 5.0.2.1477 Release
# Right Hemisphere, LTD
# http://www.righthemisphere.com/
# 
mtllib historic_column_9.mtl
# object historic_column_9
g historic_column_9
v -0.80000 -0.00000 0.40000
v -0.00000 -0.00000 0.40000
v -0.00000 -0.00000 -0.40000
v -0.80000 -0.00000 -0.40000
v -0.80000 0.40000 0.40000
v -0.00000 0.80000 0.40000
v -0.00000 0.80000 -0.40000
v -0.80000 0.40000 -0.40000
# 8 verticies
vt 0.36111 0.70556
vt 0.63889 0.70556
vt 0.63889 0.42778
vt 0.36111 0.42778
vt 0.63889 0.02857
vt 0.63889 0.37143
vt 0.36111 0.20000
vt 0.36111 0.02857
vt 0.30556 0.02857
vt 0.30556 0.37143
vt 0.02778 0.37143
vt 0.02778 0.02857
vt 0.69444 0.20000
vt 0.97222 0.37143
vt 0.97222 0.02857
vt 0.69444 0.02857
vt 0.02778 0.60000
vt 0.30556 0.60000
vt 0.30556 0.42857
vt 0.02778 0.42857
vt 0.02778 0.77089
vt 0.30556 0.77143
# 22 texture verticies
vn 0.00000 -1.00000 0.00000
vn 0.00000 0.00000 1.00000
vn 1.00000 0.00000 0.00000
vn 0.00000 -0.00000 -1.00000
vn -1.00000 0.00000 0.00000
vn -0.44721 0.89443 -0.00000
# 6 normals
usemtl historic_column_9
f  4/1/1 3/2/1 2/3/1 1/4/1
f  2/5/2 6/6/2 5/7/2 1/8/2
f  3/9/3 7/10/3 6/11/3 2/12/3
f  8/13/4 7/14/4 3/15/4 4/16/4
f  5/17/5 8/18/5 4/19/5 1/20/5
f  6/21/6 7/22/6 8/18/6 5/17/6
