# 
# Wavefront OBJ file
# Converted by the DEEP Exploration Deep Exploration 5 5.0.2.1477 Release
# Right Hemisphere, LTD
# http://www.righthemisphere.com/
# 
mtllib historic_tower_3.mtl
# object historic_tower_3
g historic_tower_3
v -0.40000 1.00000 0.11000
v 0.40000 1.00000 0.11000
v 0.40000 1.00000 -0.09000
v -0.40000 1.00000 -0.09000
v -0.40000 1.20000 0.11000
v 0.40000 1.20000 0.11000
v 0.40000 1.20000 -0.09000
v -0.40000 1.20000 -0.09000
v -0.00000 1.00000 0.11000
v -0.00000 1.00000 -0.09000
v -0.20000 1.00000 0.11000
v -0.20000 1.00000 -0.09000
v 0.20000 1.00000 -0.09000
v 0.20000 1.00000 0.11000
v -0.00000 3.00000 0.05000
v -0.00000 3.00000 -0.03000
v -0.00000 1.20000 0.11000
v -0.00000 1.20000 -0.09000
v -0.20000 1.20000 0.11000
v -0.20000 1.20000 -0.09000
v 0.20000 1.20000 0.11000
v 0.20000 1.20000 -0.09000
v -0.00000 2.40000 0.21000
v -0.40000 2.40000 0.11000
v -0.40000 2.40000 -0.09000
v -0.00000 2.40000 -0.21000
v 0.40000 2.40000 0.11000
v 0.40000 2.40000 -0.09000
v -0.00000 1.00000 -0.09000
v -0.20000 1.00000 -0.09000
v -0.20000 1.00000 0.11000
v -0.00000 1.00000 0.11000
v 0.20000 1.00000 0.11000
v 0.20000 1.00000 -0.09000
v -0.00000 -0.00000 -0.09000
v -0.20000 -0.00000 -0.09000
v -0.20000 -0.00000 0.11000
v -0.00000 -0.00000 0.11000
v 0.20000 -0.00000 0.11000
v 0.20000 -0.00000 -0.09000
# 40 verticies
vt 0.65079 0.45635
vt 0.65079 0.47222
vt 0.63492 0.47222
vt 0.63492 0.45635
vt 0.63492 0.49603
vt 0.65079 0.49603
vt 0.65079 0.48016
vt 0.63492 0.48016
vt 0.63492 0.51984
vt 0.65079 0.51984
vt 0.65079 0.50397
vt 0.63492 0.50397
vt 0.39286 0.31406
vt 0.37169 0.31406
vt 0.37169 0.29138
vt 0.39286 0.29138
vt 0.35053 0.29138
vt 0.35053 0.31406
vt 0.29762 0.29138
vt 0.27646 0.29138
vt 0.27646 0.31406
vt 0.29762 0.31406
vt 0.25529 0.31406
vt 0.25529 0.29138
vt 0.23016 0.50397
vt 0.24603 0.50397
vt 0.24603 0.51984
vt 0.23016 0.51984
vt 0.19841 0.50397
vt 0.18254 0.50397
vt 0.18254 0.51984
vt 0.19841 0.51984
vt 0.41402 0.29138
vt 0.41402 0.31406
vt 0.43519 0.31406
vt 0.43519 0.29138
vt 0.31878 0.31406
vt 0.31878 0.29138
vt 0.33995 0.29138
vt 0.33995 0.31406
vt 0.22222 0.51984
vt 0.20635 0.51984
vt 0.20635 0.50397
vt 0.22222 0.50397
vt 0.39286 0.45011
vt 0.35053 0.45011
vt 0.94444 0.14850
vt 0.94444 0.28383
vt 0.96032 0.28383
vt 0.96032 0.14850
vt 0.25529 0.45011
vt 0.29762 0.45011
vt 0.43519 0.45011
vt 0.33995 0.45011
vt 0.93651 0.14850
vt 0.93651 0.28383
vt 0.92063 0.28383
vt 0.92063 0.14850
vt 0.39286 0.51814
vt 0.29762 0.51814
vt 0.92540 0.35150
vt 0.93175 0.35150
vt 0.95556 0.35150
vt 0.94921 0.35150
vt 0.56429 0.75649
vt 0.58333 0.75649
vt 0.58333 0.64827
vt 0.56429 0.64827
vt 0.96825 0.25649
vt 0.98413 0.25649
vt 0.98413 0.14827
vt 0.96825 0.14827
vt 0.69048 0.29113
vt 0.69048 0.39935
vt 0.67143 0.39935
vt 0.67143 0.29113
vt 0.70952 0.29113
vt 0.70952 0.39935
vt 0.26984 0.10065
vt 0.26984 0.20887
vt 0.25397 0.20887
vt 0.25397 0.10065
vt 0.60238 0.75649
vt 0.60238 0.64827
vt 0.15476 0.50397
vt 0.13571 0.50397
vt 0.13571 0.51984
vt 0.15476 0.51984
vt 0.15476 0.52147
vt 0.17381 0.51984
vt 0.17381 0.50397
# 91 texture verticies
vn 1.00000 0.00000 0.00000
vn -1.00000 0.00000 0.00000
vn 0.00000 -1.00000 0.00000
vn -0.03469 -0.02348 0.99912
vn 0.00000 0.00000 1.00000
vn 0.00000 -0.00000 -1.00000
vn -0.05784 -0.02969 -0.99788
vn 0.04800 -0.03270 -0.99831
vn 0.00000 1.00000 -0.00000
vn 0.06096 -0.03105 0.99766
vn 0.00012 0.06159 0.99810
vn -0.16155 0.05759 0.98518
vn -0.98639 -0.16440 0.00000
vn -0.28542 0.11572 -0.95139
vn -0.00021 0.06510 -0.99788
vn 0.24116 0.10618 0.96466
vn 0.19161 0.06163 -0.97953
vn 0.98639 -0.16440 0.00000
vn -0.00000 0.25766 0.96623
vn -0.00000 0.28735 -0.95783
vn 0.83205 0.55470 -0.00000
vn -0.83205 0.55470 -0.00000
# 22 normals
usemtl historic_tower_2
f  3/1/1 7/2/1 6/3/1 2/4/1
f  5/5/2 8/6/2 4/7/2 1/8/2
f  4/9/3 12/10/3 11/11/3 1/12/3
f  17/13/4 19/14/5 11/15/5 9/16/5
f  1/17/5 11/15/5 19/14/5 5/18/5
f  10/19/6 12/20/6 20/21/7 18/22/8
f  8/23/6 20/21/7 12/20/6 4/24/6
f  5/25/9 19/26/9 20/27/9 8/28/9
f  2/29/3 14/30/3 13/31/3 3/32/3
f  14/33/5 21/34/10 17/13/4 9/16/5
f  6/35/5 21/34/10 14/33/5 2/36/5
f  18/22/8 22/37/6 13/38/6 10/19/6
f  3/39/6 13/38/6 22/37/6 7/40/6
f  7/41/9 22/42/9 21/43/9 6/44/9
f  17/13/4 23/45/11 24/46/12 19/14/5
f  19/47/13 24/48/13 25/49/13 20/50/13
f  20/21/7 25/51/14 26/52/15 18/22/8
f  21/34/10 27/53/16 23/45/11 17/13/4
f  18/22/8 26/52/15 28/54/17 22/37/6
f  22/55/18 28/56/18 27/57/18 21/58/18
f  23/45/11 27/53/16 15/59/19
f  28/54/17 26/52/15 16/60/20
f  15/61/21 27/57/21 28/56/21 16/62/21
f  26/52/15 25/51/14 16/60/20
f  16/63/22 25/49/22 24/48/22 15/64/22
f  24/46/12 23/45/11 15/59/19
f  30/65/6 29/66/6 35/67/6 36/68/6
f  31/69/2 30/70/2 36/71/2 37/72/2
f  38/73/5 32/74/5 31/75/5 37/76/5
f  39/77/5 33/78/5 32/74/5 38/73/5
f  40/79/1 34/80/1 33/81/1 39/82/1
f  29/66/6 34/83/6 40/84/6 35/67/6
f  38/85/3 37/86/3 36/87/3 35/88/3
f  35/89/3 40/90/3 39/91/3 38/85/3
