# 
# Wavefront OBJ file
# Converted by the DEEP Exploration Deep Exploration 5 5.0.2.1477 Release
# Right Hemisphere, LTD
# http://www.righthemisphere.com/
# 
mtllib historic_cannon_2.mtl
# object historic_cannon_2
g historic_cannon_2
v -1.00000 -0.00000 1.00000
v 1.00000 -0.00000 1.00000
v 1.00000 -0.00000 -1.00000
v -1.00000 -0.00000 -1.00000
v -0.50000 3.50000 0.50000
v 0.50000 3.50000 0.50000
v 0.50000 3.50000 -0.50000
v -0.50000 3.50000 -0.50000
v -1.00000 3.25000 1.00000
v 1.00000 3.25000 1.00000
v 1.00000 3.25000 -1.00000
v -1.00000 3.25000 -1.00000
v -1.00000 1.50000 1.00000
v 1.00000 1.50000 1.00000
v 1.00000 1.50000 -1.00000
v -1.00000 1.50000 -1.00000
v -1.00000 0.50000 1.00000
v 1.00000 0.50000 1.00000
v 1.00000 0.50000 -1.00000
v -1.00000 0.50000 -1.00000
v -1.00000 -0.00000 0.00000
v 1.00000 -0.00000 0.00000
v -0.50000 3.50000 -0.00000
v 0.50000 3.50000 -0.00000
v 1.00000 3.25000 -0.00000
v -1.00000 3.25000 -0.00000
v 1.00000 1.50000 -0.00000
v -1.00000 1.50000 -0.00000
v 1.00000 0.50000 -0.00000
v -1.00000 0.50000 -0.00000
v -0.40000 0.60000 1.80000
v 0.40000 0.60000 1.80000
v 0.40000 0.60000 -0.20000
v -0.40000 0.60000 -0.20000
v -0.40000 1.40000 1.80000
v 0.40000 1.40000 1.80000
v 0.40000 1.40000 -0.20000
v -0.40000 1.40000 -0.20000
v 0.82500 0.50000 0.76997
v 0.82500 0.50000 0.51997
v 0.57500 0.50000 0.76997
v 0.57500 0.50000 0.51997
v 0.70000 0.90000 0.64497
v -1.00000 2.00000 0.50000
v -1.00000 2.00000 -0.50000
v -1.00000 3.00000 0.50000
v -1.00000 3.00000 -0.50000
v -2.00000 2.50000 -0.00000
v 1.00000 2.00000 0.50000
v 1.00000 2.00000 -0.50000
v 1.00000 3.00000 0.50000
v 1.00000 3.00000 -0.50000
v 2.00000 2.50000 -0.00000
v 0.67500 1.50000 0.87997
v 0.67500 1.50000 0.62997
v 0.92500 1.50000 0.87997
v 0.92500 1.50000 0.62997
v 0.80000 0.90000 0.75497
v -0.82500 0.50000 0.76997
v -0.82500 0.50000 0.51997
v -0.57500 0.50000 0.76997
v -0.57500 0.50000 0.51997
v -0.70000 0.90000 0.64497
v 1.00000 2.00000 0.50000
v 1.00000 2.00000 -0.50000
v 1.00000 3.00000 0.50000
v 1.00000 3.00000 -0.50000
v 2.00000 2.50000 -0.00000
v -1.00000 2.00000 0.50000
v -1.00000 2.00000 -0.50000
v -1.00000 3.00000 0.50000
v -1.00000 3.00000 -0.50000
v -2.00000 2.50000 -0.00000
v -0.67500 1.50000 0.87997
v -0.67500 1.50000 0.62997
v -0.92500 1.50000 0.87997
v -0.92500 1.50000 0.62997
v -0.80000 0.90000 0.75497
# 78 verticies
vt 0.77922 0.39827
vt 0.72511 0.34416
vt 0.94156 0.34416
vt 0.88745 0.39827
vt 0.94156 0.56061
vt 0.72511 0.56061
vt 0.77922 0.50649
vt 0.88745 0.50649
vt 0.72511 0.32262
vt 0.72511 0.12976
vt 0.94156 0.12976
vt 0.94156 0.32262
vt 0.22727 0.39352
vt 0.22727 0.18768
vt 0.01082 0.18768
vt 0.01082 0.39352
vt 0.46537 0.41369
vt 0.46537 0.46726
vt 0.24892 0.46726
vt 0.24892 0.41369
vt 0.22727 0.07005
vt 0.01082 0.07005
vt 0.01082 0.01124
vt 0.22727 0.01124
vt 0.46537 0.59524
vt 0.24892 0.59524
vt 0.24892 0.70346
vt 0.46537 0.70346
vt 0.24892 0.48701
vt 0.46537 0.48701
vt 0.77922 0.45238
vt 0.88745 0.45238
vt 0.94156 0.45238
vt 0.72511 0.45238
vt 0.35714 0.18768
vt 0.35714 0.39352
vt 0.24892 0.39352
vt 0.24892 0.18768
vt 0.46537 0.39352
vt 0.46537 0.18768
vt 0.59524 0.18768
vt 0.59524 0.39352
vt 0.70346 0.39352
vt 0.70346 0.18768
vt 0.48701 0.39352
vt 0.48701 0.18768
vt 0.35714 0.07005
vt 0.46537 0.07005
vt 0.35714 0.01124
vt 0.46537 0.01124
vt 0.24892 0.01124
vt 0.24892 0.07005
vt 0.59524 0.07005
vt 0.70346 0.07005
vt 0.59524 0.01124
vt 0.48701 0.01124
vt 0.48701 0.07005
vt 0.70346 0.01124
vt 0.48701 0.41468
vt 0.70346 0.41468
vt 0.70346 0.51389
vt 0.48701 0.51389
vt 0.72511 0.00992
vt 0.94156 0.00992
vt 0.94156 0.10913
vt 0.72511 0.10913
vt 0.22727 0.51389
vt 0.22727 0.41468
vt 0.01082 0.41468
vt 0.01082 0.51389
vt 0.48571 0.75108
vt 0.56190 0.75108
vt 0.56190 0.53463
vt 0.48571 0.53463
vt 0.99048 0.58095
vt 0.99048 0.65714
vt 0.91429 0.65714
vt 0.91429 0.58095
vt 0.79870 0.58095
vt 0.79870 0.65714
vt 0.58225 0.65714
vt 0.58225 0.58095
vt 0.91429 0.75238
vt 0.99048 0.75238
vt 0.99048 0.67619
vt 0.91429 0.67619
vt 0.01082 0.60952
vt 0.22727 0.60952
vt 0.22727 0.53333
vt 0.01082 0.53333
vt 0.89524 0.58225
vt 0.89524 0.79870
vt 0.81905 0.79870
vt 0.81905 0.58225
vt 0.61111 0.53175
vt 0.59524 0.56349
vt 0.57937 0.53175
vt 0.64286 0.56349
vt 0.62698 0.53175
vt 0.65873 0.53175
vt 0.91270 0.76984
vt 0.92857 0.80159
vt 0.94444 0.76984
vt 0.69048 0.56349
vt 0.70635 0.53175
vt 0.67460 0.53175
vt 0.60516 0.84524
vt 0.70437 0.89484
vt 0.70437 0.79563
vt 0.68056 0.77579
vt 0.58135 0.72619
vt 0.68056 0.67659
vt 0.36706 0.77381
vt 0.46627 0.82341
vt 0.46627 0.72421
vt 0.82341 0.91865
vt 0.72421 0.86905
vt 0.82341 0.81944
vt 0.48611 0.89484
vt 0.58532 0.84524
vt 0.48611 0.79563
vt 0.79960 0.72619
vt 0.70040 0.77579
vt 0.70040 0.67659
vt 0.12897 0.84722
vt 0.22817 0.79762
vt 0.12897 0.74802
vt 0.46627 0.89286
vt 0.36706 0.94246
vt 0.36706 0.84325
vt 0.99206 0.06250
vt 0.97619 0.00893
vt 0.96032 0.06250
vt 0.97619 0.08036
vt 0.99206 0.13393
vt 0.96032 0.13393
vt 0.99206 0.20536
vt 0.97619 0.15179
vt 0.96032 0.20536
vt 0.97619 0.22321
vt 0.99206 0.27679
vt 0.96032 0.27679
vt 0.97619 0.84921
vt 0.99206 0.81746
vt 0.96032 0.81746
vt 0.51587 0.91270
vt 0.50000 0.94444
vt 0.48413 0.91270
vt 0.97619 0.80159
vt 0.99206 0.76984
vt 0.96032 0.76984
vt 0.99206 0.86508
vt 0.97619 0.89683
vt 0.96032 0.86508
vt 0.00992 0.96627
vt 0.10913 0.91667
vt 0.00992 0.86706
vt 0.10913 0.79762
vt 0.00992 0.84722
vt 0.00992 0.74802
vt 0.12897 0.72817
vt 0.22817 0.67857
vt 0.12897 0.62897
vt 0.34722 0.89286
vt 0.24802 0.94246
vt 0.24802 0.84325
vt 0.84325 0.86905
vt 0.94246 0.91865
vt 0.94246 0.81944
vt 0.34722 0.82341
vt 0.24802 0.77381
vt 0.34722 0.72421
vt 0.00992 0.67857
vt 0.10913 0.72817
vt 0.10913 0.62897
vt 0.22817 0.96627
vt 0.12897 0.91667
vt 0.22817 0.86706
vt 0.97619 0.50893
vt 0.99206 0.56250
vt 0.96032 0.56250
vt 0.96032 0.41964
vt 0.97619 0.36607
vt 0.99206 0.41964
vt 0.97619 0.43760
vt 0.96032 0.49107
vt 0.99206 0.49107
vt 0.99206 0.34821
vt 0.97619 0.29464
vt 0.96032 0.34821
# 190 texture verticies
vn -0.18833 0.96388 0.18833
vn 0.00000 0.89443 0.44721
vn 0.18677 0.97795 0.09339
vn 0.00000 0.89443 -0.44721
vn -0.09339 0.97795 -0.18677
vn 0.23435 0.96506 -0.11718
vn 0.00000 0.00000 1.00000
vn 0.00000 -0.00000 -1.00000
vn 0.00000 -1.00000 0.00000
vn -0.22975 0.97325 -0.00000
vn 0.18360 0.98300 -0.00000
vn 0.44721 0.89443 -0.00000
vn -0.44721 0.89443 -0.00000
vn -0.44721 0.89443 -0.00000
vn 1.00000 0.00000 0.00000
vn -1.00000 0.00000 0.00000
vn 0.00000 1.00000 -0.00000
vn 0.95448 0.29827 -0.00000
vn 0.00000 0.29827 0.95448
vn 0.00000 0.29827 -0.95448
vn -0.95448 0.29827 -0.00000
vn -0.44721 -0.89443 0.00000
vn -0.44721 0.00000 0.89443
vn -0.44721 -0.00000 -0.89443
vn 0.44721 -0.89443 0.00000
vn 0.44721 0.00000 0.89443
vn 0.44721 -0.00000 -0.89443
vn -0.97898 -0.20395 0.00000
vn 0.00000 -0.20395 0.97898
vn 0.00000 -0.20395 -0.97898
vn 0.97898 -0.20395 0.00000
# 31 normals
usemtl historic_cannon_2
f  5/1/1 9/2/2 10/3/2 6/4/3
f  11/5/4 12/6/4 8/7/5 7/8/6
f  9/9/7 13/10/7 14/11/7 10/12/7
f  11/13/8 15/14/8 16/15/8 12/16/8
f  2/17/7 18/18/7 17/19/7 1/20/7
f  15/14/8 19/21/8 20/22/8 16/15/8
f  4/23/8 20/22/8 19/21/8 3/24/8
f  22/25/9 21/26/9 4/27/9 3/28/9
f  1/29/9 21/26/9 22/25/9 2/30/9
f  8/7/5 23/31/10 24/32/11 7/8/6
f  6/4/3 24/32/11 23/31/10 5/1/1
f  25/33/12 24/32/11 6/4/3 10/3/12
f  7/8/6 24/32/11 25/33/12 11/5/12
f  5/1/1 23/31/10 26/34/13 9/2/14
f  23/31/10 8/7/5 12/6/14 26/34/13
f  27/35/15 25/36/15 10/37/15 14/38/15
f  11/39/15 25/36/15 27/35/15 15/40/15
f  28/41/16 26/42/16 12/43/16 16/44/16
f  9/45/16 26/42/16 28/41/16 13/46/16
f  15/40/15 27/35/15 29/47/15 19/48/15
f  29/47/15 22/49/15 3/50/15 19/48/15
f  2/51/15 22/49/15 29/47/15 18/52/15
f  30/53/16 28/41/16 16/44/16 20/54/16
f  30/53/16 21/55/16 1/56/16 17/57/16
f  4/58/16 21/55/16 30/53/16 20/54/16
f  17/59/17 18/60/17 29/61/17 30/62/17
f  30/63/7 29/64/7 27/65/7 28/66/7
f  27/67/9 14/68/9 13/69/9 28/70/9
f  34/71/9 33/72/9 32/73/9 31/74/9
f  32/75/7 36/76/7 35/77/7 31/78/7
f  33/79/15 37/80/15 36/81/15 32/82/15
f  38/83/8 37/84/8 33/85/8 34/86/8
f  35/87/16 38/88/16 34/89/16 31/90/16
f  36/91/17 37/92/17 38/93/17 35/94/17
f  40/95/18 43/96/18 39/97/18
f  43/98/19 41/99/19 39/100/19
f  42/101/20 43/102/20 40/103/20
f  43/104/21 42/105/21 41/106/21
f  48/107/22 45/108/22 44/109/22
f  46/110/23 48/111/23 44/112/23
f  48/113/24 47/114/24 45/115/24
f  47/116/14 48/117/14 46/118/14
f  50/119/25 53/120/25 49/121/25
f  53/122/26 51/123/26 49/124/26
f  52/125/27 53/126/27 50/127/27
f  53/128/12 52/129/12 51/130/12
f  55/131/28 58/132/28 54/133/28
f  58/134/29 56/135/29 54/136/29
f  57/137/30 58/138/30 55/139/30
f  58/140/31 57/141/31 56/142/31
f  63/143/21 60/144/21 59/145/21
f  61/146/19 63/147/19 59/148/19
f  63/149/20 62/150/20 60/151/20
f  62/152/18 63/153/18 61/154/18
f  65/155/25 68/156/25 64/157/25
f  68/158/26 66/159/26 64/160/26
f  67/161/27 68/162/27 65/163/27
f  68/164/12 67/165/12 66/166/12
f  73/167/22 70/168/22 69/169/22
f  71/170/23 73/171/23 69/172/23
f  73/173/24 72/174/24 70/175/24
f  72/176/14 73/177/14 71/178/14
f  78/179/31 75/180/31 74/181/31
f  76/182/29 78/183/29 74/184/29
f  78/185/30 77/186/30 75/187/30
f  77/188/28 78/189/28 76/190/28
