# 
# Wavefront OBJ file
# Converted by the DEEP Exploration Deep Exploration 5 5.0.2.1477 Release
# Right Hemisphere, LTD
# http://www.righthemisphere.com/
# 
mtllib historic_column_2.mtl
# object historic_column_2
g historic_column_2
v -0.98000 -0.00000 0.98000
v 0.98000 -0.00000 0.98000
v 0.98000 -0.00000 -0.96000
v -0.96000 -0.00000 -0.98000
v -0.94000 0.60000 0.94000
v 0.94000 0.50000 0.96000
v 0.90000 0.44000 -0.94000
v -0.94000 0.54000 -0.92000
v -0.78000 0.50000 0.76000
v 0.82000 0.38000 0.72000
v 0.78000 0.38000 -0.78000
v -0.76000 0.50000 -0.78000
v -0.68000 0.88000 0.84000
v 0.80000 0.82000 0.80000
v 0.74000 0.76000 -0.76000
v -0.74000 0.78000 -0.72000
v 0.00000 -0.00000 1.00000
v 0.00000 -0.00000 -1.00000
v 0.04000 0.60000 0.98000
v 0.00000 0.60000 -1.00000
v 0.00000 0.60000 0.80000
v 0.00000 0.60000 -0.80000
v -0.02000 0.70000 0.76000
v 0.00000 0.70000 -0.80000
v 1.00000 -0.00000 -0.00000
v 0.94000 0.52000 -0.00000
v -1.00000 -0.00000 -0.00000
v -0.96000 0.56000 -0.00000
v 0.84000 0.38000 -0.00000
v 0.74000 0.76000 -0.00000
v -0.78000 0.50000 -0.00000
v -0.82000 0.84000 -0.00000
v 0.00000 -0.00000 -0.00000
v 0.00000 0.56000 -0.00000
v 0.02000 0.84000 -0.00000
# 35 verticies
vt 0.84906 0.10417
vt 0.84375 0.02083
vt 0.97396 0.02083
vt 0.96864 0.09028
vt 0.71354 0.02083
vt 0.71886 0.10417
vt 0.97396 0.27083
vt 0.84241 0.27083
vt 0.84241 0.35417
vt 0.96322 0.33194
vt 0.71623 0.34583
vt 0.71354 0.27083
vt 0.14974 0.57417
vt 0.15299 0.55750
vt 0.28646 0.52083
vt 0.28320 0.59417
vt 0.02604 0.54083
vt 0.04232 0.60417
vt 0.47500 0.70833
vt 0.37370 0.75417
vt 0.37370 0.77500
vt 0.46981 0.78750
vt 0.27760 0.79167
vt 0.27500 0.73333
vt 0.15759 0.47917
vt 0.15759 0.39583
vt 0.28646 0.39583
vt 0.28377 0.46635
vt 0.02604 0.39583
vt 0.02873 0.47596
vt 0.97396 0.14583
vt 0.84375 0.14583
vt 0.84375 0.22361
vt 0.96599 0.22083
vt 0.71886 0.22917
vt 0.71354 0.14583
vt 0.12627 0.71780
vt 0.12627 0.64583
vt 0.22500 0.64583
vt 0.22247 0.71780
vt 0.03513 0.64583
vt 0.02500 0.72917
vt 0.91146 0.39063
vt 0.78607 0.39063
vt 0.78607 0.41859
vt 0.90181 0.41365
vt 0.65104 0.42188
vt 0.66390 0.39063
vt 0.18750 0.18750
vt 0.34821 0.18750
vt 0.34500 0.03000
vt 0.18750 0.02679
vt 0.34500 0.34179
vt 0.18750 0.34821
vt 0.02679 0.18750
vt 0.03321 0.34500
vt 0.03000 0.03000
vt 0.66146 0.03003
vt 0.66146 0.18588
vt 0.53262 0.18588
vt 0.53810 0.02679
vt 0.53262 0.34821
vt 0.65598 0.33847
vt 0.40104 0.18588
vt 0.40378 0.03328
vt 0.40378 0.33523
vt 0.77643 0.59375
vt 0.91146 0.59375
vt 0.90824 0.47656
vt 0.77643 0.46354
vt 0.90181 0.72070
vt 0.77643 0.72396
vt 0.65104 0.59375
vt 0.65426 0.72070
vt 0.65104 0.46923
vt 0.59896 0.40739
vt 0.58931 0.53443
vt 0.47357 0.53443
vt 0.46714 0.41374
vt 0.47036 0.66146
vt 0.58931 0.65511
vt 0.33854 0.53443
vt 0.36105 0.40104
vt 0.35140 0.64876
# 84 texture verticies
vn -0.00345 0.04449 0.99900
vn 0.00000 0.03331 0.99944
vn 0.02363 0.03703 0.99903
vn 0.02687 0.04210 0.99875
vn -0.03054 0.05193 0.99818
vn -0.04068 0.06916 0.99678
vn 0.05887 0.02963 -0.99783
vn -0.02163 0.03716 -0.99908
vn 0.01098 0.01979 -0.99974
vn 0.07688 0.05922 -0.99528
vn -0.05286 0.05570 -0.99705
vn -0.02070 0.11116 -0.99359
vn 0.03612 0.09233 0.99507
vn 0.05109 0.37970 0.92370
vn 0.09075 0.11457 0.98926
vn -0.02166 -0.17980 0.98347
vn -0.01839 0.06988 0.99739
vn 0.05796 -0.22025 0.97372
vn 0.03745 0.02884 -0.99888
vn -0.04548 0.07144 -0.99641
vn -0.01091 0.01927 -0.99975
vn 0.04922 0.05766 -0.99712
vn -0.08108 0.10710 -0.99094
vn -0.05369 0.21289 -0.97560
vn 0.99235 0.12267 -0.01400
vn 0.99341 0.11462 -0.00021
vn 0.98822 0.14796 -0.03897
vn 0.98180 0.18111 -0.05719
vn 0.99520 0.09722 0.01097
vn 0.99681 0.07981 0.00166
vn -0.99797 0.05536 -0.03163
vn -0.99754 0.07012 -0.00071
vn -0.99804 0.06067 -0.01503
vn -0.99896 0.03951 -0.02258
vn -0.99739 0.06955 0.01927
vn -0.99749 0.06786 0.02036
vn 0.98511 0.16897 -0.03177
vn 0.96680 0.25442 -0.02370
vn 0.98298 0.17988 -0.03723
vn 0.99451 0.10469 -0.00000
vn 0.98709 0.15800 -0.02629
vn 0.99508 0.05961 -0.07910
vn -0.99734 -0.01055 -0.07212
vn -0.99879 0.00765 0.04866
vn -0.99891 -0.04594 0.00856
vn -0.98840 0.09584 -0.11781
vn -0.99374 0.07115 0.08612
vn -0.96707 0.25449 -0.00000
vn 0.00000 -1.00000 0.00000
vn 0.07600 0.99703 -0.01210
vn 0.08873 0.99600 -0.01013
vn 0.01942 0.99979 -0.00708
vn 0.05558 0.99753 -0.04298
vn 0.05450 0.99851 -0.00376
vn 0.18019 0.97941 -0.09102
vn 0.00000 0.99948 -0.03213
vn 0.00083 0.99913 -0.04168
vn -0.03016 0.99950 0.00909
vn -0.06812 -0.99768 0.00159
vn -0.20953 -0.97779 0.00515
vn -0.23212 -0.97245 0.02125
vn -0.06616 -0.99656 0.04983
vn -0.23999 -0.97064 -0.01600
vn -0.07195 -0.99616 -0.04981
vn 0.07670 -0.99705 0.00098
vn 0.10292 -0.99440 -0.02379
vn 0.10066 -0.99461 0.02479
vn -0.02074 0.99876 0.04519
vn 0.04630 0.99521 -0.08608
vn 0.06322 0.99757 -0.02929
vn 0.06593 0.98069 0.18412
vn 0.03866 0.99241 -0.11676
vn -0.08082 0.99673 -0.00000
vn 0.00000 0.99786 -0.06532
vn 0.14225 0.98724 0.07153
vn 0.04371 0.99072 -0.12870
# 76 normals
usemtl historic_column_2
f  19/1/1 17/2/2 2/3/3 6/4/4
f  1/5/5 17/2/2 19/1/1 5/6/6
f  3/7/7 18/8/8 20/9/9 7/10/10
f  8/11/11 20/9/9 18/8/8 4/12/12
f  23/13/13 21/14/14 10/15/15 14/16/16
f  9/17/17 21/14/14 23/13/13 13/18/18
f  11/19/19 22/20/20 24/21/21 15/22/22
f  16/23/23 24/21/21 22/20/20 12/24/24
f  26/25/25 25/26/26 3/27/27 7/28/28
f  2/29/29 25/26/26 26/25/25 6/30/30
f  4/31/31 27/32/32 28/33/33 8/34/34
f  5/35/35 28/33/33 27/32/32 1/36/36
f  30/37/37 29/38/38 11/39/39 15/40/40
f  10/41/41 29/38/38 30/37/37 14/42/42
f  12/43/43 31/44/44 32/45/45 16/46/46
f  13/47/47 32/45/45 31/44/44 9/48/48
f  33/49/49 25/50/49 2/51/49 17/52/49
f  3/53/49 25/50/49 33/49/49 18/54/49
f  33/49/49 27/55/49 4/56/49 18/54/49
f  1/57/49 27/55/49 33/49/49 17/52/49
f  6/58/50 26/59/51 34/60/52 19/61/53
f  20/62/54 34/60/52 26/59/51 7/63/55
f  34/60/52 28/64/56 5/65/57 19/61/53
f  8/66/58 28/64/56 34/60/52 20/62/54
f  34/67/59 29/68/60 10/69/61 21/70/62
f  11/71/63 29/68/60 34/67/59 22/72/64
f  34/67/59 31/73/65 12/74/66 22/72/64
f  9/75/67 31/73/65 34/67/59 21/70/62
f  14/76/68 30/77/69 35/78/70 23/79/71
f  24/80/72 35/78/70 30/77/69 15/81/73
f  35/78/70 32/82/74 13/83/75 23/79/71
f  16/84/76 32/82/74 35/78/70 24/80/72
