# 
# Wavefront OBJ file
# Converted by the DEEP Exploration Deep Exploration 5 5.0.2.1477 Release
# Right Hemisphere, LTD
# http://www.righthemisphere.com/
# 
mtllib historic_block_2.mtl
# object historic_block_2
g historic_block_2
v 1.25000 2.25000 1.25000
v 1.00000 2.50000 1.25000
v 1.00000 2.25000 1.25000
v 1.25000 2.25000 1.00000
v 1.25000 2.50000 1.00000
v 1.00000 2.50000 1.00000
v -1.25000 0.25000 1.25000
v -1.00000 0.00000 1.25000
v -1.00000 0.25000 1.25000
v -1.25000 0.25000 1.00000
v -1.25000 0.00000 1.00000
v -1.00000 0.00000 1.00000
v 1.25000 0.25000 1.25000
v 1.00000 0.00000 1.25000
v 1.00000 0.25000 1.25000
v 1.25000 0.25000 1.00000
v 1.25000 0.00000 1.00000
v 1.00000 0.00000 1.00000
v -1.25000 2.25000 1.25000
v -1.00000 2.50000 1.25000
v -1.00000 2.25000 1.25000
v -1.25000 2.25000 1.00000
v -1.25000 2.50000 1.00000
v -1.00000 2.50000 1.00000
v -1.25000 0.25000 -1.25000
v -1.00000 -0.00000 -1.25000
v -1.00000 0.25000 -1.25000
v -1.25000 0.25000 -1.00000
v -1.25000 -0.00000 -1.00000
v -1.00000 -0.00000 -1.00000
v 1.25000 0.25000 -1.25000
v 1.00000 -0.00000 -1.25000
v 1.00000 0.25000 -1.25000
v 1.25000 0.25000 -1.00000
v 1.25000 -0.00000 -1.00000
v 1.00000 -0.00000 -1.00000
v -1.25000 2.25000 -1.25000
v -1.00000 2.50000 -1.25000
v -1.00000 2.25000 -1.25000
v -1.25000 2.50000 -1.00000
v -1.25000 2.25000 -1.00000
v -1.00000 2.50000 -1.00000
v 1.25000 2.25000 -1.25000
v 1.00000 2.50000 -1.25000
v 1.00000 2.25000 -1.25000
v 1.25000 2.50000 -1.00000
v 1.25000 2.25000 -1.00000
v 1.00000 2.50000 -1.00000
# 48 verticies
vt 0.72222 0.05556
vt 0.72222 0.27778
vt 0.69444 0.27778
vt 0.69444 0.05556
vt 0.69444 0.61111
vt 0.72222 0.61111
vt 0.72222 0.38889
vt 0.69444 0.38889
vt 0.94444 0.27778
vt 0.94444 0.30556
vt 0.72222 0.30556
vt 0.72222 0.63889
vt 0.94444 0.63889
vt 0.94444 0.61111
vt 0.94444 0.05556
vt 0.97222 0.27778
vt 0.97222 0.05556
vt 0.94444 0.02778
vt 0.72222 0.02778
vt 0.94444 0.38889
vt 0.97222 0.38889
vt 0.97222 0.61111
vt 0.94444 0.36111
vt 0.72222 0.36111
vt 0.63889 0.27778
vt 0.61111 0.27778
vt 0.61111 0.05556
vt 0.63889 0.05556
vt 0.27778 0.05556
vt 0.27778 0.27778
vt 0.30556 0.27778
vt 0.30556 0.05556
vt 0.27778 0.61111
vt 0.05556 0.61111
vt 0.05556 0.63889
vt 0.27778 0.63889
vt 0.38889 0.63889
vt 0.38889 0.61111
vt 0.61111 0.61111
vt 0.61111 0.63889
vt 0.38889 0.30556
vt 0.38889 0.27778
vt 0.61111 0.30556
vt 0.05556 0.27778
vt 0.05556 0.30556
vt 0.27778 0.30556
vt 0.38889 0.05556
vt 0.36111 0.05556
vt 0.36111 0.27778
vt 0.38889 0.02778
vt 0.61111 0.02778
vt 0.05556 0.05556
vt 0.02778 0.27778
vt 0.02778 0.05556
vt 0.05556 0.02778
vt 0.27778 0.02778
vt 0.05556 0.38889
vt 0.02778 0.38889
vt 0.02778 0.61111
vt 0.36111 0.38889
vt 0.38889 0.38889
vt 0.36111 0.61111
vt 0.27778 0.38889
vt 0.05556 0.36111
vt 0.27778 0.36111
vt 0.30556 0.38889
vt 0.30556 0.61111
vt 0.61111 0.38889
vt 0.61111 0.36111
vt 0.38889 0.36111
vt 0.63889 0.38889
vt 0.63889 0.61111
vt 0.97222 0.30556
vt 0.69444 0.30556
vt 0.97222 0.63889
vt 0.69444 0.63889
vt 0.97222 0.02778
vt 0.69444 0.02778
vt 0.97222 0.36111
vt 0.69444 0.38867
vt 0.69444 0.36111
# 81 texture verticies
vn 0.00000 0.00000 1.00000
vn 0.00000 -0.00000 -1.00000
vn 1.00000 0.00000 0.00000
vn -1.00000 0.00000 0.00000
vn 0.00000 -1.00000 0.00000
vn 0.00000 1.00000 -0.00000
vn 0.57735 0.57735 0.57735
vn -0.57735 0.57735 0.57735
vn 0.57735 0.57735 -0.57735
vn -0.57735 0.57735 -0.57735
vn 0.57735 -0.57735 0.57735
vn -0.57735 -0.57735 0.57735
vn 0.57735 -0.57735 -0.57735
vn -0.57735 -0.57735 -0.57735
# 14 normals
usemtl historic_block_2
f  9/1/1 21/2/1 19/3/1 7/4/1
f  37/5/2 39/6/2 27/7/2 25/8/2
f  21/2/1 3/9/1 2/10/1 20/11/1
f  38/12/2 44/13/2 45/14/2 39/6/2
f  9/1/1 15/15/1 3/9/1 21/2/1
f  1/16/1 3/9/1 15/15/1 13/17/1
f  14/18/1 15/15/1 9/1/1 8/19/1
f  45/14/2 33/20/2 27/7/2 39/6/2
f  31/21/2 33/20/2 45/14/2 43/22/2
f  27/7/2 33/20/2 32/23/2 26/24/2
f  43/25/3 47/26/3 34/27/3 31/28/3
f  28/29/4 41/30/4 37/31/4 25/32/4
f  36/33/5 30/34/5 26/35/5 32/36/5
f  38/37/6 42/38/6 48/39/6 44/40/6
f  5/41/3 4/42/3 47/26/3 46/43/3
f  41/30/4 22/44/4 23/45/4 40/46/4
f  4/42/3 16/47/3 34/27/3 47/26/3
f  13/48/3 16/47/3 4/42/3 1/49/3
f  34/27/3 16/47/3 17/50/3 35/51/3
f  28/29/4 10/52/4 22/44/4 41/30/4
f  19/53/4 22/44/4 10/52/4 7/54/4
f  11/55/4 10/52/4 28/29/4 29/56/4
f  30/34/5 12/57/5 11/58/5 29/59/5
f  23/60/6 24/61/6 42/38/6 40/62/6
f  36/33/5 18/63/5 12/57/5 30/34/5
f  8/64/5 12/57/5 18/63/5 14/65/5
f  17/66/5 18/63/5 36/33/5 35/67/5
f  42/38/6 24/61/6 6/68/6 48/39/6
f  2/69/6 6/68/6 24/61/6 20/70/6
f  48/39/6 6/68/6 5/71/6 46/72/6
f  6/68/6 2/69/6 5/71/6
f  3/9/1 1/16/1 2/10/1
f  1/49/3 4/42/3 5/41/3
f  2/10/7 1/16/7 5/73/7
f  20/70/6 24/61/6 23/60/6
f  19/3/1 21/2/1 20/11/1
f  22/44/4 19/53/4 23/45/4
f  19/3/8 20/11/8 23/74/8
f  44/40/6 48/39/6 46/72/6
f  43/22/2 45/14/2 44/13/2
f  47/26/3 43/25/3 46/43/3
f  43/22/9 44/13/9 46/75/9
f  42/38/6 38/37/6 40/62/6
f  39/6/2 37/5/2 38/12/2
f  37/31/4 41/30/4 40/46/4
f  38/12/10 37/5/10 40/76/10
f  14/65/5 18/63/5 17/66/5
f  13/17/1 15/15/1 14/18/1
f  16/47/3 13/48/3 17/50/3
f  13/17/11 14/18/11 17/77/11
f  12/57/5 8/64/5 11/58/5
f  9/1/1 7/4/1 8/19/1
f  7/54/4 10/52/4 11/55/4
f  8/19/12 7/4/12 11/78/12
f  36/33/5 32/36/5 35/67/5
f  33/20/2 31/21/2 32/23/2
f  31/28/3 34/27/3 35/51/3
f  32/23/13 31/21/13 35/79/13
f  26/35/5 30/34/5 29/59/5
f  25/8/2 27/7/2 26/24/2
f  28/29/4 25/32/4 29/56/4
f  25/80/14 26/24/14 29/81/14
