# 
# Wavefront OBJ file
# Converted by the DEEP Exploration Deep Exploration 5 5.0.2.1477 Release
# Right Hemisphere, LTD
# http://www.righthemisphere.com/
# 
mtllib historic_column_13.mtl
# object historic_column_13
g historic_column_13
v -0.60000 -0.00000 0.40000
v 0.60000 -0.00000 0.40000
v 0.60000 -0.00000 -0.40000
v -0.60000 -0.00000 -0.40000
v -0.60000 0.40000 0.40000
v 0.60000 0.40000 0.40000
v 0.60000 0.40000 -0.40000
v -0.60000 0.40000 -0.40000
# 8 verticies
vt 0.02469 0.25463
vt 0.41975 0.25463
vt 0.41975 0.02315
vt 0.02469 0.02315
vt 0.86420 0.02083
vt 0.86420 0.14583
vt 0.46914 0.14583
vt 0.46914 0.02083
vt 0.69907 0.35417
vt 0.69907 0.47917
vt 0.46759 0.47917
vt 0.46759 0.35417
vt 0.46914 0.31250
vt 0.86420 0.31250
vt 0.86420 0.18750
vt 0.46914 0.18750
vt 0.74537 0.47917
vt 0.97685 0.47917
vt 0.97685 0.35417
vt 0.74537 0.35417
vt 0.41975 0.30078
vt 0.41975 0.53241
vt 0.02469 0.53241
vt 0.02469 0.30093
# 24 texture verticies
vn 0.00000 -1.00000 0.00000
vn 0.00000 0.00000 1.00000
vn 1.00000 0.00000 0.00000
vn 0.00000 -0.00000 -1.00000
vn -1.00000 0.00000 0.00000
vn 0.00000 1.00000 -0.00000
# 6 normals
usemtl historic_column_13
f  4/1/1 3/2/1 2/3/1 1/4/1
f  2/5/2 6/6/2 5/7/2 1/8/2
f  3/9/3 7/10/3 6/11/3 2/12/3
f  8/13/4 7/14/4 3/15/4 4/16/4
f  5/17/5 8/18/5 4/19/5 1/20/5
f  6/21/6 7/22/6 8/23/6 5/24/6
