# 
# Wavefront OBJ file
# Converted by the DEEP Exploration Deep Exploration 5 5.0.2.1477 Release
# Right Hemisphere, LTD
# http://www.righthemisphere.com/
# 
mtllib bullet_5.mtl
# object bullet_5
g bullet_5
v 0.20000 0.10000 -0.25000
v -0.00000 -0.00000 -0.15000
v -0.20000 0.10000 -0.25000
v -0.00000 0.10000 0.25000
v -0.00000 0.20000 -0.05000
# 5 verticies
vt 0.54167 0.55714
vt 0.75000 0.45429
vt 0.75000 0.04286
vt 0.75000 0.45313
vt 0.95833 0.55714
vt 0.25000 0.35143
vt 0.45833 0.55714
vt 0.25000 0.45429
vt 0.04167 0.55714
vt 0.25000 0.04286
# 10 texture verticies
vn -0.51848 -0.82956 0.20739
vn 0.51848 -0.82956 0.20739
vn -0.55709 0.37139 -0.74278
vn 0.55709 0.37139 -0.74278
vn 0.62017 0.74421 0.24807
vn -0.62017 0.74421 0.24807
# 6 normals
usemtl bullet_5
f  3/1/1 2/2/1 4/3/1
f  2/4/2 1/5/2 4/3/2
f  5/6/3 1/7/3 2/8/3
f  5/6/4 2/8/4 3/9/4
f  4/10/5 1/7/5 5/6/5
f  3/9/6 4/10/6 5/6/6
