# 
# Wavefront OBJ file
# Converted by the DEEP Exploration Deep Exploration 5 5.0.2.1477 Release
# Right Hemisphere, LTD
# http://www.righthemisphere.com/
# 
mtllib bullet_3.mtl
# object bullet_3
g bullet_3
v 0.05000 -0.00000 -0.07500
v -0.05000 -0.00000 -0.07500
v 0.05000 0.10000 -0.07500
v -0.05000 0.10000 -0.07500
v -0.05000 -0.00000 0.00500
v 0.05000 -0.00000 0.00500
v 0.05000 0.10000 0.00500
v -0.05000 0.10000 0.00500
v -0.00000 0.05000 0.07500
# 9 verticies
vt 0.02604 0.91146
vt 0.28646 0.91146
vt 0.28646 0.65104
vt 0.02604 0.65104
vt 0.78646 0.23519
vt 0.52604 0.23519
vt 0.52604 0.47222
vt 0.78646 0.47222
vt 0.65625 0.02778
vt 0.23519 0.59896
vt 0.23519 0.33854
vt 0.47222 0.33854
vt 0.47222 0.59896
vt 0.02778 0.46875
vt 0.47222 0.02604
vt 0.23519 0.02604
vt 0.23519 0.28646
vt 0.47222 0.28646
vt 0.02778 0.15625
vt 0.52604 0.97222
vt 0.52604 0.73519
vt 0.78646 0.73519
vt 0.78646 0.97222
vt 0.65625 0.52734
# 24 texture verticies
vn 0.00000 -0.00000 -1.00000
vn 0.00000 -1.00000 0.00000
vn 0.00000 -0.81373 0.58124
vn 1.00000 0.00000 0.00000
vn 0.81373 0.00000 0.58124
vn -1.00000 0.00000 0.00000
vn -0.81373 0.00000 0.58124
vn 0.00000 1.00000 -0.00000
vn 0.00000 0.81373 0.58124
# 9 normals
usemtl bullet_3
f  4/1/1 3/2/1 1/3/1 2/4/1
f  6/5/2 5/6/2 2/7/2 1/8/2
f  9/9/3 5/6/3 6/5/3
f  7/10/4 6/11/4 1/12/4 3/13/4
f  9/14/5 6/11/5 7/10/5
f  2/15/6 5/16/6 8/17/6 4/18/6
f  9/19/7 8/17/7 5/16/7
f  4/20/8 8/21/8 7/22/8 3/23/8
f  9/24/9 7/22/9 8/21/9
