# 
# Wavefront OBJ file
# Converted by the DEEP Exploration Deep Exploration 5 5.0.2.1477 Release
# Right Hemisphere, LTD
# http://www.righthemisphere.com/
# 
mtllib bullet_1.mtl
# object bullet_1
g bullet_1
v -0.10000 0.05000 0.20000
v 0.10000 0.05000 0.20000
v 0.15000 -0.00000 -0.20000
v -0.15000 -0.00000 -0.20000
v -0.10000 0.25000 0.20000
v 0.10000 0.25000 0.20000
v 0.15000 0.30000 -0.20000
v -0.15000 0.30000 -0.20000
v -0.15000 -0.00000 0.10000
v 0.15000 -0.00000 0.10000
v 0.15000 0.30000 0.10000
v -0.15000 0.30000 0.10000
# 12 verticies
vt 0.98333 0.01714
vt 0.98333 0.22286
vt 0.81667 0.22286
vt 0.81667 0.01714
vt 0.65778 0.62222
vt 0.94222 0.62222
vt 0.94222 0.33778
vt 0.65778 0.33778
vt 0.30222 0.42909
vt 0.01778 0.42909
vt 0.01778 0.70182
vt 0.30222 0.70182
vt 0.06519 0.33818
vt 0.25481 0.33818
vt 0.10909 0.30222
vt 0.10909 0.01778
vt 0.38182 0.01778
vt 0.38182 0.30222
vt 0.01818 0.06519
vt 0.01818 0.25481
vt 0.78182 0.01778
vt 0.50909 0.01778
vt 0.50909 0.30222
vt 0.78182 0.30222
vt 0.41818 0.25481
vt 0.41818 0.06519
vt 0.33778 0.70182
vt 0.33778 0.42909
vt 0.62222 0.42909
vt 0.62222 0.70182
vt 0.57481 0.33814
vt 0.38519 0.33818
# 32 texture verticies
vn 0.00000 0.00000 1.00000
vn 0.00000 -0.00000 -1.00000
vn 0.00000 -0.97325 0.22975
vn 0.00000 -1.00000 0.00000
vn 0.00000 -0.89443 0.44721
vn 0.97325 0.00000 0.22975
vn 0.97325 0.00000 0.22975
vn 1.00000 0.00000 0.00000
vn 0.89443 0.00000 0.44721
vn -1.00000 0.00000 0.00000
vn -0.95223 0.00000 0.30539
vn -0.98827 0.00000 0.15270
vn -0.89443 0.00000 0.44721
vn 0.00000 1.00000 -0.00000
vn 0.00000 0.95223 0.30539
vn 0.00000 0.98827 0.15270
vn 0.00000 0.89443 0.44721
# 17 normals
usemtl bullet_1
f  2/1/1 6/2/1 5/3/1 1/4/1
f  8/5/2 7/6/2 3/7/2 4/8/2
f  10/9/3 9/10/3 4/11/4 3/12/4
f  1/13/5 9/10/3 10/9/3 2/14/5
f  11/15/6 10/16/7 3/17/8 7/18/8
f  2/19/9 10/16/7 11/15/6 6/20/9
f  4/21/10 9/22/11 12/23/12 8/24/10
f  5/25/13 12/23/12 9/22/11 1/26/13
f  8/27/14 12/28/15 11/29/16 7/30/14
f  6/31/17 11/29/16 12/28/15 5/32/17
