# 
# Wavefront OBJ file
# Converted by the DEEP Exploration Deep Exploration 5 5.0.2.1477 Release
# Right Hemisphere, LTD
# http://www.righthemisphere.com/
# 
mtllib bullet_2.mtl
# object bullet_2
g bullet_2
v -0.20000 0.20000 -0.00000
v -0.14142 0.20000 -0.14142
v -0.14142 0.30000 -0.10000
v -0.14142 0.34142 -0.00000
v -0.14142 0.30000 0.10000
v -0.14142 0.20000 0.14142
v -0.14142 0.10000 0.10000
v -0.14142 0.05858 -0.00000
v -0.14142 0.10000 -0.10000
v 0.00000 0.20000 -0.20000
v 0.00000 0.34142 -0.14142
v 0.00000 0.40000 -0.00000
v 0.00000 0.34142 0.14142
v -0.00000 0.20000 0.20000
v -0.00000 0.05858 0.14142
v -0.00000 -0.00000 0.00000
v -0.00000 0.05858 -0.14142
v 0.14142 0.20000 -0.14142
v 0.14142 0.30000 -0.10000
v 0.14142 0.34142 -0.00000
v 0.14142 0.30000 0.10000
v 0.14142 0.20000 0.14142
v 0.14142 0.10000 0.10000
v 0.14142 0.05858 -0.00000
v 0.14142 0.10000 -0.10000
v 0.20000 0.20000 -0.00000
# 26 verticies
vt 0.93154 0.26488
vt 0.97222 0.16667
vt 0.83333 0.16667
vt 0.83333 0.30556
vt 0.73512 0.26488
vt 0.69444 0.16667
vt 0.73512 0.06846
vt 0.83333 0.02778
vt 0.93154 0.06846
vt 0.36111 0.26488
vt 0.50000 0.30556
vt 0.50000 0.16667
vt 0.36111 0.16667
vt 0.02778 0.16667
vt 0.16667 0.16667
vt 0.16667 0.30556
vt 0.02778 0.26488
vt 0.16667 0.02778
vt 0.02778 0.06846
vt 0.16667 0.50000
vt 0.16667 0.63889
vt 0.02778 0.59821
vt 0.02778 0.50000
vt 0.16667 0.36111
vt 0.02778 0.40179
vt 0.50000 0.50000
vt 0.50000 0.36111
vt 0.36111 0.40179
vt 0.36111 0.50000
vt 0.36111 0.59821
vt 0.50000 0.63889
vt 0.50000 0.02778
vt 0.36111 0.06846
vt 0.63889 0.26488
vt 0.63889 0.16667
vt 0.30556 0.16667
vt 0.30556 0.26488
vt 0.30556 0.06846
vt 0.30556 0.50000
vt 0.30556 0.59821
vt 0.30556 0.40179
vt 0.63889 0.50000
vt 0.63889 0.40179
vt 0.63889 0.59821
vt 0.63889 0.06846
vt 0.93154 0.59821
vt 0.83333 0.50000
vt 0.97222 0.50000
vt 0.83333 0.63889
vt 0.73512 0.59821
vt 0.69444 0.50000
vt 0.73512 0.40179
vt 0.83333 0.36111
vt 0.93154 0.40179
# 54 texture verticies
vn -0.92388 0.27060 -0.27060
vn -0.92388 -0.00000 -0.38268
vn -1.00000 -0.00000 0.00000
vn -0.92388 0.38268 0.00000
vn -0.92388 0.27060 0.27060
vn -0.92388 -0.00000 0.38268
vn -0.92388 -0.27060 0.27060
vn -0.92388 -0.38268 0.00000
vn -0.92388 -0.27060 -0.27060
vn -0.35741 0.35741 -0.86286
vn -0.35741 0.35741 -0.86286
vn -0.35741 0.35741 -0.86286
vn -0.35741 0.86286 -0.35741
vn -0.35741 0.86286 -0.35741
vn -0.35741 0.86286 -0.35741
vn -0.35741 0.86286 0.35741
vn -0.35741 0.86286 0.35741
vn -0.35741 0.86286 0.35741
vn -0.35741 0.35741 0.86286
vn -0.35741 0.35741 0.86286
vn -0.35741 0.35741 0.86286
vn -0.35741 -0.35741 0.86286
vn -0.35741 -0.35741 0.86286
vn -0.35741 -0.35741 0.86286
vn -0.35741 -0.86286 0.35741
vn -0.35741 -0.86286 0.35741
vn -0.35741 -0.86286 0.35741
vn -0.35741 -0.86286 -0.35741
vn -0.35741 -0.86286 -0.35741
vn -0.35741 -0.86286 -0.35741
vn -0.35741 -0.35741 -0.86286
vn -0.35741 -0.35741 -0.86286
vn -0.35741 -0.35741 -0.86286
vn 0.35741 0.35741 -0.86286
vn 0.35741 0.35741 -0.86286
vn 0.35741 0.35741 -0.86286
vn 0.35741 0.86286 -0.35741
vn 0.35741 0.86286 -0.35741
vn 0.35741 0.86286 -0.35741
vn 0.35741 0.86286 0.35741
vn 0.35741 0.86286 0.35741
vn 0.35741 0.86286 0.35741
vn 0.35741 0.35741 0.86286
vn 0.35741 0.35741 0.86286
vn 0.35741 0.35741 0.86286
vn 0.35741 -0.35741 0.86286
vn 0.35741 -0.35741 0.86286
vn 0.35741 -0.35741 0.86286
vn 0.35741 -0.86286 0.35741
vn 0.35741 -0.86286 0.35741
vn 0.35741 -0.86286 0.35741
vn 0.35741 -0.86286 -0.35741
vn 0.35741 -0.86286 -0.35741
vn 0.35741 -0.86286 -0.35741
vn 0.35741 -0.35741 -0.86286
vn 0.35741 -0.35741 -0.86286
vn 0.35741 -0.35741 -0.86286
vn 0.92388 0.27060 -0.27060
vn 1.00000 0.00000 0.00000
vn 0.92388 -0.00000 -0.38268
vn 0.92388 0.38268 0.00000
vn 0.92388 0.27060 0.27060
vn 0.92388 0.00000 0.38268
vn 0.92388 -0.27060 0.27060
vn 0.92388 -0.38268 0.00000
vn 0.92388 -0.27060 -0.27060
# 66 normals
usemtl bullet_2
f  3/1/1 2/2/2 1/3/3
f  4/4/4 3/1/1 1/3/3
f  5/5/5 4/4/4 1/3/3
f  6/6/6 5/5/5 1/3/3
f  7/7/7 6/6/6 1/3/3
f  8/8/8 7/7/7 1/3/3
f  9/9/9 8/8/8 1/3/3
f  2/2/2 9/9/9 1/3/3
f  3/10/10 11/11/11 10/12/10 2/13/12
f  4/14/13 12/15/14 11/16/13 3/17/15
f  13/18/16 12/15/17 4/14/16 5/19/18
f  14/20/19 13/21/20 5/22/19 6/23/21
f  15/24/22 14/20/23 6/23/22 7/25/24
f  16/26/25 15/27/26 7/28/25 8/29/27
f  9/30/28 17/31/29 16/26/28 8/29/30
f  2/13/31 10/12/32 17/32/31 9/33/33
f  11/11/34 19/34/35 18/35/34 10/12/36
f  12/15/37 20/36/38 19/37/37 11/16/39
f  21/38/40 20/36/41 12/15/40 13/18/42
f  22/39/43 21/40/44 13/21/43 14/20/45
f  23/41/46 22/39/47 14/20/46 15/24/48
f  24/42/49 23/43/50 15/27/49 16/26/51
f  17/31/52 25/44/53 24/42/52 16/26/54
f  10/12/55 18/35/56 25/45/55 17/32/57
f  19/46/58 26/47/59 18/48/60
f  20/49/61 26/47/59 19/46/58
f  26/47/59 20/49/61 21/50/62
f  26/47/59 21/50/62 22/51/63
f  26/47/59 22/51/63 23/52/64
f  26/47/59 23/52/64 24/53/65
f  25/54/66 26/47/59 24/53/65
f  18/48/60 26/47/59 25/54/66
