# 
# Wavefront OBJ file
# Converted by the DEEP Exploration Deep Exploration 5 5.0.2.1477 Release
# Right Hemisphere, LTD
# http://www.righthemisphere.com/
# 
mtllib bullet_4.mtl
# object bullet_4
g bullet_4
v 0.16941 2.60000 -0.29342
v 0.33882 2.60000 -0.00000
v 0.16941 2.60000 0.29342
v -0.16941 2.60000 0.29342
v -0.33882 2.60000 -0.00000
v -0.16941 2.60000 -0.29342
v 0.28235 -0.00000 -0.48904
v 0.56470 -0.00000 0.00000
v 0.28235 -0.00000 0.48904
v -0.28235 -0.00000 0.48904
v -0.56470 -0.00000 0.00000
v -0.28235 -0.00000 -0.48904
v 0.56470 2.29979 -0.00000
v 0.28235 2.29979 -0.48904
v 0.28235 2.29979 0.48904
v -0.28235 2.29979 0.48904
v -0.56470 2.29979 -0.00000
v -0.28235 2.29979 -0.48904
v -0.05000 0.10398 0.47000
v 0.05000 0.10398 0.47000
v -0.00000 0.10398 0.82000
v -0.00000 0.64398 0.47000
v -0.05000 0.10398 -0.47000
v 0.05000 0.10398 -0.47000
v -0.00000 0.10398 -0.82000
v -0.00000 0.64398 -0.47000
v 0.50000 0.10398 0.05000
v 0.50000 0.10398 -0.05000
v 0.85000 0.10398 -0.00000
v 0.50000 0.64398 -0.00000
v -0.50000 0.10398 0.05000
v -0.50000 0.10398 -0.05000
v -0.85000 0.10398 -0.00000
v -0.50000 0.64398 -0.00000
# 34 verticies
vt 0.36243 0.87054
vt 0.32011 0.79762
vt 0.36243 0.72470
vt 0.44709 0.72470
vt 0.48942 0.79762
vt 0.44709 0.87054
vt 0.29847 0.85714
vt 0.22662 0.72527
vt 0.08291 0.72527
vt 0.01105 0.85714
vt 0.08291 0.98901
vt 0.22662 0.98901
vt 0.44139 0.62295
vt 0.30952 0.62295
vt 0.30952 0.01152
vt 0.44139 0.01152
vt 0.30952 0.70276
vt 0.38864 0.70276
vt 0.17766 0.62295
vt 0.17766 0.01152
vt 0.23040 0.70276
vt 0.15625 0.62295
vt 0.01042 0.62295
vt 0.01042 0.01152
vt 0.15625 0.01152
vt 0.03958 0.70276
vt 0.12708 0.70276
vt 0.63004 0.01152
vt 0.63004 0.62295
vt 0.76190 0.62295
vt 0.76190 0.01152
vt 0.76190 0.70276
vt 0.68278 0.70276
vt 0.89377 0.62295
vt 0.89377 0.01152
vt 0.84103 0.70276
vt 0.46280 0.01152
vt 0.46280 0.62295
vt 0.60863 0.62295
vt 0.60863 0.01152
vt 0.57946 0.70276
vt 0.49196 0.70276
vt 0.91429 0.37302
vt 0.99048 0.35714
vt 0.91429 0.34127
vt 0.91429 0.01042
vt 0.99048 0.01042
vt 0.91429 0.15625
vt 0.99048 0.17708
vt 0.91429 0.17708
vt 0.91429 0.32292
vt 0.99048 0.17676
# 52 texture verticies
vn 0.00000 1.00000 -0.00000
vn 0.00000 -1.00000 0.00000
vn 0.83017 0.28475 -0.47930
vn 0.83017 0.28475 -0.47930
vn 0.86603 -0.00000 -0.50000
vn 0.72558 0.54593 -0.41892
vn 0.72558 0.54593 -0.41892
vn 0.83017 0.28475 0.47930
vn 0.83017 0.28475 0.47930
vn 0.86603 0.00000 0.50000
vn 0.72558 0.54593 0.41892
vn 0.72558 0.54593 0.41892
vn 0.00000 0.28475 0.95860
vn 0.00000 0.28475 0.95860
vn 0.00000 0.00000 1.00000
vn 0.00000 0.54593 0.83783
vn -0.86603 0.00000 0.50000
vn -0.80183 0.37782 0.46294
vn -0.85043 0.18891 0.49100
vn -0.72558 0.54593 0.41892
vn -0.72558 0.54593 0.41892
vn -0.86603 -0.00000 -0.50000
vn -0.80183 0.37782 -0.46294
vn -0.85043 0.18891 -0.49100
vn -0.72558 0.54593 -0.41892
vn -0.72558 0.54593 -0.41892
vn 0.00000 -0.00000 -1.00000
vn 0.00000 0.37782 -0.92588
vn 0.00000 0.18891 -0.98199
vn 0.00000 0.54593 -0.83783
vn -0.98582 0.09128 0.14083
vn 0.98582 0.09128 0.14083
vn -0.98582 0.09128 -0.14083
vn 0.98582 0.09128 -0.14083
vn 0.14083 0.09128 0.98582
vn 0.14083 0.09128 -0.98582
vn -0.14083 0.09128 0.98582
vn -0.14083 0.09128 -0.98582
# 38 normals
usemtl bullet_4
f  6/1/1 5/2/1 4/3/1 3/4/1 2/5/1 1/6/1
f  8/7/2 9/8/2 10/9/2 11/10/2 12/11/2 7/12/2
f  14/13/3 13/14/4 8/15/5 7/16/5
f  2/17/6 13/14/4 14/13/3 1/18/7
f  13/14/8 15/19/9 9/20/10 8/15/10
f  3/21/11 15/19/9 13/14/8 2/17/12
f  15/22/13 16/23/14 10/24/15 9/25/15
f  4/26/16 16/23/14 15/22/13 3/27/16
f  10/28/17 16/29/18 17/30/19 11/31/17
f  5/32/20 17/30/19 16/29/18 4/33/21
f  11/31/22 17/30/23 18/34/24 12/35/22
f  6/36/25 18/34/24 17/30/23 5/32/26
f  12/37/27 18/38/28 14/39/29 7/40/27
f  1/41/30 14/39/29 18/38/28 6/42/30
f  20/43/2 21/44/2 19/45/2
f  19/46/31 21/47/31 22/48/31
f  21/49/32 20/50/32 22/51/32
f  25/44/2 24/43/2 23/45/2
f  25/47/33 23/46/33 26/48/33
f  24/50/34 25/49/34 26/51/34
f  28/43/2 29/44/2 27/45/2
f  27/46/35 29/47/35 30/48/35
f  29/49/36 28/50/36 30/51/36
f  33/44/2 32/43/2 31/45/2
f  33/47/37 31/46/37 34/48/37
f  32/50/38 33/52/38 34/51/38
