# 
# Wavefront OBJ file
# Converted by the DEEP Exploration Deep Exploration 5 5.0.2.1477 Release
# Right Hemisphere, LTD
# http://www.righthemisphere.com/
# 
mtllib tank_user_top_03.mtl
# object tank_user_top_03
g tank_user_top_03
v 0.47249 1.61906 3.07437
v 0.47249 1.07506 3.07437
v 0.59061 1.68706 0.99666
v 0.59061 1.00706 0.99666
v -0.00000 2.34706 0.58412
v 0.86603 1.84706 0.58412
v 0.86603 0.84705 0.58412
v -0.00000 0.34706 0.58412
v -0.00000 2.34705 -1.41588
v 0.86603 1.84705 -1.41588
v 0.86603 0.84705 -1.41588
v -0.00000 0.34705 -1.41588
v 1.00000 1.34706 -1.09074
v 1.00000 1.64758 -0.96626
v 1.00000 1.77206 -0.66574
v 1.00000 1.64758 -0.36522
v 1.00000 1.34706 -0.24074
v 1.00000 1.04653 -0.36522
v 1.00000 0.92205 -0.66574
v 1.00000 1.04653 -0.96626
v -0.00000 2.09706 3.33426
v 0.64952 1.72205 3.33426
v 0.64952 0.97206 3.33426
v -0.00000 0.59706 3.33426
v -0.00000 2.09706 2.83426
v 0.64952 1.72206 2.83426
v 0.64952 0.97206 2.83426
v -0.00000 0.59706 2.83426
v -0.00000 1.34706 -1.09074
v -0.00000 1.64758 -0.96626
v -0.00000 1.77206 -0.66574
v -0.00000 1.64758 -0.36522
v -0.00000 1.34706 -0.24074
v -0.00000 1.04653 -0.36522
v -0.00000 0.92205 -0.66574
v -0.00000 1.04653 -0.96626
v -0.00000 0.80385 3.07437
v -0.00000 0.66804 0.99666
v -0.00000 1.89026 3.07437
v -0.00000 2.02607 0.99666
v -0.00000 2.14706 1.08633
v 0.69282 1.74706 1.08633
v 0.69282 0.94706 1.08633
v -0.00000 0.54706 1.08633
v -0.00000 2.14705 -1.65867
v 0.69282 1.74705 -1.65867
v 0.69282 0.94706 -1.65867
v -0.00000 0.54706 -1.65867
v 1.40000 -0.00000 0.00000
v 0.98995 -0.00000 -0.98995
v 0.00000 -0.00000 -1.40000
v 0.00000 0.00000 1.40000
v 0.98995 0.00000 0.98995
v 1.40000 0.20000 0.00000
v 0.98995 0.20000 -0.98995
v 0.00000 0.20000 -1.40000
v 0.00000 0.20000 1.40000
v 0.98995 0.20000 0.98995
v 0.20000 0.53000 -0.40000
v 0.20000 0.73000 -0.34641
v 0.20000 0.87641 -0.20000
v 0.20000 0.93000 -0.00000
v 0.20000 0.87641 0.20000
v 0.20000 0.73000 0.34641
v 0.20000 0.53000 0.40000
v 0.20000 0.33000 0.34641
v 0.20000 0.18359 0.20000
v 0.20000 0.13000 -0.00000
v 0.20000 0.18359 -0.20000
v 0.20000 0.33000 -0.34641
v 0.40000 0.53000 -0.40000
v 0.40000 0.73000 -0.34641
v 0.40000 0.87641 -0.20000
v 0.40000 0.93000 -0.00000
v 0.40000 0.87641 0.20000
v 0.40000 0.73000 0.34641
v 0.40000 0.53000 0.40000
v 0.40000 0.33000 0.34641
v 0.40000 0.18359 0.20000
v 0.40000 0.13000 -0.00000
v 0.40000 0.18359 -0.20000
v 0.40000 0.33000 -0.34641
v -0.47249 1.61906 3.07437
v -0.47249 1.07506 3.07437
v -0.59061 1.68706 0.99666
v -0.59061 1.00706 0.99666
v 0.00000 2.34706 0.58412
v -0.86603 1.84706 0.58412
v -0.86603 0.84705 0.58412
v 0.00000 0.34706 0.58412
v 0.00000 2.34705 -1.41588
v -0.86603 1.84705 -1.41588
v -0.86603 0.84705 -1.41588
v 0.00000 0.34705 -1.41588
v -1.00000 1.34706 -1.09074
v -1.00000 1.64758 -0.96626
v -1.00000 1.77206 -0.66574
v -1.00000 1.64758 -0.36522
v -1.00000 1.34706 -0.24074
v -1.00000 1.04653 -0.36522
v -1.00000 0.92205 -0.66574
v -1.00000 1.04653 -0.96626
v 0.00000 2.09706 3.33426
v -0.64952 1.72205 3.33426
v -0.64952 0.97206 3.33426
v 0.00000 0.59706 3.33426
v 0.00000 2.09706 2.83426
v -0.64952 1.72206 2.83426
v -0.64952 0.97206 2.83426
v 0.00000 0.59706 2.83426
v 0.00000 1.34706 -1.09074
v 0.00000 1.64758 -0.96626
v 0.00000 1.77206 -0.66574
v 0.00000 1.64758 -0.36522
v 0.00000 1.34706 -0.24074
v 0.00000 1.04653 -0.36522
v 0.00000 0.92205 -0.66574
v 0.00000 1.04653 -0.96626
v 0.00000 0.80385 3.07437
v 0.00000 0.66804 0.99666
v 0.00000 1.89026 3.07437
v 0.00000 2.02607 0.99666
v 0.00000 2.14706 1.08633
v -0.69282 1.74706 1.08633
v -0.69282 0.94706 1.08633
v 0.00000 0.54706 1.08633
v 0.00000 2.14705 -1.65867
v -0.69282 1.74705 -1.65867
v -0.69282 0.94706 -1.65867
v 0.00000 0.54706 -1.65867
v -1.40000 -0.00000 0.00000
v -0.98995 -0.00000 -0.98995
v -0.98995 0.00000 0.98995
v -1.40000 0.20000 0.00000
v -0.98995 0.20000 -0.98995
v -0.98995 0.20000 0.98995
v -0.20000 0.53000 -0.40000
v -0.20000 0.73000 -0.34641
v -0.20000 0.87641 -0.20000
v -0.20000 0.93000 -0.00000
v -0.20000 0.87641 0.20000
v -0.20000 0.73000 0.34641
v -0.20000 0.53000 0.40000
v -0.20000 0.33000 0.34641
v -0.20000 0.18359 0.20000
v -0.20000 0.13000 -0.00000
v -0.20000 0.18359 -0.20000
v -0.20000 0.33000 -0.34641
v -0.40000 0.53000 -0.40000
v -0.40000 0.73000 -0.34641
v -0.40000 0.87641 -0.20000
v -0.40000 0.93000 -0.00000
v -0.40000 0.87641 0.20000
v -0.40000 0.73000 0.34641
v -0.40000 0.53000 0.40000
v -0.40000 0.33000 0.34641
v -0.40000 0.18359 0.20000
v -0.40000 0.13000 -0.00000
v -0.40000 0.18359 -0.20000
v -0.40000 0.33000 -0.34641
# 160 verticies
vt 0.31185 0.35729
vt 0.31185 0.45352
vt 0.01247 0.44390
vt 0.01247 0.36691
vt 0.60923 0.51295
vt 0.60923 0.64921
vt 0.33671 0.64921
vt 0.33671 0.51295
vt 0.56684 0.83711
vt 0.52703 0.85360
vt 0.48721 0.83711
vt 0.47072 0.79730
vt 0.48721 0.75748
vt 0.52703 0.74099
vt 0.56684 0.75748
vt 0.58333 0.79730
vt 0.17905 0.58041
vt 0.17905 0.68986
vt 0.11824 0.68986
vt 0.11824 0.58041
vt 0.41971 0.12095
vt 0.41971 0.23041
vt 0.01272 0.23041
vt 0.01272 0.12095
vt 0.36011 0.00901
vt 0.36011 0.04505
vt 0.21622 0.04505
vt 0.21622 0.00901
vt 0.07232 0.04505
vt 0.07232 0.00901
vt 0.25147 0.79617
vt 0.23086 0.77556
vt 0.20270 0.76802
vt 0.17455 0.77556
vt 0.15394 0.79617
vt 0.14640 0.82432
vt 0.15394 0.85248
vt 0.17455 0.87309
vt 0.20270 0.88063
vt 0.23086 0.87309
vt 0.25147 0.85248
vt 0.25901 0.82432
vt 0.33333 0.35135
vt 0.33333 0.37632
vt 0.36937 0.37632
vt 0.36937 0.35135
vt 0.33333 0.39459
vt 0.36937 0.39459
vt 0.60360 0.85473
vt 0.60360 0.82432
vt 0.63964 0.82432
vt 0.63964 0.85473
vt 0.60360 0.79392
vt 0.63964 0.79392
vt 0.99099 0.77365
vt 0.95495 0.77365
vt 0.95495 0.75735
vt 0.99099 0.75735
vt 0.95495 0.73510
vt 0.99099 0.73510
vt 0.95495 0.71284
vt 0.99099 0.71284
vt 0.42342 0.30743
vt 0.38739 0.30743
vt 0.38739 0.32373
vt 0.42342 0.32373
vt 0.38739 0.34598
vt 0.42342 0.34598
vt 0.38739 0.36824
vt 0.42342 0.36824
vt 0.33333 0.30811
vt 0.33333 0.32638
vt 0.36937 0.32638
vt 0.36937 0.30811
vt 0.11633 0.85248
vt 0.09572 0.87309
vt 0.06757 0.88063
vt 0.03941 0.87309
vt 0.01880 0.85248
vt 0.01126 0.82432
vt 0.01880 0.79617
vt 0.03941 0.77556
vt 0.06757 0.76802
vt 0.09572 0.77556
vt 0.11633 0.79617
vt 0.12387 0.82432
vt 0.01247 0.48228
vt 0.31185 0.50150
vt 0.01247 0.32853
vt 0.31185 0.30931
vt 0.98874 0.08052
vt 0.98874 0.21678
vt 0.87613 0.28491
vt 0.87613 0.01239
vt 0.60923 0.71734
vt 0.33671 0.71734
vt 0.33671 0.44482
vt 0.60923 0.44482
vt 0.98874 0.51408
vt 0.98874 0.37782
vt 0.87613 0.30968
vt 0.87613 0.58221
vt 0.30888 0.82703
vt 0.44788 0.82703
vt 0.44788 0.78378
vt 0.30888 0.78378
vt 0.63320 0.72973
vt 0.77220 0.72973
vt 0.77220 0.77297
vt 0.63320 0.77297
vt 0.63320 0.68649
vt 0.77220 0.68649
vt 0.79537 0.75676
vt 0.93436 0.75676
vt 0.93436 0.80000
vt 0.79537 0.80000
vt 0.79537 0.71351
vt 0.93436 0.71351
vt 0.84942 0.64865
vt 0.98842 0.64865
vt 0.98842 0.60541
vt 0.84942 0.60541
vt 0.84942 0.69189
vt 0.98842 0.69189
vt 0.44788 0.74054
vt 0.30888 0.74054
vt 0.09730 0.58041
vt 0.09730 0.68986
vt 0.01081 0.74459
vt 0.01081 0.52568
vt 0.17905 0.74459
vt 0.11824 0.74459
vt 0.17905 0.52568
vt 0.11824 0.52568
vt 0.28649 0.68986
vt 0.28649 0.58041
vt 0.20000 0.52568
vt 0.20000 0.74459
vt 0.71892 0.49932
vt 0.71892 0.60878
vt 0.63243 0.66351
vt 0.63243 0.44459
vt 0.41971 0.28514
vt 0.01272 0.28514
vt 0.41971 0.06622
vt 0.01272 0.06622
vt 0.82703 0.60878
vt 0.82703 0.49932
vt 0.74054 0.44459
vt 0.74054 0.66351
vt 0.66066 0.41971
vt 0.79656 0.36011
vt 0.85285 0.21622
vt 0.79656 0.07232
vt 0.66066 0.01272
vt 0.41971 0.00901
vt 0.41971 0.04505
vt 0.01272 0.04505
vt 0.01272 0.00901
vt 0.44444 0.01272
vt 0.58034 0.07232
vt 0.63664 0.21622
vt 0.58034 0.36011
vt 0.44444 0.41971
vt 0.58034 0.35975
# 165 texture verticies
vn 0.99839 0.00000 0.05676
vn 0.99839 0.00000 0.05676
vn 0.99839 0.00000 0.05676
vn 1.00000 0.00000 0.00000
vn 0.92388 -0.00000 -0.38268
vn 0.92388 0.00000 0.38268
vn -1.00000 0.00000 0.00000
vn 0.00000 0.08896 -0.99604
vn 0.00000 0.57506 -0.81811
vn 0.00000 0.42097 -0.90707
vn 0.00000 -0.08896 -0.99604
vn 0.00000 0.90707 -0.42097
vn 0.00000 0.81811 -0.57506
vn 0.00000 1.00000 -0.00000
vn 0.00000 0.90707 0.42097
vn 0.00000 0.81811 0.57506
vn 0.00000 0.57506 0.81811
vn 0.00000 0.42097 0.90707
vn 0.00000 0.08896 0.99604
vn 0.00000 -0.08896 0.99604
vn 0.00000 -0.42097 0.90707
vn 0.00000 -0.57506 0.81811
vn 0.00000 -0.81811 0.57506
vn 0.00000 -0.90707 0.42097
vn 0.00000 -1.00000 -0.00000
vn 0.00000 -0.81811 -0.57506
vn 0.00000 -0.90707 -0.42097
vn 0.00000 -0.42097 -0.90707
vn 0.00000 -0.57506 -0.81811
vn 0.49702 0.86589 0.05660
vn 0.49702 0.86589 0.05660
vn 0.49702 0.86589 0.05660
vn 0.49702 -0.86589 0.05660
vn 0.49702 -0.86589 0.05660
vn 0.49702 -0.86589 0.05660
vn 0.00000 0.00000 1.00000
vn 0.00000 0.00000 1.00000
vn 0.00000 0.00000 1.00000
vn 0.50000 0.86603 -0.00000
vn 0.50000 0.86603 -0.00000
vn 0.50000 0.86603 -0.00000
vn 0.50000 -0.86603 0.00000
vn 0.50000 -0.86603 0.00000
vn 0.50000 -0.86603 0.00000
vn -0.00000 0.00000 -1.00000
vn -0.00000 0.00000 -1.00000
vn -0.00000 0.00000 -1.00000
vn 0.00000 0.38268 -0.92388
vn 0.00000 0.92388 -0.38268
vn 0.00000 0.92388 0.38269
vn 0.00000 0.38268 0.92388
vn 0.00000 -0.38268 0.92388
vn 0.00000 -0.92388 0.38268
vn 0.00000 -0.92388 -0.38268
vn 0.00000 -0.38268 -0.92388
vn 0.00000 0.00000 1.00000
vn 0.00000 0.00000 1.00000
vn -0.00000 0.00000 1.00000
vn 0.50000 0.86603 0.00000
vn 0.50000 0.86603 0.00000
vn 0.50000 0.86602 -0.00000
vn 0.50000 -0.86603 0.00000
vn 0.50000 -0.86603 0.00000
vn 0.50000 -0.86603 -0.00000
vn 0.00000 0.00000 -1.00000
vn -0.00000 0.00000 -1.00000
vn 0.00000 -0.00000 -1.00000
vn 0.00000 0.00000 1.00000
vn 0.00000 0.00000 1.00000
vn -0.00000 0.00000 1.00000
vn 0.50000 0.86603 -0.00000
vn 0.50000 0.86603 -0.00000
vn 0.50000 0.86603 -0.00000
vn 0.50000 -0.86603 0.00000
vn 0.50000 -0.86603 0.00000
vn 0.50000 -0.86603 0.00000
vn -0.00000 -0.00000 -1.00000
vn 0.00000 -0.00000 -1.00000
vn -0.00000 0.00000 -1.00000
vn 0.00000 -1.00000 0.00000
vn 0.38268 -0.00000 -0.92388
vn 0.38268 0.00000 0.92388
vn 0.00000 1.00000 -0.00000
vn -0.99839 0.00000 0.05676
vn -0.99839 0.00000 0.05676
vn -0.99839 0.00000 0.05676
vn -0.92388 -0.00000 -0.38268
vn -0.92388 0.00000 0.38268
vn -0.49702 0.86589 0.05660
vn -0.49702 0.86589 0.05660
vn -0.49702 0.86589 0.05660
vn -0.49702 -0.86589 0.05660
vn -0.49702 -0.86589 0.05660
vn -0.49702 -0.86589 0.05660
vn -0.00000 0.00000 1.00000
vn -0.00000 0.00000 1.00000
vn -0.00000 0.00000 1.00000
vn -0.50000 0.86603 -0.00000
vn -0.50000 0.86603 -0.00000
vn -0.50000 0.86603 -0.00000
vn -0.50000 -0.86603 0.00000
vn -0.50000 -0.86603 0.00000
vn -0.50000 -0.86603 0.00000
vn 0.00000 0.00000 -1.00000
vn 0.00000 0.00000 -1.00000
vn 0.00000 0.00000 -1.00000
vn -0.00000 0.00000 1.00000
vn -0.00000 0.00000 1.00000
vn 0.00000 0.00000 1.00000
vn -0.50000 0.86603 0.00000
vn -0.50000 0.86603 0.00000
vn -0.50000 0.86602 -0.00000
vn -0.50000 -0.86603 0.00000
vn -0.50000 -0.86603 0.00000
vn -0.50000 -0.86603 -0.00000
vn -0.00000 0.00000 -1.00000
vn 0.00000 0.00000 -1.00000
vn -0.00000 -0.00000 -1.00000
vn -0.00000 0.00000 1.00000
vn -0.00000 0.00000 1.00000
vn 0.00000 0.00000 1.00000
vn -0.50000 0.86603 -0.00000
vn -0.50000 0.86603 -0.00000
vn -0.50000 0.86603 -0.00000
vn -0.50000 -0.86603 0.00000
vn -0.50000 -0.86603 0.00000
vn -0.50000 -0.86603 0.00000
vn 0.00000 -0.00000 -1.00000
vn -0.00000 -0.00000 -1.00000
vn 0.00000 0.00000 -1.00000
vn -0.38268 -0.00000 -0.92388
vn -0.38268 0.00000 0.92388
# 132 normals
usemtl tank_user_top_03
f  4/1/1 3/2/2 1/3/1 2/4/3
f  11/5/4 10/6/4 6/7/4 7/8/4
f  14/9/4 15/10/4 16/11/4 17/12/4 18/13/4 19/14/4 20/15/4 13/16/4
f  27/17/4 26/18/4 22/19/4 23/20/4
f  47/21/4 46/22/4 42/23/4 43/24/4
f  50/25/5 55/26/5 54/27/5 49/28/5
f  49/28/6 54/27/6 58/29/6 53/30/6
f  70/31/7 69/32/7 68/33/7 67/34/7 66/35/7 65/36/7 64/37/7 63/38/7\
62/39/7 61/40/7 60/41/7 59/42/7
f  59/43/8 60/44/9 72/45/10 71/46/11
f  60/44/9 61/47/12 73/48/13 72/45/10
f  61/49/12 62/50/14 74/51/14 73/52/13
f  74/51/14 62/50/14 63/53/15 75/54/16
f  75/55/16 63/56/15 64/57/17 76/58/18
f  76/58/18 64/57/17 65/59/19 77/60/20
f  77/60/20 65/59/19 66/61/21 78/62/22
f  78/63/22 66/64/21 67/65/23 79/66/24
f  79/66/24 67/65/23 68/67/25 80/68/25
f  68/67/25 69/69/26 81/70/27 80/68/25
f  69/71/26 70/72/28 82/73/29 81/74/27
f  70/72/28 59/43/8 71/46/11 82/73/29
f  72/75/4 73/76/4 74/77/4 75/78/4 76/79/4 77/80/4 78/81/4 79/82/4\
80/83/4 81/84/4 82/85/4 71/86/4
f  39/87/30 1/3/31 3/2/30 40/88/32
f  4/1/33 2/4/34 37/89/33 38/90/35
f  7/91/36 6/92/37 5/93/36 8/94/38
f  6/7/39 10/6/40 9/95/39 5/96/41
f  8/97/42 12/98/43 11/5/42 7/8/44
f  10/99/45 11/100/46 12/101/45 9/102/47
f  30/103/48 14/104/48 13/105/48 29/106/48
f  31/107/49 15/108/49 14/109/49 30/110/49
f  32/111/50 16/112/50 15/108/50 31/107/50
f  33/113/51 17/114/51 16/115/51 32/116/51
f  34/117/52 18/118/52 17/114/52 33/113/52
f  35/119/53 19/120/53 18/121/53 34/122/53
f  36/123/54 20/124/54 19/120/54 35/119/54
f  29/106/55 13/105/55 20/125/55 36/126/55
f  23/127/56 22/128/57 21/129/56 24/130/58
f  22/19/59 26/18/60 25/131/59 21/132/61
f  28/133/62 27/17/63 23/20/62 24/134/64
f  26/135/65 27/136/66 28/137/65 25/138/67
f  43/139/68 42/140/69 41/141/68 44/142/70
f  46/22/71 45/143/72 41/144/71 42/23/73
f  48/145/74 47/21/75 43/24/74 44/146/76
f  46/147/77 47/148/78 48/149/77 45/150/79
f  51/151/80 50/152/80 49/153/80 53/154/80 52/155/80
f  55/26/81 50/25/81 51/156/81 56/157/81
f  57/158/82 52/159/82 53/30/82 58/29/82
f  57/160/83 58/161/83 54/162/83 55/163/83 56/164/83
f  83/3/84 85/2/85 86/1/84 84/4/86
f  88/7/7 92/6/7 93/5/7 89/8/7
f  102/15/7 101/14/7 100/13/7 99/12/7 98/11/7 97/10/7 96/9/7 95/16/7
f  104/19/7 108/18/7 109/17/7 105/20/7
f  124/23/7 128/22/7 129/21/7 125/24/7
f  134/27/87 135/26/87 132/25/87 131/28/87
f  136/29/88 134/27/88 131/28/88 133/30/88
f  138/41/4 139/40/4 140/39/4 141/38/4 142/37/4 143/36/4 144/35/4\
145/34/4 146/33/4 147/32/4 148/31/4 137/42/4
f  150/45/10 138/44/9 137/43/8 149/46/11
f  151/48/13 139/47/12 138/44/9 150/45/10
f  152/51/14 140/50/14 139/49/12 151/52/13
f  141/53/15 140/50/14 152/51/14 153/54/16
f  142/57/17 141/56/15 153/55/16 154/58/18
f  143/59/19 142/57/17 154/58/18 155/60/20
f  144/61/21 143/59/19 155/60/20 156/62/22
f  145/65/23 144/64/21 156/63/22 157/66/24
f  146/67/25 145/65/23 157/66/24 158/68/25
f  159/70/27 147/69/26 146/67/25 158/68/25
f  160/73/29 148/72/28 147/71/26 159/74/27
f  149/46/11 137/43/8 148/72/28 160/73/29
f  160/85/7 159/84/7 158/83/7 157/82/7 156/81/7 155/80/7 154/79/7\
153/78/7 152/77/7 151/76/7 150/75/7 149/86/7
f  85/2/89 83/3/90 121/87/89 122/88/91
f  119/89/92 84/4/93 86/1/92 120/90/94
f  87/93/95 88/92/96 89/91/95 90/94/97
f  91/95/98 92/6/99 88/7/98 87/96/100
f  93/5/101 94/98/102 90/97/101 89/8/103
f  94/101/104 93/100/105 92/99/104 91/102/106
f  95/105/48 96/104/48 112/103/48 111/106/48
f  96/109/49 97/108/49 113/107/49 112/110/49
f  97/108/50 98/112/50 114/111/50 113/107/50
f  98/115/51 99/114/51 115/113/51 114/116/51
f  99/114/52 100/118/52 116/117/52 115/113/52
f  100/121/53 101/120/53 117/119/53 116/122/53
f  101/120/54 102/124/54 118/123/54 117/119/54
f  102/125/55 95/105/55 111/106/55 118/126/55
f  103/129/107 104/128/108 105/127/107 106/130/109
f  107/131/110 108/18/111 104/19/110 103/132/112
f  105/20/113 109/17/114 110/133/113 106/134/115
f  110/137/116 109/136/117 108/135/116 107/138/118
f  123/141/119 124/140/120 125/139/119 126/142/121
f  123/144/122 127/143/123 128/22/122 124/23/124
f  125/24/125 129/21/126 130/145/125 126/146/127
f  130/149/128 129/148/129 128/147/128 127/150/130
f  133/154/80 131/153/80 132/152/80 51/151/80 52/155/80
f  51/156/131 132/25/131 135/26/131 56/157/131
f  133/30/132 52/159/132 57/158/132 136/29/132
f  135/165/83 134/162/83 136/161/83 57/160/83 56/164/83
