# 
# Wavefront OBJ file
# Converted by the DEEP Exploration Deep Exploration 5 5.0.2.1477 Release
# Right Hemisphere, LTD
# http://www.righthemisphere.com/
# 
mtllib tank_user_top_04.mtl
# object tank_user_top_04
g tank_user_top_04
v 1.40000 0.80000 -0.60000
v 1.00000 0.80000 -0.59962
v 1.10000 0.80000 0.79962
v 1.40000 1.00000 -0.60000
v 1.00000 1.00000 -0.59962
v 1.10000 1.00000 0.79962
v 0.80000 1.60000 -0.00000
v 0.40000 1.60000 -0.69982
v 0.80000 2.00000 -0.00000
v 0.40000 2.00000 -0.69982
v 0.40000 1.60000 0.99982
v 0.40000 1.60000 0.79982
v 0.40000 2.80000 0.79982
v 0.40000 2.80000 0.99982
v 0.40000 2.00000 0.99982
v 0.40000 2.00000 0.79982
v 0.40000 0.60000 2.40000
v 0.50000 0.50000 1.20000
v 0.40000 1.20000 2.40000
v 0.50000 1.30000 1.20000
v 1.00000 1.60000 1.20000
v 1.00000 0.20000 1.20000
v 1.20000 -0.00000 1.00000
v 1.20000 1.80000 1.00000
v 0.80000 0.40000 -1.20000
v 0.80000 1.40000 -1.20000
v 1.00000 0.20000 -1.00000
v 1.00000 1.60000 -1.00000
v 0.00000 0.40000 1.30000
v 0.60000 0.40000 1.60000
v 0.60000 0.40000 1.00000
v 0.00000 0.40000 1.00000
v 0.00000 1.40000 1.30000
v 0.60000 1.40000 1.60000
v 0.60000 1.40000 1.00000
v 0.00000 1.40000 1.00000
v 0.04000 1.20000 2.30000
v 0.04000 1.20000 1.80000
v 0.04000 1.60000 1.80000
v 0.04000 0.60000 2.30000
v 0.04000 0.60000 1.80000
v 0.04000 0.20000 1.80000
v 0.40000 0.86000 2.30000
v 0.40000 0.86000 1.80000
v 0.80000 0.86000 1.80000
v 0.40000 0.94000 2.30000
v 0.40000 0.94000 1.80000
v 0.80000 0.94000 1.80000
v 0.00000 1.60000 -0.69982
v 0.00000 2.00000 -0.69982
v 0.00000 2.00000 0.79982
v 0.00000 1.60000 0.99982
v 0.00000 2.00000 0.99982
v 0.00000 2.80000 0.99982
v 0.00000 2.80000 0.79982
v 0.00000 0.60000 2.40000
v 0.00000 0.50000 1.20000
v 0.00000 1.20000 2.40000
v 0.00000 1.30000 1.20000
v 0.00000 -0.00000 1.00000
v 0.00000 0.20000 -1.00000
v 0.00000 1.80000 1.00000
v 0.00000 1.60000 -1.00000
v 0.00000 0.20000 1.20000
v 0.00000 1.60000 1.20000
v 0.00000 0.40000 -1.20000
v 0.00000 1.40000 -1.20000
v 0.00000 1.20000 2.30000
v 0.00000 1.20000 1.80000
v 0.00000 1.60000 1.80000
v 0.00000 0.60000 2.30000
v 0.00000 0.60000 1.80000
v 0.00000 0.20000 1.80000
v -1.40000 0.80000 -0.60000
v -1.00000 0.80000 -0.59962
v -1.10000 0.80000 0.79962
v -1.40000 1.00000 -0.60000
v -1.00000 1.00000 -0.59962
v -1.10000 1.00000 0.79962
v -0.80000 1.60000 -0.00000
v -0.40000 1.60000 -0.69982
v -0.80000 2.00000 -0.00000
v -0.40000 2.00000 -0.69982
v -0.40000 1.60000 0.99982
v -0.40000 1.60000 0.79982
v -0.40000 2.80000 0.79982
v -0.40000 2.80000 0.99982
v -0.40000 2.00000 0.99982
v -0.40000 2.00000 0.79982
v -0.40000 0.60000 2.40000
v -0.50000 0.50000 1.20000
v -0.40000 1.20000 2.40000
v -0.50000 1.30000 1.20000
v -1.00000 1.60000 1.20000
v -1.00000 0.20000 1.20000
v -1.20000 -0.00000 1.00000
v -1.20000 1.80000 1.00000
v -0.80000 0.40000 -1.20000
v -0.80000 1.40000 -1.20000
v -1.00000 0.20000 -1.00000
v -1.00000 1.60000 -1.00000
v -0.60000 0.40000 1.60000
v -0.60000 0.40000 1.00000
v -0.60000 1.40000 1.60000
v -0.60000 1.40000 1.00000
v -0.04000 1.20000 2.30000
v -0.04000 1.20000 1.80000
v -0.04000 1.60000 1.80000
v -0.04000 0.60000 2.30000
v -0.04000 0.60000 1.80000
v -0.04000 0.20000 1.80000
v -0.40000 0.86000 2.30000
v -0.40000 0.86000 1.80000
v -0.80000 0.86000 1.80000
v -0.40000 0.94000 2.30000
v -0.40000 0.94000 1.80000
v -0.80000 0.94000 1.80000
# 117 verticies
vt 0.94872 0.28606
vt 0.93590 0.52157
vt 0.98718 0.52163
vt 0.12821 0.89423
vt 0.12821 0.91346
vt 0.17949 0.91346
vt 0.17949 0.89423
vt 0.48317 0.62500
vt 0.48317 0.64423
vt 0.24760 0.64423
vt 0.24760 0.62500
vt 0.89744 0.25234
vt 0.91026 0.01683
vt 0.94872 0.25240
vt 0.55962 0.40110
vt 0.55962 0.46703
vt 0.43134 0.46703
vt 0.43134 0.40110
vt 0.28474 0.46703
vt 0.28474 0.40110
vt 0.24808 0.46703
vt 0.24808 0.40110
vt 0.28474 0.59890
vt 0.24808 0.59890
vt 0.56044 0.66923
vt 0.56044 0.79231
vt 0.36264 0.77692
vt 0.36264 0.68462
vt 0.37019 0.05192
vt 0.37019 0.29423
vt 0.01763 0.32885
vt 0.01763 0.01731
vt 0.21429 0.36346
vt 0.21429 0.67500
vt 0.18132 0.64038
vt 0.18132 0.39808
vt 0.40545 0.08654
vt 0.40545 0.25962
vt 0.21635 0.70833
vt 0.21635 0.86859
vt 0.12981 0.86859
vt 0.12981 0.70833
vt 0.10096 0.89744
vt 0.10096 0.94872
vt 0.01442 0.89744
vt 0.56250 0.82212
vt 0.56250 0.90865
vt 0.47596 0.90865
vt 0.51282 0.62500
vt 0.51282 0.64423
vt 0.56410 0.64423
vt 0.56410 0.62500
vt 0.64103 0.90865
vt 0.58974 0.90865
vt 0.58974 0.82212
vt 0.66667 0.90865
vt 0.71795 0.90865
vt 0.66667 0.82212
vt 0.24519 0.35577
vt 0.33173 0.35577
vt 0.33173 0.37500
vt 0.24519 0.37500
vt 0.91026 0.82051
vt 0.85897 0.82051
vt 0.85897 0.87179
vt 0.91026 0.87179
vt 0.65385 0.40171
vt 0.71538 0.54758
vt 0.65385 0.67521
vt 0.59231 0.67521
vt 0.59231 0.40171
vt 0.98718 0.62088
vt 0.93590 0.62088
vt 0.93590 0.55495
vt 0.98718 0.55495
vt 0.93590 0.75275
vt 0.98718 0.75275
vt 0.91026 0.66923
vt 0.85897 0.66923
vt 0.85897 0.79231
vt 0.91026 0.79231
vt 0.35897 0.37500
vt 0.35897 0.35577
vt 0.41026 0.35577
vt 0.41026 0.37500
vt 0.31442 0.67033
vt 0.24519 0.67033
vt 0.24519 0.86813
vt 0.33173 0.86813
vt 0.93590 0.87019
vt 0.93590 0.78365
vt 0.98718 0.78365
vt 0.98718 0.87019
vt 0.74519 0.86813
vt 0.74519 0.67033
vt 0.81442 0.67033
vt 0.83173 0.86813
vt 0.43956 0.36713
vt 0.60440 0.36713
vt 0.63736 0.01748
vt 0.43956 0.01748
vt 0.83516 0.36713
vt 0.67033 0.36713
vt 0.67033 0.01748
vt 0.86813 0.01748
vt 0.01648 0.39808
vt 0.01648 0.36346
vt 0.01648 0.67500
vt 0.01648 0.64038
vt 0.74679 0.43510
vt 0.87500 0.43510
vt 0.90705 0.40144
vt 0.74679 0.40144
vt 0.87500 0.60337
vt 0.74679 0.60337
vt 0.74679 0.63702
vt 0.90705 0.63702
vt 0.44712 0.82212
vt 0.36058 0.86538
vt 0.36058 0.90865
vt 0.44712 0.90865
vt 0.01442 0.86859
vt 0.01442 0.70833
vt 0.10096 0.70833
vt 0.10096 0.86859
vt 0.59135 0.79327
vt 0.59135 0.75000
vt 0.67788 0.70673
vt 0.67788 0.79327
vt 0.70192 0.70513
vt 0.70192 0.75641
vt 0.72115 0.75641
vt 0.72115 0.70513
vt 0.99038 0.21635
vt 0.97115 0.21635
vt 0.97115 0.12981
vt 0.99038 0.12981
vt 0.91346 0.28365
vt 0.89423 0.28365
vt 0.89423 0.37019
vt 0.91346 0.37019
vt 0.99038 0.01442
vt 0.97115 0.01442
vt 0.97115 0.10096
vt 0.99038 0.10096
vt 0.99038 0.01443
# 146 texture verticies
vn 0.00000 -1.00000 0.00000
vn -0.00096 -0.00000 -1.00000
vn 0.97779 0.00000 0.20958
vn 0.00000 1.00000 -0.00000
vn 0.86819 -0.00000 -0.49623
vn 0.89439 0.00000 0.44729
vn 0.98299 0.00000 0.18363
vn 0.98827 0.00000 0.15273
vn 1.00000 0.00000 0.00000
vn 0.99655 0.00000 0.08305
vn 0.99504 -0.00000 -0.09950
vn 0.70711 0.00000 0.70711
vn 0.70711 -0.00000 -0.70711
vn 0.00000 -0.00000 -1.00000
vn 0.78087 0.00000 0.62470
vn 0.00000 0.00000 1.00000
vn 0.00000 -0.99655 0.08305
vn 0.00000 0.99655 0.08305
vn 0.00000 -0.99504 -0.09950
vn 0.00000 0.99504 -0.09950
vn 0.00000 -0.70711 0.70711
vn 0.00000 0.70711 0.70711
vn 0.00000 -0.70711 -0.70711
vn 0.00000 0.70711 -0.70711
vn -0.44721 0.00000 0.89443
vn 0.00000 0.78087 0.62470
vn 0.00000 -0.78087 0.62470
vn 0.00096 -0.00000 -1.00000
vn -0.97779 0.00000 0.20958
vn -0.86819 -0.00000 -0.49623
vn -0.98299 0.00000 0.18363
vn -0.89439 0.00000 0.44729
vn -0.98827 0.00000 0.15273
vn -1.00000 0.00000 0.00000
vn -0.99655 0.00000 0.08305
vn -0.99504 -0.00000 -0.09950
vn -0.70711 0.00000 0.70711
vn -0.70711 -0.00000 -0.70711
vn -0.78087 0.00000 0.62470
vn 0.44721 0.00000 0.89443
# 40 normals
usemtl player_4_top
f  3/1/1 2/2/1 1/3/1
f  2/4/2 5/5/2 4/6/2 1/7/2
f  1/8/3 4/9/3 6/10/3 3/11/3
f  5/12/4 6/13/4 4/14/4
f  8/15/5 10/16/5 9/17/5 7/18/5
f  7/18/6 9/17/6 16/19/7 12/20/8
f  12/20/8 16/19/7 15/21/9 11/22/9
f  16/19/7 13/23/9 14/24/9 15/21/9
f  18/25/10 20/26/10 19/27/10 17/28/10
f  27/29/11 28/30/11 24/31/11 23/32/11
f  23/33/12 24/34/12 21/35/12 22/36/12
f  25/37/13 26/38/13 28/30/13 27/29/13
f  31/39/9 35/40/9 34/41/9 30/42/9
f  38/43/9 39/44/9 37/45/9
f  42/46/9 41/47/9 40/48/9
f  44/49/14 47/50/14 48/51/14 45/52/14
f  48/53/4 47/54/4 46/55/4
f  44/56/1 45/57/1 43/58/1
f  43/59/15 45/60/15 48/61/15 46/62/15
f  8/63/14 49/64/14 50/65/14 10/66/14
f  16/67/4 9/68/4 10/69/4 50/70/4 51/71/4
f  15/72/16 53/73/16 52/74/16 11/75/16
f  54/76/16 53/73/16 15/72/16 14/77/16
f  16/78/14 51/79/14 55/80/14 13/81/14
f  55/82/4 54/83/4 14/84/4 13/85/4
f  17/86/17 56/87/17 57/88/17 18/89/17
f  58/90/16 56/91/16 17/92/16 19/93/16
f  59/94/18 58/95/18 19/96/18 20/97/18
f  61/98/19 27/99/19 23/100/19 60/101/19
f  28/102/20 63/103/20 62/104/20 24/105/20
f  22/36/21 64/106/21 60/107/21 23/33/21
f  62/108/22 65/109/22 21/35/22 24/34/22
f  65/109/16 64/106/16 22/36/16 21/35/16
f  66/110/23 25/111/23 27/112/23 61/113/23
f  26/114/24 67/115/24 63/116/24 28/117/24
f  25/111/14 66/110/14 67/115/14 26/114/14
f  30/118/1 29/119/1 32/120/1 31/121/1
f  33/122/25 29/123/25 30/124/25 34/125/25
f  36/126/4 33/127/4 34/128/4 35/129/4
f  69/130/14 70/131/14 39/132/14 38/133/14
f  39/134/26 70/135/26 68/136/26 37/137/26
f  42/138/14 73/139/14 72/140/14 41/141/14
f  40/142/27 71/143/27 73/144/27 42/145/27
f  75/2/1 76/1/1 74/3/1
f  77/6/28 78/5/28 75/4/28 74/7/28
f  79/10/29 77/9/29 74/8/29 76/11/29
f  79/13/4 78/12/4 77/14/4
f  82/17/30 83/16/30 81/15/30 80/18/30
f  89/19/31 82/17/32 80/18/32 85/20/33
f  88/21/34 89/19/31 85/20/33 84/22/34
f  87/24/34 86/23/34 89/19/31 88/21/34
f  92/27/35 93/26/35 91/25/35 90/28/35
f  97/31/36 101/30/36 100/29/36 96/32/36
f  94/35/37 97/34/37 96/33/37 95/36/37
f  101/30/38 99/38/38 98/37/38 100/29/38
f  104/41/34 105/40/34 103/39/34 102/42/34
f  108/44/34 107/43/34 106/45/34
f  110/47/34 111/46/34 109/48/34
f  117/51/14 116/50/14 113/49/14 114/52/14
f  116/54/4 117/53/4 115/55/4
f  114/57/1 113/56/1 112/58/1
f  117/61/39 114/60/39 112/59/39 115/62/39
f  50/65/14 49/64/14 81/63/14 83/66/14
f  50/70/4 83/69/4 82/68/4 89/67/4 51/71/4
f  52/74/16 53/73/16 88/72/16 84/75/16
f  88/72/16 53/73/16 54/76/16 87/77/16
f  55/80/14 51/79/14 89/78/14 86/81/14
f  87/84/4 54/83/4 55/82/4 86/85/4
f  57/88/17 56/87/17 90/86/17 91/89/17
f  90/92/16 56/91/16 58/90/16 92/93/16
f  92/96/18 58/95/18 59/94/18 93/97/18
f  96/100/19 100/99/19 61/98/19 60/101/19
f  62/104/20 63/103/20 101/102/20 97/105/20
f  60/107/21 64/106/21 95/36/21 96/33/21
f  94/35/22 65/109/22 62/108/22 97/34/22
f  95/36/16 64/106/16 65/109/16 94/35/16
f  100/112/23 98/111/23 66/110/23 61/113/23
f  63/116/24 67/115/24 99/114/24 101/117/24
f  67/115/14 66/110/14 98/111/14 99/114/14
f  32/120/1 29/119/1 102/118/1 103/121/1
f  102/124/40 29/123/40 33/122/40 104/125/40
f  104/128/4 33/127/4 36/126/4 105/129/4
f  108/132/14 70/131/14 69/130/14 107/133/14
f  68/136/26 70/135/26 108/134/26 106/137/26
f  72/140/14 73/139/14 111/138/14 110/141/14
f  73/144/27 71/143/27 109/146/27 111/145/27
