# 
# Wavefront OBJ file
# Converted by the DEEP Exploration Deep Exploration 5 5.0.2.1477 Release
# Right Hemisphere, LTD
# http://www.righthemisphere.com/
# 
mtllib tank_user_top_01.mtl
# object tank_user_top_01
g tank_user_top_01
v 1.01250 0.00315 -0.31157
v 0.50625 0.00315 -1.18843
v -0.50625 0.00315 -1.18843
v -1.01250 0.00315 -0.31157
v -0.50625 0.00315 0.56528
v 0.50625 0.00315 0.56528
v 0.86063 1.19685 -0.31157
v 0.43031 1.19685 -1.05690
v -0.43031 1.19685 -1.05690
v -0.86063 1.19685 -0.31157
v -0.43031 1.19685 0.43375
v 0.43031 1.19685 0.43375
v -0.25000 0.20940 1.18843
v 0.25000 0.20940 1.18843
v 0.25000 0.20940 0.18843
v -0.25000 0.20940 0.18843
v -0.25000 0.70940 1.18843
v 0.25000 0.70940 1.18843
v 0.25000 0.70940 0.18843
v -0.25000 0.70940 0.18843
# 20 verticies
vt 0.35754 0.01339
vt 0.12817 0.01339
vt 0.01349 0.21429
vt 0.12817 0.41518
vt 0.35754 0.41518
vt 0.47222 0.21429
vt 0.90089 0.29870
vt 0.87076 0.55844
vt 0.70000 0.55844
vt 0.70000 0.29870
vt 0.68736 0.84416
vt 0.88407 0.84416
vt 0.90143 0.58442
vt 0.67000 0.58442
vt 0.70000 0.27273
vt 0.87076 0.27273
vt 0.90089 0.01299
vt 0.70000 0.01299
vt 0.52924 0.27273
vt 0.49911 0.01299
vt 0.62693 0.84416
vt 0.43021 0.84416
vt 0.41286 0.58442
vt 0.64429 0.58442
vt 0.52924 0.55844
vt 0.49911 0.29870
vt 0.29333 0.75824
vt 0.10667 0.75824
vt 0.01333 0.60000
vt 0.10667 0.44176
vt 0.29333 0.44176
vt 0.38667 0.60000
vt 0.01143 0.98730
vt 0.10286 0.98730
vt 0.10286 0.78413
vt 0.01143 0.78413
vt 0.78857 0.86857
vt 0.78857 0.96000
vt 0.69714 0.96000
vt 0.69714 0.86857
vt 0.67302 0.86857
vt 0.67302 0.96000
vt 0.46984 0.96000
vt 0.46984 0.86857
vt 0.81143 0.96000
vt 0.90286 0.96000
vt 0.90286 0.86857
vt 0.81143 0.86857
vt 0.24127 0.95899
vt 0.44444 0.96000
vt 0.44444 0.86857
vt 0.24127 0.86857
vt 0.21714 0.78413
vt 0.21714 0.98730
vt 0.12571 0.98730
vt 0.12571 0.78413
# 56 texture verticies
vn 0.00000 -1.00000 0.00000
vn 0.86082 0.10952 -0.49699
vn 0.86082 0.10952 -0.49699
vn 0.86082 0.10952 -0.49699
vn 0.00000 0.10952 -0.99398
vn -0.86082 0.10952 -0.49699
vn -0.86082 0.10952 -0.49699
vn -0.86082 0.10952 -0.49699
vn -0.86082 0.10952 0.49699
vn -0.86082 0.10952 0.49699
vn -0.86082 0.10952 0.49699
vn 0.00000 0.10952 0.99398
vn 0.86082 0.10952 0.49699
vn 0.86082 0.10952 0.49699
vn 0.86082 0.10952 0.49699
vn 0.00000 1.00000 -0.00000
vn 0.00000 0.00000 1.00000
vn 1.00000 0.00000 0.00000
vn 0.00000 -0.00000 -1.00000
vn -1.00000 0.00000 0.00000
# 20 normals
usemtl tank_user_top_01
f  6/1/1 5/2/1 4/3/1 3/4/1 2/5/1 1/6/1
f  2/7/2 8/8/3 7/9/2 1/10/4
f  9/11/5 8/12/5 2/13/5 3/14/5
f  10/15/6 9/16/7 3/17/6 4/18/8
f  11/19/9 10/15/10 4/18/9 5/20/11
f  12/21/12 11/22/12 5/23/12 6/24/12
f  1/10/13 7/9/14 12/25/13 6/26/15
f  8/27/16 9/28/16 10/29/16 11/30/16 12/31/16 7/32/16
f  16/33/1 15/34/1 14/35/1 13/36/1
f  14/37/17 18/38/17 17/39/17 13/40/17
f  15/41/18 19/42/18 18/43/18 14/44/18
f  20/45/19 19/46/19 15/47/19 16/48/19
f  17/49/20 20/50/20 16/51/20 13/52/20
f  18/53/16 19/54/16 20/55/16 17/56/16
