# 
# Wavefront OBJ file
# Converted by the DEEP Exploration Deep Exploration 5 5.0.2.1477 Release
# Right Hemisphere, LTD
# http://www.righthemisphere.com/
# 
mtllib tank_user_top_02.mtl
# object tank_user_top_02
g tank_user_top_02
v -1.22817 0.56500 0.71750
v -1.01977 0.56500 0.93330
v -0.43859 0.50500 0.45547
v -0.73034 0.50500 0.15335
v -1.22817 0.86500 0.71750
v -1.01977 0.86500 0.93330
v -0.43859 0.92500 0.45547
v -0.73034 0.92500 0.15335
v -1.37701 0.47500 0.73612
v -1.04357 0.47500 1.08140
v -0.87309 0.47500 0.91677
v -1.20652 0.47500 0.57149
v -1.37701 0.95500 0.73612
v -1.04357 0.95500 1.08140
v -0.87309 0.95500 0.91677
v -1.20652 0.95500 0.57149
v 0.78000 0.00000 -0.27250
v 0.55154 0.00000 -0.82404
v 0.00000 0.00000 -1.05250
v -0.55154 0.00000 -0.82404
v -0.78000 0.00000 -0.27250
v -0.55154 0.00000 0.27904
v 0.00000 0.00000 0.50750
v 0.55154 0.00000 0.27904
v 0.78000 1.50000 -0.27250
v 0.55154 1.50000 -0.82404
v 0.00000 1.50000 -1.05250
v -0.55154 1.50000 -0.82404
v -0.78000 1.50000 -0.27250
v -0.55154 1.50000 0.27904
v 0.00000 1.50000 0.50750
v 0.55154 1.50000 0.27904
v 0.97500 1.10500 -0.27250
v 0.68943 1.10500 -0.96193
v 0.00000 1.10500 -1.24750
v -0.68943 1.10500 -0.96193
v -0.97500 1.10500 -0.27250
v -0.68943 1.10500 0.41693
v 0.00000 1.10500 0.70250
v 0.68943 1.10500 0.41693
v 0.97500 0.32500 -0.27250
v 0.68943 0.32500 -0.96193
v 0.00000 0.32500 -1.24750
v -0.68943 0.32500 -0.96193
v -0.97500 0.32500 -0.27250
v -0.68943 0.32500 0.41693
v 0.00000 0.32500 0.70250
v 0.68943 0.32500 0.41693
v -0.90076 0.34000 0.19281
v -0.48397 0.34000 0.62441
v -0.26817 0.34000 0.41601
v -0.68496 0.34000 -0.01559
v -0.95471 0.40500 0.24491
v -0.53792 0.40500 0.67651
v -0.26817 0.40500 0.41601
v -0.68496 0.40500 -0.01559
v -0.95471 1.02500 0.24491
v -0.53792 1.02500 0.67651
v -0.26817 1.02500 0.41601
v -0.68496 1.02500 -0.01559
v -0.90076 1.09000 0.19281
v -0.48397 1.09000 0.62441
v -0.26817 1.09000 0.41601
v -0.68496 1.09000 -0.01559
v 0.26570 0.22180 -0.79461
v 0.54356 0.22180 -0.50688
v 0.26570 0.42180 -0.79461
v 0.54356 0.42180 -0.50688
v 0.97516 0.42180 -0.92367
v 0.69730 0.42180 -1.21141
v 0.26570 1.22180 -0.79461
v 0.54356 1.22180 -0.50688
v 0.97516 1.22180 -0.92367
v 0.69730 1.22180 -1.21141
v 0.26570 1.42180 -0.79461
v 0.54356 1.42180 -0.50688
v -0.15000 0.56500 1.30250
v 0.15000 0.56500 1.30250
v 0.21000 0.50500 0.55250
v -0.21000 0.50500 0.55250
v -0.15000 0.86500 1.30250
v 0.15000 0.86500 1.30250
v 0.21000 0.92500 0.55250
v -0.21000 0.92500 0.55250
v -0.24000 0.47500 1.42250
v 0.24000 0.47500 1.42250
v 0.24000 0.47500 1.18550
v -0.24000 0.47500 1.18550
v -0.24000 0.95500 1.42250
v 0.24000 0.95500 1.42250
v 0.24000 0.95500 1.18550
v -0.24000 0.95500 1.18550
v -0.30000 0.34000 0.70250
v 0.30000 0.34000 0.70250
v 0.30000 0.34000 0.40250
v -0.30000 0.34000 0.40250
v -0.30000 0.40500 0.77750
v 0.30000 0.40500 0.77750
v 0.30000 0.40500 0.40250
v -0.30000 0.40500 0.40250
v -0.30000 1.02500 0.77750
v 0.30000 1.02500 0.77750
v 0.30000 1.02500 0.40250
v -0.30000 1.02500 0.40250
v -0.30000 1.09000 0.70250
v 0.30000 1.09000 0.70250
v 0.30000 1.09000 0.40250
v -0.30000 1.09000 0.40250
v -0.20000 0.22180 -0.82250
v 0.20000 0.22180 -0.82250
v -0.20000 0.42180 -0.82250
v 0.20000 0.42180 -0.82250
v 0.20000 0.42180 -1.42250
v -0.20000 0.42180 -1.42250
v -0.20000 1.22180 -0.82250
v 0.20000 1.22180 -0.82250
v 0.20000 1.22180 -1.42250
v -0.20000 1.22180 -1.42250
v -0.20000 1.42180 -0.82250
v 0.20000 1.42180 -0.82250
v 1.22817 0.56500 0.71750
v 1.01977 0.56500 0.93330
v 0.43859 0.50500 0.45547
v 0.73034 0.50500 0.15335
v 1.22817 0.86500 0.71750
v 1.01977 0.86500 0.93330
v 0.43859 0.92500 0.45547
v 0.73034 0.92500 0.15335
v 1.37701 0.47500 0.73612
v 1.04357 0.47500 1.08140
v 0.87309 0.47500 0.91677
v 1.20652 0.47500 0.57149
v 1.37701 0.95500 0.73612
v 1.04357 0.95500 1.08140
v 0.87309 0.95500 0.91677
v 1.20652 0.95500 0.57149
v 0.90076 0.34000 0.19281
v 0.48397 0.34000 0.62441
v 0.26817 0.34000 0.41601
v 0.68496 0.34000 -0.01559
v 0.95471 0.40500 0.24491
v 0.53792 0.40500 0.67651
v 0.26817 0.40500 0.41601
v 0.68496 0.40500 -0.01559
v 0.95471 1.02500 0.24491
v 0.53792 1.02500 0.67651
v 0.26817 1.02500 0.41601
v 0.68496 1.02500 -0.01559
v 0.90076 1.09000 0.19281
v 0.48397 1.09000 0.62441
v 0.26817 1.09000 0.41601
v 0.68496 1.09000 -0.01559
v -0.26570 0.22180 -0.79461
v -0.54356 0.22180 -0.50688
v -0.26570 0.42180 -0.79461
v -0.54356 0.42180 -0.50688
v -0.97516 0.42180 -0.92367
v -0.69730 0.42180 -1.21141
v -0.26570 1.22180 -0.79461
v -0.54356 1.22180 -0.50688
v -0.97516 1.22180 -0.92367
v -0.69730 1.22180 -1.21141
v -0.26570 1.42180 -0.79461
v -0.54356 1.42180 -0.50688
# 164 verticies
vt 0.54297 0.76823
vt 0.61328 0.76823
vt 0.60324 0.63802
vt 0.55301 0.63802
vt 0.95833 0.26042
vt 0.95833 0.30208
vt 0.91667 0.30208
vt 0.91667 0.26042
vt 0.76823 0.73047
vt 0.76823 0.80078
vt 0.63802 0.79074
vt 0.63802 0.74051
vt 0.01172 0.95703
vt 0.08203 0.95703
vt 0.08203 0.88672
vt 0.01172 0.88672
vt 0.63802 0.69699
vt 0.76823 0.70703
vt 0.76823 0.63672
vt 0.63802 0.64676
vt 0.50949 0.63802
vt 0.51953 0.76823
vt 0.44922 0.76823
vt 0.45926 0.63802
vt 0.76250 0.86458
vt 0.86250 0.86458
vt 0.86250 0.82292
vt 0.76250 0.82292
vt 0.73750 0.82500
vt 0.73750 0.92500
vt 0.63750 0.92500
vt 0.63750 0.82500
vt 0.83333 0.63750
vt 0.83333 0.73750
vt 0.79167 0.73750
vt 0.79167 0.63750
vt 0.51250 0.89375
vt 0.61250 0.89375
vt 0.61250 0.79375
vt 0.51250 0.79375
vt 0.94792 0.67500
vt 0.98958 0.67500
vt 0.98958 0.57500
vt 0.94792 0.57500
vt 0.98750 0.82292
vt 0.98750 0.86458
vt 0.88750 0.86458
vt 0.88750 0.82292
vt 0.56919 0.05581
vt 0.46875 0.01420
vt 0.36831 0.05581
vt 0.32670 0.15625
vt 0.36831 0.25669
vt 0.46875 0.29830
vt 0.56919 0.25669
vt 0.61080 0.15625
vt 0.25669 0.25669
vt 0.15625 0.29830
vt 0.05581 0.25669
vt 0.01420 0.15625
vt 0.05581 0.05581
vt 0.15625 0.01420
vt 0.25669 0.05581
vt 0.29830 0.15625
vt 0.70313 0.61080
vt 0.70313 0.53598
vt 0.82969 0.53598
vt 0.80437 0.61080
vt 0.86687 0.29830
vt 0.89219 0.22348
vt 0.76563 0.22348
vt 0.76563 0.29830
vt 0.63906 0.22348
vt 0.66438 0.29830
vt 0.26719 0.53598
vt 0.14063 0.53598
vt 0.14063 0.61080
vt 0.24188 0.61080
vt 0.01406 0.53598
vt 0.03938 0.61080
vt 0.29531 0.53598
vt 0.42188 0.53598
vt 0.42188 0.61080
vt 0.32063 0.61080
vt 0.54844 0.53598
vt 0.52312 0.61080
vt 0.60188 0.61080
vt 0.57656 0.53598
vt 0.70313 0.38826
vt 0.82969 0.38826
vt 0.80437 0.32670
vt 0.70313 0.32670
vt 0.89219 0.07576
vt 0.76563 0.07576
vt 0.76563 0.01420
vt 0.86687 0.01420
vt 0.63906 0.07576
vt 0.66438 0.01420
vt 0.26719 0.38826
vt 0.14063 0.38826
vt 0.14063 0.32670
vt 0.24188 0.32670
vt 0.01406 0.38826
vt 0.03938 0.32670
vt 0.29531 0.38826
vt 0.42188 0.38826
vt 0.42188 0.32670
vt 0.32063 0.32670
vt 0.54844 0.38826
vt 0.52312 0.32670
vt 0.57656 0.38826
vt 0.60188 0.32670
vt 0.38750 0.86328
vt 0.48750 0.86328
vt 0.48750 0.80703
vt 0.38750 0.80703
vt 0.48750 0.79297
vt 0.38750 0.79297
vt 0.42578 0.63802
vt 0.42578 0.64931
vt 0.35547 0.64931
vt 0.36953 0.63802
vt 0.13750 0.64931
vt 0.23750 0.64931
vt 0.23750 0.63802
vt 0.13750 0.63802
vt 0.26172 0.64931
vt 0.33203 0.64931
vt 0.33203 0.63802
vt 0.27578 0.63802
vt 0.23750 0.79375
vt 0.23750 0.89375
vt 0.13750 0.89375
vt 0.13750 0.79375
vt 0.42578 0.75694
vt 0.35547 0.75694
vt 0.13750 0.75694
vt 0.23750 0.75694
vt 0.26172 0.75694
vt 0.33203 0.75694
vt 0.36250 0.79297
vt 0.36250 0.80703
vt 0.26250 0.80703
vt 0.26250 0.79297
vt 0.42578 0.76823
vt 0.36953 0.76823
vt 0.13750 0.76823
vt 0.23750 0.76823
vt 0.27578 0.76823
vt 0.33203 0.76823
vt 0.36250 0.86328
vt 0.26250 0.86328
vt 0.92578 0.57639
vt 0.92578 0.61343
vt 0.85547 0.61343
vt 0.85547 0.57639
vt 0.92578 0.76157
vt 0.85547 0.76157
vt 0.11250 0.67593
vt 0.11250 0.82407
vt 0.01250 0.82407
vt 0.01250 0.67593
vt 0.91797 0.19907
vt 0.98828 0.19907
vt 0.98828 0.05093
vt 0.91797 0.05093
vt 0.85625 0.51157
vt 0.95625 0.51157
vt 0.95625 0.36343
vt 0.85625 0.36343
vt 0.92578 0.79861
vt 0.85547 0.79861
vt 0.85625 0.54861
vt 0.01250 0.86111
vt 0.98828 0.23611
vt 0.91797 0.23611
vt 0.01250 0.63889
vt 0.85625 0.32639
vt 0.98828 0.01389
vt 0.91797 0.01389
vt 0.91797 0.01385
# 181 texture verticies
vn -0.05736 -0.99682 0.05540
vn -0.05736 -0.99682 0.05540
vn -0.05736 -0.99682 0.05540
vn -0.71934 0.00000 0.69466
vn 0.63508 0.00000 0.77244
vn 0.71934 -0.00000 -0.69466
vn -0.74981 -0.00000 -0.66165
vn -0.05736 0.99682 0.05540
vn -0.05736 0.99682 0.05540
vn -0.05736 0.99682 0.05540
vn 0.00000 -1.00000 0.00000
vn -0.71934 0.00000 0.69466
vn 0.69466 0.00000 0.71934
vn 0.71934 -0.00000 -0.69466
vn -0.69466 -0.00000 -0.71934
vn 0.00000 1.00000 -0.00000
vn 0.84058 0.41497 -0.34818
vn 0.91463 0.14118 -0.37885
vn 0.88629 0.28236 -0.36711
vn 0.34818 0.41497 -0.84058
vn 0.37885 0.14118 -0.91463
vn 0.36711 0.28236 -0.88629
vn 0.34818 0.41497 -0.84058
vn -0.37396 0.21233 -0.90281
vn -0.37396 0.21233 -0.90281
vn -0.34818 0.41497 -0.84058
vn -0.34818 0.41497 -0.84058
vn -0.90281 0.21233 -0.37396
vn -0.90281 0.21233 -0.37396
vn -0.84058 0.41497 -0.34818
vn -0.90281 0.21233 0.37396
vn -0.90281 0.21233 0.37396
vn -0.84058 0.41497 0.34818
vn -0.37396 0.21233 0.90281
vn -0.34818 0.41497 0.84058
vn 0.34818 0.41497 0.84058
vn 0.37885 0.14118 0.91463
vn 0.36711 0.28236 0.88629
vn 0.34818 0.41497 0.84058
vn 0.84058 0.41497 0.34818
vn 0.91463 0.14118 0.37885
vn 0.88629 0.28236 0.36711
vn 0.87128 -0.33262 -0.36089
vn 0.91101 -0.16631 -0.37735
vn 0.80804 -0.48482 -0.33470
vn 0.80804 -0.48482 -0.33470
vn 0.36089 -0.33262 -0.87128
vn 0.37735 -0.16631 -0.91101
vn 0.33470 -0.48482 -0.80804
vn 0.33470 -0.48482 -0.80804
vn -0.36089 -0.33262 -0.87128
vn -0.37735 -0.16631 -0.91101
vn -0.33470 -0.48482 -0.80804
vn -0.33470 -0.48482 -0.80804
vn -0.87128 -0.33262 -0.36089
vn -0.91101 -0.16631 -0.37735
vn -0.80804 -0.48482 -0.33470
vn -0.80804 -0.48482 -0.33470
vn -0.87128 -0.33262 0.36089
vn -0.91101 -0.16631 0.37735
vn -0.80804 -0.48482 0.33470
vn -0.80804 -0.48482 0.33470
vn -0.36089 -0.33262 0.87128
vn -0.37735 -0.16631 0.91101
vn -0.33470 -0.48482 0.80804
vn 0.36089 -0.33262 0.87128
vn 0.37735 -0.16631 0.91101
vn 0.33470 -0.48482 0.80804
vn 0.87128 -0.33262 0.36089
vn 0.91101 -0.16631 0.37735
vn 0.80804 -0.48482 0.33470
vn 0.80804 -0.48482 0.33470
vn -0.47112 -0.75569 0.45495
vn -0.47112 -0.75569 0.45495
vn -0.47112 -0.75569 0.45495
vn 0.69466 -0.00000 0.71934
vn 0.69466 -0.00000 0.71934
vn 0.69466 -0.00000 0.71934
vn 0.71934 -0.00000 -0.69466
vn -0.69466 -0.00000 -0.71934
vn -0.69466 -0.00000 -0.71934
vn -0.69466 -0.00000 -0.71934
vn -0.69466 -0.00000 -0.71934
vn 0.69466 0.00000 0.71934
vn 0.69466 0.00000 0.71934
vn -0.69466 0.00000 -0.71934
vn -0.47112 0.75569 0.45496
vn -0.47112 0.75569 0.45496
vn -0.47112 0.75569 0.45496
vn 0.69466 0.00000 0.71934
vn 0.69466 0.00000 0.71934
vn -0.69466 0.00000 -0.71934
vn -0.69466 -0.00000 -0.71934
vn -0.71934 0.00000 0.69466
vn -0.69466 -0.00000 -0.71934
vn 0.22748 0.94868 -0.21967
vn 0.22748 -0.94868 -0.21967
vn 0.00000 -0.99682 0.07975
vn 0.00000 0.00000 1.00000
vn 0.99682 0.00000 0.07975
vn 0.00000 -0.00000 -1.00000
vn -0.99682 0.00000 0.07975
vn 0.00000 0.99682 0.07975
vn 1.00000 0.00000 0.00000
vn -1.00000 0.00000 0.00000
vn 0.00000 -0.75569 0.65493
vn 0.00000 0.75569 0.65493
vn 0.00000 0.94868 -0.31623
vn 0.00000 -0.94868 -0.31623
vn 0.05736 -0.99682 0.05540
vn 0.05736 -0.99682 0.05540
vn 0.05736 -0.99682 0.05540
vn 0.71934 0.00000 0.69466
vn -0.63508 0.00000 0.77244
vn -0.71934 -0.00000 -0.69466
vn 0.74981 -0.00000 -0.66165
vn 0.05736 0.99682 0.05540
vn 0.05736 0.99682 0.05540
vn 0.05736 0.99682 0.05540
vn 0.71934 0.00000 0.69466
vn -0.69466 0.00000 0.71934
vn -0.71934 -0.00000 -0.69466
vn 0.69466 -0.00000 -0.71934
vn 0.47112 -0.75569 0.45495
vn 0.47112 -0.75569 0.45495
vn 0.47112 -0.75569 0.45495
vn -0.69466 -0.00000 0.71934
vn -0.69466 -0.00000 0.71934
vn -0.69466 -0.00000 0.71934
vn -0.71934 -0.00000 -0.69466
vn 0.69466 -0.00000 -0.71934
vn 0.69466 -0.00000 -0.71934
vn 0.69466 -0.00000 -0.71934
vn 0.69466 -0.00000 -0.71934
vn -0.69466 0.00000 0.71934
vn -0.69466 0.00000 0.71934
vn 0.69466 0.00000 -0.71934
vn 0.47112 0.75569 0.45496
vn 0.47112 0.75569 0.45496
vn 0.47112 0.75569 0.45496
vn -0.69466 0.00000 0.71934
vn -0.69466 0.00000 0.71934
vn 0.69466 -0.00000 -0.71934
vn 0.69466 0.00000 -0.71934
vn 0.71934 0.00000 0.69466
vn 0.69466 -0.00000 -0.71934
vn -0.22748 0.94868 -0.21967
vn -0.22748 -0.94868 -0.21967
# 148 normals
usemtl tank_user_top_02
f  4/1/1 3/2/2 2/3/1 1/4/3
f  2/5/4 6/6/4 5/7/4 1/8/4
f  3/9/5 7/10/5 6/11/5 2/12/5
f  8/13/6 7/14/6 3/15/6 4/16/6
f  5/17/7 8/18/7 4/19/7 1/20/7
f  6/21/8 7/22/9 8/23/8 5/24/10
f  12/25/11 11/26/11 10/27/11 9/28/11
f  10/29/12 14/30/12 13/31/12 9/32/12
f  11/33/13 15/34/13 14/35/13 10/36/13
f  16/37/14 15/38/14 11/39/14 12/40/14
f  13/41/15 16/42/15 12/43/15 9/44/15
f  14/45/16 15/46/16 16/47/16 13/48/16
f  24/49/11 23/50/11 22/51/11 21/52/11 20/53/11 19/54/11 18/55/11\
17/56/11
f  26/57/16 27/58/16 28/59/16 29/60/16 30/61/16 31/62/16 32/63/16\
25/64/16
f  25/65/17 33/66/18 34/67/19 26/68/17
f  26/69/20 34/70/21 35/71/22 27/72/23
f  35/71/24 36/73/25 28/74/26 27/72/27
f  36/75/28 37/76/29 29/77/30 28/78/30
f  37/76/31 38/79/32 30/80/33 29/77/33
f  38/81/34 39/82/34 31/83/35 30/84/35
f  31/83/36 39/82/37 40/85/38 32/86/39
f  32/87/40 40/88/41 33/66/42 25/65/40
f  33/66/18 41/89/43 42/90/44 34/67/19
f  18/91/45 42/90/44 41/89/43 17/92/46
f  34/70/21 42/93/47 43/94/48 35/71/22
f  19/95/49 43/94/48 42/93/47 18/96/50
f  35/71/24 43/94/51 44/97/52 36/73/25
f  20/98/53 44/97/52 43/94/51 19/95/54
f  36/75/28 44/99/55 45/100/56 37/76/29
f  21/101/57 45/100/56 44/99/55 20/102/58
f  37/76/31 45/100/59 46/103/60 38/79/32
f  22/104/61 46/103/60 45/100/59 21/101/62
f  38/81/34 46/105/63 47/106/64 39/82/34
f  23/107/65 47/106/64 46/105/63 22/108/65
f  39/82/37 47/106/66 48/109/67 40/85/38
f  24/110/68 48/109/67 47/106/66 23/107/68
f  40/88/41 48/111/69 41/89/70 33/66/42
f  17/92/71 41/89/70 48/111/69 24/112/72
f  52/113/11 51/114/11 50/115/11 49/116/11
f  50/115/73 54/117/74 53/118/73 49/116/75
f  51/119/76 55/120/13 54/121/77 50/122/78
f  56/123/79 55/124/79 51/125/6 52/126/6
f  53/127/80 56/128/81 52/129/82 49/130/83
f  54/131/12 58/132/12 57/133/12 53/134/12
f  55/120/13 59/135/84 58/136/85 54/121/77
f  60/137/79 59/138/79 55/124/79 56/123/79
f  57/139/86 60/140/86 56/128/81 53/127/80
f  58/141/87 62/142/88 61/143/87 57/144/89
f  59/135/84 63/145/90 62/146/91 58/136/85
f  64/147/6 63/148/6 59/138/79 60/137/79
f  61/149/92 64/150/93 60/140/86 57/139/86
f  62/142/16 63/151/16 64/152/16 61/143/16
f  66/153/4 68/154/94 67/155/94 65/156/4
f  68/154/94 72/157/94 71/158/94 67/155/94
f  69/159/90 73/160/90 72/161/90 68/162/90
f  74/163/14 73/164/14 69/165/14 70/166/14
f  71/167/95 74/168/95 70/169/95 67/170/95
f  72/157/94 76/171/4 75/172/4 71/158/94
f  74/168/95 71/167/95 75/173/95
f  72/161/90 73/160/90 76/174/90
f  76/175/96 73/164/96 74/163/96 75/176/96
f  68/162/90 66/177/90 69/159/90
f  65/178/95 67/170/95 70/169/95
f  69/165/97 66/179/97 65/180/97 70/166/97
f  80/1/98 79/2/98 78/3/98 77/4/98
f  78/5/99 82/6/99 81/7/99 77/8/99
f  79/9/100 83/10/100 82/11/100 78/12/100
f  84/13/101 83/14/101 79/15/101 80/16/101
f  81/17/102 84/18/102 80/19/102 77/20/102
f  82/21/103 83/22/103 84/23/103 81/24/103
f  88/25/11 87/26/11 86/27/11 85/28/11
f  86/29/99 90/30/99 89/31/99 85/32/99
f  87/33/104 91/34/104 90/35/104 86/36/104
f  92/37/101 91/38/101 87/39/101 88/40/101
f  89/41/105 92/42/105 88/43/105 85/44/105
f  90/45/16 91/46/16 92/47/16 89/48/16
f  96/113/11 95/114/11 94/115/11 93/116/11
f  94/115/106 98/117/106 97/118/106 93/116/106
f  95/119/104 99/120/104 98/121/104 94/122/104
f  100/123/101 99/124/101 95/125/101 96/126/101
f  97/127/105 100/128/105 96/129/105 93/130/105
f  98/131/99 102/132/99 101/133/99 97/134/99
f  99/120/104 103/135/104 102/136/104 98/121/104
f  104/137/101 103/138/101 99/124/101 100/123/101
f  101/139/105 104/140/105 100/128/105 97/127/105
f  102/141/107 106/142/107 105/143/107 101/144/107
f  103/135/104 107/145/104 106/146/104 102/136/104
f  108/147/101 107/148/101 103/138/101 104/137/101
f  105/149/105 108/150/105 104/140/105 101/139/105
f  106/142/16 107/151/16 108/152/16 105/143/16
f  110/153/99 112/154/99 111/155/99 109/156/99
f  112/154/99 116/157/99 115/158/99 111/155/99
f  113/159/104 117/160/104 116/161/104 112/162/104
f  118/163/101 117/164/101 113/165/101 114/166/101
f  115/167/105 118/168/105 114/169/105 111/170/105
f  116/157/99 120/171/99 119/172/99 115/158/99
f  118/168/105 115/167/105 119/173/105
f  116/161/104 117/160/104 120/174/104
f  120/175/108 117/164/108 118/163/108 119/176/108
f  112/162/104 110/177/104 113/159/104
f  109/178/105 111/170/105 114/169/105
f  113/165/109 110/179/109 109/180/109 114/166/109
f  122/3/110 123/2/111 124/1/110 121/4/112
f  125/7/113 126/6/113 122/5/113 121/8/113
f  126/11/114 127/10/114 123/9/114 122/12/114
f  123/15/115 127/14/115 128/13/115 124/16/115
f  124/19/116 128/18/116 125/17/116 121/20/116
f  128/23/117 127/22/118 126/21/117 125/24/119
f  130/27/11 131/26/11 132/25/11 129/28/11
f  133/31/120 134/30/120 130/29/120 129/32/120
f  134/35/121 135/34/121 131/33/121 130/36/121
f  131/39/122 135/38/122 136/37/122 132/40/122
f  132/43/123 136/42/123 133/41/123 129/44/123
f  136/47/16 135/46/16 134/45/16 133/48/16
f  138/115/11 139/114/11 140/113/11 137/116/11
f  141/118/124 142/117/125 138/115/124 137/116/126
f  142/121/127 143/120/121 139/119/128 138/122/129
f  139/125/115 143/124/130 144/123/130 140/126/115
f  140/129/131 144/128/132 141/127/133 137/130/134
f  145/133/120 146/132/120 142/131/120 141/134/120
f  146/136/135 147/135/136 143/120/121 142/121/127
f  143/124/130 147/138/130 148/137/130 144/123/130
f  144/128/132 148/140/137 145/139/137 141/127/133
f  149/143/138 150/142/139 146/141/138 145/144/140
f  150/146/141 151/145/142 147/135/136 146/136/135
f  147/138/130 151/148/115 152/147/115 148/137/130
f  148/140/137 152/150/143 149/149/144 145/139/137
f  152/152/16 151/151/16 150/142/16 149/143/16
f  155/155/145 156/154/145 154/153/113 153/156/113
f  159/158/145 160/157/145 156/154/145 155/155/145
f  160/161/142 161/160/142 157/159/142 156/162/142
f  157/165/122 161/164/122 162/163/122 158/166/122
f  158/169/146 162/168/146 159/167/146 155/170/146
f  163/172/113 164/171/113 160/157/145 159/158/145
f  159/167/146 162/168/146 163/173/146
f  161/160/142 160/161/142 164/174/142
f  162/163/147 161/164/147 164/175/147 163/176/147
f  154/177/142 156/162/142 157/159/142
f  155/170/146 153/178/146 158/169/146
f  153/181/148 154/179/148 157/165/148 158/166/148
