# 
# Wavefront OBJ file
# Converted by the DEEP Exploration Deep Exploration 5 5.0.2.1477 Release
# Right Hemisphere, LTD
# http://www.righthemisphere.com/
# 
mtllib tank_user_head_02.mtl
# object tank_user_head_02
g tank_user_head_02
v -0.60000 0.00000 0.60000
v 0.60000 0.00000 0.60000
v 0.60000 0.00000 -0.60000
v -0.60000 0.00000 -0.60000
v -0.60000 1.20000 0.60000
v 0.60000 1.20000 0.60000
v 0.60000 1.20000 -0.60000
v -0.60000 1.20000 -0.60000
v 0.60000 0.10680 0.35000
v 1.00000 0.10680 0.35000
v 1.00000 0.10680 -0.35000
v 0.60000 0.10680 -0.35000
v 0.60000 0.80680 0.35000
v 1.00000 0.80680 0.35000
v 1.00000 0.80680 -0.35000
v 0.60000 0.80680 -0.35000
v -0.60000 0.10680 0.35000
v -1.00000 0.10680 0.35000
v -1.00000 0.10680 -0.35000
v -0.60000 0.10680 -0.35000
v -0.60000 0.80680 0.35000
v -1.00000 0.80680 0.35000
v -1.00000 0.80680 -0.35000
v -0.60000 0.80680 -0.35000
# 24 verticies
vt 0.29221 0.25325
vt 0.52597 0.25325
vt 0.52597 0.01948
vt 0.29221 0.01948
vt 0.52597 0.29221
vt 0.52597 0.52597
vt 0.29221 0.52597
vt 0.29221 0.29221
vt 0.79870 0.01948
vt 0.79870 0.25325
vt 0.56494 0.25325
vt 0.56494 0.01948
vt 0.01948 0.52597
vt 0.25325 0.52597
vt 0.25325 0.29221
vt 0.01948 0.29221
vt 0.56494 0.52597
vt 0.79870 0.52597
vt 0.79870 0.29221
vt 0.56494 0.29221
vt 0.25325 0.01948
vt 0.25325 0.25325
vt 0.01948 0.25325
vt 0.01948 0.01948
vt 0.83333 0.16364
vt 0.89394 0.16364
vt 0.89394 0.01818
vt 0.83333 0.01818
vt 0.43939 0.56250
vt 0.43939 0.66477
vt 0.37879 0.66477
vt 0.37879 0.56250
vt 0.98182 0.19886
vt 0.98182 0.30114
vt 0.83636 0.30114
vt 0.83636 0.19886
vt 0.46970 0.66477
vt 0.53030 0.66477
vt 0.53030 0.56250
vt 0.46970 0.56250
vt 0.01818 0.66477
vt 0.16364 0.66477
vt 0.16364 0.56250
vt 0.01818 0.56250
vt 0.98485 0.01818
vt 0.98485 0.16364
vt 0.92424 0.16364
vt 0.92424 0.01818
vt 0.83333 0.47273
vt 0.83333 0.61818
vt 0.89394 0.61818
vt 0.89394 0.47273
vt 0.62121 0.66477
vt 0.56061 0.66477
vt 0.56061 0.56250
vt 0.62121 0.56250
vt 0.20000 0.66477
vt 0.34545 0.66477
vt 0.34545 0.56250
vt 0.20000 0.56250
vt 0.65152 0.56250
vt 0.65152 0.66477
vt 0.71212 0.66477
vt 0.71212 0.56250
vt 0.98182 0.33523
vt 0.98182 0.43750
vt 0.83636 0.43750
vt 0.83636 0.33523
vt 0.98485 0.61719
vt 0.92424 0.61818
vt 0.92424 0.47273
vt 0.98485 0.47273
# 72 texture verticies
vn 0.00000 -1.00000 0.00000
vn 0.00000 0.00000 1.00000
vn 1.00000 0.00000 0.00000
vn 0.00000 -0.00000 -1.00000
vn -1.00000 0.00000 0.00000
vn 0.00000 1.00000 -0.00000
# 6 normals
usemtl tank_user_head_02
f  4/1/1 3/2/1 2/3/1 1/4/1
f  2/5/2 6/6/2 5/7/2 1/8/2
f  3/9/3 7/10/3 6/11/3 2/12/3
f  8/13/4 7/14/4 3/15/4 4/16/4
f  5/17/5 8/18/5 4/19/5 1/20/5
f  6/21/6 7/22/6 8/23/6 5/24/6
f  12/25/1 11/26/1 10/27/1 9/28/1
f  10/29/2 14/30/2 13/31/2 9/32/2
f  11/33/3 15/34/3 14/35/3 10/36/3
f  16/37/4 15/38/4 11/39/4 12/40/4
f  13/41/5 16/42/5 12/43/5 9/44/5
f  14/45/6 15/46/6 16/47/6 13/48/6
f  18/49/1 19/50/1 20/51/1 17/52/1
f  21/53/2 22/54/2 18/55/2 17/56/2
f  22/57/5 23/58/5 19/59/5 18/60/5
f  19/61/4 23/62/4 24/63/4 20/64/4
f  20/65/3 24/66/3 21/67/3 17/68/3
f  24/69/6 23/70/6 22/71/6 21/72/6
