# 
# Wavefront OBJ file
# Converted by the DEEP Exploration Deep Exploration 5 5.0.2.1477 Release
# Right Hemisphere, LTD
# http://www.righthemisphere.com/
# 
mtllib tank_enemy_06_head.mtl
# object tank_enemy_06_head
g tank_enemy_06_head
v -0.60000 -0.00000 0.60000
v 0.60000 -0.00000 0.60000
v 0.60000 -0.00000 -0.60000
v -0.60000 -0.00000 -0.60000
v -0.60000 1.20000 0.60000
v 0.60000 1.20000 0.60000
v 0.60000 1.20000 -0.60000
v -0.60000 1.20000 -0.60000
v -1.12000 0.68000 -0.50000
v -1.12000 0.68000 -0.10000
v -0.60000 0.76000 -0.20000
v -0.60000 0.76000 -0.40000
v -1.00000 1.16000 -0.50000
v -1.00000 1.16000 -0.10000
v -0.60000 0.96000 -0.20000
v -0.60000 0.96000 -0.40000
v 1.12000 0.68000 -0.50000
v 1.12000 0.68000 -0.10000
v 0.60000 0.76000 -0.20000
v 0.60000 0.76000 -0.40000
v 1.00000 1.16000 -0.50000
v 1.00000 1.16000 -0.10000
v 0.60000 0.96000 -0.20000
v 0.60000 0.96000 -0.40000
# 24 verticies
vt 0.63920 0.61080
vt 0.92330 0.61080
vt 0.92330 0.32670
vt 0.63920 0.32670
vt 0.29830 0.01420
vt 0.29830 0.29830
vt 0.01420 0.29830
vt 0.01420 0.01420
vt 0.61080 0.01420
vt 0.61080 0.29830
vt 0.32670 0.29830
vt 0.32670 0.01420
vt 0.63920 0.29830
vt 0.92330 0.29830
vt 0.92330 0.01420
vt 0.63920 0.01420
vt 0.01420 0.61080
vt 0.29830 0.61080
vt 0.29830 0.32670
vt 0.01420 0.32670
vt 0.61080 0.32670
vt 0.61080 0.61080
vt 0.32670 0.61080
vt 0.32670 0.32670
vt 0.11250 0.71250
vt 0.11250 0.66250
vt 0.01250 0.63750
vt 0.01250 0.73750
vt 0.26250 0.63750
vt 0.28558 0.63750
vt 0.28558 0.73750
vt 0.26250 0.73750
vt 0.23750 0.65417
vt 0.23750 0.69583
vt 0.16058 0.73750
vt 0.13750 0.63750
vt 0.66058 0.73750
vt 0.73750 0.69583
vt 0.73750 0.65417
vt 0.63750 0.63750
vt 0.36250 0.66250
vt 0.36250 0.71250
vt 0.48750 0.63750
vt 0.38750 0.66250
vt 0.38750 0.71250
vt 0.48750 0.73750
vt 0.83942 0.73750
vt 0.83942 0.63750
vt 0.86250 0.63750
vt 0.86250 0.73750
vt 0.58942 0.73750
vt 0.51250 0.69583
vt 0.51250 0.65417
vt 0.61250 0.63750
vt 0.88750 0.65417
vt 0.88750 0.69583
vt 0.96442 0.73750
vt 0.98750 0.63750
vt 0.76250 0.71250
vt 0.76250 0.66211
# 60 texture verticies
vn 0.00000 -1.00000 0.00000
vn 0.00000 0.00000 1.00000
vn 1.00000 0.00000 0.00000
vn 0.00000 -0.00000 -1.00000
vn -1.00000 0.00000 0.00000
vn 0.00000 1.00000 -0.00000
vn 0.15206 -0.98837 0.00000
vn -0.97014 0.24254 -0.00000
vn 0.21934 -0.02450 0.97534
vn 0.24254 0.00000 0.97014
vn 0.19588 -0.04897 0.97940
vn 0.21934 -0.02450 -0.97534
vn 0.24254 -0.00000 -0.97014
vn 0.19588 -0.04897 -0.97940
vn 0.44721 0.89443 -0.00000
vn -0.15206 -0.98837 0.00000
vn 0.97014 0.24254 -0.00000
vn -0.21934 -0.02450 0.97534
vn -0.24254 0.00000 0.97014
vn -0.19588 -0.04897 0.97940
vn -0.21934 -0.02450 -0.97534
vn -0.24254 -0.00000 -0.97014
vn -0.19588 -0.04897 -0.97940
vn -0.44721 0.89443 -0.00000
# 24 normals
usemtl tank_enemy_06_head
f  4/1/1 3/2/1 2/3/1 1/4/1
f  2/5/2 6/6/2 5/7/2 1/8/2
f  3/9/3 7/10/3 6/11/3 2/12/3
f  8/13/4 7/14/4 3/15/4 4/16/4
f  5/17/5 8/18/5 4/19/5 1/20/5
f  6/21/6 7/22/6 8/23/6 5/24/6
f  12/25/7 11/26/7 10/27/7 9/28/7
f  10/29/8 14/30/8 13/31/8 9/32/8
f  11/33/9 15/34/10 14/35/9 10/36/11
f  13/37/12 16/38/13 12/39/12 9/40/14
f  14/30/15 15/41/15 16/42/15 13/31/15
f  18/43/16 19/44/16 20/45/16 17/46/16
f  21/47/17 22/48/17 18/49/17 17/50/17
f  22/51/18 23/52/19 19/53/18 18/54/20
f  20/55/21 24/56/22 21/57/21 17/58/23
f  24/59/24 23/60/24 22/48/24 21/47/24
