# 
# Wavefront OBJ file
# Converted by the DEEP Exploration Deep Exploration 5 5.0.2.1477 Release
# Right Hemisphere, LTD
# http://www.righthemisphere.com/
# 
mtllib tank_enemy_03_head.mtl
# object tank_enemy_03_head
g tank_enemy_03_head
v -0.60000 -0.00000 0.60000
v 0.60000 -0.00000 0.60000
v 0.60000 -0.00000 -0.60000
v -0.60000 -0.00000 -0.60000
v -0.60000 1.20000 0.60000
v 0.60000 1.20000 0.60000
v 0.60000 1.20000 -0.60000
v -0.60000 1.20000 -0.60000
v 0.20000 1.20000 0.21000
v 0.60000 1.20000 0.21000
v 0.60000 1.20000 -0.19000
v 0.20000 1.20000 -0.19000
v 0.60000 1.80000 -0.19000
v -0.20000 1.20000 0.21000
v -0.60000 1.20000 0.21000
v -0.60000 1.20000 -0.19000
v -0.20000 1.20000 -0.19000
v -0.60000 1.80000 -0.19000
# 18 verticies
vt 0.35185 0.31481
vt 0.64815 0.31481
vt 0.64815 0.01852
vt 0.35185 0.01852
vt 0.64815 0.35185
vt 0.64815 0.64815
vt 0.35185 0.64815
vt 0.35185 0.35185
vt 0.31481 0.01852
vt 0.31481 0.31481
vt 0.01852 0.31481
vt 0.01852 0.01852
vt 0.68519 0.64815
vt 0.98148 0.64815
vt 0.98148 0.35185
vt 0.68519 0.35185
vt 0.68519 0.31481
vt 0.98148 0.31481
vt 0.98148 0.01852
vt 0.68519 0.01852
vt 0.31481 0.35185
vt 0.31481 0.64815
vt 0.01852 0.64815
vt 0.01852 0.35185
vt 0.10938 0.68333
vt 0.10938 0.81667
vt 0.01562 0.68333
vt 0.23438 0.68333
vt 0.23438 0.81667
vt 0.14063 0.68333
vt 0.48438 0.81667
vt 0.48438 0.68333
vt 0.39063 0.68333
vt 0.60938 0.81667
vt 0.60938 0.68333
vt 0.51563 0.68333
vt 0.26563 0.81667
vt 0.26563 0.68333
vt 0.35938 0.68333
vt 0.73438 0.81667
vt 0.73438 0.68333
vt 0.64063 0.68333
vt 0.89063 0.68333
vt 0.89063 0.81667
vt 0.98438 0.68333
vt 0.85938 0.68333
vt 0.85938 0.81817
vt 0.76563 0.68333
# 48 texture verticies
vn 0.00000 -1.00000 0.00000
vn 0.00000 0.00000 1.00000
vn 1.00000 0.00000 0.00000
vn 0.00000 -0.00000 -1.00000
vn -1.00000 0.00000 0.00000
vn 0.00000 1.00000 -0.00000
vn 0.00000 0.55470 0.83205
vn 0.00000 0.00000 -1.00000
vn -0.83205 0.55470 -0.00000
vn 0.83205 0.55470 -0.00000
# 10 normals
usemtl tank_enemy_03_head
f  4/1/1 3/2/1 2/3/1 1/4/1
f  2/5/2 6/6/2 5/7/2 1/8/2
f  3/9/3 7/10/3 6/11/3 2/12/3
f  8/13/4 7/14/4 3/15/4 4/16/4
f  5/17/5 8/18/5 4/19/5 1/20/5
f  6/21/6 7/22/6 8/23/6 5/24/6
f  10/25/7 13/26/7 9/27/7
f  11/28/3 13/29/3 10/30/3
f  13/31/8 11/32/8 12/33/8
f  13/34/9 12/35/9 9/36/9
f  18/37/7 15/38/7 14/39/7
f  18/40/5 16/41/5 15/42/5
f  16/43/8 18/44/8 17/45/8
f  17/46/10 18/47/10 14/48/10
