# 
# Wavefront OBJ file
# Converted by the DEEP Exploration Deep Exploration 5 5.0.2.1477 Release
# Right Hemisphere, LTD
# http://www.righthemisphere.com/
# 
mtllib tank_enemy_04_head.mtl
# object tank_enemy_04_head
g tank_enemy_04_head
v -0.60000 0.00000 0.60000
v 0.60000 0.00000 0.60000
v 0.60000 -0.00000 -0.60000
v -0.60000 -0.00000 -0.60000
v -0.60000 1.20000 0.60000
v 0.60000 1.20000 0.60000
v 0.60000 1.20000 -0.60000
v -0.60000 1.20000 -0.60000
v -0.40000 0.50000 -0.90000
v -0.60000 0.69919 -0.60000
v -0.60000 0.50081 -0.60000
v 0.40000 0.50000 -0.90000
v 0.60000 0.69919 -0.60000
v 0.60000 0.50081 -0.60000
# 14 verticies
vt 0.31674 0.68326
vt 0.60633 0.68326
vt 0.60633 0.39367
vt 0.31674 0.39367
vt 0.29864 0.00905
vt 0.29864 0.29864
vt 0.00905 0.29864
vt 0.00905 0.00905
vt 0.60633 0.08597
vt 0.60633 0.37557
vt 0.31674 0.37557
vt 0.31674 0.08597
vt 0.62443 0.60633
vt 0.91403 0.60633
vt 0.91403 0.31674
vt 0.62443 0.31674
vt 0.62443 0.29864
vt 0.91403 0.29864
vt 0.91403 0.00905
vt 0.62443 0.00905
vt 0.29864 0.39367
vt 0.29864 0.68326
vt 0.00905 0.68326
vt 0.00905 0.39367
vt 0.93077 0.06508
vt 0.93077 0.10817
vt 0.99231 0.06490
vt 0.36501 0.06923
vt 0.31674 0.00769
vt 0.60633 0.00769
vt 0.55807 0.06923
vt 0.00905 0.31538
vt 0.05732 0.37692
vt 0.25038 0.37692
vt 0.29864 0.31538
vt 0.93077 0.05037
vt 0.93077 0.00739
vt 0.99231 0.00721
# 38 texture verticies
vn 0.00000 -1.00000 0.00000
vn 0.00000 0.00000 1.00000
vn 1.00000 0.00000 0.00000
vn 0.00000 -0.00000 -1.00000
vn -1.00000 0.00000 0.00000
vn 0.00000 1.00000 -0.00000
vn -0.83205 -0.00000 -0.55470
vn 0.00000 0.83309 -0.55313
vn 0.00000 -1.00000 0.00271
vn 0.83205 -0.00000 -0.55470
# 10 normals
usemtl tank_enemy_04_head
f  4/1/1 3/2/1 2/3/1 1/4/1
f  2/5/2 6/6/2 5/7/2 1/8/2
f  3/9/3 7/10/3 6/11/3 2/12/3
f  8/13/4 7/14/4 3/15/4 4/16/4
f  5/17/5 8/18/5 4/19/5 1/20/5
f  6/21/6 7/22/6 8/23/6 5/24/6
f  11/25/7 10/26/7 9/27/7
f  9/28/8 10/29/8 13/30/8 12/31/8
f  11/32/9 9/33/9 12/34/9 14/35/9
f  13/36/10 14/37/10 12/38/10
