# 
# Wavefront OBJ file
# Converted by the DEEP Exploration Deep Exploration 5 5.0.2.1477 Release
# Right Hemisphere, LTD
# http://www.righthemisphere.com/
# 
mtllib tank_user_body_03.mtl
# object tank_user_body_03
g tank_user_body_03
v 0.80000 0.40000 1.50000
v 1.20000 0.40000 1.50000
v 1.20000 0.00000 1.09333
v 1.20000 -0.00000 -1.09333
v 1.20000 0.40000 -1.50000
v 0.80000 0.40000 -1.50000
v 0.80000 -0.00000 -1.09333
v 0.80000 0.00000 1.09333
v 0.80000 0.80000 1.50000
v 1.20000 0.80000 1.50000
v 1.20000 1.20000 1.09333
v 1.20000 1.20000 -1.09333
v 1.20000 0.80000 -1.50000
v 0.80000 0.80000 -1.50000
v 0.80000 1.20000 -1.09333
v 0.80000 1.20000 1.09333
v 0.78000 0.20000 1.30000
v 0.78000 0.00000 1.09333
v 0.78000 -0.00000 -0.90000
v 0.78000 0.40000 -1.30000
v 0.78000 0.40000 1.30000
v 0.78000 0.60000 1.09333
v 0.78000 1.40000 -0.90000
v 0.78000 1.00000 -1.30000
v 0.78000 -0.00000 0.10000
v 0.78000 1.40000 0.10000
v 0.78000 -0.00000 0.30000
v 0.78000 0.60000 0.30000
v -0.00000 0.20000 1.30000
v -0.00000 0.00000 1.09333
v -0.00000 -0.00000 -0.90000
v -0.00000 0.40000 -1.30000
v -0.00000 0.40000 1.30000
v -0.00000 1.00000 -1.30000
v -0.00000 0.60000 1.09333
v -0.00000 1.40000 -0.90000
v -0.00000 -0.00000 0.10000
v -0.00000 1.40000 0.10000
v -0.00000 -0.00000 0.30000
v -0.00000 0.60000 0.30000
v -0.80000 0.40000 1.50000
v -1.20000 0.40000 1.50000
v -1.20000 0.00000 1.09333
v -1.20000 -0.00000 -1.09333
v -1.20000 0.40000 -1.50000
v -0.80000 0.40000 -1.50000
v -0.80000 -0.00000 -1.09333
v -0.80000 0.00000 1.09333
v -0.80000 0.80000 1.50000
v -1.20000 0.80000 1.50000
v -1.20000 1.20000 1.09333
v -1.20000 1.20000 -1.09333
v -1.20000 0.80000 -1.50000
v -0.80000 0.80000 -1.50000
v -0.80000 1.20000 -1.09333
v -0.80000 1.20000 1.09333
v -0.78000 0.20000 1.30000
v -0.78000 0.00000 1.09333
v -0.78000 -0.00000 -0.90000
v -0.78000 0.40000 -1.30000
v -0.78000 0.40000 1.30000
v -0.78000 0.60000 1.09333
v -0.78000 1.40000 -0.90000
v -0.78000 1.00000 -1.30000
v -0.78000 -0.00000 0.10000
v -0.78000 1.40000 0.10000
v -0.78000 -0.00000 0.30000
v -0.78000 0.60000 0.30000
v 0.00000 0.20000 1.30000
v 0.00000 0.00000 1.09333
v 0.00000 -0.00000 -0.90000
v 0.00000 0.40000 -1.30000
v 0.00000 0.40000 1.30000
v 0.00000 1.00000 -1.30000
v 0.00000 0.60000 1.09333
v 0.00000 1.40000 -0.90000
v 0.00000 -0.00000 0.10000
v 0.00000 1.40000 0.10000
v 0.00000 -0.00000 0.30000
v 0.00000 0.60000 0.30000
# 80 verticies
vt 0.09167 0.09207
vt 0.15833 0.09207
vt 0.15833 0.01008
vt 0.09167 0.01008
vt 0.09167 0.53293
vt 0.15833 0.53293
vt 0.09167 0.61492
vt 0.15833 0.61492
vt 0.78333 0.50833
vt 0.78333 0.57500
vt 0.71667 0.57500
vt 0.71667 0.50833
vt 0.25874 0.25962
vt 0.25874 0.49038
vt 0.17675 0.41346
vt 0.17675 0.33654
vt 0.69960 0.25962
vt 0.69960 0.49038
vt 0.78159 0.33654
vt 0.78159 0.41346
vt 0.71667 0.65833
vt 0.78333 0.65833
vt 0.78333 0.59167
vt 0.71667 0.59167
vt 0.69960 0.24038
vt 0.78159 0.16346
vt 0.78159 0.08654
vt 0.69960 0.00962
vt 0.25874 0.24038
vt 0.25874 0.00962
vt 0.17675 0.16346
vt 0.17675 0.08654
vt 0.07500 0.01008
vt 0.07500 0.09207
vt 0.00833 0.09207
vt 0.00833 0.01008
vt 0.07500 0.53293
vt 0.00833 0.53293
vt 0.07500 0.61492
vt 0.00833 0.61492
vt 0.21816 0.50972
vt 0.21816 0.62639
vt 0.17670 0.58750
vt 0.17670 0.54861
vt 0.69830 0.58750
vt 0.69830 0.70417
vt 0.61806 0.78194
vt 0.61806 0.50972
vt 0.41744 0.78194
vt 0.41744 0.50972
vt 0.37731 0.62639
vt 0.37731 0.50972
vt 0.94907 0.00998
vt 0.80093 0.00998
vt 0.80093 0.05312
vt 0.94907 0.05312
vt 0.94907 0.48889
vt 0.80093 0.48889
vt 0.80093 0.56667
vt 0.94907 0.56667
vt 0.17593 0.84635
vt 0.17593 0.79948
vt 0.32407 0.79948
vt 0.32407 0.84635
vt 0.80093 0.68333
vt 0.94907 0.68333
vt 0.00926 0.67436
vt 0.00926 0.63462
vt 0.15741 0.63462
vt 0.15741 0.67436
vt 0.80093 0.76111
vt 0.94907 0.76111
vt 0.94907 0.26046
vt 0.80093 0.26046
vt 0.80093 0.46918
vt 0.94907 0.46918
vt 0.86574 0.99045
vt 0.71759 0.99045
vt 0.71759 0.78038
vt 0.86574 0.78038
vt 0.80093 0.21871
vt 0.94907 0.21871
vt 0.15741 0.86538
vt 0.00926 0.86538
vt 0.00926 0.82692
vt 0.15741 0.82692
vt 0.15741 0.67360
# 87 texture verticies
vn 0.00000 -0.71293 0.70124
vn 0.00000 -1.00000 0.00000
vn 0.00000 -0.71293 -0.70124
vn 0.00000 0.00000 1.00000
vn 1.00000 0.00000 0.00000
vn 0.00000 -0.00000 -1.00000
vn -1.00000 0.00000 0.00000
vn 0.00000 0.71293 0.70124
vn 0.00000 1.00000 -0.00000
vn 0.00000 0.71293 -0.70124
vn 1.00000 -0.00000 -0.00000
vn 1.00000 -0.00000 -0.00000
vn 1.00000 0.00000 0.00000
vn 1.00000 0.00000 0.00000
vn 0.00000 -0.71860 0.69542
vn 0.00000 -0.70710 -0.70711
vn 0.00000 0.71860 0.69542
vn 0.00000 0.70710 -0.70711
vn 0.00000 0.24254 0.97014
vn -1.00000 -0.00000 -0.00000
vn -1.00000 -0.00000 -0.00000
vn -1.00000 0.00000 0.00000
vn -1.00000 0.00000 0.00000
# 23 normals
usemtl tank_user_body_03
f  8/1/1 3/2/1 2/3/1 1/4/1
f  7/5/2 4/6/2 3/2/2 8/1/2
f  6/7/3 5/8/3 4/6/3 7/5/3
f  2/9/4 10/10/4 9/11/4 1/12/4
f  3/13/5 11/14/5 10/15/5 2/16/5
f  4/17/5 12/18/5 11/14/5 3/13/5
f  5/19/5 13/20/5 12/18/5 4/17/5
f  14/21/6 13/22/6 5/23/6 6/24/6
f  15/25/7 14/26/7 6/27/7 7/28/7
f  16/29/7 15/25/7 7/28/7 8/30/7
f  9/31/7 16/29/7 8/30/7 1/32/7
f  10/33/8 11/34/8 16/35/8 9/36/8
f  11/34/9 12/37/9 15/38/9 16/35/9
f  12/37/10 13/39/10 14/40/10 15/38/10
f  18/41/5 22/42/5 21/43/5 17/44/5
f  20/45/11 24/46/5 23/47/12 19/48/12
f  26/49/13 25/50/5 19/48/12 23/47/12
f  26/49/13 28/51/14 27/52/14 25/50/5
f  18/41/5 27/52/14 28/51/14 22/42/5
f  17/53/15 29/54/15 30/55/15 18/56/15
f  19/57/16 31/58/16 32/59/16 20/60/16
f  33/61/4 29/62/4 17/63/4 21/64/4
f  20/60/6 32/59/6 34/65/6 24/66/6
f  35/67/17 33/68/17 21/69/17 22/70/17
f  34/65/18 36/71/18 23/72/18 24/66/18
f  25/73/2 37/74/2 31/75/2 19/76/2
f  23/77/9 36/78/9 38/79/9 26/80/9
f  39/81/2 37/74/2 25/73/2 27/82/2
f  18/56/2 30/55/2 39/81/2 27/82/2
f  26/83/19 38/84/19 40/85/19 28/86/19
f  40/85/9 35/67/9 22/70/9 28/86/9
f  42/3/1 43/2/1 48/1/1 41/4/1
f  43/2/2 44/6/2 47/5/2 48/1/2
f  44/6/3 45/8/3 46/7/3 47/5/3
f  49/11/4 50/10/4 42/9/4 41/12/4
f  50/15/7 51/14/7 43/13/7 42/16/7
f  51/14/7 52/18/7 44/17/7 43/13/7
f  52/18/7 53/20/7 45/19/7 44/17/7
f  45/23/6 53/22/6 54/21/6 46/24/6
f  46/27/5 54/26/5 55/25/5 47/28/5
f  47/28/5 55/25/5 56/29/5 48/30/5
f  48/30/5 56/29/5 49/31/5 41/32/5
f  56/35/8 51/34/8 50/33/8 49/36/8
f  55/38/9 52/37/9 51/34/9 56/35/9
f  54/40/10 53/39/10 52/37/10 55/38/10
f  61/43/7 62/42/7 58/41/7 57/44/7
f  63/47/20 64/46/7 60/45/21 59/48/20
f  59/48/20 65/50/7 66/49/22 63/47/20
f  67/52/23 68/51/23 66/49/22 65/50/7
f  68/51/23 67/52/23 58/41/7 62/42/7
f  70/55/15 69/54/15 57/53/15 58/56/15
f  72/59/16 71/58/16 59/57/16 60/60/16
f  57/63/4 69/62/4 73/61/4 61/64/4
f  74/65/6 72/59/6 60/60/6 64/66/6
f  61/69/17 73/68/17 75/67/17 62/70/17
f  63/72/18 76/71/18 74/65/18 64/66/18
f  71/75/2 77/74/2 65/73/2 59/76/2
f  78/79/9 76/78/9 63/77/9 66/80/9
f  65/73/2 77/74/2 79/81/2 67/82/2
f  79/81/2 70/55/2 58/56/2 67/82/2
f  80/85/19 78/84/19 66/83/19 68/86/19
f  62/87/9 75/67/9 80/85/9 68/86/9
