# 
# Wavefront OBJ file
# Converted by the DEEP Exploration Deep Exploration 5 5.0.2.1477 Release
# Right Hemisphere, LTD
# http://www.righthemisphere.com/
# 
mtllib tank_user_body_04.mtl
# object tank_user_body_04
g tank_user_body_04
v 1.30000 0.40000 1.90000
v 1.30000 0.20000 -1.10000
v 1.30000 -0.00000 -0.89933
v 1.30000 0.00000 1.50000
v 1.30000 0.80000 1.90000
v 1.30000 0.60000 -1.10000
v 1.30000 0.80000 -0.89933
v 1.30000 1.20000 1.50000
v 1.00000 0.69500 -0.00000
v 0.50000 0.69500 -0.86603
v 0.50000 0.69500 0.86603
v 1.00000 1.50000 -0.00000
v 0.50000 1.50000 -0.86603
v 0.50000 1.50000 0.86603
v 0.00000 0.40000 1.90000
v 0.00000 0.00000 1.50000
v 0.00000 -0.00000 -0.89933
v 0.00000 0.20000 -1.10000
v 0.00000 0.80000 1.90000
v 0.00000 0.60000 -1.10000
v 0.00000 1.20000 1.50000
v 0.00000 0.80000 -0.89933
v 0.00000 0.69500 -0.86603
v 0.00000 0.69500 0.86603
v 0.00000 1.50000 -0.86603
v 0.00000 1.50000 0.86603
v -1.30000 0.40000 1.90000
v -1.30000 0.20000 -1.10000
v -1.30000 -0.00000 -0.89933
v -1.30000 0.00000 1.50000
v -1.30000 0.80000 1.90000
v -1.30000 0.60000 -1.10000
v -1.30000 0.80000 -0.89933
v -1.30000 1.20000 1.50000
v -1.00000 0.69500 -0.00000
v -0.50000 0.69500 -0.86603
v -0.50000 0.69500 0.86603
v -1.00000 1.50000 -0.00000
v -0.50000 1.50000 -0.86603
v -0.50000 1.50000 0.86603
# 40 verticies
vt 0.58125 0.65143
vt 0.58125 0.72000
vt 0.54362 0.75429
vt 0.54362 0.61714
vt 0.09375 0.82286
vt 0.09375 0.61714
vt 0.01875 0.75429
vt 0.01875 0.68571
vt 0.90200 0.37600
vt 0.90200 0.50400
vt 0.74000 0.50400
vt 0.74000 0.37600
vt 0.57800 0.50400
vt 0.57800 0.37600
vt 0.26250 0.01875
vt 0.01750 0.01875
vt 0.01750 0.09375
vt 0.26250 0.09375
vt 0.01750 0.54362
vt 0.26250 0.54362
vt 0.01750 0.58125
vt 0.26250 0.58125
vt 0.82250 0.58667
vt 0.57750 0.58667
vt 0.57750 0.53333
vt 0.82250 0.53333
vt 0.86250 0.61333
vt 0.61750 0.61333
vt 0.61750 0.66667
vt 0.86250 0.66667
vt 0.54250 0.09375
vt 0.29750 0.09375
vt 0.29750 0.01875
vt 0.54250 0.01875
vt 0.54250 0.54362
vt 0.29750 0.54362
vt 0.54250 0.58125
vt 0.29750 0.58125
vt 0.86500 0.01600
vt 0.77500 0.01600
vt 0.77500 0.14400
vt 0.86500 0.14400
vt 0.98500 0.14400
vt 0.89500 0.14400
vt 0.89500 0.01600
vt 0.98500 0.01600
vt 0.66000 0.01800
vt 0.74333 0.18000
vt 0.66000 0.34200
vt 0.57667 0.34200
vt 0.57667 0.01800
vt 0.89500 0.14399
# 52 texture verticies
vn 1.00000 0.00000 0.00000
vn 0.86603 -0.00000 -0.50000
vn 0.86603 0.00000 0.50000
vn 0.00000 -0.70711 0.70711
vn 0.00000 -1.00000 0.00000
vn 0.00000 -0.70828 -0.70593
vn 0.00000 0.00000 1.00000
vn 0.00000 -0.00000 -1.00000
vn 0.00000 0.70711 0.70711
vn 0.00000 0.98639 -0.16444
vn 0.00000 0.70828 -0.70593
vn 0.00000 1.00000 -0.00000
vn -1.00000 0.00000 0.00000
vn -0.86603 -0.00000 -0.50000
vn -0.86603 0.00000 0.50000
# 15 normals
usemtl tank_user_body_04
f  2/1/1 6/2/1 7/3/1 3/4/1
f  3/4/1 7/3/1 8/5/1 4/6/1
f  4/6/1 8/5/1 5/7/1 1/8/1
f  10/9/2 13/10/2 12/11/2 9/12/2
f  9/12/3 12/11/3 14/13/3 11/14/3
f  1/15/4 15/16/4 16/17/4 4/18/4
f  4/18/5 16/17/5 17/19/5 3/20/5
f  3/20/6 17/19/6 18/21/6 2/22/6
f  5/23/7 19/24/7 15/25/7 1/26/7
f  2/27/8 18/28/8 20/29/8 6/30/8
f  8/31/9 21/32/9 19/33/9 5/34/9
f  7/35/10 22/36/10 21/32/10 8/31/10
f  6/37/11 20/38/11 22/36/11 7/35/11
f  10/39/8 23/40/8 25/41/8 13/42/8
f  14/43/7 26/44/7 24/45/7 11/46/7
f  14/47/12 12/48/12 13/49/12 25/50/12 26/51/12
f  33/3/13 32/2/13 28/1/13 29/4/13
f  34/5/13 33/3/13 29/4/13 30/6/13
f  31/7/13 34/5/13 30/6/13 27/8/13
f  38/11/14 39/10/14 36/9/14 35/12/14
f  40/13/15 38/11/15 35/12/15 37/14/15
f  16/17/4 15/16/4 27/15/4 30/18/4
f  17/19/5 16/17/5 30/18/5 29/20/5
f  18/21/6 17/19/6 29/20/6 28/22/6
f  15/25/7 19/24/7 31/23/7 27/26/7
f  20/29/8 18/28/8 28/27/8 32/30/8
f  19/33/9 21/32/9 34/31/9 31/34/9
f  21/32/10 22/36/10 33/35/10 34/31/10
f  22/36/11 20/38/11 32/37/11 33/35/11
f  25/41/8 23/40/8 36/39/8 39/42/8
f  24/45/7 26/52/7 40/43/7 37/46/7
f  25/50/12 39/49/12 38/48/12 40/47/12 26/51/12
