# 
# Wavefront OBJ file
# Converted by the DEEP Exploration Deep Exploration 5 5.0.2.1477 Release
# Right Hemisphere, LTD
# http://www.righthemisphere.com/
# 
mtllib tank_enemy_03_top.mtl
# object tank_enemy_03_top
g tank_enemy_03_top
v 1.63110 0.00073 0.58577
v 1.37810 0.34573 -0.60877
v 0.85172 0.34573 -1.33327
v 0.00002 0.34573 -1.61000
v -0.85168 0.34573 -1.33327
v -1.37806 0.34573 -0.60877
v -1.63106 0.00073 0.58577
v 1.63110 1.31288 0.58577
v 1.37810 1.19788 -0.60877
v 0.85172 1.19788 -1.33327
v 0.00002 1.19788 -1.61000
v -0.85168 1.19788 -1.33327
v -1.37806 1.19788 -0.60877
v -1.63106 1.31288 0.58577
v 0.60627 0.00073 1.01522
v -0.60623 0.00073 1.01522
v 0.60627 1.31288 1.01522
v -0.60623 1.31288 1.01522
v 1.37810 0.34573 -0.34500
v 1.37810 1.19788 -0.34500
v -1.37806 0.34573 -0.34500
v -1.37806 1.19788 -0.34500
v 1.37810 1.31288 -0.00000
v 1.37810 0.00073 -0.00000
v -1.37806 0.00073 -0.00000
v -1.37806 1.31288 -0.00000
v 0.73442 0.20000 1.07879
v 1.58129 0.20000 0.71931
v 1.50040 0.20000 0.52877
v 0.65354 0.20000 0.88824
v 0.73442 1.12000 1.07879
v 1.58129 1.12000 0.71931
v 1.50040 1.12000 0.52877
v 0.65354 1.12000 0.88824
v -0.45998 0.20000 1.13850
v 0.46002 0.20000 1.13850
v 0.46002 0.20000 0.93150
v -0.45998 0.20000 0.93150
v -0.45998 1.12000 1.13850
v 0.46002 1.12000 1.13850
v 0.46002 1.12000 0.93150
v -0.45998 1.12000 0.93150
v -0.73438 0.20000 1.07879
v -1.58124 0.20000 0.71931
v -1.50036 0.20000 0.52877
v -0.65350 0.20000 0.88824
v -0.73438 1.12000 1.07879
v -1.58124 1.12000 0.71931
v -1.50036 1.12000 0.52877
v -0.65350 1.12000 0.88824
v 0.98362 0.20000 1.66352
v 1.83048 0.20000 1.30405
v 1.50795 0.25750 0.69137
v 0.76694 0.25750 1.00591
v 0.98362 1.12000 1.66352
v 1.83048 1.12000 1.30405
v 1.50795 1.06250 0.69137
v 0.76694 1.06250 1.00591
v 0.87128 0.20000 1.39888
v 1.71815 0.20000 1.03941
v 1.71815 1.12000 1.03941
v 0.87128 1.12000 1.39888
v 1.79354 0.14250 1.06987
v 0.84082 0.14250 1.47427
v 1.79354 1.17750 1.06987
v 0.84082 1.17750 1.47427
v -0.45998 0.20000 1.78250
v 0.46002 0.20000 1.78250
v 0.40252 0.25750 1.09250
v -0.40248 0.25750 1.09250
v -0.45998 1.12000 1.78250
v 0.46002 1.12000 1.78250
v 0.40252 1.06250 1.09250
v -0.40248 1.06250 1.09250
v -0.45998 0.20000 1.49500
v 0.46002 0.20000 1.49500
v 0.46002 1.12000 1.49500
v -0.45998 1.12000 1.49500
v 0.51752 0.14250 1.55250
v -0.51748 0.14250 1.55250
v 0.51752 1.17750 1.55250
v -0.51748 1.17750 1.55250
v -0.98358 0.20000 1.66352
v -1.83044 0.20000 1.30405
v -1.50791 0.25750 0.69137
v -0.76690 0.25750 1.00591
v -0.98358 1.12000 1.66352
v -1.83044 1.12000 1.30405
v -1.50791 1.06250 0.69137
v -0.76690 1.06250 1.00591
v -0.87124 0.20000 1.39888
v -1.71810 0.20000 1.03941
v -1.71810 1.12000 1.03941
v -0.87124 1.12000 1.39888
v -1.79350 0.14250 1.06987
v -0.84078 0.14250 1.47427
v -1.79350 1.17750 1.06987
v -0.84078 1.17750 1.47427
# 98 verticies
vt 0.19097 0.68449
vt 0.12543 0.68449
vt 0.12543 0.62361
vt 0.19097 0.62361
vt 0.50000 0.65278
vt 0.56667 0.65278
vt 0.56667 0.59722
vt 0.50000 0.59722
vt 0.43333 0.65278
vt 0.43333 0.59722
vt 0.33376 0.68449
vt 0.39931 0.68449
vt 0.39931 0.62361
vt 0.33376 0.62361
vt 0.88840 0.40104
vt 0.88840 0.30729
vt 0.98148 0.30729
vt 0.98148 0.40104
vt 0.68519 0.30729
vt 0.77827 0.30729
vt 0.77827 0.40104
vt 0.68519 0.40104
vt 0.10157 0.68449
vt 0.10157 0.62361
vt 0.30990 0.62361
vt 0.30990 0.68449
vt 0.70816 0.56708
vt 0.75597 0.62622
vt 0.83333 0.64881
vt 0.91069 0.62622
vt 0.95850 0.56708
vt 0.95850 0.54555
vt 0.70816 0.54555
vt 0.62517 0.48375
vt 0.57736 0.54289
vt 0.50000 0.56548
vt 0.42264 0.54289
vt 0.37483 0.48375
vt 0.37483 0.46222
vt 0.62517 0.46222
vt 0.07035 0.69271
vt 0.07035 0.59896
vt 0.01736 0.59896
vt 0.01736 0.69271
vt 0.27869 0.59896
vt 0.27869 0.69271
vt 0.22569 0.69271
vt 0.22569 0.59896
vt 0.77827 0.43452
vt 0.68519 0.46958
vt 0.70816 0.51739
vt 0.95850 0.51739
vt 0.98148 0.46958
vt 0.88840 0.43452
vt 0.55506 0.35119
vt 0.64815 0.38625
vt 0.62517 0.43406
vt 0.37483 0.43406
vt 0.35185 0.38625
vt 0.44494 0.35119
vt 0.72396 0.82480
vt 0.80954 0.86111
vt 0.81771 0.84186
vt 0.73213 0.80556
vt 0.69271 0.80556
vt 0.69271 0.86111
vt 0.60713 0.86111
vt 0.60713 0.80556
vt 0.68454 0.80556
vt 0.68454 0.86111
vt 0.59896 0.86111
vt 0.59896 0.80556
vt 0.69271 0.92520
vt 0.68454 0.94444
vt 0.59896 0.90814
vt 0.60713 0.88889
vt 0.01562 0.94792
vt 0.10938 0.94792
vt 0.10938 0.92708
vt 0.01562 0.92708
vt 0.23438 0.93056
vt 0.23438 0.98611
vt 0.14063 0.98611
vt 0.14063 0.93056
vt 0.61458 0.59722
vt 0.61458 0.65278
vt 0.59375 0.65278
vt 0.59375 0.59722
vt 0.72396 0.94444
vt 0.81771 0.94444
vt 0.81771 0.88889
vt 0.72396 0.88889
vt 0.30208 0.52778
vt 0.32292 0.52778
vt 0.32292 0.47222
vt 0.30208 0.47222
vt 0.94271 0.88542
vt 0.94271 0.90625
vt 0.84896 0.90625
vt 0.84896 0.88542
vt 0.22396 0.88353
vt 0.23213 0.90278
vt 0.31771 0.86647
vt 0.30954 0.84722
vt 0.26389 0.98611
vt 0.30020 0.98611
vt 0.30020 0.93056
vt 0.26389 0.93056
vt 0.31944 0.98611
vt 0.31944 0.93056
vt 0.28314 0.98611
vt 0.28314 0.93056
vt 0.94271 0.82480
vt 0.85713 0.86111
vt 0.84896 0.84186
vt 0.93454 0.80556
vt 0.96420 0.68750
vt 0.96420 0.77083
vt 0.93056 0.77083
vt 0.93056 0.68750
vt 0.53738 0.89063
vt 0.56771 0.89063
vt 0.56771 0.81771
vt 0.53738 0.81771
vt 0.76614 0.74248
vt 0.69149 0.70781
vt 0.68229 0.74571
vt 0.74761 0.77604
vt 0.53415 0.89583
vt 0.53415 0.81250
vt 0.49948 0.81250
vt 0.49948 0.89583
vt 0.43229 0.74571
vt 0.44149 0.70781
vt 0.51614 0.74248
vt 0.49761 0.77604
vt 0.77279 0.73954
vt 0.68880 0.70054
vt 0.70139 0.68229
vt 0.77604 0.71696
vt 0.53121 0.90104
vt 0.53121 0.80729
vt 0.98611 0.68229
vt 0.98611 0.77604
vt 0.49221 0.80729
vt 0.49221 0.90104
vt 0.47396 0.89583
vt 0.47396 0.81250
vt 0.43880 0.70054
vt 0.52279 0.73954
vt 0.52604 0.71696
vt 0.45139 0.68229
vt 0.35386 0.72917
vt 0.35386 0.81250
vt 0.26563 0.81250
vt 0.26563 0.72917
vt 0.34722 0.98611
vt 0.40278 0.98611
vt 0.40278 0.93056
vt 0.34722 0.93056
vt 0.22917 0.74537
vt 0.14583 0.74537
vt 0.15104 0.77778
vt 0.22396 0.77778
vt 0.63542 0.65278
vt 0.63542 0.59722
vt 0.65625 0.60069
vt 0.65625 0.64931
vt 0.44444 0.81771
vt 0.41204 0.81250
vt 0.41204 0.89583
vt 0.44444 0.89063
vt 0.02604 0.77778
vt 0.02083 0.74537
vt 0.10417 0.74537
vt 0.09896 0.77778
vt 0.23438 0.74074
vt 0.14063 0.74074
vt 0.14583 0.72222
vt 0.22917 0.72222
vt 0.35938 0.81771
vt 0.35938 0.72396
vt 0.40741 0.80729
vt 0.40741 0.90104
vt 0.38889 0.89583
vt 0.38889 0.81250
vt 0.01562 0.74074
vt 0.10938 0.74074
vt 0.10417 0.72222
vt 0.02083 0.72222
vt 0.01389 0.89583
vt 0.04589 0.89583
vt 0.04589 0.81250
vt 0.01389 0.81250
vt 0.19271 0.81771
vt 0.19271 0.89063
vt 0.16238 0.89063
vt 0.16238 0.81771
vt 0.90104 0.74571
vt 0.89184 0.70781
vt 0.81719 0.74248
vt 0.83572 0.77604
vt 0.15915 0.81250
vt 0.15915 0.89583
vt 0.12448 0.89583
vt 0.12448 0.81250
vt 0.56719 0.74248
vt 0.64184 0.70781
vt 0.65104 0.74571
vt 0.58572 0.77604
vt 0.89453 0.70054
vt 0.81055 0.73954
vt 0.88194 0.68229
vt 0.80729 0.71696
vt 0.06673 0.80729
vt 0.06673 0.90104
vt 0.06944 0.89583
vt 0.06944 0.81250
vt 0.11721 0.90104
vt 0.11721 0.80729
vt 0.11721 0.80794
vt 0.09896 0.89583
vt 0.09896 0.81250
vt 0.56055 0.73954
vt 0.64453 0.70054
vt 0.55729 0.71696
vt 0.63194 0.68229
# 227 texture verticies
vn 0.80902 -0.00000 -0.58779
vn 0.30902 -0.00000 -0.95106
vn 0.30902 -0.00000 -0.95106
vn 0.30902 -0.00000 -0.95106
vn -0.30902 -0.00000 -0.95106
vn -0.30902 -0.00000 -0.95106
vn -0.30902 -0.00000 -0.95106
vn -0.80902 -0.00000 -0.58779
vn 0.26223 0.00000 0.96501
vn 0.13111 0.00000 0.99137
vn 0.38649 0.00000 0.92230
vn -0.38649 0.00000 0.92230
vn -0.19711 0.00000 0.98038
vn 1.00000 0.00000 0.00000
vn 1.00000 -0.00000 -0.00000
vn -1.00000 0.00000 0.00000
vn 0.00000 -1.00000 0.00000
vn 0.00000 1.00000 -0.00000
vn -0.00000 0.99582 -0.09131
vn 0.00000 0.98709 -0.16018
vn 0.96306 -0.00000 -0.26929
vn 0.99089 -0.00000 -0.13465
vn 0.91803 -0.00000 -0.39651
vn -0.96306 -0.00000 -0.26929
vn -0.99089 -0.00000 -0.13465
vn -0.91803 -0.00000 -0.39651
vn 0.00000 -0.70711 -0.70711
vn 0.00000 -0.70711 -0.70711
vn 0.00000 -0.70711 -0.70711
vn -0.00000 0.99176 -0.12808
vn -0.00000 0.99430 -0.10663
vn 0.39073 0.00000 0.92050
vn 0.92050 -0.00000 -0.39073
vn -0.39073 -0.00000 -0.92050
vn -0.92050 0.00000 0.39073
vn 0.00000 0.00000 1.00000
vn 0.00000 -0.00000 -1.00000
vn -0.39073 0.00000 0.92050
vn -0.92050 -0.00000 -0.39073
vn 0.39073 -0.00000 -0.92050
vn 0.92050 0.00000 0.39073
vn 0.39073 0.00000 0.92050
vn -0.39073 -0.00000 -0.92050
vn -0.05526 -0.98995 -0.13018
vn -0.05526 -0.98995 -0.13018
vn -0.05526 -0.98995 -0.13018
vn 0.85600 -0.00000 -0.51698
vn -0.96651 0.00000 0.25662
vn -0.05526 0.98995 -0.13018
vn -0.05526 0.98995 -0.13018
vn -0.05526 0.98995 -0.13018
vn -0.27629 -0.70711 -0.65089
vn -0.27629 -0.70711 -0.65089
vn -0.27629 -0.70711 -0.65089
vn 0.09477 -0.97014 0.22325
vn 0.09477 -0.97014 0.22325
vn 0.09477 -0.97014 0.22325
vn 0.37461 -0.00000 -0.92718
vn 0.98779 -0.00000 -0.15581
vn -0.92718 -0.00000 -0.37461
vn -0.79825 0.00000 0.60232
vn -0.27629 0.70711 -0.65089
vn -0.27629 0.70711 -0.65089
vn -0.27629 0.70711 -0.65089
vn 0.09477 0.97014 0.22325
vn 0.09477 0.97014 0.22325
vn 0.09477 0.97014 0.22325
vn 0.00000 -0.98995 -0.14142
vn 0.98995 -0.00000 -0.14142
vn -0.98995 -0.00000 -0.14142
vn 0.00000 0.98995 -0.14142
vn 0.00000 -0.70711 -0.70711
vn 0.00000 -0.97014 0.24254
vn 0.70711 -0.00000 -0.70711
vn 0.97014 0.00000 0.24254
vn -0.70711 -0.00000 -0.70711
vn -0.97014 0.00000 0.24254
vn 0.00000 0.70711 -0.70711
vn 0.00000 0.97014 0.24254
vn -0.39073 0.00000 0.92050
vn 0.39073 -0.00000 -0.92050
vn 0.05526 -0.98995 -0.13018
vn 0.05526 -0.98995 -0.13018
vn 0.05526 -0.98995 -0.13018
vn -0.85600 -0.00000 -0.51698
vn 0.96651 0.00000 0.25662
vn 0.05526 0.98995 -0.13018
vn 0.05526 0.98995 -0.13018
vn 0.05526 0.98995 -0.13018
vn 0.27629 -0.70711 -0.65089
vn 0.27629 -0.70711 -0.65089
vn 0.27629 -0.70711 -0.65089
vn -0.09477 -0.97014 0.22325
vn -0.09477 -0.97014 0.22325
vn -0.09477 -0.97014 0.22325
vn -0.37461 -0.00000 -0.92718
vn -0.98779 -0.00000 -0.15581
vn 0.92718 -0.00000 -0.37461
vn 0.79825 0.00000 0.60232
vn 0.27629 0.70711 -0.65089
vn 0.27629 0.70711 -0.65089
vn 0.27629 0.70711 -0.65089
vn -0.09477 0.97014 0.22325
vn -0.09477 0.97014 0.22325
vn -0.09477 0.97014 0.22325
# 105 normals
usemtl tank_enemy_03_top
f  10/1/1 9/2/1 2/3/1 3/4/1
f  11/5/2 10/6/3 3/7/2 4/8/4
f  12/9/5 11/5/6 4/8/5 5/10/7
f  13/11/8 12/12/8 5/13/8 6/14/8
f  17/15/9 15/16/10 1/17/11 8/18/11
f  7/19/12 16/20/13 18/21/13 14/22/12
f  18/21/13 16/20/13 15/16/10 17/15/9
f  9/2/14 20/23/15 19/24/15 2/3/14
f  6/14/16 21/25/16 22/26/16 13/11/16
f  6/27/17 5/28/17 4/29/17 3/30/17 2/31/17 19/32/17 21/33/17
f  9/34/18 10/35/18 11/36/18 12/37/18 13/38/18 22/39/19 20/40/20
f  20/23/15 23/41/21 24/42/22 19/24/15
f  1/43/23 24/42/22 23/41/21 8/44/23
f  21/25/16 25/45/24 26/46/25 22/26/16
f  14/47/26 26/46/25 25/45/24 7/48/26
f  16/49/17 7/50/17 25/51/17 24/52/17 1/53/17 15/54/17
f  25/51/27 21/33/28 19/32/27 24/52/29
f  17/55/18 8/56/18 23/57/30 26/58/31 14/59/18 18/60/18
f  23/57/30 20/40/20 22/39/19 26/58/31
f  30/61/17 29/62/17 28/63/17 27/64/17
f  28/65/32 32/66/32 31/67/32 27/68/32
f  29/69/33 33/70/33 32/66/33 28/65/33
f  34/71/34 33/70/34 29/69/34 30/72/34
f  31/67/35 34/71/35 30/72/35 27/68/35
f  32/73/18 33/74/18 34/75/18 31/76/18
f  38/77/17 37/78/17 36/79/17 35/80/17
f  36/81/36 40/82/36 39/83/36 35/84/36
f  37/85/14 41/86/14 40/87/14 36/88/14
f  42/89/37 41/90/37 37/91/37 38/92/37
f  39/93/16 42/94/16 38/95/16 35/96/16
f  40/97/18 41/98/18 42/99/18 39/100/18
f  44/101/17 45/102/17 46/103/17 43/104/17
f  47/105/38 48/106/38 44/107/38 43/108/38
f  48/106/39 49/109/39 45/110/39 44/107/39
f  45/110/40 49/109/40 50/111/40 46/112/40
f  46/112/41 50/111/41 47/105/41 43/108/41
f  50/113/18 49/114/18 48/115/18 47/116/18
f  52/117/42 56/118/42 55/119/42 51/120/42
f  58/121/43 57/122/43 53/123/43 54/124/43
f  60/125/44 59/126/45 54/127/44 53/128/46
f  61/129/47 60/130/47 53/123/47 57/122/47
f  54/124/48 59/131/48 62/132/48 58/121/48
f  58/133/49 62/134/50 61/135/49 57/136/51
f  60/125/52 63/137/53 64/138/52 59/126/54
f  51/139/55 64/138/56 63/137/55 52/140/57
f  61/129/58 65/141/58 63/142/58 60/130/58
f  52/117/59 63/143/59 65/144/59 56/118/59
f  59/131/60 64/145/60 66/146/60 62/132/60
f  55/147/61 66/146/61 64/145/61 51/148/61
f  62/134/62 66/149/63 65/150/62 61/135/64
f  56/151/65 65/150/66 66/149/65 55/152/67
f  68/153/36 72/154/36 71/155/36 67/156/36
f  74/157/37 73/158/37 69/159/37 70/160/37
f  76/161/68 75/162/68 70/163/68 69/164/68
f  77/165/69 76/166/69 69/167/69 73/168/69
f  70/169/70 75/170/70 78/171/70 74/172/70
f  74/173/71 78/174/71 77/175/71 73/176/71
f  76/161/72 79/177/72 80/178/72 75/162/72
f  67/179/73 80/178/73 79/177/73 68/180/73
f  77/154/74 81/181/74 79/182/74 76/153/74
f  68/153/75 79/182/75 81/181/75 72/154/75
f  75/170/76 80/183/76 82/184/76 78/171/76
f  71/185/77 82/184/77 80/183/77 67/186/77
f  78/174/78 82/187/78 81/188/78 77/175/78
f  72/189/79 81/188/79 82/187/79 71/190/79
f  87/191/80 88/192/80 84/193/80 83/194/80
f  85/195/81 89/196/81 90/197/81 86/198/81
f  86/199/82 91/200/83 92/201/82 85/202/84
f  85/195/85 92/203/85 93/204/85 89/196/85
f  94/205/86 91/206/86 86/198/86 90/197/86
f  93/207/87 94/208/88 90/209/87 89/210/89
f  96/211/90 95/212/91 92/201/90 91/200/92
f  95/212/93 96/211/94 83/213/93 84/214/95
f  95/215/96 97/216/96 93/217/96 92/218/96
f  97/216/97 95/215/97 84/193/97 88/192/97
f  98/219/98 96/220/98 91/206/98 94/205/98
f  96/221/99 98/219/99 87/222/99 83/223/99
f  97/224/100 98/225/101 94/208/100 93/207/102
f  98/225/103 97/224/104 88/226/103 87/227/105
