# 
# Wavefront OBJ file
# Converted by the DEEP Exploration Deep Exploration 5 5.0.2.1477 Release
# Right Hemisphere, LTD
# http://www.righthemisphere.com/
# 
mtllib tank_enemy_04_top.mtl
# object tank_enemy_04_top
g tank_enemy_04_top
v -0.29557 0.05413 -1.10450
v -0.45113 0.05413 -1.26006
v -1.26006 0.05413 -0.45113
v -1.10450 0.05413 -0.29557
v -0.29557 1.02213 -1.10450
v -0.45113 1.02213 -1.26006
v -1.26006 1.02213 -0.45113
v -1.10450 1.02213 -0.29557
v 1.10450 0.05413 0.29557
v 1.26006 0.05413 0.45113
v 0.45113 0.05413 1.26006
v 0.29557 0.05413 1.10450
v 1.10450 1.02213 0.29557
v 1.26006 1.02213 0.45113
v 0.45113 1.02213 1.26006
v 0.29557 1.02213 1.10450
v -1.10450 0.05413 0.29557
v -1.26006 0.05413 0.45113
v -0.45113 0.05413 1.26006
v -0.29557 0.05413 1.10450
v -1.10450 1.02213 0.29557
v -1.26006 1.02213 0.45113
v -0.45113 1.02213 1.26006
v -0.29557 1.02213 1.10450
v 0.29557 0.05413 -1.10450
v 0.45113 0.05413 -1.26006
v 1.26006 0.05413 -0.45113
v 1.10450 0.05413 -0.29557
v 0.29557 1.02213 -1.10450
v 0.45113 1.02213 -1.26006
v 1.26006 1.02213 -0.45113
v 1.10450 1.02213 -0.29557
v 0.24890 0.00014 1.24451
v 1.24451 0.00014 0.24890
v 1.24451 0.00014 -0.24890
v 0.24890 0.00014 -1.24451
v -0.24890 0.00014 -1.24451
v -1.24451 0.00014 -0.24890
v -1.24451 0.00014 0.24890
v -0.24890 0.00014 1.24451
v 0.19912 1.29015 0.99561
v 0.99561 1.29015 0.19912
v 0.99561 1.29015 -0.19912
v 0.19912 1.29015 -0.99561
v -0.19912 1.29015 -0.99561
v -0.99561 1.29015 -0.19912
v -0.99561 1.29015 0.19912
v -0.19912 1.29015 0.99561
v -0.24890 1.06613 1.24451
v 0.24890 1.06613 1.24451
v 1.24451 1.06613 0.24890
v 1.24451 1.06613 -0.24890
v 0.24890 1.06613 -1.24451
v -0.24890 1.06613 -1.24451
v -1.24451 1.06613 -0.24890
v -1.24451 1.06613 0.24890
v -1.15726 0.18437 -1.65755
v -1.65755 0.18437 -1.15726
v -1.08959 0.09593 -0.46422
v -0.46422 0.09593 -1.08959
v -1.15726 0.89189 -1.65755
v -1.65755 0.89189 -1.15726
v -1.08959 0.98033 -0.46422
v -0.46422 0.98033 -1.08959
v 1.65755 0.18437 1.15726
v 1.15726 0.18437 1.65755
v 0.46422 0.09593 1.08959
v 1.08959 0.09593 0.46422
v 1.65755 0.89189 1.15726
v 1.15726 0.89189 1.65755
v 0.46422 0.98033 1.08959
v 1.08959 0.98033 0.46422
v -1.65755 0.18437 1.15726
v -1.15726 0.18437 1.65755
v -0.46422 0.09593 1.08959
v -1.08959 0.09593 0.46422
v -1.65755 0.89189 1.15726
v -1.15726 0.89189 1.65755
v -0.46422 0.98033 1.08959
v -1.08959 0.98033 0.46422
v 1.15726 0.18437 -1.65755
v 1.65755 0.18437 -1.15726
v 1.08959 0.09593 -0.46422
v 0.46422 0.09593 -1.08959
v 1.15726 0.89189 -1.65755
v 1.65755 0.89189 -1.15726
v 1.08959 0.98033 -0.46422
v 0.46422 0.98033 -1.08959
# 88 verticies
vt 0.46281 0.56944
vt 0.45833 0.57392
vt 0.48163 0.59722
vt 0.48611 0.59274
vt 0.14830 0.79630
vt 0.14830 0.87037
vt 0.15278 0.87037
vt 0.15278 0.79630
vt 0.12500 0.79630
vt 0.12500 0.87037
vt 0.40726 0.87037
vt 0.40278 0.87037
vt 0.40278 0.79630
vt 0.40726 0.79630
vt 0.43056 0.87037
vt 0.43056 0.79630
vt 0.81496 0.59722
vt 0.79167 0.57392
vt 0.79615 0.56944
vt 0.81944 0.59274
vt 0.37500 0.42608
vt 0.35170 0.40278
vt 0.34722 0.40726
vt 0.37052 0.43056
vt 0.03719 0.87037
vt 0.04167 0.87037
vt 0.04167 0.79630
vt 0.03719 0.79630
vt 0.20833 0.87037
vt 0.18504 0.87037
vt 0.18504 0.79630
vt 0.20833 0.79630
vt 0.18056 0.87037
vt 0.18056 0.79630
vt 0.01389 0.79630
vt 0.01389 0.87037
vt 0.23611 0.85170
vt 0.24059 0.84722
vt 0.26389 0.87052
vt 0.25941 0.87500
vt 0.48611 0.85170
vt 0.48163 0.84722
vt 0.45833 0.87052
vt 0.46281 0.87500
vt 0.90278 0.74074
vt 0.90278 0.81481
vt 0.90726 0.81481
vt 0.90726 0.74074
vt 0.98163 0.74074
vt 0.98163 0.81481
vt 0.95833 0.81481
vt 0.95833 0.74074
vt 0.98611 0.81481
vt 0.98611 0.74074
vt 0.93056 0.81481
vt 0.93056 0.74074
vt 0.29167 0.87052
vt 0.31496 0.84722
vt 0.31944 0.85170
vt 0.29615 0.87500
vt 0.68504 0.81944
vt 0.70833 0.79615
vt 0.70385 0.79167
vt 0.68056 0.81496
vt 0.34722 0.87037
vt 0.35170 0.87037
vt 0.35170 0.79630
vt 0.34722 0.79630
vt 0.37500 0.87037
vt 0.37500 0.79630
vt 0.09722 0.79630
vt 0.09722 0.87037
vt 0.09274 0.87037
vt 0.09274 0.79630
vt 0.06944 0.87037
vt 0.06944 0.79630
vt 0.75941 0.79167
vt 0.76389 0.79615
vt 0.74059 0.81944
vt 0.73611 0.81496
vt 0.90417 0.46528
vt 0.85417 0.51528
vt 0.85417 0.54028
vt 0.90417 0.59028
vt 0.92917 0.59028
vt 0.97917 0.54028
vt 0.97917 0.51528
vt 0.92917 0.46528
vt 0.63333 0.51778
vt 0.63333 0.53778
vt 0.59333 0.57778
vt 0.57333 0.57778
vt 0.53333 0.53778
vt 0.53333 0.51778
vt 0.57333 0.47778
vt 0.59333 0.47778
vt 0.57083 0.46528
vt 0.59583 0.46528
vt 0.42917 0.46296
vt 0.42917 0.53704
vt 0.40417 0.53704
vt 0.40417 0.46296
vt 0.64583 0.51528
vt 0.47917 0.46296
vt 0.47917 0.53704
vt 0.64583 0.54028
vt 0.87500 0.74074
vt 0.87500 0.81481
vt 0.84722 0.81481
vt 0.84722 0.74074
vt 0.59583 0.59028
vt 0.76250 0.46296
vt 0.76250 0.53704
vt 0.81250 0.53704
vt 0.81250 0.46296
vt 0.57083 0.59028
vt 0.73750 0.46296
vt 0.73750 0.53704
vt 0.52083 0.54028
vt 0.68750 0.46296
vt 0.68750 0.53704
vt 0.52083 0.51528
vt 0.79167 0.74074
vt 0.79167 0.81481
vt 0.81944 0.81481
vt 0.81944 0.74074
vt 0.35417 0.53704
vt 0.35417 0.46296
vt 0.09259 0.72400
vt 0.05377 0.68519
vt 0.01852 0.72820
vt 0.04957 0.75926
vt 0.90741 0.68333
vt 0.90741 0.70556
vt 0.93846 0.70556
vt 0.93846 0.68333
vt 0.27600 0.68056
vt 0.27600 0.70833
vt 0.24074 0.70556
vt 0.24074 0.68333
vt 0.31481 0.70833
vt 0.31481 0.68056
vt 0.98148 0.70833
vt 0.98148 0.68056
vt 0.57407 0.78376
vt 0.60933 0.74074
vt 0.64815 0.77956
vt 0.60513 0.81481
vt 0.50598 0.62963
vt 0.46296 0.66489
vt 0.50178 0.70370
vt 0.53704 0.66068
vt 0.64815 0.70556
vt 0.61709 0.70556
vt 0.61709 0.68333
vt 0.64815 0.68333
vt 0.57407 0.70833
vt 0.57407 0.68056
vt 0.57407 0.62500
vt 0.57407 0.65278
vt 0.61289 0.65278
vt 0.61289 0.62500
vt 0.64815 0.65000
vt 0.64815 0.62778
vt 0.72400 0.70370
vt 0.68519 0.66489
vt 0.72820 0.62963
vt 0.75926 0.66068
vt 0.16489 0.75926
vt 0.20370 0.72044
vt 0.16068 0.68519
vt 0.12963 0.71624
vt 0.93846 0.62778
vt 0.93846 0.65000
vt 0.90741 0.65000
vt 0.90741 0.62778
vt 0.98148 0.62500
vt 0.98148 0.65278
vt 0.72044 0.76389
vt 0.75926 0.76389
vt 0.75926 0.73611
vt 0.72044 0.73611
vt 0.68519 0.76111
vt 0.68519 0.73889
vt 0.82735 0.62963
vt 0.87037 0.66489
vt 0.83155 0.70370
vt 0.79630 0.66068
vt 0.53704 0.78376
vt 0.50178 0.74074
vt 0.46296 0.77956
vt 0.50598 0.81481
vt 0.39487 0.70556
vt 0.42593 0.70556
vt 0.42593 0.68333
vt 0.39487 0.68333
vt 0.42593 0.76111
vt 0.39067 0.76389
vt 0.39067 0.73611
vt 0.42593 0.73889
vt 0.35185 0.76389
vt 0.35185 0.73611
vt 0.35185 0.68056
vt 0.35185 0.70833
vt 0.24074 0.78052
vt 0.27956 0.74074
vt 0.31481 0.78376
vt 0.28376 0.81481
# 208 texture verticies
vn 0.00000 -1.00000 0.00000
vn 0.70711 -0.00000 -0.70711
vn -0.70711 -0.00000 -0.70711
vn -0.70711 0.00000 0.70711
vn 0.70711 0.00000 0.70711
vn 0.00000 1.00000 -0.00000
vn 0.70711 -0.00000 -0.70711
vn -0.70711 0.00000 0.70711
vn -0.70711 -0.00000 -0.70711
vn -0.70711 0.00000 0.70711
vn 0.70711 0.00000 0.70711
vn 0.70711 -0.00000 -0.70711
vn -0.70711 -0.00000 -0.70711
vn 0.70711 0.00000 0.70711
vn -0.26718 0.74223 0.61458
vn -0.26718 0.74223 0.61458
vn 0.17735 0.74888 0.63854
vn 0.35470 0.72913 0.58529
vn 0.00000 0.00000 1.00000
vn 0.58529 0.72913 0.35470
vn 0.63854 0.74888 0.17735
vn 0.70711 0.00000 0.70711
vn 0.61458 0.74223 -0.26718
vn 1.00000 0.00000 0.00000
vn 0.17735 0.74888 -0.63854
vn 0.35470 0.72913 -0.58529
vn -0.35470 0.72913 -0.58529
vn -0.17735 0.74888 -0.63854
vn 0.00000 -0.00000 -1.00000
vn -0.63854 0.74888 -0.17735
vn -0.58529 0.72913 -0.35470
vn -0.58529 0.72913 0.35470
vn -0.63854 0.74888 0.17735
vn -1.00000 0.00000 0.00000
vn -0.70711 0.00000 0.70711
vn -0.06979 -0.99512 -0.06979
vn -0.77345 0.00000 0.63386
vn 0.63386 -0.00000 -0.77345
vn -0.06979 0.99512 -0.06979
vn 0.06979 -0.99512 0.06979
vn -0.63386 0.00000 0.77345
vn 0.77345 -0.00000 -0.63386
vn 0.06979 0.99512 0.06979
vn -0.06979 -0.99512 0.06979
vn 0.63386 0.00000 0.77345
vn -0.77345 -0.00000 -0.63386
vn -0.06979 0.99512 0.06979
vn 0.06979 -0.99512 -0.06979
vn 0.77345 0.00000 0.63386
vn -0.63386 -0.00000 -0.77345
vn 0.06979 0.99512 -0.06979
# 51 normals
usemtl tank_enemy_04_top
f  4/1/1 3/2/1 2/3/1 1/4/1
f  2/5/2 6/6/2 5/7/2 1/8/2
f  3/9/3 7/10/3 6/6/3 2/5/3
f  8/11/4 7/12/4 3/13/4 4/14/4
f  5/15/5 8/11/5 4/14/5 1/16/5
f  6/17/6 7/18/6 8/19/6 5/20/6
f  10/21/1 11/22/1 12/23/1 9/24/1
f  13/25/7 14/26/7 10/27/7 9/28/7
f  14/29/5 15/30/5 11/31/5 10/32/5
f  11/31/8 15/30/8 16/33/8 12/34/8
f  12/35/3 16/36/3 13/25/3 9/28/3
f  16/37/6 15/38/6 14/39/6 13/40/6
f  20/41/1 19/42/1 18/43/1 17/44/1
f  18/45/9 22/46/9 21/47/9 17/48/9
f  19/49/10 23/50/10 22/51/10 18/52/10
f  24/53/11 23/50/11 19/49/11 20/54/11
f  21/47/12 24/55/12 20/56/12 17/48/12
f  22/57/6 23/58/6 24/59/6 21/60/6
f  26/61/1 27/62/1 28/63/1 25/64/1
f  29/65/13 30/66/13 26/67/13 25/68/13
f  30/66/12 31/69/12 27/70/12 26/67/12
f  27/71/14 31/72/14 32/73/14 28/74/14
f  28/74/10 32/73/10 29/75/10 25/76/10
f  32/77/6 31/78/6 30/79/6 29/80/6
f  40/81/1 39/82/1 38/83/1 37/84/1 36/85/1 35/86/1 34/87/1 33/88/1
f  42/89/6 43/90/6 44/91/6 45/92/6 46/93/6 47/94/6 48/95/6 41/96/6
f  48/95/15 49/97/16 50/98/17 41/96/18
f  33/99/19 50/100/19 49/101/19 40/102/19
f  41/96/18 50/98/17 51/103/20 42/89/21
f  34/104/22 51/105/22 50/100/22 33/99/22
f  42/89/21 51/103/20 52/106/23 43/90/23
f  35/107/24 52/108/24 51/109/24 34/110/24
f  52/106/23 53/111/25 44/91/26 43/90/23
f  36/112/12 53/113/12 52/114/12 35/115/12
f  53/111/25 54/116/27 45/92/28 44/91/26
f  37/117/29 54/118/29 53/113/29 36/112/29
f  54/116/27 55/119/30 46/93/31 45/92/28
f  38/120/3 55/121/3 54/118/3 37/117/3
f  55/119/30 56/122/32 47/94/33 46/93/31
f  39/123/34 56/124/34 55/125/34 38/126/34
f  56/122/32 49/97/16 48/95/15 47/94/33
f  40/102/35 49/101/35 56/127/35 39/128/35
f  60/129/36 59/130/36 58/131/36 57/132/36
f  58/133/3 62/134/3 61/135/3 57/136/3
f  59/137/37 63/138/37 62/139/37 58/140/37
f  64/141/5 63/138/5 59/137/5 60/142/5
f  61/135/38 64/143/38 60/144/38 57/136/38
f  62/145/39 63/146/39 64/147/39 61/148/39
f  66/149/40 67/150/40 68/151/40 65/152/40
f  69/153/5 70/154/5 66/155/5 65/156/5
f  70/154/41 71/157/41 67/158/41 66/155/41
f  67/159/3 71/160/3 72/161/3 68/162/3
f  68/162/42 72/161/42 69/163/42 65/164/42
f  72/165/43 71/166/43 70/167/43 69/168/43
f  76/169/44 75/170/44 74/171/44 73/172/44
f  74/173/10 78/174/10 77/175/10 73/176/10
f  75/177/45 79/178/45 78/174/45 74/173/45
f  80/179/12 79/180/12 75/181/12 76/182/12
f  77/183/46 80/179/46 76/182/46 73/184/46
f  78/185/47 79/186/47 80/187/47 77/188/47
f  82/189/48 83/190/48 84/191/48 81/192/48
f  85/193/12 86/194/12 82/195/12 81/196/12
f  86/197/49 87/198/49 83/199/49 82/200/49
f  83/199/10 87/198/10 88/201/10 84/202/10
f  84/203/50 88/204/50 85/193/50 81/196/50
f  88/205/51 87/206/51 86/207/51 85/208/51
