# 
# Wavefront OBJ file
# Converted by the DEEP Exploration Deep Exploration 5 5.0.2.1477 Release
# Right Hemisphere, LTD
# http://www.righthemisphere.com/
# 
mtllib tank_enemy_01_top.mtl
# object tank_enemy_01_top
g tank_enemy_01_top
v -1.00500 -0.00000 0.89000
v 0.99500 -0.00000 0.89000
v 0.79500 -0.00000 -1.01000
v -0.80500 -0.00000 -1.01000
v -0.85500 1.45000 0.69000
v 0.84500 1.45000 0.69000
v 0.64500 1.20000 -0.86000
v -0.65500 1.20000 -0.86000
v -1.15500 -0.00000 0.24000
v 1.14500 -0.00000 0.24000
v 0.99500 1.20000 0.24000
v -1.00500 1.20000 0.24000
v -0.40500 0.10000 0.99000
v 0.39500 0.10000 0.99000
v 0.39500 0.10000 0.74000
v -0.40500 0.10000 0.74000
v -0.40500 0.85000 0.99000
v 0.39500 0.85000 0.99000
v 0.39500 0.85000 0.74000
v -0.40500 0.85000 0.74000
v -0.30500 0.20000 1.74000
v 0.29500 0.20000 1.74000
v 0.29500 0.20000 0.94000
v -0.30500 0.20000 0.94000
v -0.30500 0.75000 1.74000
v 0.29500 0.75000 1.74000
v 0.29500 0.75000 0.94000
v -0.30500 0.75000 0.94000
# 28 verticies
vt 0.95019 0.39409
vt 0.93180 0.57143
vt 0.72337 0.57143
vt 0.70498 0.39409
vt 0.65558 0.95115
vt 0.82718 0.95115
vt 0.84698 0.80747
vt 0.63578 0.80747
vt 0.28145 0.81226
vt 0.32915 0.65094
vt 0.01567 0.65094
vt 0.06338 0.81226
vt 0.03612 0.56705
vt 0.30871 0.56705
vt 0.58601 0.81671
vt 0.44404 0.81671
vt 0.44404 0.66995
vt 0.60536 0.66995
vt 0.38596 0.84729
vt 0.36015 0.66995
vt 0.78887 0.74775
vt 0.93083 0.74775
vt 0.95019 0.60099
vt 0.78887 0.60099
vt 0.73079 0.77833
vt 0.70498 0.60099
vt 0.74789 0.36422
vt 0.70498 0.21434
vt 0.95019 0.21434
vt 0.90728 0.36422
vt 0.93180 0.15302
vt 0.72337 0.15302
vt 0.84138 0.12931
vt 0.95172 0.12931
vt 0.95172 0.11207
vt 0.84138 0.11207
vt 0.98621 0.80603
vt 0.98621 0.88362
vt 0.87586 0.88362
vt 0.87586 0.80603
vt 0.99138 0.11638
vt 0.99138 0.19397
vt 0.97414 0.19397
vt 0.97414 0.11638
vt 0.84138 0.09052
vt 0.95172 0.09052
vt 0.95172 0.01293
vt 0.84138 0.01293
vt 0.97414 0.09052
vt 0.99138 0.09052
vt 0.99138 0.01293
vt 0.97414 0.01293
vt 0.12414 0.83621
vt 0.12414 0.85345
vt 0.01379 0.85345
vt 0.01379 0.83621
vt 0.28879 0.98621
vt 0.36638 0.98621
vt 0.36638 0.87586
vt 0.28879 0.87586
vt 0.57328 0.87500
vt 0.57328 0.95259
vt 0.49569 0.95259
vt 0.49569 0.87500
vt 0.12414 0.87500
vt 0.12414 0.95259
vt 0.01379 0.95259
vt 0.01379 0.87500
vt 0.87500 0.98707
vt 0.95259 0.98707
vt 0.95259 0.90948
vt 0.87500 0.90948
vt 0.15172 0.91810
vt 0.26207 0.91810
vt 0.26207 0.84052
vt 0.15172 0.84052
vt 0.46983 0.87500
vt 0.46983 0.98621
vt 0.39224 0.98621
vt 0.39224 0.87586
# 80 texture verticies
vn 0.00000 0.13664 0.99062
vn 0.00000 0.12403 -0.99228
vn 0.00000 -1.00000 0.00000
vn 0.94927 0.13532 -0.28386
vn 0.99004 0.12832 0.05793
vn 0.98384 0.13442 -0.11824
vn 0.95173 0.15228 -0.26649
vn 0.96007 0.13325 0.24600
vn 0.96374 0.12709 0.23462
vn -0.98478 0.13600 -0.10819
vn -0.94139 0.15512 -0.29953
vn -0.94902 0.13735 -0.28370
vn -0.98931 0.12707 0.07159
vn -0.96310 0.12535 0.23815
vn -0.96603 0.13068 0.22293
vn 0.00000 1.00000 -0.00000
vn 0.00000 0.94285 -0.33321
vn 0.00000 0.98602 -0.16661
vn 0.00000 0.87416 -0.48564
vn 0.00000 0.00000 1.00000
vn 1.00000 0.00000 0.00000
vn 0.00000 -0.00000 -1.00000
vn -1.00000 0.00000 0.00000
# 23 normals
usemtl tank_enemy_01_top
f  2/1/1 6/2/1 5/3/1 1/4/1
f  8/5/2 7/6/2 3/7/2 4/8/2
f  3/9/3 10/10/3 9/11/3 4/12/3
f  1/13/3 9/11/3 10/10/3 2/14/3
f  7/15/4 11/16/5 10/17/6 3/18/7
f  11/16/5 6/19/8 2/20/9 10/17/6
f  12/21/10 8/22/11 4/23/12 9/24/13
f  5/25/14 12/21/10 9/24/13 1/26/15
f  8/27/16 12/28/17 11/29/18 7/30/16
f  6/31/19 11/29/18 12/28/17 5/32/19
f  16/33/3 15/34/3 14/35/3 13/36/3
f  14/37/20 18/38/20 17/39/20 13/40/20
f  15/41/21 19/42/21 18/43/21 14/44/21
f  20/45/22 19/46/22 15/47/22 16/48/22
f  17/49/23 20/50/23 16/51/23 13/52/23
f  18/53/16 19/54/16 20/55/16 17/56/16
f  24/57/3 23/58/3 22/59/3 21/60/3
f  22/61/20 26/62/20 25/63/20 21/64/20
f  23/65/21 27/66/21 26/67/21 22/68/21
f  28/69/22 27/70/22 23/71/22 24/72/22
f  25/73/23 28/74/23 24/75/23 21/76/23
f  26/77/16 27/78/16 28/79/16 25/80/16
