# 
# Wavefront OBJ file
# Converted by the DEEP Exploration Deep Exploration 5 5.0.2.1477 Release
# Right Hemisphere, LTD
# http://www.righthemisphere.com/
# 
mtllib portisland_tile_2.mtl
# object portisland_tile_2
g portisland_tile_2
v -10.00000 1.50000 10.00000
v 10.00000 1.50000 10.00000
v 10.00000 1.50000 -10.00000
v -10.00000 1.50000 -10.00000
v -10.00000 0.00000 10.00000
v 10.00000 0.00000 10.00000
v 10.00000 -0.00000 -10.00000
v -10.00000 -0.00000 -10.00000
# 8 verticies
vt 0.50926 0.04630
vt 0.50926 0.50926
vt 0.04630 0.50926
vt 0.04630 0.04630
vt 0.04630 0.58333
vt 0.50926 0.58333
vt 0.50926 0.63889
vt 0.04630 0.63889
vt 0.04630 0.69444
vt 0.50926 0.69444
vt 0.50926 0.75000
vt 0.04630 0.75000
vt 0.50926 0.86111
vt 0.50926 0.80556
vt 0.04630 0.80556
vt 0.04630 0.86111
vt 0.50926 0.97168
vt 0.50926 0.91667
vt 0.04630 0.91667
vt 0.04630 0.97222
# 20 texture verticies
vn 0.00000 1.00000 -0.00000
vn 0.00000 0.00000 1.00000
vn 1.00000 0.00000 0.00000
vn 0.00000 -0.00000 -1.00000
vn -1.00000 0.00000 0.00000
# 5 normals
usemtl portisland_tile_2
f  2/1/1 3/2/1 4/3/1 1/4/1
f  5/5/2 6/6/2 2/7/2 1/8/2
f  6/9/3 7/10/3 3/11/3 2/12/3
f  3/13/4 7/14/4 8/15/4 4/16/4
f  4/17/5 8/18/5 5/19/5 1/20/5
