# 
# Wavefront OBJ file
# Converted by the DEEP Exploration Deep Exploration 5 5.0.2.1477 Release
# Right Hemisphere, LTD
# http://www.righthemisphere.com/
# 
mtllib portisland_bridge_2.mtl
# object portisland_bridge_2
g portisland_bridge_2
v -1.00000 0.00000 1.00000
v 1.00000 0.00000 1.00000
v 1.00000 -0.00000 -1.00000
v -1.00000 -0.00000 -1.00000
v -1.00000 3.00000 1.00000
v 1.00000 3.00000 1.00000
v 1.00000 3.00000 -1.00000
v -1.00000 3.00000 -1.00000
v -1.00000 2.60000 1.00000
v 1.00000 2.60000 1.00000
v 1.00000 2.60000 -1.00000
v -1.00000 2.60000 -1.00000
v -1.00000 0.40000 1.00000
v 1.00000 0.40000 1.00000
v 1.00000 0.40000 -1.00000
v -1.00000 0.40000 -1.00000
v 0.60000 2.40000 0.60000
v -0.60000 2.40000 0.60000
v 0.60000 2.40000 -0.60000
v -0.60000 2.40000 -0.60000
v -0.60000 1.40000 0.60000
v 0.60000 1.40000 0.60000
v 0.60000 1.40000 -0.60000
v -0.60000 1.40000 -0.60000
# 24 verticies
vt 0.70000 0.56250
vt 0.70000 0.52083
vt 0.96667 0.52083
vt 0.96667 0.56250
vt 0.36667 0.56250
vt 0.36667 0.52083
vt 0.63333 0.52083
vt 0.63333 0.56250
vt 0.63333 0.43750
vt 0.36667 0.43750
vt 0.36667 0.47917
vt 0.63333 0.47917
vt 0.96667 0.43750
vt 0.70000 0.43750
vt 0.70000 0.47917
vt 0.96667 0.47917
vt 0.96667 0.03472
vt 0.96667 0.09259
vt 0.70000 0.09259
vt 0.70000 0.03472
vt 0.63333 0.03472
vt 0.63333 0.09259
vt 0.36667 0.09259
vt 0.36667 0.03472
vt 0.03333 0.45139
vt 0.03333 0.50926
vt 0.30000 0.50926
vt 0.30000 0.45139
vt 0.03333 0.03472
vt 0.03333 0.09259
vt 0.30000 0.09259
vt 0.30000 0.03472
vt 0.36667 0.61667
vt 0.42000 0.67000
vt 0.58000 0.67000
vt 0.63333 0.61667
vt 0.58000 0.83000
vt 0.63333 0.88333
vt 0.42000 0.83000
vt 0.36667 0.88333
vt 0.75333 0.38194
vt 0.75333 0.23727
vt 0.91333 0.23727
vt 0.91333 0.38194
vt 0.42000 0.38194
vt 0.42000 0.23727
vt 0.58000 0.23727
vt 0.58000 0.38194
vt 0.24667 0.79861
vt 0.24667 0.65394
vt 0.08667 0.65394
vt 0.08667 0.79861
vt 0.03333 0.50784
vt 0.24667 0.38194
vt 0.24667 0.23727
vt 0.08667 0.23727
vt 0.08667 0.38194
# 57 texture verticies
vn 0.00000 0.00000 1.00000
vn 1.00000 0.00000 0.00000
vn 0.00000 -0.00000 -1.00000
vn -1.00000 0.00000 0.00000
vn 0.00000 0.25163 0.96782
vn 0.00000 0.12581 0.99205
vn 0.96782 0.25163 -0.00000
vn 0.99205 0.12581 -0.00000
vn 0.00000 0.25163 -0.96782
vn 0.00000 0.12581 -0.99205
vn -0.96782 0.25163 -0.00000
vn -0.99205 0.12581 -0.00000
vn 0.00000 -0.89443 0.44721
vn 0.44721 -0.89443 0.00000
vn 0.00000 -0.89443 -0.44721
vn -0.44721 -0.89443 0.00000
# 16 normals
usemtl portisland_bridge_2
f  5/1/1 9/2/1 10/3/1 6/4/1
f  6/5/2 10/6/2 11/7/2 7/8/2
f  11/9/3 12/10/3 8/11/3 7/12/3
f  12/13/4 9/14/4 5/15/4 8/16/4
f  2/17/1 14/18/5 13/19/6 1/20/1
f  3/21/2 15/22/7 14/23/8 2/24/2
f  4/25/3 16/26/9 15/27/10 3/28/3
f  1/29/4 13/30/11 16/31/12 4/32/4
f  9/33/13 18/34/13 17/35/13 10/36/13
f  10/36/14 17/35/14 19/37/14 11/38/14
f  11/38/15 19/37/15 20/39/15 12/40/15
f  12/40/16 20/39/16 18/34/16 9/33/16
f  18/41/1 21/42/5 22/43/6 17/44/1
f  14/18/5 22/43/6 21/42/5 13/19/6
f  17/45/2 22/46/7 23/47/8 19/48/2
f  15/22/7 23/47/8 22/46/7 14/23/8
f  19/49/3 23/50/9 24/51/10 20/52/3
f  16/53/9 24/51/10 23/50/9 15/27/10
f  20/54/4 24/55/11 21/56/12 18/57/4
f  13/30/11 21/56/12 24/55/11 16/31/12
